<svg width="96" height="50" viewBox="0 0 96 50" fill="none" xmlns="http://www.w3.org/2000/svg">
<path d="M0 17C0 15.1362 0 14.2044 0.304482 13.4693C0.710458 12.4892 1.48915 11.7105 2.46927 11.3045C3.20435 11 4.13623 11 6 11H12C13.8638 11 14.7956 11 15.5307 11.3045C16.5108 11.7105 17.2895 12.4892 17.6955 13.4693C18 14.2044 18 15.1362 18 17V50H0V17Z" fill="#E7F7EF"/>
<path d="M26 35C26 33.1362 26 32.2044 26.3045 31.4693C26.7105 30.4892 27.4892 29.7105 28.4693 29.3045C29.2044 29 30.1362 29 32 29H38C39.8638 29 40.7956 29 41.5307 29.3045C42.5108 29.7105 43.2895 30.4892 43.6955 31.4693C44 32.2044 44 33.1362 44 35V50H26V35Z" fill="#E7F7EF"/>
<path d="M52 6C52 4.13623 52 3.20435 52.3045 2.46927C52.7105 1.48915 53.4892 0.710458 54.4693 0.304482C55.2044 0 56.1362 0 58 0H64C65.8638 0 66.7956 0 67.5307 0.304482C68.5108 0.710458 69.2895 1.48915 69.6955 2.46927C70 3.20435 70 4.13623 70 6V50H52V6Z" fill="#0CAF60"/>
<path d="M78 23C78 21.1362 78 20.2044 78.3045 19.4693C78.7105 18.4892 79.4892 17.7105 80.4693 17.3045C81.2044 17 82.1362 17 84 17H90C91.8638 17 92.7956 17 93.5307 17.3045C94.5108 17.7105 95.2895 18.4892 95.6955 19.4693C96 20.2044 96 21.1362 96 23V50H78V23Z" fill="#E7F7EF"/>
</svg>
