<svg width="60" height="18" viewBox="0 0 60 18" fill="none" xmlns="http://www.w3.org/2000/svg">
<path d="M7.00764 0.278419L6.82202 0.533637C6.69828 0.471766 6.53587 0.448568 6.34252 0.464035C6.14918 0.479503 5.93263 0.525906 5.70062 0.603245C6.16851 0.4331 6.55907 0.348026 6.86843 0.348026C6.88389 0.317091 6.89163 0.305492 6.89163 0.313226C6.89163 0.320959 6.89936 0.309354 6.91483 0.278419C6.94576 0.247483 6.9883 0.212685 7.04244 0.174016C7.09657 0.135347 7.14684 0.116009 7.19325 0.116009H8.29145L8.94496 0L11.6093 0.607109L12.5219 0.0464071C12.5683 0.0154717 12.6301 0.00387235 12.7075 0.0116062C12.7848 0.01934 12.8467 0.0386723 12.8931 0.0696076L13.1019 0.208817C13.1328 0.239752 13.1676 0.282289 13.2063 0.336426C13.245 0.390563 13.2643 0.440833 13.2643 0.487236L13.2875 1.65505L13.1251 5.16234C13.1251 5.25515 13.1328 5.35182 13.1483 5.45623C13.1638 5.55677 13.1715 5.64571 13.1715 5.72691C13.1715 5.81972 13.1367 5.90092 13.0671 5.97053C12.9975 6.04013 12.9163 6.07494 12.8235 6.07494H12.4484C12.2782 6.07494 12.1352 6.00533 12.0269 5.86612C11.9186 5.72692 11.8104 5.52197 11.6982 5.25902C11.6054 5.05794 11.4739 4.81819 11.2999 4.5475C11.1298 4.27682 10.9055 4.01773 10.6348 3.77798C10.3603 3.53823 10.0354 3.34102 9.65261 3.19408C9.26978 3.04714 8.81349 2.9814 8.28372 2.99686C8.08264 3.01233 7.86609 3.05487 7.64181 3.12447C7.41753 3.19408 7.19711 3.27915 6.9883 3.37969C6.77949 3.48023 6.58227 3.59624 6.4044 3.73158C6.22652 3.86306 6.08731 4.00227 5.9945 4.14148C5.91716 4.28068 5.83982 4.41989 5.76249 4.55137C5.68515 4.68284 5.63101 4.79112 5.60008 4.86846C5.53821 4.9922 5.4802 5.11981 5.42606 5.24355C5.37193 5.36729 5.30619 5.4949 5.22885 5.61864C5.22885 5.64958 5.22112 5.70371 5.20565 5.78105C5.19018 5.85839 5.16698 5.93573 5.13605 6.01306C5.10511 6.13681 5.06257 6.28375 5.00844 6.44616C4.9543 6.60857 4.8963 6.74778 4.83443 6.85606L4.90403 6.92566V7.13447C4.90403 7.41676 4.82669 7.70291 4.67201 8.00066C4.71842 8.21721 4.76869 8.43762 4.82282 8.65417C4.87696 8.87072 4.92723 9.09113 4.97363 9.30768C5.00457 9.66731 5.11671 10.1197 5.31392 10.665C5.50727 11.2102 5.77409 11.7361 6.11051 12.2427C6.44693 12.7492 6.85296 13.1862 7.33632 13.5536C7.81969 13.9209 8.36492 14.1027 8.97203 14.1027H9.53274C9.68741 14.0872 9.82662 14.0756 9.95423 14.0679C10.078 14.0601 10.2172 14.0485 10.3757 14.0331C10.5149 13.9712 10.6039 13.9287 10.6425 13.9055C10.6812 13.8822 10.7779 13.832 10.9364 13.7546C10.9055 13.6309 10.9326 13.5188 11.0176 13.4144C11.1027 13.3138 11.2071 13.279 11.3347 13.3099C11.4121 13.3254 11.4778 13.3409 11.5319 13.3563C11.5861 13.3718 11.6363 13.395 11.6827 13.426C11.6518 13.4105 11.6827 13.4028 11.7755 13.4028C11.8065 13.4028 11.88 13.3409 11.996 13.2171C12.112 13.0934 12.2318 12.9542 12.3595 12.7956C12.5296 12.5791 12.7036 12.3896 12.8738 12.2349C13.0439 12.0803 13.2179 12.0029 13.3881 12.0029C13.5582 12.0029 13.6819 12.0609 13.7515 12.1769C13.8212 12.2929 13.8598 12.436 13.8676 12.5984C13.8753 12.7608 13.8676 12.9387 13.8444 13.1243C13.8212 13.3099 13.8018 13.4685 13.7863 13.5922V14.6904C13.7863 14.8915 13.7167 15.1197 13.5775 15.3671C13.4383 15.6185 13.2179 15.8273 12.924 15.9975C12.8467 16.0284 12.7384 16.0903 12.5953 16.1831C12.4561 16.2759 12.3053 16.3687 12.1506 16.4654L11.7755 16.7244C11.4159 16.8791 10.8978 17.0067 10.221 17.0995C9.54434 17.1923 8.84442 17.2387 8.12904 17.2387C7.70755 17.2387 7.30152 17.2194 6.91483 17.1807C6.52427 17.1421 6.17625 17.0686 5.86303 16.9603C5.25592 16.7592 4.74162 16.5466 4.32012 16.33C3.89863 16.1135 3.51967 15.8621 3.18712 15.5837C2.85069 15.3014 2.53747 14.9843 2.23972 14.6247C1.94197 14.2651 1.62488 13.8358 1.28072 13.337C1.15698 13.1669 1.07578 13.0238 1.03711 12.9155C0.998439 12.8072 0.979105 12.7067 0.979105 12.61C0.979105 12.5791 0.967504 12.5404 0.944302 12.494C0.921101 12.4476 0.863097 12.3471 0.770291 12.1885C0.631082 11.9565 0.549876 11.7864 0.526675 11.6858C0.503473 11.5853 0.50734 11.4732 0.538276 11.3456C0.569211 11.2527 0.561477 11.129 0.515074 10.9705C0.437735 10.7539 0.383598 10.5374 0.352663 10.3285C0.321728 10.1197 0.290792 9.92639 0.259857 9.75625C0.228922 9.55517 0.20572 9.36955 0.190253 9.20714C0.174785 9.04473 0.136116 8.92486 0.074245 8.84365C0.0123743 8.76631 -0.0108274 8.68124 0.00464029 8.58457C0.020108 8.49176 0.0665109 8.41442 0.143849 8.35255C0.174785 8.32162 0.197986 8.20947 0.213454 8.01226C0.228922 7.81891 0.244389 7.59463 0.259857 7.34715C0.275325 7.03393 0.302393 6.70524 0.341062 6.35335C0.379732 6.00146 0.476405 5.69598 0.634949 5.42916L0.917234 4.86846C1.04098 4.62098 1.17632 4.35416 1.32713 4.07187C1.47407 3.78959 1.63261 3.52663 1.79503 3.27528C1.95744 3.0278 2.12758 2.80739 2.29772 2.62178C2.46787 2.43617 2.64961 2.31629 2.83523 2.26989C2.80429 2.31629 2.80429 2.36269 2.83523 2.4091C2.64961 2.42456 2.45627 2.54831 2.26292 2.78419C2.06958 3.0162 1.87623 3.29462 1.69062 3.61557C1.50501 3.93653 1.32713 4.25748 1.16472 4.58617C1.00231 4.91486 0.863097 5.18555 0.754823 5.40596C0.631082 5.62251 0.549876 5.89319 0.511207 6.21415C0.472538 6.5351 0.449336 6.84445 0.441602 7.14994C0.433869 7.45543 0.414534 7.72611 0.383599 7.96972C0.352663 8.20947 0.283059 8.37189 0.174785 8.44922C0.252123 8.5575 0.30626 8.70057 0.337195 8.87072C0.368131 9.04086 0.395199 9.22647 0.418401 9.41982C0.441602 9.61317 0.468671 9.82585 0.499606 10.0501C0.530542 10.2744 0.584678 10.491 0.662017 10.692C0.70842 10.8622 0.731622 10.9898 0.731622 11.0671C0.731622 11.1445 0.723888 11.2141 0.70842 11.2759C0.692952 11.3378 0.696819 11.4036 0.720021 11.4732C0.743222 11.5428 0.801226 11.6549 0.894032 11.8134C1.00231 11.9991 1.07191 12.1383 1.10285 12.2233C1.13378 12.3084 1.14925 12.378 1.14925 12.4322C1.14925 12.4863 1.16085 12.5482 1.18405 12.6178C1.20725 12.6874 1.27299 12.7918 1.38126 12.9349C1.77182 13.4801 2.09665 13.9287 2.36346 14.2805C2.63028 14.6324 2.9087 14.9302 3.20645 15.1815C3.5042 15.429 3.84836 15.6533 4.24665 15.8466C4.64495 16.04 5.16311 16.2411 5.80116 16.4422C6.17625 16.5659 6.62868 16.6432 7.15844 16.6742C7.68821 16.7051 8.22572 16.7051 8.77095 16.6742C9.31619 16.6432 9.83049 16.5852 10.3139 16.5002C10.7972 16.4151 11.1723 16.3184 11.4353 16.2063C11.5435 16.1444 11.7175 16.0361 11.9496 15.8776C12.1816 15.7229 12.3943 15.5953 12.5799 15.5025C12.8119 15.3633 12.9898 15.1931 13.1058 14.9998C13.2218 14.8064 13.272 14.6363 13.2566 14.4971V13.4221C13.2566 13.3912 13.2682 13.3099 13.2914 13.1785C13.3146 13.047 13.3301 12.9001 13.3378 12.7454C13.3455 12.5907 13.3417 12.4515 13.3262 12.3355C13.3107 12.2195 13.272 12.1615 13.2102 12.1615C13.1174 12.1615 13.0014 12.2349 12.8583 12.3819C12.7191 12.5288 12.5683 12.6912 12.4136 12.8614C12.2589 13.0315 12.1081 13.1939 11.9689 13.3409C11.8297 13.4878 11.7021 13.5613 11.5938 13.5613C11.5165 13.5613 11.4623 13.5574 11.4314 13.5497C11.4005 13.542 11.3734 13.5342 11.3502 13.5265C11.327 13.5188 11.2999 13.511 11.269 13.5033C11.238 13.4956 11.1839 13.484 11.1066 13.4685L11.2226 13.7508L10.2868 14.1955L9.37419 14.2651H8.79029C8.12131 14.2651 7.52194 14.0756 6.9999 13.6928C6.47787 13.3099 6.03317 12.8537 5.66581 12.3239C5.29846 11.7941 5.0123 11.2411 4.79962 10.665C4.59081 10.0888 4.46707 9.61317 4.43613 9.23807L4.10744 7.74158C4.20025 7.61784 4.26599 7.48636 4.30466 7.34329C4.34333 7.20408 4.36266 7.0726 4.36266 6.94499C4.36266 6.83672 4.36266 6.77098 4.36266 6.74778C4.36266 6.72458 4.35879 6.71298 4.35106 6.71298C4.34333 6.71298 4.33173 6.71298 4.31626 6.71298C4.30079 6.71298 4.27759 6.67431 4.24665 6.59697C4.33946 6.5351 4.4052 6.44229 4.44387 6.31468C4.48254 6.19094 4.51734 6.06333 4.54827 5.92799C4.57921 5.79652 4.60628 5.66891 4.62948 5.5413C4.65268 5.41756 4.68748 5.31702 4.73389 5.23581C4.88856 4.98833 5.02004 4.74085 5.12058 4.5011C5.22112 4.26135 5.34873 4.01387 5.50727 3.76638C5.61554 3.59624 5.76635 3.43383 5.96357 3.28688C6.15691 3.13994 6.37733 3.0046 6.61708 2.88859C6.85683 2.77258 7.10431 2.67591 7.35179 2.59471C7.59927 2.51737 7.84289 2.47096 8.07491 2.4555C8.93336 2.37816 9.61007 2.49417 10.1089 2.80739C10.6077 3.12061 10.9944 3.47637 11.2651 3.88239C11.5358 4.28842 11.7407 4.66737 11.8722 5.0154C12.0037 5.36729 12.1313 5.5413 12.2589 5.5413H12.634L12.5876 4.9574L12.75 1.4501L12.7268 0.30549L12.518 0.166281L11.327 0.889393L11.3502 0.773384L8.73228 0.166281L8.10197 0.282289H7.00764V0.278419ZM12.3865 1.07501C12.3711 1.13688 12.3479 1.23355 12.3169 1.36889C12.286 1.50037 12.2705 1.60477 12.2705 1.68598V2.03787L12.2937 2.62178L12.2705 2.97366L12.2937 3.55757L12.2705 3.90946C12.2705 4.0332 12.2821 4.10667 12.3053 4.12987C12.3285 4.15308 12.3556 4.20335 12.3865 4.28068H12.1545V4.4663C11.9844 4.37349 11.8684 4.23815 11.8142 4.0564C11.7601 3.87852 11.6479 3.66197 11.4739 3.41449C11.3347 3.19794 11.1839 3.04714 11.0292 2.9698C10.8746 2.89246 10.6851 2.79192 10.4685 2.66431C10.1244 2.44776 9.74542 2.28535 9.32392 2.18481C8.90243 2.08427 8.48867 2.07267 8.08264 2.15001C7.63021 2.22735 7.22032 2.32016 6.85682 2.4323C6.48947 2.54057 6.15305 2.75325 5.83983 3.06261C5.70062 3.20182 5.54981 3.36422 5.39513 3.5421C5.24045 3.71998 5.09351 3.90559 4.96203 4.0912C4.83056 4.27682 4.71068 4.45856 4.61014 4.62871C4.5096 4.79885 4.44387 4.9574 4.41293 5.0966C4.25825 5.70371 4.14225 6.17161 4.07264 6.5003C4.00304 6.82899 3.95663 7.11514 3.93343 7.36649C3.91023 7.61397 3.91023 7.88079 3.93343 8.16307C3.95663 8.44536 3.99144 8.82432 4.03784 9.30768C4.08424 9.80651 4.18865 10.2589 4.35493 10.665C4.51734 11.071 4.70295 11.4538 4.90403 11.8096C5.10511 12.1692 5.31006 12.525 5.51114 12.8846C5.71222 13.2442 5.87076 13.6232 5.97903 14.0292L5.74702 14.2612L5.07031 14.0524C5.08578 14.3347 5.18245 14.5396 5.36419 14.6711C5.54207 14.8026 5.75089 14.9109 5.9829 14.9882C6.21492 15.0655 6.44306 15.139 6.65961 15.2086C6.87616 15.2782 7.05017 15.3903 7.17391 15.5489H8.67041C9.01457 15.5489 9.41286 15.4986 9.87302 15.3981C10.3332 15.2975 10.774 15.1545 11.1955 14.965C11.617 14.7794 11.9766 14.5551 12.2705 14.2999C12.5644 14.0447 12.7307 13.7585 12.7616 13.4453H12.8776L12.9008 14.1452C12.9008 14.2999 12.9086 14.4043 12.924 14.4623C12.9395 14.5164 12.9356 14.5628 12.9124 14.6015C12.8892 14.6402 12.8428 14.6943 12.7732 14.7639C12.7036 14.8335 12.5915 14.9457 12.4329 15.1042C12.3092 15.2279 12.1313 15.3594 11.907 15.5025C11.6827 15.6417 11.4662 15.7538 11.2651 15.8312C11.1414 15.8776 10.979 15.9278 10.7856 15.982C10.5923 16.0361 10.3873 16.0941 10.1785 16.156C9.9697 16.2179 9.76862 16.2681 9.583 16.3068C9.39739 16.3455 9.24658 16.3648 9.13831 16.3648H7.17391C7.08111 16.3648 6.9303 16.3377 6.72922 16.2836C6.52814 16.2295 6.30772 16.1637 6.07571 16.0864C5.84369 16.0091 5.61554 15.9317 5.399 15.8544C5.18245 15.777 5.00844 15.7229 4.8847 15.692C4.77642 15.6765 4.61014 15.603 4.3936 15.4716C4.17705 15.3401 3.9605 15.1815 3.75169 15.0037C3.54287 14.8258 3.365 14.6479 3.22579 14.4778C3.08658 14.3076 3.04017 14.1568 3.08658 14.0331H2.73469L2.61868 13.1205L2.68828 13.0045L4.20798 14.0331L4.16158 14.1955L4.51347 13.8204C4.24665 13.6348 3.9953 13.3679 3.75169 13.0238C3.50807 12.6796 3.29539 12.3084 3.10978 11.9024C2.92417 11.4964 2.77336 11.0903 2.66508 10.6882C2.55681 10.2821 2.50267 9.92639 2.50267 9.61317C2.51814 9.58223 2.53361 9.54357 2.54907 9.49716C2.58001 9.41982 2.60321 9.38115 2.61868 9.38115L2.38666 9.14914L2.40987 8.09733L2.38666 7.74545L2.40987 7.16154L2.38666 6.69365H2.61868C2.57228 6.61631 2.53361 6.57764 2.50267 6.57764C2.50267 6.5467 2.50267 6.46936 2.50267 6.34562C2.50267 6.19094 2.57228 5.92413 2.71149 5.54903C2.85069 5.17394 3.02857 4.78725 3.23739 4.39282C3.4462 3.99453 3.67048 3.63877 3.9025 3.31782C4.13451 2.99686 4.33946 2.79965 4.5096 2.72232C4.60241 2.67591 4.73389 2.60244 4.9079 2.5019C5.07804 2.40136 5.26365 2.29309 5.457 2.17321C5.65035 2.05721 5.85143 1.94506 6.05251 1.83292C6.25359 1.72465 6.44306 1.64731 6.61321 1.60091C6.70602 1.58544 6.84522 1.56224 7.0347 1.5313C7.22032 1.50037 7.41753 1.4733 7.61861 1.4501C7.81969 1.42689 8.01303 1.40756 8.19091 1.39209C8.36879 1.37663 8.4848 1.36889 8.5312 1.36889H8.90629C9.01457 1.36889 9.18085 1.38823 9.40899 1.42689C9.63328 1.46556 9.86529 1.5197 10.0973 1.5893C10.3293 1.65891 10.5497 1.75559 10.7508 1.88319C10.9519 2.00694 11.0795 2.15001 11.1259 2.30469L11.6866 2.0224L11.8258 1.41529L12.3865 1.07501ZM10.8436 2.54831C10.8746 2.57924 10.9016 2.59857 10.9248 2.60631C10.948 2.61404 10.9751 2.63337 11.006 2.66431C11.006 2.64884 11.0022 2.63724 10.9944 2.62951C10.9867 2.62177 10.9828 2.61017 10.9828 2.59471C10.9364 2.47097 10.832 2.36656 10.6657 2.27762C10.5033 2.19254 10.3177 2.11908 10.1166 2.0572C9.91556 1.99533 9.71448 1.9528 9.52113 1.9296C9.32779 1.90639 9.18085 1.89479 9.08804 1.89479H8.71295C8.66654 1.89479 8.56214 1.90253 8.39586 1.918C8.23345 1.93346 8.0517 1.94893 7.85836 1.9644C7.66501 1.97986 7.47553 2.00307 7.29765 2.034C7.11978 2.06494 6.98057 2.08814 6.88776 2.10361C6.71762 2.15001 6.48947 2.25442 6.21105 2.4207C5.92876 2.58311 5.67355 2.73778 5.43766 2.87699C5.31392 2.95433 5.18245 3.03167 5.03937 3.10901C4.90016 3.18635 4.78802 3.24048 4.71068 3.27142C4.57148 3.33329 4.40133 3.5073 4.20798 3.79732C4.01464 4.08734 3.82516 4.40829 3.64728 4.76791C3.4694 5.12754 3.31859 5.47169 3.20258 5.80812C3.08658 6.14454 3.02857 6.38042 3.02857 6.51963V6.61244C3.04404 6.6279 3.05177 6.6395 3.05177 6.64724C3.05177 6.65497 3.05951 6.66658 3.07498 6.68204C3.15231 6.79032 3.17165 6.89472 3.13298 6.99913C3.09431 7.09967 3.02857 7.1654 2.93577 7.19634V7.33555L2.91257 7.91946L2.93577 8.27134L2.91257 9.16074L3.05177 9.29995C3.12911 9.39275 3.16392 9.48943 3.15618 9.59384C3.14845 9.69438 3.10591 9.77558 3.02857 9.83745C3.02857 10.1352 3.07884 10.4716 3.17938 10.8545C3.27992 11.2373 3.41527 11.6162 3.58928 11.9875C3.75942 12.3625 3.95663 12.7028 4.17318 13.0161C4.38973 13.3293 4.62561 13.5613 4.87309 13.716C4.9659 13.8088 5.02004 13.8861 5.03551 13.948C5.11284 13.8706 5.22112 13.8552 5.36419 13.9016L5.73928 14.0176C5.66195 13.7546 5.55754 13.5072 5.4222 13.2829C5.29072 13.0586 5.14378 12.8111 4.9891 12.5482C4.72228 12.1112 4.48254 11.6549 4.26599 11.1793C4.04944 10.7036 3.9141 10.1545 3.8677 9.53196C3.85223 9.45463 3.84449 9.36955 3.84449 9.27675C3.84449 9.18394 3.83676 9.1066 3.82129 9.04473C3.79036 8.79725 3.77102 8.5807 3.76329 8.40282C3.75555 8.22495 3.75169 8.04707 3.75169 7.87692C3.75169 7.70678 3.75942 7.53663 3.77489 7.37422C3.79036 7.21181 3.81743 7.0262 3.85609 6.82512C3.89476 6.62404 3.94503 6.38816 4.0069 6.12521C4.06878 5.86226 4.14611 5.54904 4.23892 5.18941C4.28532 5.03474 4.36266 4.85686 4.47093 4.66351C4.57921 4.47017 4.70295 4.27295 4.84603 4.0796C4.98524 3.88626 5.13991 3.68905 5.30232 3.4957C5.46473 3.30235 5.61941 3.13221 5.75862 2.993C6.10278 2.64884 6.46627 2.41683 6.85682 2.29309C7.24738 2.16935 7.69208 2.0688 8.19091 1.9876C8.64334 1.91026 9.10351 1.92573 9.5714 2.034C10.047 2.14228 10.4685 2.31242 10.8436 2.54831ZM6.35413 15.5953C6.02544 15.5025 5.71608 15.3749 5.41833 15.2086C5.12058 15.0462 4.95043 14.7446 4.90403 14.3076L4.59854 14.6363C4.4748 14.76 4.34333 14.791 4.20025 14.7291C4.06104 14.6672 3.99144 14.5512 3.99144 14.3772V14.354C3.9141 14.3076 3.84836 14.2612 3.79422 14.2148C3.74009 14.1684 3.67435 14.1297 3.59701 14.0988C3.62795 14.1761 3.62795 14.2612 3.59701 14.354C3.56608 14.4314 3.60861 14.5319 3.72462 14.6595C3.84063 14.7832 3.98757 14.9108 4.16932 15.0346C4.34719 15.1583 4.53281 15.2705 4.71842 15.3749C4.90403 15.4754 5.04711 15.5334 5.13991 15.5489C5.21725 15.5798 5.32166 15.6108 5.457 15.6417C5.58848 15.6726 5.72382 15.7113 5.86689 15.7577C6.16465 15.866 6.4624 15.9665 6.76789 16.0632C7.07337 16.156 7.27059 16.2024 7.36339 16.2024H9.32779C9.42059 16.2024 9.55594 16.1831 9.73768 16.1444C9.91556 16.1057 10.105 16.0593 10.2984 16.0052C10.4917 15.951 10.6851 15.8969 10.8707 15.8428C11.0563 15.7886 11.2148 15.7384 11.3386 15.692C11.5087 15.6301 11.6943 15.5373 11.8877 15.4097C12.081 15.2859 12.2434 15.1622 12.3672 15.0346L12.6495 14.7523C12.4175 14.9534 12.139 15.139 11.8181 15.3014C11.4971 15.4638 11.1646 15.6069 10.8127 15.7229C10.4608 15.8389 10.1205 15.9278 9.78408 15.9936C9.44766 16.0555 9.14218 16.0864 8.85989 16.0864H7.35953C7.32859 16.0864 7.28219 16.0709 7.22032 16.04C7.15844 16.0091 7.11204 15.9781 7.08111 15.9472C7.00377 15.8544 6.90323 15.7848 6.77562 15.7384C6.65188 15.6881 6.5088 15.6417 6.35413 15.5953ZM12.1081 2.4555C12.0772 2.48643 12.054 2.5019 12.0385 2.5019L11.4778 2.78419C11.4159 2.81512 11.3695 2.83059 11.3386 2.83059C11.4623 2.89246 11.5745 2.96593 11.6789 3.051C11.7794 3.13607 11.8761 3.25595 11.9728 3.41449C12.0037 3.44543 12.0308 3.48796 12.054 3.5421C12.0772 3.59624 12.1042 3.65424 12.1352 3.71611L12.112 3.15541L12.1352 2.80352L12.1081 2.4555Z" fill="#70708C"/>
<path d="M18.4653 4.76794L19.7027 4.90715C19.8265 4.90715 19.9348 4.89942 20.0314 4.88395C20.1242 4.86849 20.2325 4.86075 20.3601 4.86075H21.2727C21.2727 4.84528 21.2882 4.82982 21.3191 4.81435C21.35 4.78342 21.4042 4.76794 21.4815 4.76794C21.5589 4.76794 21.613 4.77568 21.6439 4.79114L21.9958 4.93035C22.1041 4.97676 22.1737 5.05023 22.2046 5.15077C22.2356 5.25131 22.2201 5.34798 22.1582 5.44466C21.9417 5.77334 21.7715 6.03243 21.6555 6.22964C21.5395 6.42299 21.4583 6.6086 21.4119 6.77875C21.3655 6.94889 21.3384 7.1345 21.3307 7.32785C21.323 7.5212 21.3191 7.79188 21.3191 8.13604V9.28064C21.3191 9.48172 21.3152 9.68667 21.3075 9.88775C21.2998 10.0888 21.2959 10.3015 21.2959 10.5181V12.061C21.2959 12.3278 21.2998 12.583 21.3075 12.8343C21.3152 13.0857 21.3191 13.3409 21.3191 13.6077C21.3191 13.7624 21.3152 13.9016 21.3075 14.0176C21.2998 14.1336 21.2959 14.238 21.2959 14.3347C21.2959 14.5513 21.2959 14.7291 21.2959 14.8606C21.2959 14.9921 21.3268 15.1274 21.3887 15.2705C21.4506 15.4097 21.5395 15.5799 21.6555 15.7732C21.7715 15.9666 21.9494 16.2372 22.1814 16.5814C22.2588 16.7051 22.2704 16.825 22.2162 16.9449C22.1621 17.0609 22.0577 17.1189 21.8991 17.1189L21.5241 17.1421C21.4467 17.2194 21.3616 17.2581 21.265 17.2581C21.1722 17.2581 21.0871 17.2194 21.0098 17.1421L20.917 17.0493C20.8087 17.0493 20.7159 17.057 20.6347 17.0725C20.5573 17.088 20.4645 17.0957 20.3524 17.0957H18.3648L17.3362 17.1189C17.1815 17.1189 17.0694 17.0609 17.0075 16.9449C16.9456 16.8289 16.9534 16.709 17.0307 16.5814L17.777 15.4136C17.7925 14.9921 17.8118 14.5706 17.835 14.153C17.8582 13.7315 17.8776 13.31 17.893 12.8885C17.893 12.5134 17.8969 12.1383 17.9046 11.7555C17.9124 11.3726 17.9162 10.9976 17.9162 10.6225V6.60087C17.7925 6.38432 17.6687 6.1639 17.5411 5.94736C17.4174 5.73081 17.2898 5.51039 17.166 5.29385C17.0887 5.1701 17.0848 5.0541 17.1544 4.94196C17.224 4.83369 17.3284 4.77954 17.4715 4.77954H18.4653V4.76794ZM18.0902 6.33405V10.4253L18.067 12.6913L17.951 15.3324L17.1544 16.5737L18.183 16.5505H20.1706L20.917 16.5041L21.0794 16.6897C21.0794 16.6742 21.1026 16.6549 21.149 16.6317C21.1954 16.6085 21.2263 16.5969 21.2418 16.5969L21.7097 16.5737C21.4119 16.1212 21.1992 15.7809 21.0678 15.5567C20.9363 15.3324 20.8473 15.1274 20.7971 14.9495C20.7507 14.7717 20.7352 14.5745 20.7507 14.3656C20.7661 14.1568 20.7739 13.8397 20.7739 13.4183C20.7739 12.8885 20.77 12.3742 20.7623 11.8753C20.7545 11.3765 20.7507 10.8622 20.7507 10.3324C20.7507 9.88001 20.7545 9.47012 20.7623 9.10663C20.77 8.73927 20.7739 8.35645 20.7739 7.95042C20.7739 7.57533 20.7777 7.28531 20.7855 7.07263C20.7932 6.86382 20.8241 6.66661 20.8783 6.48873C20.9324 6.31085 21.0175 6.1175 21.1374 5.91642C21.2534 5.71534 21.4313 5.43306 21.6633 5.07343L21.3114 4.93423C21.2186 4.9961 21.1528 5.03477 21.1142 5.05023C21.0755 5.0657 21.0446 5.06957 21.0214 5.06183C20.9982 5.0541 20.975 5.04637 20.9518 5.03863C20.9286 5.0309 20.886 5.02703 20.8241 5.02703H20.1706L19.4707 5.07343L18.2333 4.93423H17.2975L18.0902 6.33405ZM19.985 5.81975C20.016 5.81975 20.0856 5.79655 20.1938 5.75015C20.3021 5.70374 20.422 5.64961 20.5573 5.58774C20.6888 5.52586 20.8164 5.46399 20.944 5.40212C21.0678 5.34025 21.1683 5.29385 21.2495 5.26291C21.2031 5.43305 21.149 5.56066 21.0871 5.638C21.0252 5.71534 20.9595 5.79655 20.8899 5.88162C20.8203 5.96669 20.7545 6.0827 20.6927 6.23351C20.6308 6.38045 20.5921 6.61247 20.5767 6.92182V7.25051C20.5612 7.37425 20.5457 7.50572 20.5303 7.6372C20.5148 7.76867 20.5071 7.90015 20.5071 8.02389L20.5303 8.6542V9.35411L20.5071 10.4291H20.5767L20.4143 10.6611L20.5071 12.5791L20.5535 13.3525L20.5303 14.006V14.6827C20.5148 15.0114 20.5535 15.2628 20.6463 15.4406C20.7391 15.6185 20.9054 15.8892 21.1374 16.2488L20.5071 16.272L20.1784 16.2488H18.098L19.289 15.4522L19.4746 15.3362L19.4514 14.1916L19.4746 14.0988V13.3525L19.4978 6.1059L19.7801 5.89708L19.985 5.81975ZM20.0778 6.40752L20.0546 6.43072C20.0546 6.44619 20.0469 6.45392 20.0314 6.45392C20.0314 7.6372 20.0276 8.82048 20.0198 9.99602C20.0121 11.1716 20.0082 12.3548 20.0082 13.5381V14.2883L19.985 14.3811L20.0082 15.5257C20.0082 15.6649 19.9464 15.7693 19.8226 15.8312L19.637 15.9472H19.6602C19.6138 15.9936 19.5751 16.0168 19.5442 16.0168C19.5751 16.0014 19.5829 15.9975 19.5674 16.0052C19.5519 16.013 19.5055 16.04 19.4282 16.0864H20.364L20.6927 16.1096C20.5689 15.9085 20.48 15.7152 20.422 15.5373C20.3678 15.3594 20.3485 15.1352 20.364 14.8722V14.1955L20.3872 13.542L20.3408 12.7686C20.3253 12.4554 20.3098 12.1267 20.2944 11.7748C20.2789 11.4229 20.2634 11.0942 20.248 10.781L20.3408 10.5722C20.3408 10.4021 20.3446 10.228 20.3524 10.0579C20.3601 9.88775 20.364 9.71374 20.364 9.54359V8.84368L20.3408 8.21337C20.3408 8.12057 20.3446 8.01616 20.3524 7.89629C20.3601 7.78028 20.3717 7.6836 20.3872 7.6024C20.3872 7.57146 20.3911 7.5444 20.3988 7.5212C20.4065 7.49799 20.4104 7.47092 20.4104 7.43999V7.1113C20.4259 6.75167 20.4723 6.46553 20.5496 6.24511C20.3949 6.32245 20.275 6.36112 20.1977 6.36112L20.0778 6.40752Z" fill="#70708C"/>
<path d="M25.6926 5.09654C25.8627 5.01921 26.0367 4.95734 26.2069 4.91093C26.377 4.86453 26.5588 4.87226 26.7444 4.93414C26.7599 4.91867 26.7908 4.91093 26.8372 4.91093H28.3337C28.411 4.91093 28.4652 4.9264 28.4961 4.95734L28.5657 5.00374C28.674 5.00374 28.7784 4.996 28.8828 4.98054C28.9833 4.96507 29.0877 4.95734 29.1999 4.95734H30.5572C30.8047 4.9728 31.0985 5.01534 31.435 5.08494C31.7714 5.15455 32.1039 5.26669 32.4404 5.42524C32.7768 5.57991 33.0823 5.77712 33.3646 6.00914C33.6468 6.24115 33.8557 6.52344 33.9949 6.85212C34.1341 7.21175 34.223 7.5095 34.2617 7.75312C34.3004 7.99287 34.2578 8.27129 34.1341 8.58451C34.1031 8.64638 34.0915 8.69665 34.0993 8.73532C34.107 8.77399 34.1109 8.80879 34.1109 8.83972C34.1109 8.91706 34.1031 8.9944 34.0877 9.07174C34.0722 9.14908 34.0258 9.24962 33.9485 9.37722V9.35402C33.8093 9.58604 33.7164 9.73685 33.6662 9.79872V9.77552C33.6043 9.85286 33.5502 9.9302 33.5038 10.0075C33.4574 10.0849 33.4187 10.1777 33.3878 10.2898L33.2718 10.429C33.4419 10.5528 33.6004 10.6958 33.7397 10.8621C33.8789 11.0284 33.9987 11.1792 34.0915 11.3184C34.1689 11.4422 34.2346 11.562 34.2888 11.6819C34.3429 11.7979 34.3932 11.9023 34.4396 11.999C34.4705 12.0763 34.4976 12.1537 34.5208 12.231C34.544 12.3084 34.5633 12.378 34.5788 12.4398H34.4628C34.6329 12.5017 34.718 12.6177 34.718 12.7917V13.7971C34.718 13.9518 34.6832 14.1606 34.6136 14.4158C34.544 14.671 34.4512 14.9379 34.3313 15.2124C34.2153 15.487 34.0761 15.746 33.9098 15.9974C33.7474 16.2487 33.5772 16.4344 33.4071 16.5581C33.0011 16.8559 32.626 17.0299 32.2857 17.084C31.9415 17.1381 31.5626 17.1729 31.1411 17.1884C31.0173 17.1884 30.882 17.1923 30.7428 17.2C30.6036 17.2077 30.4528 17.2193 30.2981 17.2348L29.9694 17.2116H28.5889L28.0514 17.0956C27.9586 17.0956 27.8349 17.1111 27.6763 17.142C27.5526 17.1729 27.4327 17.1961 27.3244 17.2116C27.2162 17.2271 27.1079 17.2116 26.9957 17.1652C26.8875 17.2271 26.7715 17.2193 26.6439 17.142C26.551 17.2039 26.4737 17.2348 26.4118 17.2348L25.9903 17.2116C25.7429 17.2425 25.5766 17.2193 25.4992 17.142C25.4219 17.0647 25.36 16.9409 25.3136 16.7669C25.2827 16.736 25.2672 16.705 25.2672 16.6741C25.2672 16.6432 25.2595 16.6122 25.244 16.5813C25.2131 16.473 25.2208 16.3725 25.2672 16.2758C25.3136 16.183 25.3987 16.1289 25.5224 16.1134C25.6307 16.0979 25.7081 16.0631 25.7545 16.009C25.8009 15.9549 25.8473 15.8891 25.8937 15.8118V15.835C25.9401 15.7422 25.9826 15.661 26.0213 15.5914C26.0599 15.5218 26.1257 15.4483 26.2185 15.371C26.2185 15.108 26.2224 14.8605 26.2301 14.6362C26.2378 14.412 26.2417 14.1645 26.2417 13.9015L26.2881 11.9835V11.8907C26.2572 11.767 26.2378 11.6355 26.2301 11.4924C26.2224 11.3532 26.2185 11.1947 26.2185 11.0245C26.2185 10.808 26.2224 10.5721 26.2301 10.3246C26.2378 10.0771 26.2494 9.84125 26.2649 9.62471C26.2804 9.50097 26.2881 9.38883 26.2881 9.28442C26.2881 9.18388 26.2881 9.09494 26.2881 9.01374C26.2881 8.87453 26.2842 8.73145 26.2765 8.59224C26.2688 8.45303 26.2649 8.30996 26.2649 8.17075C26.2494 8.047 26.2417 7.90393 26.2417 7.73765C26.2417 7.57138 26.2417 7.42056 26.2417 7.28135C26.2417 7.08027 26.2108 6.89853 26.1489 6.74385C26.087 6.58917 25.9942 6.4229 25.8666 6.25276C25.7429 6.06714 25.6152 5.839 25.4915 5.57605L25.6926 5.09654ZM25.6423 5.23575C25.7506 5.4523 25.8511 5.63791 25.9478 5.78486C26.0406 5.9318 26.1218 6.07101 26.1914 6.19475C26.261 6.31849 26.3152 6.45383 26.3538 6.59304C26.3925 6.73225 26.4118 6.89853 26.4118 7.08414C26.4118 7.3819 26.4196 7.66805 26.435 7.95034C26.4505 8.23262 26.4582 8.51877 26.4582 8.81652C26.4582 8.95573 26.4466 9.18001 26.4234 9.48163C26.4002 9.78712 26.3848 10.0965 26.377 10.4174C26.3693 10.7384 26.377 11.0284 26.4002 11.2952C26.4234 11.562 26.4737 11.7245 26.551 11.7863H26.4621L26.4157 13.7043L26.3925 15.3632C26.2842 15.4406 26.1992 15.5256 26.1334 15.6184C26.0715 15.7112 26.0097 15.8041 25.9478 15.9007C25.8859 15.9935 25.8163 16.0747 25.739 16.1443C25.6617 16.2139 25.5456 16.2565 25.3871 16.2719C25.449 16.3957 25.4876 16.4962 25.5031 16.5774C25.5186 16.6548 25.6191 16.6857 25.8086 16.6702L26.2301 16.6934L26.3925 16.5078L26.6245 16.6702L26.7869 16.5078C26.8952 16.6625 27.046 16.7089 27.2432 16.647C27.4366 16.5852 27.6454 16.5542 27.8619 16.5542L28.4458 16.6702H29.7799L30.1086 16.6934C30.4064 16.6625 30.6809 16.647 30.94 16.647C31.1952 16.647 31.4388 16.6316 31.6631 16.6006C31.8874 16.5697 32.1117 16.5194 32.3282 16.4498C32.5448 16.3802 32.7729 16.2603 33.0049 16.0863C33.1596 15.9781 33.3104 15.8079 33.4496 15.5836C33.5888 15.3594 33.7164 15.1235 33.8247 14.8837C33.933 14.644 34.0181 14.4042 34.0799 14.1722C34.1418 13.9402 34.1727 13.7507 34.1727 13.6115V12.6061C34.0954 12.5906 34.0529 12.521 34.0451 12.3973C34.0374 12.2736 33.9949 12.115 33.9175 11.9294C33.8711 11.8366 33.8247 11.7399 33.7783 11.6355C33.7319 11.535 33.67 11.4228 33.5927 11.2952C33.469 11.0787 33.2872 10.8583 33.0552 10.6417C32.8232 10.4252 32.5796 10.2976 32.3321 10.2666L32.9392 9.89153C33.0011 9.67498 33.0745 9.52417 33.1596 9.44683C33.2447 9.36949 33.3414 9.22255 33.4535 9.00214C33.4999 8.90933 33.5308 8.83972 33.5463 8.79332C33.5618 8.74692 33.5695 8.70438 33.5695 8.66571C33.5695 8.62704 33.5695 8.58064 33.5695 8.5265C33.5695 8.47237 33.585 8.39116 33.6159 8.28289C33.7087 8.01607 33.7396 7.78405 33.7087 7.58297C33.6778 7.38189 33.6004 7.11508 33.4767 6.78639C33.3684 6.47317 33.1867 6.21795 32.9392 6.013C32.6878 5.81192 32.4133 5.64178 32.1078 5.5103C31.8023 5.37883 31.4968 5.28602 31.1836 5.22802C30.8704 5.17388 30.5997 5.13908 30.3638 5.12361H29.0065L28.2834 5.17002L28.1442 5.07721H26.6477V5.17002C26.4776 5.04628 26.3074 5.00761 26.145 5.05401C25.9826 5.09654 25.8163 5.15842 25.6423 5.23575ZM32.5641 7.43603C32.5641 7.3587 32.537 7.26202 32.4829 7.14214C32.4288 7.02614 32.3746 6.90239 32.3205 6.76705C32.2664 6.63558 32.2161 6.50797 32.1697 6.38036C32.1233 6.25662 32.1001 6.14835 32.1001 6.05168C32.1001 5.92793 32.1542 5.88153 32.2625 5.91247C32.3708 5.9434 32.4945 6.02074 32.6376 6.14448V6.23729C32.6376 6.26822 32.6608 6.34943 32.7072 6.4809C32.7536 6.61238 32.8077 6.74385 32.8696 6.8676C32.916 6.99134 32.9663 7.10347 33.0204 7.20788C33.0745 7.30842 33.1016 7.44763 33.1016 7.61778C33.1171 7.90006 33.1093 8.13981 33.0784 8.34089C33.0475 8.54197 33.0088 8.75465 32.9624 8.9712V8.948C32.9624 8.97893 32.9585 9.00214 32.9508 9.0176C32.9431 9.03307 32.9392 9.04854 32.9392 9.064C32.9237 9.07947 32.916 9.11041 32.916 9.15681C32.9315 9.14135 32.9547 9.13361 32.9856 9.13361C33.0475 8.96347 33.1093 8.75078 33.1712 8.5033C33.2331 8.25582 33.264 8.08954 33.264 8.0122V7.8962C33.264 7.64872 33.2369 7.40123 33.1828 7.16148C33.1287 6.92173 33.0629 6.71292 32.9856 6.54278C33.1093 6.71292 33.2138 6.9024 33.3027 7.10348C33.3878 7.30456 33.4303 7.5095 33.4303 7.71058V7.82659C33.4303 7.90393 33.411 8.0238 33.3723 8.19008C33.3336 8.35249 33.295 8.51877 33.2563 8.68118C33.2176 8.84359 33.1596 9.0524 33.0823 9.29989H32.8503C32.8812 9.37723 32.8619 9.4623 32.7923 9.55511C32.7227 9.64791 32.6337 9.74072 32.5254 9.83739C32.4172 9.93019 32.2934 10.0114 32.1619 10.081C32.0305 10.1506 31.9222 10.1931 31.8449 10.2086L33.0591 11.0284C33.2447 11.1985 33.4226 11.4808 33.585 11.8714C33.7474 12.262 33.8557 12.6138 33.9021 12.9232C33.9021 13.0005 33.9021 13.1127 33.9021 13.2635C33.9021 13.4104 33.8943 13.5728 33.8789 13.743C33.8634 13.9131 33.8402 14.0833 33.8093 14.2457C33.7783 14.4081 33.7396 14.5396 33.6932 14.6324C33.4458 15.1003 33.206 15.4522 32.9817 15.6842C32.7575 15.9162 32.5216 16.0825 32.2818 16.1753C32.0382 16.2681 31.7791 16.3183 31.4968 16.3261C31.2146 16.3338 30.8975 16.3454 30.5378 16.3609L29.602 16.3841H28.9717C28.7397 16.415 28.5 16.4228 28.2602 16.4073C28.0205 16.3918 27.773 16.3841 27.5255 16.3841C27.4636 16.3841 27.367 16.3918 27.2316 16.4073C27.1001 16.4228 26.9648 16.4305 26.8217 16.4305C26.6787 16.4305 26.551 16.4189 26.435 16.3957C26.319 16.3725 26.2456 16.33 26.2146 16.2681C26.261 16.2526 26.3461 16.2178 26.4737 16.1637C26.5974 16.1095 26.7289 16.0554 26.872 16.0013C27.0112 15.9471 27.1349 15.893 27.2471 15.8389C27.3554 15.7847 27.4172 15.7499 27.4327 15.7344C27.51 15.6726 27.5603 15.5952 27.5835 15.5024C27.6067 15.4096 27.6183 15.313 27.6183 15.2085C27.6183 15.108 27.6106 15.0075 27.5951 14.9031C27.5796 14.8025 27.5719 14.7213 27.5719 14.6594C27.5719 14.2998 27.5835 13.9634 27.6067 13.6424C27.6299 13.3215 27.6415 12.9619 27.6415 12.5558V10.8737L28.295 10.8969L28.5038 10.8041C28.4265 10.8505 28.3685 10.9124 28.3298 10.9897C28.2912 11.0671 28.3337 11.1444 28.4574 11.2217C28.4265 11.1444 28.4188 11.0671 28.4342 10.9897C28.4497 10.9124 28.4806 10.8505 28.527 10.8041C28.558 10.8351 28.5696 10.8544 28.5618 10.8621C28.5541 10.8699 28.5464 10.8737 28.5386 10.8737C28.5309 10.8737 28.5386 10.8737 28.5618 10.8737C28.585 10.8737 28.6353 10.8737 28.7127 10.8737H28.9717L29.37 10.8505L29.602 10.8737C29.8959 10.8737 30.1937 10.8235 30.4914 10.7229C30.7892 10.6224 31.0637 10.4832 31.3228 10.3014C31.578 10.1235 31.8023 9.91086 31.9879 9.67111C32.1735 9.43137 32.3166 9.16068 32.4094 8.86293C32.4558 8.61545 32.4984 8.37956 32.537 8.16301C32.568 7.9426 32.5796 7.69898 32.5641 7.43603ZM29.5479 6.40743L29.3855 6.29142L28.8016 6.50024L28.7088 7.48243V8.13595L28.6856 9.79485C28.5928 9.93406 28.5116 10.0385 28.442 10.1119C28.3724 10.1815 28.2989 10.2396 28.2216 10.286C28.1442 10.3324 28.063 10.371 27.9779 10.402C27.8929 10.4329 27.7807 10.4793 27.6376 10.5412V8.71598H27.8001L27.6144 8.48397L27.6609 6.82506L27.7305 5.84286C28.0591 5.9202 28.3878 5.94727 28.7243 5.92407C29.0607 5.90086 29.4048 5.88927 29.7645 5.88927C30.1241 5.88927 30.4953 5.92794 30.8859 6.00527C31.2764 6.08261 31.6824 6.26049 32.1001 6.54278L31.9145 6.87146L32.1001 6.89466C31.8835 7.20788 31.6322 7.32389 31.3538 7.24655C31.0715 7.16921 30.824 6.96427 30.6036 6.63945L29.5479 6.40743ZM32.7768 13.2093C32.7613 12.9619 32.7381 12.7298 32.7072 12.521C32.6762 12.3122 32.5293 12.0647 32.2625 11.7863C32.1078 11.6316 31.9763 11.5118 31.8758 11.4228C31.7753 11.3378 31.6786 11.2681 31.5819 11.214C31.4891 11.1599 31.3847 11.1057 31.2648 11.0516C31.1488 10.9975 31.0096 10.9163 30.8549 10.808L30.7621 11.04L31.2532 11.4383L31.3228 11.7438L31.1604 11.8598C30.9129 11.7361 30.6848 11.6123 30.4837 11.4847C30.2826 11.361 30.0467 11.2991 29.7838 11.2991H29.3623C29.2386 11.2991 29.1109 11.3223 28.9872 11.3687C28.8635 11.4151 28.7397 11.477 28.6121 11.5543V14.8528L27.8387 15.4599L27.8155 15.3671L27.7227 15.6958C28.2216 15.9935 28.7436 16.1482 29.2888 16.1637C29.8341 16.1791 30.3174 16.1482 30.7389 16.0709C31.4079 15.9162 31.9222 15.5875 32.2818 15.0887C32.6414 14.5898 32.8039 14.0755 32.7729 13.5458V13.2093H32.7768ZM28.121 15.1041C28.1674 15.0732 28.2138 15.0345 28.2602 14.9881C28.3066 14.9417 28.3685 14.8953 28.4458 14.8489V11.7399C28.4458 11.6935 28.4652 11.6394 28.5038 11.5775C28.5425 11.5156 28.585 11.4692 28.6314 11.4383L28.6546 11.4151C28.6392 11.4151 28.6237 11.4074 28.6082 11.3919C28.5773 11.4228 28.5464 11.4383 28.5154 11.4383H28.1636V12.7492C28.1636 12.9657 28.1597 13.1707 28.152 13.3563C28.1442 13.5419 28.1326 13.7236 28.1171 13.8938C28.1017 14.0639 28.0939 14.2263 28.0939 14.3733C28.0939 14.5202 28.0939 14.6826 28.0939 14.8528C28.0939 14.8837 28.0978 14.9147 28.1055 14.9456C28.1133 14.9765 28.1171 15.0075 28.1171 15.0384V15.1041H28.121ZM28.6353 6.66265C28.6353 6.61625 28.6585 6.55437 28.7049 6.47703C28.6276 6.47703 28.5502 6.47703 28.4729 6.47703C28.3956 6.47703 28.3182 6.4693 28.2409 6.45383C28.2254 6.54664 28.2177 6.64332 28.2177 6.74772C28.2177 6.84826 28.21 6.94493 28.1945 7.04161C28.1945 7.30842 28.1868 7.56364 28.1713 7.81499C28.1558 8.06634 28.1481 8.32156 28.1481 8.58837C28.21 8.65025 28.2486 8.69665 28.2641 8.72758C28.3878 8.94413 28.3569 9.11041 28.1713 9.21868V10.2241C28.2177 10.1931 28.268 10.1622 28.3221 10.1313C28.3762 10.1003 28.442 10.0307 28.5193 9.92246C28.5193 9.65951 28.5232 9.39269 28.5309 9.12588C28.5386 8.85906 28.5425 8.59611 28.5425 8.32929V7.67578L28.6353 6.66265ZM29.2927 10.0075C29.138 10.0075 29.0104 9.94567 28.9176 9.82192C28.8248 9.69818 28.8557 9.57444 29.0104 9.44683L28.8712 9.23801L28.9872 9.19161L28.9408 8.72372L29.0104 8.13981L28.964 7.4863L29.1496 6.55051L29.3816 6.66651L29.4512 6.55051L30.5958 6.9256C30.6422 7.04934 30.7119 7.18855 30.8047 7.33549C30.8975 7.48243 30.9671 7.62165 31.0135 7.74539C31.0599 7.86913 31.0753 8.00061 31.0599 8.13208C31.0444 8.26356 31.0444 8.39503 31.0599 8.51877C31.0599 8.84746 30.9787 9.09881 30.8163 9.28055C30.6538 9.45843 30.4682 9.69818 30.2672 9.99207C29.9694 9.99207 29.7761 9.99594 29.6833 10.0037C29.5943 10.0037 29.4628 10.0075 29.2927 10.0075ZM29.5247 15.2666C29.4628 15.2666 29.3507 15.2201 29.1844 15.1273C29.022 15.0345 28.9137 14.9727 28.8673 14.9417L28.9137 13.1397L28.8673 13.0237C28.8673 12.7917 28.8751 12.6061 28.8905 12.4746C28.906 12.3432 28.9833 12.1653 29.1225 11.9487H28.8673L28.9369 11.6664L29.8727 11.504L30.7389 11.9023L31.0676 12.2542C31.0676 12.2697 31.0869 12.3432 31.1256 12.4746C31.1643 12.6061 31.2068 12.7608 31.2532 12.9309C31.2996 13.1011 31.3383 13.2751 31.3692 13.4452C31.4002 13.6154 31.4079 13.7584 31.3924 13.8667C31.3924 13.9131 31.3692 14.0098 31.3228 14.1606C31.2764 14.3076 31.2146 14.4661 31.1372 14.6285C31.0599 14.7909 30.9632 14.9417 30.8433 15.0732C30.7273 15.2047 30.5997 15.2704 30.4566 15.2704H29.5247V15.2666ZM30.6461 15.1041C30.7389 15.1041 30.8201 15.0539 30.8897 14.9533C30.9593 14.8528 31.0173 14.7368 31.0637 14.6014C31.1101 14.47 31.1488 14.3462 31.1797 14.2263C31.2107 14.1103 31.2262 14.0369 31.2262 14.0059C31.2571 13.8822 31.2416 13.7004 31.1797 13.4684C31.1179 13.2364 31.0637 13.0315 31.0173 12.8613H30.9941C30.9632 12.7685 30.9439 12.7144 30.9361 12.6989C30.9284 12.6834 30.9245 12.668 30.9245 12.6525C30.8936 12.6216 30.8549 12.579 30.8085 12.5249C30.7621 12.4708 30.7235 12.4282 30.6925 12.3973C30.5688 12.3354 30.4489 12.2735 30.3406 12.2117C30.2324 12.1498 30.1163 12.0957 29.9887 12.0493C29.9114 12.0647 29.8534 12.0802 29.8147 12.0957C29.7761 12.1111 29.7335 12.1266 29.6871 12.1421C29.6871 12.2039 29.6639 12.2658 29.6175 12.3277C29.5092 12.4978 29.4474 12.6332 29.4319 12.726C29.4164 12.8188 29.4087 12.9503 29.4087 13.1243V13.2171L29.4551 13.3331L29.4087 14.9456C29.4706 14.9765 29.5286 15.0113 29.5827 15.05C29.6368 15.0887 29.6794 15.108 29.7103 15.108H30.6461V15.1041ZM29.8302 9.84126C29.9075 9.84126 29.9578 9.83739 29.981 9.82966C30.0042 9.82193 30.1009 9.81805 30.2749 9.81805C30.3058 9.77165 30.3445 9.72138 30.3909 9.66724C30.4373 9.61311 30.476 9.57058 30.5069 9.53964C30.5997 9.4159 30.6887 9.28442 30.7737 9.14134C30.8588 9.00213 30.9013 8.85133 30.9013 8.69665V8.43757C30.9013 8.36023 30.9013 8.28675 30.9013 8.21715C30.9013 8.14754 30.8936 8.09727 30.8781 8.06634C30.8472 7.989 30.7931 7.873 30.7157 7.71445C30.6384 7.60618 30.5688 7.4979 30.5069 7.38576C30.3832 7.35483 30.2633 7.31616 30.1434 7.26975C30.0274 7.22335 29.9075 7.17695 29.7799 7.13054C29.749 7.14601 29.6871 7.16922 29.5943 7.20015C29.5788 7.27749 29.5634 7.35482 29.5479 7.43216C29.5324 7.5095 29.517 7.58684 29.5015 7.66418C29.5015 7.75699 29.5092 7.873 29.5247 8.01607C29.5402 8.15528 29.5479 8.27515 29.5479 8.36796L29.4783 8.95187C29.4783 9.0292 29.486 9.09881 29.5015 9.16068C29.517 9.22255 29.5247 9.29216 29.5247 9.36949C29.5247 9.40043 29.5208 9.42363 29.5131 9.4391C29.5054 9.45456 29.5015 9.47004 29.5015 9.4855C29.5634 9.62471 29.5556 9.74072 29.4783 9.83739H29.8302V9.84126ZM31.8178 6.87533C31.6631 6.79799 31.5123 6.73225 31.3731 6.67811C31.2339 6.62398 31.0908 6.58144 30.9516 6.55051L31.0908 6.64331C31.2764 6.95653 31.4814 7.11121 31.6979 7.11121C31.7443 7.11121 31.783 7.10347 31.8139 7.08801C31.7985 7.0416 31.7907 6.97974 31.7907 6.9024L31.8178 6.87533ZM33.3143 13.7004C33.3452 14.1374 33.264 14.5705 33.0707 14.9997C32.8773 15.429 32.5757 15.7924 32.1697 16.0863C32.4172 16.009 32.653 15.8698 32.8696 15.6648C33.0861 15.4638 33.322 15.1273 33.5695 14.6594C33.6159 14.5821 33.6507 14.47 33.6739 14.3192C33.6971 14.1722 33.7165 14.0214 33.7319 13.8745C33.7474 13.7275 33.7513 13.5806 33.7435 13.4414C33.7358 13.3022 33.7319 13.2016 33.7319 13.1359V13.1591C33.6855 12.8923 33.6004 12.5945 33.4767 12.2581C33.353 11.9217 33.2099 11.678 33.0552 11.5234C32.8696 11.3996 32.6646 11.2643 32.4481 11.1135C32.2316 10.9665 32.0266 10.8312 31.841 10.7036C31.8101 10.7036 31.7946 10.6958 31.7946 10.6804C31.6708 10.7732 31.578 10.8351 31.5123 10.866C31.6515 10.9433 31.7366 10.9897 31.7714 11.0052C31.9106 11.0825 32.0459 11.1637 32.1813 11.2488C32.3128 11.3339 32.4906 11.4924 32.7072 11.7283C32.9895 12.0415 33.1557 12.3084 33.2099 12.5365C33.264 12.7608 33.2988 13.0083 33.3143 13.2712V13.7004Z" fill="#70708C"/>
<path d="M41.052 4.98053C41.1603 5.01147 41.284 4.98053 41.4271 4.88772C41.4581 4.85679 41.5122 4.84132 41.5895 4.84132C41.6669 4.84132 41.721 4.85679 41.7519 4.88772L42.0574 5.07334C42.2121 5.13521 42.274 5.24348 42.243 5.40203L42.1734 6.07874C42.2353 6.24888 42.2585 6.46543 42.243 6.72065C42.2276 6.97973 42.2044 7.26202 42.1734 7.57524C42.127 8.07407 42.1038 8.56517 42.1038 9.04854C42.1038 9.24962 42.1077 9.42749 42.1154 9.57444C42.1232 9.72138 42.1425 9.81418 42.1734 9.84512C42.2198 9.90699 42.2469 9.98047 42.2546 10.0655C42.2624 10.1506 42.243 10.2241 42.1966 10.2859C42.1657 10.3324 42.1425 10.5102 42.127 10.8235C42.1116 11.1367 42.1038 11.4692 42.1038 11.8289V12.7878C42.1812 13.0701 42.2198 13.2519 42.2198 13.3369C42.2198 13.422 42.2198 13.5032 42.2198 13.5806C42.2044 13.6579 42.2082 13.7584 42.2314 13.8861C42.2546 14.0098 42.3436 14.2302 42.4983 14.5396C42.5756 14.7097 42.7032 14.8257 42.885 14.8799C43.0628 14.934 43.3258 14.9688 43.6699 14.9843C43.6699 14.6246 43.6777 14.265 43.6931 13.8977C43.7086 13.5303 43.7163 13.1707 43.7163 12.811L43.6699 11.4306L43.6467 11.3378L43.6931 10.5876V6.94106C43.6777 6.70905 43.639 6.5389 43.5771 6.43836C43.5153 6.33782 43.4302 6.22568 43.3219 6.09807C43.2446 6.0362 43.1788 5.97433 43.1247 5.91246C43.0706 5.85059 43.0048 5.76552 42.9275 5.65724C42.8811 5.59537 42.8579 5.52577 42.8579 5.44843C42.8579 5.37109 42.8733 5.30149 42.9043 5.23962L43.0667 5.0308C43.1131 4.95347 43.1827 4.91093 43.2755 4.9032C43.3683 4.89546 43.4534 4.90706 43.5346 4.938L43.6506 5.0076C43.7743 5.0076 43.8903 4.99986 44.0025 4.9844C44.1108 4.96893 44.219 4.9612 44.3312 4.9612L44.6599 4.9844H44.9886L45.6653 4.9612H46.342L46.6011 4.9844C46.6475 4.93799 46.6861 4.90706 46.7171 4.89159C46.7944 4.82972 46.8795 4.81039 46.9723 4.83359C47.0651 4.85679 47.1424 4.90706 47.2043 4.9844C47.2816 5.10814 47.3358 5.20868 47.3667 5.28989C47.3976 5.36723 47.4131 5.4987 47.4131 5.68818V7.58297L47.3667 13.4066C47.3667 13.453 47.3706 13.48 47.3783 13.4878C47.386 13.4955 47.3899 13.5071 47.3899 13.5226C47.4054 13.6154 47.3822 13.7159 47.3203 13.8281C47.3203 13.8435 47.328 13.8513 47.3435 13.8513C47.3744 13.9441 47.3744 14.0446 47.3435 14.1567C47.3435 14.1722 47.3474 14.1877 47.3551 14.2031C47.3628 14.2186 47.3667 14.2341 47.3667 14.2495V15.3477C47.4286 15.4406 47.5059 15.5527 47.5987 15.688C47.6915 15.8195 47.7843 15.9549 47.881 16.0863C47.9738 16.2178 48.0976 16.388 48.2561 16.589C48.3798 16.7128 48.4108 16.8442 48.3489 16.9873C48.287 17.1265 48.171 17.1961 47.997 17.1961L47.3435 17.2193H45.1007C45.0079 17.2503 44.9112 17.2657 44.8068 17.2657C44.7063 17.2657 44.6173 17.2657 44.5361 17.2657C44.5052 17.2657 44.4859 17.2619 44.4781 17.2541C44.4704 17.2464 44.4511 17.2425 44.4201 17.2425C44.3892 17.2425 44.3621 17.2464 44.3389 17.2541C44.3157 17.2619 44.2886 17.2657 44.2577 17.2657C44.134 17.2657 44.0025 17.2464 43.8594 17.2077C43.7202 17.1691 43.6351 17.0801 43.6042 16.9409C43.291 17.0337 43.0048 17.0879 42.738 17.1033C42.4712 17.1188 42.1618 17.1265 41.8022 17.1265C41.3807 17.1265 41.0211 17.0531 40.7272 16.9061C40.4295 16.7592 40.1742 16.6122 39.9538 16.473C39.8765 16.4266 39.8146 16.3841 39.7682 16.3454C39.7218 16.3067 39.6909 16.2874 39.6754 16.2874C39.5981 16.2874 39.5246 16.2526 39.455 16.183C39.3854 16.1134 39.3428 16.0399 39.3274 15.9626C39.3119 15.9007 39.2848 15.835 39.2462 15.7654C39.2075 15.6958 39.1727 15.6378 39.1418 15.5914C39.0954 15.5295 39.0451 15.4599 38.991 15.3826C38.9368 15.3052 38.8943 15.2279 38.8634 15.1505C38.8634 15.1196 38.8556 15.0539 38.8402 14.9533C38.8247 14.8528 38.8053 14.7445 38.7821 14.6246C38.7589 14.5086 38.7396 14.3926 38.7241 14.2727C38.7087 14.1567 38.7009 14.0678 38.7009 14.0021C38.67 13.77 38.6507 13.5303 38.6429 13.2905C38.6352 13.0508 38.6159 12.7414 38.5849 12.3664V8.39116C38.5695 8.22102 38.5695 8.05087 38.5849 7.88846C38.6004 7.72605 38.6236 7.57137 38.6545 7.43216C38.67 7.27748 38.6893 7.12281 38.7125 6.97587C38.7357 6.82892 38.7319 6.69358 38.7009 6.56597C38.5463 6.5505 38.4496 6.44223 38.4187 6.23728C38.4187 6.17541 38.3955 6.12127 38.3491 6.07487C38.3026 6.02847 38.2485 5.9898 38.1866 5.95886C38.1248 5.91246 38.0668 5.86992 38.0126 5.83125C37.9585 5.79258 37.9005 5.73458 37.8386 5.65724C37.7613 5.5335 37.7458 5.41749 37.7922 5.30535C37.8386 5.19708 37.9314 5.12748 38.0745 5.09654L38.9639 4.95733L39.687 4.98053H40.3405L41.0172 5.00373H41.052V4.98053ZM40.1394 5.11974H39.4859L38.8092 5.09654L37.9198 5.23575C38.0126 5.37496 38.1364 5.47936 38.2949 5.54123C38.4496 5.60311 38.5424 5.75779 38.5772 6.00914H38.7396C38.8324 6.17928 38.8827 6.35329 38.8904 6.52344C38.8982 6.69358 38.8866 6.87146 38.8556 7.04934C38.8247 7.22722 38.7937 7.41283 38.7628 7.59844C38.7319 7.78405 38.7241 7.97353 38.7396 8.15914V12.1343C38.7705 12.5404 38.7899 12.8497 38.7976 13.0701C38.8053 13.2867 38.8247 13.5226 38.8556 13.77C38.8556 13.801 38.8634 13.8667 38.8788 13.9673C38.8943 14.0678 38.9098 14.1799 38.9252 14.3075C38.9407 14.4313 38.96 14.5434 38.9832 14.6478C39.0064 14.7484 39.018 14.8141 39.018 14.845C39.0644 14.9843 39.1495 15.1235 39.2771 15.2549C39.4009 15.3864 39.4705 15.5488 39.4859 15.7344C39.5787 15.7344 39.687 15.7808 39.8146 15.8736C39.9384 15.9665 40.0853 16.0631 40.2593 16.1675C40.4295 16.2681 40.6267 16.3609 40.8432 16.4498C41.0598 16.5349 41.3188 16.5774 41.6166 16.5774C42.0226 16.5774 42.3784 16.5658 42.68 16.5426C42.9855 16.5194 43.3296 16.4228 43.7202 16.2487C43.7202 16.562 43.7589 16.7128 43.8362 16.705C43.9136 16.6973 44.045 16.6934 44.2345 16.6934C44.3582 16.6934 44.4897 16.7012 44.6328 16.7166C44.772 16.7321 44.888 16.678 44.9847 16.5542V16.6702H47.1579L47.8114 16.647C47.6258 16.3841 47.4711 16.1675 47.3551 16.0051C47.2391 15.8427 47.1308 15.6803 47.0264 15.5256C46.9259 15.371 46.8601 15.2665 46.8292 15.2201V14.0523H46.7132L46.8524 13.8203L46.7364 13.6347C46.7828 13.5574 46.8137 13.5032 46.8292 13.4723C46.8447 13.4414 46.8524 13.4143 46.8524 13.3911C46.8524 13.3679 46.8485 13.3486 46.8408 13.3331C46.8331 13.3176 46.8292 13.2789 46.8292 13.2171L46.8524 8.30609L46.8756 7.39349V5.4987C46.8756 5.37496 46.864 5.28215 46.8408 5.21641C46.8176 5.15454 46.7751 5.0772 46.7132 4.9844L46.5044 5.14681L46.1525 5.12361H45.4758L44.7991 5.14681H44.4704L44.1417 5.12361L43.3954 5.17001L43.1634 5.0308L43.001 5.23962C43.1866 5.42523 43.3374 5.57217 43.4457 5.67271C43.5539 5.77325 43.6351 5.86219 43.6893 5.9434C43.7434 6.02074 43.7821 6.11741 43.8053 6.23728C43.8285 6.35329 43.8478 6.52344 43.8633 6.73998V10.4097L43.8169 11.156L43.8401 11.2488L43.8865 12.6293L43.8401 15.1544H43.7241C43.2098 15.1544 42.8269 15.1157 42.5795 15.0384C42.332 14.9611 42.1425 14.7909 42.0188 14.5241C41.8796 14.2109 41.7906 13.9827 41.7519 13.8358C41.7133 13.6888 41.6939 13.569 41.6939 13.4839C41.6939 13.3988 41.6978 13.3176 41.7055 13.2403C41.7133 13.1629 41.6939 13.0469 41.6475 12.8884C41.6166 12.8265 41.5973 12.6525 41.5895 12.3625C41.5818 12.0725 41.5779 11.7592 41.5779 11.4151C41.5779 11.0709 41.5934 10.7538 41.6243 10.4561C41.6553 10.1622 41.6939 9.97273 41.7403 9.89539C41.6321 9.74072 41.5779 9.45456 41.5779 9.0408C41.5779 8.62704 41.5934 8.19781 41.6243 7.75311C41.6553 7.30842 41.6823 6.90626 41.7055 6.5505C41.7287 6.19088 41.7094 5.9898 41.6475 5.9434L41.7171 5.19708L41.4117 5.01147C41.3343 5.05787 41.2376 5.09654 41.1178 5.12748C41.0018 5.15841 40.9051 5.16615 40.8239 5.15068L40.1394 5.11974ZM40.0698 10.4058C40.1317 10.313 40.1742 10.1467 40.1974 9.90312C40.2206 9.66337 40.2322 9.40429 40.2322 9.12974C40.2322 8.85905 40.2284 8.59224 40.2206 8.33315C40.2129 8.07794 40.209 7.88459 40.209 7.76085V6.42676C40.209 6.19475 40.2168 6.0362 40.2322 5.95886C40.2477 5.88152 40.2825 5.82352 40.3366 5.78485C40.3908 5.74618 40.4759 5.71138 40.5919 5.68044C40.7079 5.64951 40.8703 5.56444 41.0714 5.42136H41.4001L41.3536 6.31075L41.3304 6.66265V6.91786L41.284 10.1661L41.1448 10.3981C41.2222 10.5218 41.2763 10.7345 41.3072 11.0284C41.3382 11.3261 41.3575 11.6394 41.3652 11.9758C41.373 12.3122 41.373 12.637 41.3652 12.958C41.3575 13.2789 41.3536 13.5148 41.3536 13.6695C41.3536 13.8087 41.3885 13.9711 41.4581 14.149C41.5277 14.3269 41.6011 14.5048 41.6785 14.6749C41.7867 14.8451 41.9337 14.9843 42.1232 15.0848C42.3088 15.1853 42.4519 15.3168 42.5447 15.4715H41.6553C41.7635 15.6919 41.9376 15.8118 42.1696 15.835C42.4016 15.8582 42.6491 15.8466 42.9043 15.8002C43.1595 15.7538 43.3915 15.6996 43.5926 15.6378C43.7937 15.5759 43.9213 15.5527 43.9677 15.5682C44.045 15.7383 43.9793 15.8775 43.7705 15.9781C43.5617 16.0786 43.3064 16.1559 43.0087 16.2101C42.7109 16.2642 42.4325 16.299 42.1657 16.3145C41.8989 16.3299 41.7597 16.3377 41.7442 16.3377C41.4619 16.3377 41.2183 16.299 41.0095 16.2217C40.8007 16.1443 40.6228 16.0438 40.4836 15.9162C40.5609 15.9471 40.646 15.9781 40.7388 16.009C40.8316 16.0399 40.9476 16.0709 41.0907 16.1018C40.967 16.0399 40.8509 15.9471 40.7388 15.8195C40.6924 15.7886 40.6305 15.7344 40.5532 15.6571L40.4836 15.5875C40.3444 15.5875 40.2748 15.6262 40.2748 15.7035C40.151 15.5334 40.0892 15.3787 40.0892 15.2472C40.0892 15.1157 40.1588 15.05 40.298 15.05C40.3598 15.05 40.4333 15.0809 40.5184 15.1428C40.6035 15.2047 40.6924 15.2781 40.7891 15.3632C40.8819 15.4483 40.9747 15.5256 41.0714 15.5952C41.1642 15.6648 41.2492 15.7074 41.3266 15.7228L41.3962 15.4406L40.9747 15.2781C40.9902 15.2472 40.967 15.1776 40.9051 15.0693C40.8432 14.9611 40.7736 14.8412 40.6963 14.7058C40.6189 14.5744 40.5455 14.4468 40.4759 14.3192C40.4063 14.1954 40.3637 14.1026 40.3483 14.0369C40.24 13.6772 40.1781 13.3911 40.1626 13.1707C40.1472 12.9541 40.1394 12.7182 40.1394 12.4708C40.1394 12.3315 40.1394 12.2426 40.1394 12.2039C40.1394 12.1653 40.1472 12.1343 40.1626 12.1111C40.1781 12.0879 40.2013 12.0609 40.2322 12.0299C40.2632 11.999 40.3096 11.9294 40.3715 11.8211L40.1394 11.7515L40.1626 11.4692L40.1858 10.8389C40.1858 10.7771 40.1897 10.7345 40.1974 10.7113C40.2052 10.6881 40.209 10.6649 40.209 10.6417C40.209 10.6185 40.2013 10.5914 40.1858 10.5605C40.1704 10.5373 40.1317 10.4832 40.0698 10.4058ZM40.7697 9.32695C40.7697 9.55897 40.762 9.78712 40.7465 10.0037C40.7311 10.2202 40.6924 10.4097 40.6305 10.5644C40.7079 10.6881 40.7504 10.7732 40.7581 10.8196C40.7659 10.866 40.7543 10.9279 40.7233 11.0052V11.0284L40.7001 11.6587V11.7051C40.8084 11.736 40.878 11.8018 40.909 11.9023C40.9399 12.0029 40.9167 12.0995 40.8393 12.1962C40.8084 12.2581 40.7736 12.3083 40.7349 12.347C40.6963 12.3857 40.6847 12.3896 40.7001 12.3586C40.6847 12.3896 40.6769 12.4089 40.6769 12.4166C40.6769 12.4244 40.6769 12.4669 40.6769 12.5442V12.6602C40.6769 12.8923 40.6847 13.1204 40.7001 13.3369C40.7156 13.5535 40.7697 13.8203 40.8625 14.1335H40.8858C40.9012 14.1645 40.9322 14.2302 40.9786 14.3308C41.025 14.4313 41.0791 14.5202 41.141 14.6014C41.1874 14.6788 41.2415 14.7754 41.3034 14.8953C41.3652 15.0113 41.4117 15.108 41.4426 15.1892C41.4735 15.2047 41.5161 15.224 41.5702 15.2472C41.6243 15.2704 41.6669 15.2897 41.6978 15.3052L41.721 15.3284C41.7365 15.3284 41.7519 15.3207 41.7674 15.3052C41.6746 15.2124 41.6127 15.1428 41.5818 15.0964C41.5663 15.0809 41.547 15.05 41.5238 15.0036C41.5006 14.9572 41.489 14.9263 41.489 14.9108C41.4117 14.7406 41.342 14.5666 41.2802 14.3965C41.2183 14.2263 41.1874 14.0446 41.1874 13.859V13.1823C41.1874 13.0585 41.1912 12.9271 41.199 12.784C41.2067 12.6448 41.2106 12.494 41.2106 12.3393C41.2106 12.0106 41.2028 11.6974 41.1874 11.3919C41.1719 11.0864 41.1255 10.8892 41.0482 10.7964C41.0172 10.75 41.0018 10.6842 41.0018 10.5992C41.0018 10.5141 41.0172 10.4484 41.0482 10.402L41.1178 10.2859C41.1178 9.74071 41.1255 9.21094 41.141 8.69664C41.1564 8.18234 41.1642 7.65258 41.1642 7.10734V6.85212L41.1874 6.50024L41.2106 6.05554C41.1023 6.13287 41.0172 6.17928 40.9515 6.19475C40.8896 6.21021 40.8355 6.22568 40.7891 6.24115C40.7581 6.25661 40.7427 6.27982 40.7427 6.31075C40.7427 6.34169 40.7427 6.44223 40.7427 6.61624V8.37182C40.7427 8.51103 40.7465 8.66571 40.7543 8.82812C40.7659 8.99053 40.7697 9.15681 40.7697 9.32695ZM45.4023 6.43063C45.3868 6.29142 45.4255 6.17541 45.5183 6.07874C45.6111 5.98206 45.7194 5.9086 45.847 5.84672C45.9708 5.78485 46.1061 5.73458 46.2569 5.69592C46.4038 5.65725 46.5353 5.62244 46.6436 5.59151L46.5276 6.43449H46.7364L46.6668 6.5273H46.6436V6.66651L46.6668 6.9952V7.64871C46.6513 7.69511 46.6552 7.72605 46.6784 7.74151C46.7016 7.75698 46.7209 7.76471 46.7364 7.76471C46.7519 7.76471 46.7519 7.77245 46.7364 7.78792C46.7209 7.80338 46.6668 7.84205 46.574 7.90392C46.6823 8.07407 46.7287 8.15141 46.7132 8.13594C46.6977 8.12047 46.6823 8.14367 46.6668 8.20554C46.5431 8.12821 46.4812 8.0122 46.4812 7.85366C46.4812 7.80726 46.4889 7.76858 46.5044 7.73765V7.17695L46.4812 6.87146C46.4038 6.79412 46.3652 6.70131 46.3652 6.58917L46.4116 6.23728C46.2878 6.26822 46.1757 6.31462 46.0713 6.37649C45.9708 6.43836 45.9282 6.50797 45.9437 6.58531V6.91399L45.8973 7.24268C45.9282 7.35096 45.9553 7.46696 45.9785 7.59457C46.0017 7.71831 46.0288 7.82659 46.0597 7.92326L45.9669 8.13208C45.8277 8.19395 45.7465 8.23648 45.7233 8.25968C45.7001 8.28288 45.8122 8.29449 46.0636 8.29449C46.2182 8.4801 46.1873 8.64637 45.9708 8.78558C46.0636 8.92479 46.0558 9.06787 45.9476 9.20708C45.9166 9.22255 45.8973 9.23415 45.8895 9.24188C45.8818 9.24962 45.8625 9.26121 45.8315 9.27668C45.8934 9.26121 45.9321 9.24575 45.9476 9.23028V9.27668C45.9476 9.36949 45.9708 9.44683 46.0172 9.5087C46.0481 9.5551 46.0636 9.62084 46.0636 9.70591C46.0636 9.79098 46.0481 9.85672 46.0172 9.90312L45.9476 10.0191C45.9476 10.0655 45.9514 10.1042 45.9592 10.1351C45.9669 10.1661 45.9708 10.197 45.9708 10.2279L45.9476 10.9279V15.3013C46.0404 15.4406 46.0249 15.5759 45.9011 15.6996L45.3868 16.2603C45.6034 16.2449 45.8354 16.2333 46.0752 16.2255C46.3149 16.2178 46.5469 16.2139 46.7635 16.2139V16.1907C46.7171 16.1289 46.6591 16.0554 46.5895 15.9703C46.5199 15.8853 46.4696 15.8195 46.4387 15.7731L46.369 14.9301V14.0639L46.4155 12.5674V11.2565L46.4387 10.9279L46.4155 9.92246L46.4387 9.57057L46.3922 9.12587C46.3922 9.09494 46.4 9.0524 46.4155 8.99826C46.4309 8.94413 46.4541 8.90159 46.4851 8.87065L46.5779 8.94026H46.5547L46.6011 9.38496L46.5779 9.73685L46.6011 10.7422L46.5701 11.0825V12.3934L46.5237 13.8899V14.7329L46.5933 15.456L46.8756 15.8311L47.2739 16.4382C47.2275 16.4537 47.154 16.4498 47.0535 16.4266C46.953 16.4034 46.8717 16.3918 46.8099 16.3918H46.7403L44.4008 16.4382L45.4526 15.2936C45.4371 15.2781 45.4294 15.2627 45.4294 15.2472L45.4062 15.224V15.0616V10.7577L45.4294 10.0578L45.4062 9.75231L45.5454 9.5435C45.4526 9.43523 45.4062 9.28829 45.4062 9.09881C45.4062 8.92866 45.4062 8.83585 45.4062 8.81652C45.4062 8.80105 45.4526 8.77785 45.5454 8.74692L45.3598 8.5149L45.5918 8.32929L45.3598 8.19008L45.499 7.72218L45.3598 7.09187L45.4062 6.73998V6.43063H45.4023ZM46.4773 8.29835H46.6397V8.32155L46.6629 8.65024C46.6475 8.66571 46.6552 8.69664 46.6861 8.74305C46.7016 8.77398 46.7171 8.79719 46.7325 8.81265L46.5933 8.92866C46.5624 8.89773 46.5353 8.87066 46.5121 8.84745C46.4889 8.82425 46.4851 8.80492 46.5005 8.78945C46.5005 8.74305 46.4967 8.69278 46.4889 8.63864C46.4812 8.58451 46.4773 8.53424 46.4773 8.48783L46.5005 8.37182V8.32542L46.4773 8.29835Z" fill="#70708C"/>
<path d="M55.1044 4.88777C55.1663 4.84137 55.2436 4.81817 55.3364 4.81817L55.8275 4.91098C56.0595 4.86458 56.2413 4.86071 56.365 4.89938C56.4888 4.93805 56.6048 4.98058 56.7169 5.02698C56.7478 5.04245 56.7826 5.05792 56.8213 5.07339C56.86 5.08886 56.9219 5.08886 57.0069 5.07339C57.092 5.05792 57.208 5.02312 57.3588 4.96898C57.5058 4.91484 57.7068 4.8259 57.9543 4.70216C58.0471 4.65576 58.1438 4.64803 58.2482 4.67896C58.3487 4.7099 58.4145 4.77177 58.4454 4.86457L58.6078 5.28607L58.4918 7.20406L58.4686 7.25046V8.34867C58.4686 8.50335 58.4145 8.61549 58.3062 8.67736C58.1979 8.73923 58.0819 8.7315 57.9543 8.65416C57.7842 8.54588 57.6411 8.41827 57.5328 8.26746C57.4246 8.12052 57.324 7.97358 57.2273 7.83437C57.1036 7.64876 56.9605 7.46315 56.8058 7.28527C56.6512 7.10739 56.423 6.97592 56.1291 6.89858V6.92178C55.8623 6.84444 55.6032 6.91017 55.3442 7.11899C55.0851 7.3278 54.9575 7.57529 54.9575 7.85371V8.10892C54.9575 8.18626 54.9807 8.25973 55.0271 8.32934C55.0735 8.39894 55.1276 8.47241 55.1895 8.54975L55.1663 8.50335C55.1972 8.53428 55.2165 8.56135 55.2243 8.58456C55.232 8.60776 55.2513 8.63482 55.2823 8.66576C55.406 8.7431 55.4911 8.8011 55.5375 8.83977C55.5839 8.87844 55.6226 8.91324 55.6535 8.94418C55.6844 8.97511 55.7231 9.01378 55.7695 9.06018C55.8159 9.10659 55.8778 9.16846 55.9551 9.2458V9.2226C56.0479 9.29993 56.1137 9.34634 56.1523 9.3618C56.191 9.37727 56.2335 9.40047 56.2799 9.43141C56.3418 9.46234 56.4192 9.50488 56.512 9.55902C56.6048 9.61315 56.6666 9.65569 56.6976 9.68662C56.7749 9.76396 56.9064 9.8413 57.0959 9.91864C57.1732 9.96504 57.2505 10.0076 57.3279 10.0463C57.4052 10.0849 57.4903 10.1429 57.5831 10.2203C57.6604 10.2821 57.7223 10.3324 57.7687 10.3711C57.8151 10.4097 57.8538 10.4445 57.8847 10.4755C57.9157 10.5219 57.9505 10.5605 57.9891 10.5915C58.0278 10.6224 58.0317 10.6534 58.0007 10.6843C58.109 10.6534 58.2057 10.665 58.2946 10.7191C58.3797 10.7732 58.43 10.8544 58.4454 10.9627C58.4454 10.9936 58.4648 11.0478 58.5034 11.1251C58.5421 11.2025 58.5924 11.2798 58.6542 11.3571C58.7006 11.4345 58.7432 11.5041 58.7818 11.5659C58.8205 11.6278 58.8553 11.6897 58.8863 11.7516L58.863 11.7284C58.9094 11.8212 58.9481 11.8946 58.9791 11.9488C59.01 12.0029 59.0332 12.0454 59.0487 12.0764C59.0796 12.1537 59.1028 12.2079 59.1183 12.2388C59.1337 12.2697 59.1415 12.3161 59.1415 12.378C59.1415 12.4089 59.1453 12.4553 59.1531 12.5172C59.1608 12.5791 59.1724 12.6487 59.1879 12.726V12.7028C59.2652 13.1243 59.2729 13.5187 59.2111 13.8822C59.1492 14.2496 59.0719 14.5628 58.9791 14.8296C58.8244 15.2666 58.6272 15.6223 58.3952 15.893C58.1631 16.1676 57.9157 16.388 57.6604 16.5581C57.4052 16.7283 57.1423 16.8598 56.8754 16.9448C56.6086 17.0299 56.3766 17.0956 56.1755 17.142C55.9242 17.2039 55.8004 17.2271 55.8004 17.2117C55.7386 17.3045 55.6535 17.3625 55.5452 17.3857C55.437 17.4089 55.3441 17.3818 55.2629 17.3045C55.1856 17.2426 55.1005 17.2117 55.0077 17.2117C54.6481 17.2117 54.3852 17.1923 54.2111 17.1536C54.041 17.115 53.8593 17.0724 53.6736 17.026C53.6427 16.9951 53.488 16.9564 53.2057 16.91C53.0975 16.9564 52.9853 17.0028 52.8771 17.0492C52.7688 17.0956 52.6605 17.1421 52.5484 17.1885C52.3937 17.2349 52.2506 17.1885 52.1269 17.0492C52.0495 16.9255 51.9993 16.794 51.9761 16.651C51.9529 16.5117 51.9413 16.3532 51.9413 16.1831C51.9413 16.0438 51.9451 15.9046 51.9529 15.7732C51.9606 15.6417 51.9722 15.5141 51.9877 15.3865C52.0031 15.2937 52.0109 15.2086 52.0109 15.1313C52.0109 15.0539 52.0109 14.9843 52.0109 14.9224C52.0109 14.8915 52.0109 14.8528 52.0109 14.8064C52.0109 14.76 52.0031 14.6982 51.9877 14.6208C51.9722 14.5125 51.9606 14.4004 51.9529 14.2805C51.9451 14.1645 51.9413 14.0369 51.9413 13.8938C51.9413 13.6464 51.9722 13.4143 52.0341 13.2055C52.0959 12.9967 52.2119 12.8266 52.386 12.7028C52.4788 12.6255 52.5754 12.6023 52.6798 12.6332C52.7804 12.6642 52.8539 12.7338 52.9003 12.842C52.9621 12.9812 53.0047 13.1166 53.0279 13.2403C53.0511 13.3641 53.0781 13.4839 53.1091 13.5922L53.0859 13.569C53.1168 13.7237 53.1593 13.8784 53.2135 14.0253C53.2676 14.1723 53.3411 14.3115 53.4339 14.4352C53.604 14.6672 53.8477 14.8528 54.157 14.9843C54.4702 15.1158 54.7486 15.1815 55 15.1815C55.1237 15.1815 55.2049 15.1777 55.2436 15.1699C55.2823 15.1622 55.3171 15.1428 55.348 15.1119C55.4563 15.05 55.5955 14.9882 55.7695 14.9263L55.8391 14.7871C55.8391 14.7098 55.8468 14.6363 55.8623 14.5667C55.8778 14.4971 55.8855 14.4236 55.8855 14.3463C55.901 14.1761 55.8584 14.0137 55.7579 13.8668C55.6574 13.7198 55.5259 13.5806 55.3596 13.4569C55.1972 13.3331 55.0155 13.221 54.8221 13.1166C54.6288 13.016 54.4509 12.9271 54.2962 12.8498C54.2034 12.8034 54.1106 12.757 54.0139 12.7106C53.9211 12.6642 53.8438 12.6255 53.7819 12.5946C53.4687 12.378 53.2019 12.1731 52.9737 11.9874C52.7494 11.8018 52.5561 11.6046 52.4014 11.4035C52.2467 11.2025 52.1114 10.9936 52.0031 10.7848C51.8949 10.576 51.7943 10.3363 51.6976 10.0733V10.0965C51.6203 9.9109 51.5662 9.70596 51.5352 9.48941C51.5043 9.27287 51.4888 9.05245 51.4888 8.8359C51.4888 8.39894 51.5507 7.97358 51.6744 7.55982C51.7982 7.14606 51.9722 6.78643 52.1887 6.47321C52.502 6.02078 52.9235 5.63022 53.4648 5.3054C54.041 5.00378 54.5746 4.85684 55.1044 4.88777ZM55.1044 4.98058V5.07339C54.8724 5.02699 54.621 5.03085 54.3542 5.08499C54.0874 5.13913 53.8322 5.2358 53.5808 5.37887C53.3295 5.52195 53.0975 5.68823 52.8809 5.88157C52.6605 6.07492 52.4749 6.28374 52.3202 6.50028C52.181 6.70136 52.0573 6.94111 51.9567 7.2118C51.8562 7.48635 51.7827 7.76476 51.7363 8.05478C51.6899 8.3448 51.6783 8.63869 51.7015 8.94418C51.7247 9.24966 51.7827 9.53195 51.8755 9.79877C52.0457 10.2976 52.2622 10.7114 52.5174 11.0362C52.7765 11.3649 53.1825 11.7206 53.7432 12.1112C53.8979 12.204 54.1145 12.3084 54.3852 12.4283C54.6558 12.5443 54.9227 12.6835 55.1817 12.8498C55.437 13.0122 55.6612 13.2055 55.8469 13.4221C56.0325 13.6386 56.1098 13.9054 56.0789 14.2187L56.0325 14.6866L55.8507 15.1042C55.7115 15.1197 55.6071 15.1429 55.5452 15.1738C55.4834 15.2047 55.4254 15.2357 55.3712 15.2666C55.3171 15.2975 55.2552 15.3246 55.1856 15.3478C55.116 15.371 55.0039 15.3826 54.8453 15.3826C54.5476 15.3826 54.2189 15.3053 53.8515 15.1506C53.4842 14.9959 53.2019 14.7755 52.9969 14.4971C52.8268 14.2651 52.7146 14.006 52.6682 13.7276C52.6218 13.4453 52.5368 13.1514 52.4092 12.8382C52.3009 12.9155 52.2274 13.0392 52.1887 13.2133C52.1501 13.3834 52.1307 13.5729 52.1307 13.774C52.1307 13.975 52.1423 14.1723 52.1655 14.3579C52.1887 14.5435 52.2003 14.6866 52.2003 14.7794C52.2003 14.9031 52.1926 15.0578 52.1771 15.2357C52.1617 15.4135 52.1501 15.603 52.1423 15.7964C52.1346 15.9897 52.1346 16.1715 52.1423 16.3339C52.1501 16.4963 52.1849 16.6277 52.2467 16.7206L52.9931 16.3919C53.1787 16.4383 53.3411 16.4808 53.4726 16.5195C53.604 16.5581 53.7355 16.5929 53.8709 16.6239C54.0023 16.6548 54.1415 16.678 54.2923 16.6935C54.4393 16.709 54.6249 16.7167 54.8415 16.7167C55.0425 16.7167 55.2088 16.7708 55.3326 16.8791C55.3944 16.7863 55.5607 16.7167 55.8353 16.6703C56.1059 16.6239 56.4114 16.5388 56.7478 16.4151C57.0843 16.2913 57.413 16.0864 57.7416 15.808C58.0703 15.5257 58.3178 15.1158 58.488 14.5667C58.5653 14.3347 58.6349 14.0485 58.6968 13.7121C58.7586 13.3757 58.7509 13.016 58.6736 12.6255C58.6426 12.4553 58.631 12.3432 58.6388 12.2852C58.6465 12.2311 58.6465 12.1924 58.6388 12.1692C58.631 12.146 58.6117 12.1112 58.5808 12.0648C58.5498 12.0184 58.488 11.9101 58.3952 11.7361C58.3487 11.6124 58.2637 11.4654 58.1361 11.303C58.0123 11.1406 57.9427 10.9859 57.9273 10.8467C57.819 10.8776 57.703 10.8235 57.5754 10.6843C57.4516 10.5451 57.3279 10.4291 57.2003 10.3324C57.0301 10.1932 56.8755 10.1004 56.744 10.0501C56.6125 10.0037 56.4656 9.91091 56.3109 9.76783C56.1871 9.67503 56.0634 9.60542 55.9358 9.55902C55.812 9.51261 55.6767 9.43528 55.5375 9.327C55.4447 9.24967 55.3712 9.18779 55.3171 9.14139C55.2629 9.09498 55.2165 9.04859 55.1779 9.00218C55.1392 8.95578 55.0967 8.91324 55.0503 8.87457C55.0039 8.83591 54.9343 8.79337 54.8415 8.74697C54.7641 8.62322 54.6752 8.50335 54.5746 8.38347C54.4741 8.26747 54.4238 8.11279 54.4238 7.92717V7.66809C54.4238 7.48248 54.4741 7.29687 54.5746 7.11899C54.6752 6.94111 54.8028 6.78644 54.9613 6.66269C55.116 6.53895 55.29 6.45002 55.4756 6.39201C55.6612 6.33787 55.8507 6.334 56.0363 6.38041C56.3186 6.45774 56.5429 6.57375 56.713 6.7323C56.8832 6.88697 57.034 7.05712 57.1577 7.235C57.2815 7.41288 57.3975 7.59075 57.5096 7.7609C57.6179 7.93104 57.7571 8.06639 57.9311 8.15919V7.06099L57.9543 6.99138L58.0703 5.16619L57.9311 4.81431C57.4632 5.04632 57.1307 5.18166 56.9373 5.2126C56.744 5.24353 56.5932 5.23967 56.4926 5.201C56.3921 5.16233 56.2954 5.11979 56.1987 5.07339C56.1059 5.02699 55.9319 5.02699 55.6844 5.07339L55.1044 4.98058ZM57.7223 6.96818L57.5599 7.34327L57.5135 7.06099H57.2815C57.3124 6.96818 57.3008 6.88311 57.2467 6.80577C57.1925 6.72843 57.1152 6.65496 57.0147 6.58536C56.9141 6.51575 56.8097 6.45388 56.6976 6.39974C56.5893 6.3456 56.4965 6.30307 56.4153 6.27213C56.1987 6.14839 56.0286 6.09425 55.9126 6.10972C55.7966 6.12519 55.6419 6.12519 55.4563 6.10972C55.3171 6.10972 55.1663 6.16772 55.0116 6.28373C54.8569 6.39974 54.71 6.53895 54.5785 6.70523C54.447 6.86764 54.3426 7.04552 54.2614 7.23113C54.1841 7.41674 54.1454 7.58302 54.1454 7.72223C54.1454 8.08185 54.2421 8.39894 54.4393 8.68123C54.6326 8.96351 54.9497 9.24966 55.3867 9.54742C55.4331 9.59382 55.5646 9.68663 55.785 9.8297C56.0015 9.96891 56.2374 10.1197 56.4849 10.2744C56.7324 10.4291 56.9567 10.5721 57.15 10.6959C57.3433 10.8196 57.4594 10.8892 57.4903 10.9047L57.7958 11.2334L57.8654 11.2102C57.8345 11.2875 57.8731 11.3958 57.9814 11.5389C58.0897 11.6781 58.1747 11.8289 58.2366 11.9836C58.283 12.0764 58.3333 12.2504 58.3874 12.4979C58.4416 12.7492 58.4764 12.9348 58.4918 13.0586C58.4918 13.2133 58.4764 13.3911 58.4454 13.5845C58.4145 13.7778 58.3758 13.975 58.3294 14.1684C58.283 14.3617 58.2327 14.5435 58.1786 14.7059C58.1245 14.8683 58.0742 14.992 58.0278 15.0694C57.761 15.5218 57.3433 15.8853 56.7633 16.156C56.1871 16.4305 55.5491 16.5659 54.8453 16.5659C54.6597 16.5659 54.4702 16.5427 54.2846 16.4963C54.099 16.4499 53.9211 16.3996 53.7587 16.3455C53.5963 16.2913 53.4532 16.2449 53.3372 16.2063C53.2212 16.1676 53.14 16.156 53.0936 16.1715L52.6257 16.1483L52.8345 15.4715C53.082 15.6417 53.3217 15.7964 53.546 15.9278C53.7703 16.0593 53.9985 16.1599 54.2227 16.2333C54.447 16.3029 54.6906 16.3377 54.9459 16.3377C55.2049 16.3377 55.495 16.2913 55.8236 16.1985C56.0711 16.1366 56.3031 16.0245 56.512 15.8582C56.7208 15.6958 56.9025 15.5063 57.0495 15.2975C57.1964 15.0887 57.3085 14.8722 57.3898 14.6556C57.4671 14.4391 57.5058 14.2341 57.5058 14.0485V13.4878C57.5058 13.1746 57.4439 12.9116 57.3201 12.6912C57.1964 12.4747 57.0379 12.2311 56.8522 11.9681C56.744 11.7516 56.57 11.566 56.3379 11.419C56.1059 11.2721 55.8468 11.1367 55.5646 11.0091C55.2823 10.8854 54.9961 10.75 54.6984 10.6108C54.4006 10.4716 54.1377 10.2937 53.9018 10.0849C53.6698 9.8761 53.4726 9.61702 53.3179 9.3154C53.1632 9.00992 53.0859 8.63482 53.0859 8.18239C53.0859 7.49795 53.2792 6.93725 53.6698 6.50028C53.7316 6.43841 53.8283 6.36107 53.9637 6.26827C54.0951 6.17546 54.2421 6.08652 54.3968 5.99758C54.5514 5.91251 54.7061 5.83904 54.8531 5.77717C55 5.7153 55.1276 5.68436 55.2397 5.68436H56.1987C56.2297 5.68436 56.2915 5.70756 56.3844 5.75397C56.4772 5.80037 56.5777 5.8545 56.6898 5.91638C56.7981 5.97825 56.9025 6.03238 57.0069 6.07879C57.1075 6.12519 57.1887 6.15613 57.2505 6.17159L57.6488 5.65729L57.7648 5.68049L57.6488 6.19479L57.7223 6.96818ZM53.983 7.90397C53.983 7.71836 54.041 7.49795 54.157 7.25046C54.273 7.00298 54.4238 6.7671 54.6133 6.55055C54.5205 6.61242 54.4316 6.6743 54.3426 6.73617C54.2575 6.79804 54.1841 6.85217 54.1222 6.89858C53.7935 7.27367 53.6311 7.75703 53.6311 8.34867C53.6311 8.72376 53.693 9.03312 53.8167 9.28447C53.9405 9.53582 54.099 9.75237 54.2962 9.93798C54.4896 10.1236 54.71 10.2821 54.9497 10.4059C55.1895 10.5296 55.437 10.6495 55.6844 10.7578C56.0131 10.9124 56.3264 11.0749 56.6318 11.2373C56.9373 11.3997 57.1655 11.6317 57.3201 11.9256C57.5212 12.1924 57.6952 12.4553 57.8344 12.7222C57.9737 12.989 58.0433 13.2983 58.0433 13.658V14.2187C58.0433 14.5783 57.935 14.9495 57.7146 15.3401C57.7455 15.3091 57.7764 15.2705 57.8074 15.2241C57.8383 15.1777 57.8693 15.1313 57.9002 15.0848C57.9311 15.0075 57.9698 14.8954 58.0162 14.7446C58.0626 14.5976 58.109 14.4313 58.1554 14.2535C58.2018 14.0756 58.2405 13.8938 58.2714 13.716C58.3023 13.5381 58.3178 13.3757 58.3178 13.2365C58.2869 13.1282 58.2443 12.958 58.1902 12.7338C58.1361 12.5095 58.0858 12.3316 58.0394 12.2079C58.0394 12.2233 58.0239 12.2001 57.993 12.1383C57.9621 12.0764 57.9311 12.0222 57.9002 11.9758C57.8383 11.914 57.7764 11.8212 57.7146 11.6936V11.6704L57.4091 11.3417C57.3008 11.2798 57.1384 11.1831 56.9296 11.0478C56.7208 10.9163 56.5042 10.781 56.2877 10.6379C56.0711 10.4987 55.8701 10.3672 55.6922 10.2512C55.5143 10.1352 55.3983 10.054 55.3519 10.0076H55.3751C54.8763 9.66342 54.5166 9.33474 54.3001 9.01378C54.0913 8.69283 53.983 8.3216 53.983 7.90397Z" fill="#70708C"/>
</svg>
