<svg width="14" height="17" viewBox="0 0 14 17" fill="none" xmlns="http://www.w3.org/2000/svg">
<path d="M4.42857 10.1667L9.57143 5.16667L4.42857 10.1667ZM4.85714 5.58333H4.86571H4.85714ZM9.14286 9.75H9.15143H9.14286ZM13 16V2.66667C13 2.22464 12.8194 1.80072 12.4979 1.48816C12.1764 1.17559 11.7404 1 11.2857 1H2.71429C2.25963 1 1.82359 1.17559 1.5021 1.48816C1.18061 1.80072 1 2.22464 1 2.66667V16L4 14.3333L7 16L10 14.3333L13 16ZM5.28571 5.58333C5.28571 5.69384 5.24056 5.79982 5.16019 5.87796C5.07982 5.9561 4.97081 6 4.85714 6C4.74348 6 4.63447 5.9561 4.5541 5.87796C4.47372 5.79982 4.42857 5.69384 4.42857 5.58333C4.42857 5.47283 4.47372 5.36685 4.5541 5.28871C4.63447 5.21056 4.74348 5.16667 4.85714 5.16667C4.97081 5.16667 5.07982 5.21056 5.16019 5.28871C5.24056 5.36685 5.28571 5.47283 5.28571 5.58333ZM9.57143 9.75C9.57143 9.86051 9.52628 9.96649 9.4459 10.0446C9.36553 10.1228 9.25652 10.1667 9.14286 10.1667C9.02919 10.1667 8.92018 10.1228 8.83981 10.0446C8.75944 9.96649 8.71429 9.86051 8.71429 9.75C8.71429 9.63949 8.75944 9.53351 8.83981 9.45537C8.92018 9.37723 9.02919 9.33333 9.14286 9.33333C9.25652 9.33333 9.36553 9.37723 9.4459 9.45537C9.52628 9.53351 9.57143 9.63949 9.57143 9.75Z" stroke="#70708C" stroke-width="1.5" stroke-linecap="round" stroke-linejoin="round"/>
</svg>
