<svg width="20" height="20" viewBox="0 0 20 20" fill="none" xmlns="http://www.w3.org/2000/svg">
<path d="M14.825 18.9577H5.17502C2.89169 18.9577 1.04169 17.0993 1.04169 14.816V8.64099C1.04169 7.50766 1.74169 6.08266 2.64169 5.38266L7.13335 1.88266C8.48335 0.832661 10.6417 0.782661 12.0417 1.76599L17.1917 5.37433C18.1834 6.06599 18.9584 7.54933 18.9584 8.75766V14.8243C18.9584 17.0993 17.1084 18.9577 14.825 18.9577ZM7.90002 2.86599L3.40835 6.36599C2.81669 6.83266 2.29169 7.89099 2.29169 8.64099V14.816C2.29169 16.4077 3.58335 17.7077 5.17502 17.7077H14.825C16.4167 17.7077 17.7084 16.416 17.7084 14.8243V8.75766C17.7084 7.95766 17.1334 6.84933 16.475 6.39933L11.325 2.79099C10.375 2.12433 8.80835 2.15766 7.90002 2.86599Z" fill="#70708C"/>
<path d="M10 15.625C9.65833 15.625 9.375 15.3417 9.375 15V12.5C9.375 12.1583 9.65833 11.875 10 11.875C10.3417 11.875 10.625 12.1583 10.625 12.5V15C10.625 15.3417 10.3417 15.625 10 15.625Z" fill="#70708C"/>
</svg>
