<svg width="87" height="58" viewBox="0 0 87 58" fill="none" xmlns="http://www.w3.org/2000/svg">
<path d="M86.5007 34.4515L75.5616 53.2041C74.7104 54.6635 73.4915 55.8743 72.0264 56.7158C70.5614 57.5572 68.9014 58 67.2119 58H6.80065C4.00291 58 2.25973 54.9651 3.66941 52.5485L14.6085 33.7959C15.4598 32.3365 16.6787 31.1257 18.1437 30.2843C19.6088 29.4428 21.2688 29 22.9583 29H83.3696C86.1673 29 87.9105 32.0349 86.5007 34.4515ZM22.9583 24.1667H72.5V16.9167C72.5 12.9126 69.2541 9.66667 65.25 9.66667H41.0833L31.4167 0H7.25C3.24589 0 0 3.24589 0 7.25V49.2465L10.4335 31.3605C13.0219 26.9232 17.8213 24.1667 22.9583 24.1667Z" fill="#70708C"/>
</svg>
