<svg width="22" height="18" viewBox="0 0 22 18" fill="none" xmlns="http://www.w3.org/2000/svg">
<path d="M15.1781 2.92206L18.4667 6.09377C18.6052 6.22739 18.6052 6.4454 18.4667 6.57902L10.5042 14.2586L7.12083 14.6208C6.66875 14.6701 6.28594 14.3008 6.33698 13.8648L6.7125 10.6017L14.675 2.92206C14.8135 2.78844 15.0396 2.78844 15.1781 2.92206ZM21.0844 2.11682L19.3052 0.40086C18.751 -0.13362 17.8505 -0.13362 17.2927 0.40086L16.0021 1.64563C15.8635 1.77925 15.8635 1.99727 16.0021 2.13089L19.2906 5.3026C19.4292 5.43622 19.6552 5.43622 19.7937 5.3026L21.0844 4.05782C21.6385 3.51983 21.6385 2.6513 21.0844 2.11682ZM14.5 12.17V15.7496H2.83333V4.49736H11.2115C11.3281 4.49736 11.4375 4.45165 11.5214 4.37429L12.9797 2.96777C13.2568 2.70053 13.0599 2.24692 12.6698 2.24692H2.25C1.28385 2.24692 0.5 3.00293 0.5 3.93475V16.3122C0.5 17.244 1.28385 18 2.25 18H15.0833C16.0495 18 16.8333 17.244 16.8333 16.3122V10.7634C16.8333 10.3872 16.363 10.2008 16.0859 10.4645L14.6276 11.8711C14.5474 11.9519 14.5 12.0574 14.5 12.17Z" fill="white"/>
</svg>
