<svg width="37" height="26" viewBox="0 0 37 26" fill="none" xmlns="http://www.w3.org/2000/svg">
<path d="M4.51871 3.71621H4.08659V0.441993C4.08659 0.259269 3.93844 0.111115 3.75571 0.111115C3.57299 0.111115 3.42484 0.259269 3.42484 0.441993V3.71621H2.59023V0.441993C2.59023 0.259269 2.44208 0.111115 2.25935 0.111115C2.07663 0.111115 1.92848 0.259269 1.92848 0.441993V3.71621H1.09387V0.441993C1.09387 0.259269 0.945719 0.111115 0.762995 0.111115C0.580272 0.111115 0.432117 0.259269 0.432117 0.441993V3.71621H0V8.23491H0.360509L0 23.9714C0 24.8134 0.68398 25.4974 1.52599 25.4974H2.99272C3.83473 25.4974 4.51871 24.8134 4.51871 23.9615L4.16314 8.23491H4.51871V3.71621ZM3.63719 7.3534H3.26187L3.63719 23.9714C3.63719 24.327 3.34829 24.6159 2.99272 24.6159H1.52599C1.17042 24.6159 0.881519 24.327 0.881519 23.9813L1.26178 7.3534H0.881519V4.59772H3.63719V7.3534Z" fill="#70708C"/>
<path d="M34.5299 25.4974H33.1372C32.3273 25.4974 31.6655 24.8381 31.6655 24.0257L32.0211 8.47196C32.0211 8.40529 32.0236 8.33862 32.0261 8.27195C31.231 7.41513 30.7593 6.05458 30.7593 4.5755C30.7643 2.00996 32.1125 0 33.8335 0C35.5546 0 36.9053 2.00996 36.9053 4.5755C36.9053 6.05211 36.4361 7.41266 35.6435 8.26949C35.6484 8.33862 35.6509 8.41023 35.6509 8.48184L36.0015 24.0158C36.0015 24.8381 35.3422 25.4974 34.5299 25.4974ZM33.8335 0.881519C32.6458 0.881519 31.6433 2.57295 31.6433 4.5755C31.6433 5.89161 32.0829 7.12129 32.7891 7.78798L32.9545 7.94355L32.9224 8.16825C32.91 8.26208 32.9026 8.36579 32.9026 8.48184L32.5471 24.0356C32.5471 24.3516 32.8113 24.6159 33.1372 24.6159H34.5299C34.8558 24.6159 35.12 24.3516 35.12 24.0257L34.7694 8.49172C34.7694 8.36826 34.762 8.26208 34.7496 8.16825L34.7175 7.94108L34.883 7.78551C35.5892 7.11882 36.0262 5.88667 36.0262 4.5755C36.0238 2.57542 35.0212 0.881519 33.8335 0.881519Z" fill="#70708C"/>
<path d="M18.1291 25.4974C11.235 25.4974 5.62738 19.8897 5.62738 12.9956C5.62738 6.10151 11.235 0.491394 18.1291 0.491394C25.0233 0.491394 30.6309 6.09904 30.6309 12.9932C30.6309 19.8873 25.0233 25.4974 18.1291 25.4974ZM18.1291 1.37538C11.7215 1.37538 6.5089 6.58795 6.5089 12.9956C6.5089 19.4033 11.7215 24.6159 18.1291 24.6159C24.5368 24.6159 29.7494 19.4033 29.7494 12.9956C29.7494 6.58795 24.5368 1.37538 18.1291 1.37538Z" fill="#70708C"/>
<path d="M18.1291 22.9788C12.6252 22.9788 8.146 18.4996 8.146 12.9956C8.146 7.49168 12.6252 3.01248 18.1291 3.01248C19.7341 3.01248 21.2675 3.38287 22.6874 4.11129C22.9046 4.22241 22.9886 4.48909 22.8775 4.70391C22.7664 4.9212 22.4997 5.00516 22.2849 4.89404C20.991 4.22982 19.5934 3.894 18.1291 3.894C13.1092 3.894 9.02751 7.97812 9.02751 12.9956C9.02751 18.0156 13.1116 22.0972 18.1291 22.0972C23.1466 22.0972 27.2308 18.0131 27.2308 12.9956C27.2308 12.0005 27.0703 11.0227 26.7567 10.0893C26.6776 9.85969 26.8036 9.60782 27.0332 9.53128C27.2629 9.45226 27.5147 9.57819 27.5913 9.80783C27.937 10.8326 28.1098 11.9042 28.1098 12.9956C28.1123 18.4996 23.6331 22.9788 18.1291 22.9788Z" fill="#70708C"/>
<path d="M13.8178 10.1539C13.8104 9.88224 13.803 9.64767 13.8302 9.41803C13.8647 9.13406 14.0277 8.92418 14.2771 8.78343C14.408 8.70936 14.5512 8.68466 14.6994 8.68466C14.892 8.68466 15.087 8.67726 15.2796 8.68219C15.4525 8.68713 15.6228 8.67726 15.7957 8.67972C15.9389 8.68219 16.0797 8.70442 16.2081 8.76862C16.4673 8.89949 16.6303 9.1069 16.6896 9.39333C16.7167 9.51927 16.7118 9.6452 16.7044 9.77113C16.6994 9.86496 16.6945 9.96126 16.7044 10.0551C16.7217 10.2502 16.692 10.4452 16.7044 10.6403C16.7118 10.7588 16.6994 10.8724 16.6649 10.9835C16.6501 11.0329 16.618 11.0798 16.5908 11.1267C16.4229 11.4107 16.1735 11.5613 15.8401 11.5663C15.729 11.5687 15.6179 11.5638 15.5043 11.5712C15.3932 11.5786 15.2821 11.5687 15.1685 11.5663C15.0129 11.5638 14.8599 11.5737 14.7043 11.5712C14.2425 11.5638 13.8697 11.2354 13.8252 10.7835C13.8129 10.6551 13.8154 10.5267 13.8178 10.3983C13.8178 10.3045 13.8178 10.2082 13.8178 10.1539ZM16.1142 10.1144C16.1118 10.1144 16.1118 10.1144 16.1093 10.1144C16.1093 9.92175 16.1118 9.72668 16.1093 9.53408C16.1068 9.40074 15.9957 9.27481 15.8747 9.27728C15.7068 9.27975 15.5389 9.2674 15.371 9.2674C15.2451 9.26987 15.1167 9.27481 14.9907 9.27481C14.8994 9.27481 14.8055 9.2674 14.7142 9.2674C14.5265 9.2674 14.403 9.3884 14.403 9.57606C14.403 9.67236 14.4104 9.76866 14.4104 9.86496C14.4104 10.0205 14.4006 10.1736 14.403 10.3292C14.4055 10.4526 14.4104 10.5736 14.4104 10.6971C14.4104 10.8601 14.5216 10.9712 14.6845 10.9736C15.0574 10.9761 15.4278 10.9761 15.8006 10.9761C15.9883 10.9761 16.1118 10.8527 16.1118 10.6675C16.1142 10.4847 16.1142 10.2995 16.1142 10.1144Z" fill="#70708C"/>
<path d="M21.0527 8.68435C21.1712 8.69423 21.3515 8.67694 21.5317 8.67941C21.8009 8.68435 22.0354 8.77324 22.2182 8.97819C22.3638 9.14116 22.4355 9.33623 22.4404 9.54858C22.4478 9.94613 22.4478 10.3437 22.4355 10.7412C22.4256 11.0351 22.2873 11.2647 22.0404 11.4277C21.8996 11.5215 21.749 11.5709 21.5786 11.566C21.3762 11.561 21.1761 11.5783 20.9737 11.5684C20.8058 11.5585 20.6354 11.5758 20.465 11.5734C20.2675 11.5709 20.0823 11.5264 19.9193 11.4104C19.6625 11.2252 19.5514 10.9635 19.5489 10.6548C19.5464 10.5215 19.5588 10.3881 19.5539 10.2548C19.5464 10.0128 19.5539 9.76835 19.5539 9.52636C19.5539 9.35599 19.6082 9.20289 19.7045 9.06215C19.8847 8.80288 20.1341 8.68435 20.4452 8.68435C20.6304 8.68435 20.8107 8.68435 21.0527 8.68435ZM21.0329 10.9783C21.1836 10.9709 21.3737 10.9832 21.5613 10.9807C21.5984 10.9807 21.6354 10.9807 21.6675 10.9635C21.7959 10.8968 21.8552 10.7931 21.8527 10.6499C21.8502 10.477 21.8354 10.3017 21.8478 10.1289C21.8601 9.92885 21.8428 9.72884 21.8428 9.52883C21.8428 9.39055 21.7539 9.29178 21.6181 9.28438C21.4305 9.27203 21.2403 9.25968 21.0502 9.27203C20.9564 9.27944 20.8601 9.28191 20.7662 9.27697C20.6601 9.27203 20.5564 9.27203 20.4502 9.26956C20.2847 9.26709 20.1366 9.4029 20.1415 9.57822C20.1489 9.95848 20.1489 10.3387 20.1465 10.719C20.1465 10.8449 20.2847 10.9807 20.4033 10.9783C20.5983 10.9758 20.7984 10.9783 21.0329 10.9783Z" fill="#70708C"/>
<path d="M13.8228 15.8501C13.8228 15.6303 13.8104 15.4105 13.8252 15.1932C13.845 14.9192 13.9857 14.7093 14.2154 14.5587C14.3536 14.4673 14.5043 14.4179 14.6697 14.4228C14.8722 14.4278 15.0722 14.4105 15.2747 14.4204C15.4426 14.4303 15.613 14.413 15.7833 14.4154C15.9957 14.4204 16.1957 14.4673 16.3661 14.6031C16.6007 14.7908 16.697 15.0451 16.7044 15.3365C16.7068 15.4747 16.692 15.6105 16.6994 15.7488C16.7093 15.9859 16.697 16.2205 16.6994 16.4575C16.7019 16.6279 16.6476 16.7785 16.5537 16.9168C16.376 17.1785 16.1266 17.3044 15.8105 17.302C15.4401 17.302 15.0722 17.3069 14.7018 17.3069C14.3117 17.3069 13.9734 17.0575 13.8573 16.6871C13.8129 16.5513 13.8079 16.4081 13.8129 16.2674C13.8203 16.1291 13.8228 15.9908 13.8228 15.8501ZM15.2105 15.013C15.087 15.0204 14.9018 15.0155 14.7166 15.0081C14.5339 15.0006 14.3981 15.1562 14.403 15.3192C14.4055 15.4575 14.4154 15.5933 14.4104 15.7315C14.4006 15.9661 14.4055 16.2007 14.4129 16.4328C14.4178 16.5859 14.4944 16.697 14.6327 16.7044C14.8253 16.7168 15.0203 16.7291 15.2129 16.7168C15.3166 16.7094 15.4204 16.7069 15.5216 16.7143C15.6204 16.7217 15.7191 16.7217 15.8179 16.7192C15.971 16.7168 16.1192 16.5859 16.1167 16.4205C16.1093 16.0353 16.1142 15.6501 16.1117 15.2649C16.1117 15.1439 15.9858 15.013 15.8698 15.0105C15.6722 15.0105 15.4722 15.013 15.2105 15.013Z" fill="#70708C"/>
<path d="M17.8279 8.67941C17.9834 8.69176 18.1069 8.67447 18.2328 8.68929C18.4896 8.72386 18.6872 8.84979 18.8452 9.05473C19.0526 9.32635 19.0378 9.78069 18.8551 10.0375C18.6822 10.2795 18.4501 10.4079 18.1513 10.4153C17.9859 10.4202 17.855 10.5289 17.855 10.682C17.8525 10.8375 17.9661 10.9709 18.1291 10.9733C18.3192 10.9783 18.5118 10.9733 18.7044 10.9733C18.8205 10.9733 18.944 11.0548 18.981 11.1536C19.0279 11.2746 19.0032 11.3931 18.9069 11.4845C18.86 11.5289 18.8007 11.5585 18.7341 11.566C18.618 11.5783 18.502 11.566 18.3859 11.5635C18.2797 11.561 18.1711 11.5758 18.0649 11.5635C17.7513 11.5314 17.5192 11.3709 17.3636 11.0919C17.1488 10.7067 17.2945 10.1289 17.7538 9.91156C17.8748 9.85477 18.0056 9.83255 18.1414 9.82267C18.2921 9.81279 18.3834 9.73131 18.4081 9.59797C18.4353 9.44981 18.3365 9.30413 18.1884 9.27944C18.0624 9.25721 17.9365 9.26709 17.8081 9.26956C17.692 9.27203 17.576 9.29425 17.4624 9.2498C17.3192 9.19301 17.2426 9.06214 17.2673 8.91893C17.2896 8.78806 17.4229 8.67941 17.5636 8.67694C17.6599 8.67694 17.7587 8.67941 17.8279 8.67941Z" fill="#70708C"/>
<path d="M20.7194 17.3044C20.591 17.3044 20.4626 17.3044 20.3317 17.3044C20.1737 17.3044 20.0181 17.3094 19.8601 17.3069C19.665 17.3044 19.5193 17.1316 19.5564 16.9488C19.5835 16.8204 19.7144 16.7143 19.8576 16.7093C19.9416 16.7069 20.0255 16.7118 20.1095 16.7167C20.2157 16.7217 20.3194 16.7192 20.4255 16.7118C20.5441 16.7044 20.6626 16.7143 20.7786 16.7167C21.033 16.7192 21.2848 16.7019 21.5392 16.7192C21.7071 16.7291 21.8676 16.5809 21.8528 16.4031C21.8478 16.3167 21.8454 16.2303 21.8429 16.1463C21.8404 16.0402 21.8503 15.9365 21.8503 15.8303C21.8478 15.5537 21.8478 15.2772 21.8503 14.9981C21.8528 14.9068 21.8404 14.813 21.8429 14.7216C21.8503 14.5339 22.0108 14.3957 22.1935 14.4228C22.3244 14.4401 22.438 14.5734 22.4404 14.7216C22.4429 15.013 22.438 15.3019 22.438 15.5932C22.438 15.7364 22.4404 15.8821 22.4404 16.0254C22.4404 16.2031 22.4479 16.3834 22.4256 16.5612C22.3886 16.8525 22.2306 17.0649 21.9762 17.2081C21.8404 17.2847 21.6947 17.3069 21.5416 17.3069C21.27 17.3069 20.9959 17.3044 20.7194 17.3044Z" fill="#70708C"/>
<path d="M20.7268 12.1265C21.0033 12.1265 21.2824 12.1265 21.5589 12.1265C21.6997 12.1265 21.8379 12.1462 21.9639 12.2153C22.2577 12.3783 22.433 12.6252 22.4404 12.9611C22.4503 13.4203 22.1417 13.7808 21.7046 13.8475C21.5021 13.8796 21.3021 13.8525 21.0996 13.8574C21.0453 13.8599 20.9935 13.8648 20.9391 13.8525C20.7836 13.8204 20.6873 13.6845 20.7095 13.524C20.7293 13.3759 20.8749 13.2574 21.0231 13.2672C21.2206 13.2796 21.4182 13.2648 21.6157 13.2598C21.7565 13.2574 21.8577 13.1142 21.8528 13.0006C21.8453 12.8401 21.7367 12.7191 21.5885 12.7117C21.5021 12.7092 21.4182 12.7092 21.3317 12.7166C21.2157 12.7265 21.0996 12.7117 20.9836 12.7117C20.6972 12.7117 20.4132 12.7166 20.1268 12.7117C20.0453 12.7092 19.9638 12.7191 19.8823 12.7191C19.7687 12.7166 19.6699 12.6796 19.6057 12.5783C19.4823 12.3808 19.6206 12.1265 19.8527 12.1215C20.144 12.1166 20.4379 12.1215 20.7293 12.1215C20.7268 12.1265 20.7268 12.1265 20.7268 12.1265Z" fill="#70708C"/>
<path d="M17.26 14.7167C17.26 14.3364 17.2624 13.9562 17.26 13.5734C17.2575 13.3389 17.5143 13.208 17.6797 13.2969C17.7958 13.3586 17.8625 13.4574 17.8575 13.5882C17.8476 13.7512 17.8551 13.9142 17.86 14.0772C17.8625 14.1735 17.8551 14.2698 17.8526 14.3661C17.8501 14.4056 17.8649 14.4204 17.9044 14.4179C18.0057 14.4154 18.1069 14.413 18.2082 14.4105C18.3835 14.408 18.5613 14.413 18.7366 14.4179C18.8823 14.4228 18.9909 14.5414 19.0008 14.6994C19.0082 14.8401 18.8971 14.9858 18.7588 14.9957C18.5514 15.0105 18.3415 15.0081 18.1341 15.0056C18.06 15.0031 17.9835 15.0056 17.9094 15.0031C17.8649 15.0007 17.8526 15.0204 17.8551 15.0599C17.86 15.1463 17.8649 15.2328 17.8625 15.3167C17.8625 15.5068 17.86 15.6945 17.8551 15.8846C17.8526 16.0254 17.7069 16.1538 17.5563 16.1513C17.3982 16.1488 17.2723 16.0303 17.2698 15.8723C17.2649 15.6624 17.2674 15.4501 17.2674 15.2402C17.26 15.0698 17.26 14.8945 17.26 14.7167Z" fill="#70708C"/>
<path d="M21.2972 15.3117C21.2947 15.7562 20.8799 16.1735 20.4354 16.1612C19.9267 16.1463 19.544 15.7908 19.5588 15.2229C19.5638 15.008 19.665 14.8253 19.8156 14.6747C19.9292 14.5611 20.065 14.4599 20.2255 14.4352C20.9416 14.324 21.2972 14.8599 21.2972 15.3117ZM20.4329 15.0105C20.2823 15.008 20.1465 15.1414 20.144 15.2895C20.1416 15.4401 20.27 15.571 20.4206 15.5685C20.5687 15.5685 20.7021 15.4377 20.7046 15.2895C20.707 15.1414 20.5811 15.0105 20.4329 15.0105Z" fill="#70708C"/>
<path d="M19.5441 13.8623C19.4157 13.8599 19.2873 13.8697 19.1589 13.8525C18.828 13.808 18.6058 13.6278 18.4749 13.3265C18.4255 13.2154 18.4057 13.0993 18.4057 12.9759C18.4082 12.8277 18.2625 12.7092 18.1168 12.7191C17.9144 12.7339 17.7119 12.7191 17.5119 12.7117C17.381 12.7067 17.2872 12.5956 17.265 12.4524C17.2452 12.3339 17.3143 12.2079 17.4255 12.1536C17.4674 12.1339 17.5143 12.1289 17.5563 12.1289C17.7884 12.1314 18.0205 12.1092 18.2527 12.1388C18.4378 12.1635 18.5934 12.2376 18.7317 12.3684C18.9119 12.5388 18.9811 12.7462 18.9984 12.9833C19.0082 13.1364 19.107 13.287 19.307 13.2747C19.4897 13.2648 19.6725 13.2648 19.8552 13.2747C19.9712 13.2821 20.0626 13.329 20.1145 13.4376C20.1614 13.5364 20.1614 13.6352 20.1021 13.7265C20.0404 13.8204 19.949 13.8599 19.8379 13.8599C19.7391 13.8623 19.6428 13.8623 19.5441 13.8623Z" fill="#70708C"/>
<path d="M15.5661 12.124C15.7044 12.1338 15.8303 12.1166 15.9538 12.1338C16.2377 12.1758 16.4501 12.324 16.5908 12.5734C16.6699 12.7141 16.7118 12.8623 16.702 13.0277C16.6921 13.1956 16.7069 13.3635 16.7069 13.5314C16.7069 13.6895 16.618 13.8154 16.4847 13.8524C16.297 13.9043 16.1143 13.7685 16.1118 13.5709C16.1093 13.3956 16.1143 13.2228 16.1143 13.0475C16.1143 12.9907 16.1118 12.9314 16.0847 12.8771C16.0279 12.766 15.934 12.7141 15.813 12.7141C15.6402 12.7141 15.4698 12.7215 15.297 12.7215C15.1389 12.7215 15.0204 12.64 14.976 12.5092C14.9142 12.324 15.0599 12.1314 15.2698 12.1264C15.3735 12.1215 15.4772 12.124 15.5661 12.124Z" fill="#70708C"/>
<path d="M14.9586 13.8648C14.8129 13.8574 14.6771 13.8673 14.5413 13.8524C14.403 13.8376 14.2845 13.7759 14.1734 13.6944C13.9265 13.5117 13.8129 13.2672 13.8154 12.9611C13.8178 12.7882 13.8104 12.6178 13.8129 12.445C13.8129 12.2993 13.9043 12.1709 14.0252 12.1363C14.2203 12.082 14.408 12.2252 14.4104 12.4351C14.4129 12.603 14.403 12.7709 14.403 12.9364C14.403 13.0623 14.4376 13.1685 14.5537 13.2376C14.5981 13.2648 14.645 13.2722 14.6944 13.2722C14.8401 13.2697 14.9858 13.2648 15.1315 13.2648C15.2129 13.2648 15.2944 13.2648 15.371 13.2993C15.4994 13.3537 15.5586 13.4524 15.5438 13.6031C15.534 13.7216 15.4376 13.8253 15.3142 13.85C15.1957 13.8747 15.0722 13.8574 14.9586 13.8648Z" fill="#70708C"/>
<path d="M18.9983 16.1612C18.9934 16.297 19.0057 16.4303 18.986 16.5661C18.9366 16.8773 18.7613 17.0921 18.4872 17.2279C18.3761 17.2847 18.2477 17.2995 18.1242 17.3044C17.9168 17.3118 17.7118 17.3118 17.5044 17.2946C17.3637 17.2822 17.2575 17.1538 17.2624 17.0081C17.2649 16.8501 17.3711 16.7242 17.5192 16.7217C17.7242 16.7192 17.9267 16.6995 18.1316 16.7143C18.2724 16.7242 18.3983 16.6131 18.4008 16.4526C18.4032 16.2674 18.4205 16.0822 18.4057 15.8994C18.3983 15.813 18.423 15.7389 18.4798 15.6747C18.5637 15.5784 18.6946 15.5439 18.8131 15.5859C18.9193 15.6229 18.9958 15.7389 18.9958 15.8649C18.9983 15.9636 18.9983 16.0624 18.9983 16.1612Z" fill="#70708C"/>
<path d="M15.6945 10.119C15.6994 10.3609 15.5093 10.5733 15.2179 10.5609C15.0155 10.5535 14.813 10.3511 14.8229 10.1362C14.8327 9.86215 15.0031 9.69425 15.2772 9.68684C15.5044 9.67943 15.697 9.88685 15.6945 10.119Z" fill="#70708C"/>
<path d="M21.4355 10.1165C21.433 10.3955 21.2281 10.5634 20.9861 10.5659C20.754 10.5684 20.5441 10.3536 20.5589 10.1289C20.5737 9.86712 20.7515 9.67698 21.0503 9.68686C21.2454 9.69427 21.4404 9.91156 21.4355 10.1165Z" fill="#70708C"/>
<path d="M15.2475 16.2995C15.0426 16.3044 14.8277 16.1069 14.8228 15.9118C14.8129 15.6106 15.008 15.4353 15.2673 15.4229C15.492 15.413 15.7093 15.6254 15.7019 15.8526C15.692 16.0995 15.5241 16.2995 15.2475 16.2995Z" fill="#70708C"/>
</svg>
