<svg width="19" height="17" viewBox="0 0 19 17" fill="none" xmlns="http://www.w3.org/2000/svg">
<path d="M9.5 0C4.25273 0 0 3.53281 0 7.89286C0 9.775 0.794141 11.4978 2.11523 12.8525C1.65137 14.765 0.100195 16.4688 0.0816406 16.4877C0 16.575 -0.0222656 16.704 0.0259766 16.8179C0.0742188 16.9317 0.178125 17 0.296875 17C2.75723 17 4.60156 15.7933 5.51445 15.0496C6.72793 15.5163 8.075 15.7857 9.5 15.7857C14.7473 15.7857 19 12.2529 19 7.89286C19 3.53281 14.7473 0 9.5 0ZM4.75 9.10714C4.09316 9.10714 3.5625 8.56451 3.5625 7.89286C3.5625 7.22121 4.09316 6.67857 4.75 6.67857C5.40684 6.67857 5.9375 7.22121 5.9375 7.89286C5.9375 8.56451 5.40684 9.10714 4.75 9.10714ZM9.5 9.10714C8.84316 9.10714 8.3125 8.56451 8.3125 7.89286C8.3125 7.22121 8.84316 6.67857 9.5 6.67857C10.1568 6.67857 10.6875 7.22121 10.6875 7.89286C10.6875 8.56451 10.1568 9.10714 9.5 9.10714ZM14.25 9.10714C13.5932 9.10714 13.0625 8.56451 13.0625 7.89286C13.0625 7.22121 13.5932 6.67857 14.25 6.67857C14.9068 6.67857 15.4375 7.22121 15.4375 7.89286C15.4375 8.56451 14.9068 9.10714 14.25 9.10714Z" fill="#70708C"/>
</svg>
