<svg width="21" height="25" viewBox="0 0 21 25" fill="none" xmlns="http://www.w3.org/2000/svg">
<path d="M15 21.875V23.8281C15 24.4753 14.4963 25 13.875 25H1.125C0.503672 25 0 24.4753 0 23.8281V5.85938C0 5.21216 0.503672 4.6875 1.125 4.6875H4.5V19.1406C4.5 20.6484 5.67755 21.875 7.125 21.875H15ZM15 5.07812V0H7.125C6.50367 0 6 0.524658 6 1.17188V19.1406C6 19.7878 6.50367 20.3125 7.125 20.3125H19.875C20.4963 20.3125 21 19.7878 21 19.1406V6.25H16.125C15.5063 6.25 15 5.72266 15 5.07812ZM20.6705 3.56304L17.5795 0.343213C17.3685 0.123458 17.0824 1.62498e-06 16.784 0L16.5 0V4.6875H21V4.39165C21 4.08086 20.8815 3.7828 20.6705 3.56304V3.56304Z" fill="#70708C"/>
</svg>
