<svg width="16" height="17" viewBox="0 0 16 17" fill="none" xmlns="http://www.w3.org/2000/svg">
<path d="M11.4286 14.875V16.2031C11.4286 16.6432 11.0448 17 10.5714 17H0.857143C0.38375 17 0 16.6432 0 16.2031V3.98438C0 3.54427 0.38375 3.1875 0.857143 3.1875H3.42857V13.0156C3.42857 14.0409 4.32575 14.875 5.42857 14.875H11.4286ZM11.4286 3.45312V0H5.42857C4.95518 0 4.57143 0.356768 4.57143 0.796875V13.0156C4.57143 13.4557 4.95518 13.8125 5.42857 13.8125H15.1429C15.6163 13.8125 16 13.4557 16 13.0156V4.25H12.2857C11.8143 4.25 11.4286 3.89141 11.4286 3.45312ZM15.749 2.42287L13.3939 0.233385C13.2332 0.0839516 13.0151 1.10499e-06 12.7878 0L12.5714 0V3.1875H16V2.98632C16 2.77499 15.9097 2.57231 15.749 2.42287Z" fill="#E53C1F"/>
</svg>
