<svg width="19" height="19" viewBox="0 0 19 19" fill="none" xmlns="http://www.w3.org/2000/svg">
<path d="M9.5 1.1875C4.90957 1.1875 1.1875 4.90957 1.1875 9.5C1.1875 14.0904 4.90957 17.8125 9.5 17.8125C14.0904 17.8125 17.8125 14.0904 17.8125 9.5C17.8125 4.90957 14.0904 1.1875 9.5 1.1875ZM9.5 16.4023C5.68887 16.4023 2.59766 13.3111 2.59766 9.5C2.59766 5.68887 5.68887 2.59766 9.5 2.59766C13.3111 2.59766 16.4023 5.68887 16.4023 9.5C16.4023 13.3111 13.3111 16.4023 9.5 16.4023Z" fill="#70708C"/>
<path d="M11.5707 5.87627C11.0141 5.38828 10.2793 5.12109 9.5 5.12109C8.7207 5.12109 7.98594 5.39014 7.4293 5.87627C6.85039 6.38281 6.53125 7.06377 6.53125 7.79297V7.93398C6.53125 8.01562 6.59805 8.08242 6.67969 8.08242H7.57031C7.65195 8.08242 7.71875 8.01562 7.71875 7.93398V7.79297C7.71875 6.97471 8.51846 6.30859 9.5 6.30859C10.4815 6.30859 11.2812 6.97471 11.2812 7.79297C11.2812 8.37002 10.873 8.89883 10.2403 9.14189C9.84697 9.29219 9.51299 9.55566 9.27363 9.90078C9.03057 10.2533 8.90439 10.6764 8.90439 11.105V11.5039C8.90439 11.5855 8.97119 11.6523 9.05283 11.6523H9.94346C10.0251 11.6523 10.0919 11.5855 10.0919 11.5039V11.0827C10.0929 10.9026 10.1481 10.7269 10.2503 10.5787C10.3526 10.4304 10.4972 10.3164 10.6652 10.2515C11.76 9.83027 12.4669 8.86543 12.4669 7.79297C12.4688 7.06377 12.1496 6.38281 11.5707 5.87627ZM8.75781 13.582C8.75781 13.7789 8.83601 13.9677 8.97519 14.1068C9.11438 14.246 9.30316 14.3242 9.5 14.3242C9.69684 14.3242 9.88562 14.246 10.0248 14.1068C10.164 13.9677 10.2422 13.7789 10.2422 13.582C10.2422 13.3852 10.164 13.1964 10.0248 13.0572C9.88562 12.918 9.69684 12.8398 9.5 12.8398C9.30316 12.8398 9.11438 12.918 8.97519 13.0572C8.83601 13.1964 8.75781 13.3852 8.75781 13.582Z" fill="#70708C"/>
</svg>
