<svg width="20" height="20" viewBox="0 0 20 20" fill="none" xmlns="http://www.w3.org/2000/svg">
<g clip-path="url(#clip0_302_854)">
<path d="M2.88192 13.75C1.90427 13.75 1.11108 14.5898 1.11108 15.625C1.11108 16.6602 1.90427 17.5 2.88192 17.5C3.85957 17.5 4.65275 16.6602 4.65275 15.625C4.65275 14.5898 3.85957 13.75 2.88192 13.75ZM18.2291 13.75C17.2515 13.75 16.4583 14.5898 16.4583 15.625C16.4583 16.6602 17.2515 17.5 18.2291 17.5C19.2068 17.5 20 16.6602 20 15.625C20 14.5898 19.2068 13.75 18.2291 13.75ZM13.8389 14.1836C14.0087 13.6172 13.898 12.9805 13.4774 12.5312C13.0531 12.082 12.4518 11.9688 11.9169 12.1445C11.6586 11.6172 11.1532 11.2461 10.5555 11.2461C9.95787 11.2461 9.45245 11.6172 9.1942 12.1445C8.65926 11.9648 8.05792 12.082 7.63365 12.5312C7.20939 12.9805 7.1024 13.6172 7.26842 14.1836C6.77037 14.457 6.41989 14.9922 6.41989 15.625C6.41989 16.2578 6.77037 16.793 7.26842 17.0664C7.09871 17.6328 7.20939 18.2695 7.63365 18.7188C7.93617 19.0391 8.33092 19.1992 8.72936 19.1992C8.88799 19.1992 9.04294 19.1562 9.1942 19.1016C9.45245 19.6289 9.95787 20 10.5555 20C11.1532 20 11.6586 19.6289 11.9169 19.1016C12.0681 19.1523 12.2231 19.1992 12.3817 19.1992C12.7801 19.1992 13.1749 19.0391 13.4774 18.7188C13.9017 18.2695 14.0087 17.6328 13.8389 17.0664C14.337 16.793 14.6875 16.2578 14.6875 15.625C14.6875 14.9922 14.337 14.457 13.8389 14.1836ZM20 8.75C20 6.67969 18.4136 5 16.4583 5C16.4362 5 16.4177 5.00781 16.3993 5.00781C16.4399 4.80469 16.4583 4.59375 16.4583 4.375C16.4583 2.64844 15.1376 1.25 13.5069 1.25C12.5994 1.25 11.7988 1.69141 11.2565 2.375C10.5703 0.96875 9.20158 0 7.60414 0C5.3205 0 3.4722 1.95703 3.4722 4.375C3.4722 4.66016 3.50171 4.93359 3.54967 5.20312C2.13669 5.69531 1.11108 7.08984 1.11108 8.75C1.11108 10.8203 2.69746 12.5 4.65275 12.5H6.25388C6.38669 12.1875 6.56378 11.8984 6.79989 11.6484C7.29793 11.1211 7.962 10.8242 8.67402 10.8164C9.17206 10.3008 9.84351 10 10.5555 10C11.2676 10 11.939 10.3008 12.437 10.8164C13.1491 10.8242 13.8131 11.1211 14.3112 11.6484C14.5473 11.8984 14.7281 12.1875 14.8572 12.5H16.4583C18.4136 12.5 20 10.8203 20 8.75Z" fill="#70708C"/>
</g>
<defs>
<clipPath id="clip0_302_854">
<rect width="20" height="20" fill="white"/>
</clipPath>
</defs>
</svg>
