<svg width="20" height="28" viewBox="0 0 20 28" fill="none" xmlns="http://www.w3.org/2000/svg">
<rect x="0.5" y="1.44141" width="19" height="26.0588" fill="white" stroke="#E53C1F"/>
<path d="M16.4663 14.4707H8.57153V24.9936H16.4663C16.8413 24.9936 17.143 24.6417 17.143 24.2044V15.2599C17.143 14.8226 16.8413 14.4707 16.4663 14.4707ZM15.7896 18.4168C15.7896 18.6338 15.6373 18.8114 15.4512 18.8114H15.1298C14.9353 19.5875 14.518 20.3701 13.9259 21.11C14.1627 21.3204 14.408 21.521 14.6618 21.7019C14.8168 21.8137 14.8676 22.0472 14.7774 22.2346L14.5546 22.6917C14.4588 22.8857 14.2473 22.9482 14.0838 22.8331C13.7285 22.5766 13.393 22.3037 13.0856 22.0143C12.7783 22.3004 12.4456 22.5766 12.0875 22.8331C11.924 22.9482 11.7125 22.8857 11.6166 22.6917L11.3939 22.2346C11.3037 22.0505 11.3544 21.8137 11.5123 21.7019C11.7745 21.5145 12.0198 21.3171 12.2482 21.11C12.0255 20.8338 11.8281 20.551 11.6561 20.2649C11.5433 20.0774 11.5941 19.8176 11.7604 19.7025L11.9437 19.5743L12.1495 19.4329C12.3018 19.3277 12.4992 19.377 12.6007 19.5447C12.7416 19.7749 12.9052 20.0051 13.0913 20.232C13.4719 19.765 13.7623 19.2816 13.9371 18.8114H10.7144C10.5283 18.8114 10.376 18.6338 10.376 18.4168V17.8906C10.376 17.6736 10.5283 17.496 10.7144 17.496H12.5189V16.9699C12.5189 16.7529 12.6712 16.5753 12.8572 16.5753H13.3084C13.4945 16.5753 13.6467 16.7529 13.6467 16.9699V17.496H15.4512C15.6373 17.496 15.7896 17.6736 15.7896 17.8906V18.4168Z" fill="#E53C1F"/>
<path fill-rule="evenodd" clip-rule="evenodd" d="M2.85718 4.7022V13.2471C2.85718 13.6649 3.15887 14.0011 3.53387 14.0011H11.4286V3.94824H3.53387C3.15887 3.94824 2.85718 4.28438 2.85718 4.7022ZM9.80503 11.2594L7.37432 5.77603H7.02485L4.59414 11.2594H5.43285L5.98423 9.94992H8.42271L8.96632 11.2594H9.80503ZM6.27156 9.25427L7.21123 7.02001L8.13537 9.25427H6.27156Z" fill="#E53C1F"/>
</svg>
