<svg width="17" height="17" viewBox="0 0 17 17" fill="none" xmlns="http://www.w3.org/2000/svg">
<path d="M8.5 3.9375H15.5833" stroke="#70708C" stroke-width="1.5" stroke-miterlimit="10" stroke-linecap="round" stroke-linejoin="round"/>
<path d="M10.0725 1.41602H14.0108C15.2717 1.41602 15.5833 1.72768 15.5833 2.97435V5.8856C15.5833 7.13227 15.2717 7.44393 14.0108 7.44393H10.0725C8.81167 7.44393 8.5 7.13227 8.5 5.8856V2.97435C8.5 1.72768 8.81167 1.41602 10.0725 1.41602Z" stroke="#70708C" stroke-width="1.5" stroke-linecap="round" stroke-linejoin="round"/>
<path d="M1.41669 12.084H8.50002" stroke="#70708C" stroke-width="1.5" stroke-miterlimit="10" stroke-linecap="round" stroke-linejoin="round"/>
<path d="M2.98919 9.5625H6.92752C8.18835 9.5625 8.50002 9.87417 8.50002 11.1208V14.0321C8.50002 15.2788 8.18835 15.5904 6.92752 15.5904H2.98919C1.72835 15.5904 1.41669 15.2788 1.41669 14.0321V11.1208C1.41669 9.87417 1.72835 9.5625 2.98919 9.5625Z" stroke="#70708C" stroke-width="1.5" stroke-linecap="round" stroke-linejoin="round"/>
<path d="M15.5833 10.625C15.5833 13.3662 13.3662 15.5833 10.625 15.5833L11.3687 14.3437" stroke="#70708C" stroke-width="1.5" stroke-linecap="round" stroke-linejoin="round"/>
<path d="M1.41669 6.37435C1.41669 3.6331 3.63377 1.41602 6.37502 1.41602L5.63128 2.6556" stroke="#70708C" stroke-width="1.5" stroke-linecap="round" stroke-linejoin="round"/>
</svg>
