<svg width="12" height="12" viewBox="0 0 12 12" fill="none" xmlns="http://www.w3.org/2000/svg">
<path d="M9.48387 1.28809C11.0081 2.35952 12 4.1119 12 6.09523C12 9.35237 9.31936 11.9928 6.0121 12C2.70968 12.0071 0.00484312 9.35713 4.41572e-06 6.10475C-0.00241494 4.12142 0.98952 2.36428 2.51129 1.29047C2.79436 1.09286 3.18871 1.17619 3.35807 1.47381L3.74033 2.14285C3.88307 2.39285 3.81533 2.70952 3.58065 2.88095C2.57662 3.61428 1.93549 4.77618 1.93549 6.09285C1.93307 8.29047 3.73791 10.0952 6 10.0952C8.21613 10.0952 10.079 8.32856 10.0645 6.06904C10.0573 4.83571 9.46694 3.64523 8.41694 2.87857C8.18226 2.70714 8.11694 2.39047 8.25968 2.14285L8.64194 1.47381C8.81129 1.17857 9.20323 1.09047 9.48387 1.28809ZM6.96774 6.28571V0.571428C6.96774 0.254762 6.70887 0 6.3871 0H5.61291C5.29113 0 5.03226 0.254762 5.03226 0.571428V6.28571C5.03226 6.60237 5.29113 6.85713 5.61291 6.85713H6.3871C6.70887 6.85713 6.96774 6.60237 6.96774 6.28571Z" fill="#E53C1F"/>
</svg>
