<svg width="179" height="75" viewBox="0 0 179 75" fill="none" xmlns="http://www.w3.org/2000/svg">
<path d="M21.7678 1.61171L21.211 2.37726C20.8399 2.19168 20.3527 2.12209 19.7727 2.16849C19.1928 2.21488 18.5432 2.35407 17.8473 2.58606C19.2508 2.07569 20.4223 1.82051 21.3502 1.82051C21.3966 1.72771 21.4198 1.69292 21.4198 1.71612C21.4198 1.73932 21.443 1.7045 21.4894 1.61171C21.5822 1.51892 21.7098 1.41454 21.8722 1.29854C22.0346 1.18255 22.1854 1.12455 22.3246 1.12455H25.6187L27.579 0.776566L35.5709 2.59765L38.3083 0.915768C38.4475 0.822974 38.6331 0.788181 38.865 0.81138C39.097 0.834578 39.2826 0.892567 39.4218 0.985361L40.0482 1.40293C40.141 1.49573 40.2454 1.62332 40.3614 1.78571C40.4773 1.9481 40.5353 2.09889 40.5353 2.23808L40.6049 5.74105L40.1178 16.2615C40.1178 16.5399 40.141 16.8299 40.1874 17.1431C40.2338 17.4447 40.257 17.7114 40.257 17.955C40.257 18.2334 40.1526 18.477 39.9438 18.6858C39.735 18.8946 39.4914 18.999 39.213 18.999H38.0879C37.5775 18.999 37.1484 18.7902 36.8236 18.3726C36.4988 17.955 36.174 17.3403 35.8377 16.5515C35.5593 15.9484 35.1649 15.2292 34.6429 14.4173C34.1326 13.6053 33.4598 12.8282 32.6479 12.109C31.8243 11.3899 30.85 10.7983 29.7017 10.3575C28.5533 9.91677 27.1846 9.71957 25.5955 9.76596C24.9924 9.81236 24.3428 9.93995 23.6701 10.1487C22.9973 10.3575 22.3362 10.6127 21.7098 10.9143C21.0834 11.2159 20.4919 11.5639 19.9583 11.9698C19.4247 12.3642 19.0072 12.7818 18.7288 13.1993C18.4968 13.6169 18.2648 14.0345 18.0328 14.4289C17.8009 14.8232 17.6385 15.148 17.5457 15.38C17.3601 15.7512 17.1861 16.134 17.0237 16.5051C16.8613 16.8763 16.6641 17.2591 16.4322 17.6303C16.4322 17.723 16.409 17.8854 16.3626 18.1174C16.3162 18.3494 16.2466 18.5814 16.1538 18.8134C16.061 19.1845 15.9334 19.6253 15.771 20.1125C15.6086 20.5997 15.4346 21.0172 15.249 21.342L15.4578 21.5508V22.1771C15.4578 23.0239 15.2258 23.8822 14.7619 24.7754C14.9011 25.4249 15.0518 26.0861 15.2142 26.7356C15.3766 27.3852 15.5274 28.0463 15.6666 28.6959C15.7594 29.7746 16.0958 31.1317 16.6873 32.7672C17.2673 34.4027 18.0676 35.9802 19.0768 37.4997C20.0859 39.0192 21.3038 40.3299 22.7537 41.4318C24.2036 42.5338 25.8391 43.0789 27.6602 43.0789H29.3421C29.8061 43.0325 30.2236 42.9977 30.6064 42.9745C30.9776 42.9513 31.3951 42.9166 31.8707 42.8702C32.2883 42.6846 32.5551 42.557 32.6711 42.4874C32.7871 42.4178 33.077 42.267 33.5526 42.035C33.4598 41.6638 33.541 41.3275 33.7962 41.0143C34.0514 40.7127 34.3646 40.6083 34.7473 40.7011C34.9793 40.7475 35.1765 40.7939 35.3389 40.8403C35.5013 40.8867 35.6521 40.9563 35.7913 41.0491C35.6985 41.0027 35.7913 40.9795 36.0696 40.9795C36.1624 40.9795 36.3828 40.7939 36.7308 40.4227C37.0788 40.0515 37.4383 39.634 37.8211 39.1584C38.3315 38.5089 38.8535 37.9405 39.3638 37.4765C39.8742 37.0125 40.3961 36.7806 40.9065 36.7806C41.4169 36.7806 41.7881 36.9546 41.9968 37.3025C42.2056 37.6505 42.3216 38.0797 42.3448 38.5668C42.368 39.054 42.3448 39.5876 42.2752 40.1443C42.2056 40.7011 42.1476 41.1767 42.1012 41.5478V44.842C42.1012 45.4452 41.8924 46.1295 41.4749 46.8719C41.0573 47.6258 40.3961 48.2522 39.5146 48.7626C39.2826 48.8554 38.9578 49.0409 38.5287 49.3193C38.1111 49.5977 37.6587 49.8761 37.1948 50.1661L36.0696 50.9432C34.9909 51.4072 33.4366 51.79 31.4067 52.0683C29.3769 52.3467 27.2774 52.4859 25.1316 52.4859C23.8673 52.4859 22.6493 52.4279 21.4894 52.3119C20.3179 52.1959 19.274 51.9755 18.3344 51.6508C16.5133 51.0476 14.9706 50.4097 13.7063 49.7601C12.442 49.1105 11.3053 48.3566 10.3078 47.5214C9.29863 46.6747 8.35909 45.7236 7.46595 44.6448C6.57281 43.5661 5.62167 42.2786 4.58934 40.7823C4.21817 40.2719 3.97458 39.8428 3.85859 39.518C3.7426 39.1932 3.6846 38.8916 3.6846 38.6016C3.6846 38.5088 3.64981 38.3929 3.58021 38.2537C3.51062 38.1145 3.33663 37.8129 3.05825 37.3373C2.64067 36.6414 2.39709 36.131 2.3275 35.8294C2.2579 35.5278 2.2695 35.1915 2.36229 34.8087C2.45509 34.5303 2.43189 34.1591 2.2927 33.6836C2.06071 33.034 1.89832 32.3845 1.80553 31.7581C1.71274 31.1317 1.61994 30.5518 1.52715 30.0414C1.43435 29.4383 1.36476 28.8815 1.31836 28.3943C1.27197 27.9072 1.15597 27.5476 0.970386 27.304C0.784798 27.072 0.715203 26.8168 0.7616 26.5269C0.807997 26.2485 0.947187 26.0165 1.17917 25.8309C1.27197 25.7381 1.34156 25.4017 1.38796 24.8102C1.43435 24.2302 1.48075 23.5574 1.52715 22.8151C1.57355 21.8756 1.65474 20.8896 1.77073 19.8341C1.88672 18.7786 2.17671 17.8622 2.65227 17.0619L3.49902 15.38C3.87019 14.6377 4.27616 13.8373 4.72853 12.9906C5.1693 12.1438 5.64487 11.3551 6.13204 10.6011C6.61921 9.85876 7.12957 9.19762 7.63994 8.64086C8.15031 8.08409 8.69547 7.72451 9.25223 7.58532C9.15944 7.72451 9.15944 7.8637 9.25223 8.00289C8.69547 8.04929 8.11551 8.42047 7.53555 9.12802C6.95559 9.82397 6.37562 10.6591 5.81886 11.6218C5.2621 12.5846 4.72853 13.5473 4.24137 14.5332C3.7542 15.5192 3.33663 16.3311 3.01185 16.9923C2.64067 17.6418 2.39709 18.4538 2.2811 19.4165C2.16511 20.3793 2.09551 21.3072 2.07231 22.2235C2.04911 23.1399 1.99112 23.9518 1.89832 24.6826C1.80553 25.4017 1.59674 25.8889 1.27197 26.1209C1.50395 26.4457 1.66634 26.8748 1.75913 27.3852C1.85193 27.8956 1.93312 28.4523 2.00272 29.0323C2.07231 29.6122 2.15351 30.2502 2.2463 30.923C2.33909 31.5957 2.50148 32.2453 2.73347 32.8484C2.87266 33.3588 2.94225 33.7416 2.94225 33.9736C2.94225 34.2055 2.91905 34.4143 2.87266 34.5999C2.82626 34.7855 2.83786 34.9827 2.90746 35.1915C2.97705 35.4003 3.15104 35.7366 3.42942 36.2122C3.7542 36.769 3.96299 37.1865 4.05578 37.4417C4.14857 37.6969 4.19497 37.9057 4.19497 38.0681C4.19497 38.2305 4.22977 38.416 4.29936 38.6248C4.36896 38.8336 4.56615 39.1468 4.89092 39.576C6.06245 41.2115 7.03678 42.557 7.83713 43.6125C8.63747 44.668 9.47262 45.5612 10.3658 46.3151C11.2589 47.0575 12.2912 47.7302 13.4859 48.3102C14.6807 48.8902 16.235 49.4933 18.1488 50.0965C19.274 50.4676 20.6311 50.6996 22.2202 50.7924C23.8093 50.8852 25.4215 50.8852 27.057 50.7924C28.6925 50.6996 30.2352 50.5257 31.6851 50.2705C33.135 50.0153 34.2602 49.7253 35.0489 49.3889C35.3737 49.2033 35.8956 48.8786 36.5916 48.403C37.2876 47.939 37.9255 47.5562 38.4823 47.2779C39.1782 46.8603 39.7118 46.3499 40.0598 45.77C40.4077 45.19 40.5585 44.6796 40.5121 44.2621V41.0375C40.5121 40.9447 40.5469 40.7011 40.6165 40.3067C40.6861 39.9123 40.7325 39.4716 40.7557 39.0076C40.7789 38.5436 40.7673 38.1261 40.7209 37.7781C40.6745 37.4301 40.5585 37.2561 40.3729 37.2561C40.0946 37.2561 39.7466 37.4765 39.3174 37.9173C38.8998 38.3581 38.4475 38.8452 37.9835 39.3556C37.5195 39.866 37.0672 40.3531 36.6496 40.7939C36.232 41.2347 35.8493 41.4551 35.5245 41.4551C35.2925 41.4551 35.1301 41.4435 35.0373 41.4203C34.9445 41.3971 34.8633 41.3739 34.7937 41.3507C34.7241 41.3275 34.6429 41.3043 34.5501 41.2811C34.4573 41.2579 34.295 41.2231 34.063 41.1767L34.4109 42.0234L31.6039 43.3573L28.8665 43.5661H27.115C25.1084 43.5661 23.3105 42.9977 21.7446 41.8494C20.1787 40.7011 18.8448 39.3324 17.7429 37.7433C16.6409 36.1542 15.7826 34.4955 15.1446 32.7672C14.5183 31.0389 14.1471 29.6122 14.0543 28.4871L13.0684 23.9982C13.3468 23.627 13.5439 23.2327 13.6599 22.8035C13.7759 22.3859 13.8339 21.9916 13.8339 21.6088C13.8339 21.284 13.8339 21.0868 13.8339 21.0172C13.8339 20.9476 13.8223 20.9128 13.7991 20.9128C13.7759 20.9128 13.7411 20.9128 13.6947 20.9128C13.6483 20.9128 13.5787 20.7968 13.4859 20.5649C13.7643 20.3793 13.9615 20.1009 14.0775 19.7181C14.1935 19.3469 14.2979 18.9641 14.3907 18.5582C14.4835 18.1638 14.5647 17.781 14.6343 17.3983C14.7039 17.0271 14.8083 16.7255 14.9474 16.4819C15.4114 15.7396 15.8058 14.9972 16.1074 14.2781C16.409 13.5589 16.7917 12.8166 17.2673 12.0742C17.5921 11.5638 18.0444 11.0767 18.636 10.6359C19.216 10.1951 19.8771 9.78916 20.5963 9.44119C21.3154 9.09321 22.0578 8.80324 22.8001 8.55965C23.5425 8.32767 24.2732 8.18848 24.9692 8.14208C27.5442 7.9101 29.5741 8.25808 31.0704 9.19761C32.5667 10.1372 33.7266 11.2043 34.5385 12.4222C35.3505 13.6401 35.9652 14.7768 36.3596 15.8208C36.754 16.8763 37.1368 17.3983 37.5195 17.3983H38.6447L38.5055 15.6468L38.9926 5.12627L38.923 1.69291L38.2967 1.27534L34.7241 3.44439L34.7937 3.09641L26.941 1.27534L25.0504 1.62332H21.7678V1.61171ZM37.9023 4.00117C37.8559 4.18675 37.7863 4.47673 37.6935 4.8827C37.6007 5.27707 37.5543 5.59024 37.5543 5.83383V6.88936L37.6239 8.64086L37.5543 9.69637L37.6239 11.4479L37.5543 12.5034C37.5543 12.8746 37.5891 13.095 37.6587 13.1645C37.7283 13.2341 37.8095 13.3849 37.9023 13.6169H37.2064V14.1737C36.696 13.8953 36.348 13.4893 36.1856 12.9442C36.0232 12.4106 35.6869 11.761 35.1649 11.0187C34.7473 10.3691 34.295 9.91676 33.831 9.68478C33.367 9.45279 32.7987 9.1512 32.1491 8.76843C31.1168 8.11887 29.98 7.63172 28.7157 7.33014C27.4514 7.02856 26.2103 6.99376 24.9924 7.22575C23.6353 7.45773 22.4057 7.73611 21.3154 8.07249C20.2135 8.39727 19.2044 9.03523 18.2648 9.96317C17.8473 10.3807 17.3949 10.8679 16.9309 11.4015C16.4669 11.935 16.0262 12.4918 15.6318 13.0485C15.2374 13.6053 14.8779 14.1505 14.5763 14.6608C14.2747 15.1712 14.0775 15.6468 13.9847 16.0644C13.5207 17.8854 13.1728 19.2889 12.964 20.2749C12.7552 21.2608 12.616 22.1191 12.5464 22.8731C12.4768 23.6154 12.4768 24.4158 12.5464 25.2625C12.616 26.1093 12.7204 27.246 12.8596 28.6959C12.9988 30.1922 13.312 31.5493 13.8107 32.7672C14.2979 33.9851 14.8547 35.1335 15.4578 36.2006C16.061 37.2793 16.6757 38.3465 17.2789 39.4252C17.8821 40.5039 18.3576 41.6406 18.6824 42.8586L17.9864 43.5545L15.9566 42.9282C16.003 43.7749 16.293 44.3896 16.8381 44.784C17.3717 45.1784 17.998 45.5032 18.694 45.7352C19.39 45.9672 20.0743 46.1875 20.7239 46.3963C21.3734 46.6051 21.8954 46.9415 22.2666 47.4171H26.7555C27.7878 47.4171 28.9825 47.2663 30.3628 46.9647C31.7431 46.6631 33.0654 46.2339 34.3298 45.6656C35.5941 45.1088 36.6728 44.4361 37.5543 43.6705C38.4359 42.905 38.9346 42.0466 39.0274 41.1071H39.3754L39.445 43.2065C39.445 43.6705 39.4682 43.9837 39.5146 44.1577C39.561 44.3201 39.5494 44.4593 39.4798 44.5752C39.4102 44.6912 39.271 44.8536 39.0622 45.0624C38.8534 45.2712 38.5171 45.6076 38.0415 46.0831C37.6703 46.4543 37.1368 46.8487 36.464 47.2779C35.7913 47.6954 35.1417 48.0318 34.5385 48.2638C34.1674 48.403 33.6802 48.5538 33.1002 48.7162C32.5203 48.8785 31.9055 49.0526 31.2792 49.2381C30.6528 49.4237 30.0496 49.5745 29.4929 49.6905C28.9361 49.8065 28.4837 49.8645 28.159 49.8645H22.2666C21.9882 49.8645 21.5358 49.7833 20.9326 49.6209C20.3295 49.4585 19.6683 49.2613 18.9724 49.0293C18.2764 48.7974 17.5921 48.5654 16.9425 48.3334C16.293 48.1014 15.771 47.939 15.3998 47.8462C15.075 47.7998 14.5763 47.5794 13.9267 47.1851C13.2772 46.7907 12.6276 46.3151 12.0012 45.7816C11.3749 45.248 10.8413 44.7144 10.4238 44.2041C10.0062 43.6937 9.86699 43.2413 10.0062 42.8702H8.95065L8.60268 40.1327L8.81146 39.7848L13.37 42.8702L13.2308 43.3573L14.2863 42.2322C13.4859 41.6754 12.732 40.8751 12.0012 39.8428C11.2705 38.8104 10.6325 37.6969 10.0758 36.479C9.51901 35.2611 9.06664 34.0431 8.74187 32.8368C8.41709 31.6189 8.2547 30.5518 8.2547 29.6122C8.3011 29.5194 8.34749 29.4035 8.39389 29.2643C8.48668 29.0323 8.55628 28.9163 8.60268 28.9163L7.90672 28.2203L7.97632 25.0653L7.90672 24.0098L7.97632 22.2583L7.90672 20.8548H8.60268C8.46348 20.6229 8.34749 20.5069 8.2547 20.5069C8.2547 20.4141 8.2547 20.1821 8.2547 19.8109C8.2547 19.3469 8.46348 18.5466 8.88106 17.4215C9.29863 16.2963 9.83219 15.1364 10.4586 13.9533C11.0849 12.7586 11.7577 11.6914 12.4536 10.7287C13.1496 9.76597 13.7643 9.17441 14.2747 8.94243C14.5531 8.80324 14.9475 8.58284 15.4694 8.28126C15.9798 7.97968 16.5365 7.65492 17.1165 7.29534C17.6965 6.94736 18.2996 6.61098 18.9028 6.2746C19.5059 5.94983 20.0743 5.71783 20.5847 5.57864C20.8631 5.53225 21.2806 5.46266 21.849 5.36987C22.4058 5.27707 22.9973 5.19587 23.6005 5.12627C24.2036 5.05668 24.7836 4.99869 25.3172 4.95229C25.8507 4.9059 26.1987 4.8827 26.3379 4.8827H27.463C27.7878 4.8827 28.2866 4.94069 28.9709 5.05668C29.6437 5.17267 30.3396 5.33506 31.0356 5.54385C31.7315 5.75263 32.3927 6.04262 32.9958 6.4254C33.599 6.79657 33.9818 7.22574 34.121 7.68971L35.8029 6.84297L36.2204 5.02189L37.9023 4.00117ZM33.2742 8.42047C33.367 8.51326 33.4482 8.57125 33.5178 8.59445C33.5874 8.61765 33.6686 8.67564 33.7614 8.76843C33.7614 8.72203 33.7498 8.68724 33.7266 8.66404C33.7034 8.64084 33.6918 8.60605 33.6918 8.55965C33.5526 8.18848 33.2394 7.87529 32.7407 7.60851C32.2535 7.35332 31.6967 7.13295 31.0936 6.94736C30.4904 6.76177 29.8872 6.63418 29.3073 6.56458C28.7273 6.49499 28.2866 6.4602 28.0082 6.4602H26.8831C26.7439 6.4602 26.4307 6.48339 25.9319 6.52979C25.4447 6.57619 24.8996 6.62258 24.3196 6.66897C23.7397 6.71537 23.1713 6.78497 22.6377 6.87777C22.1042 6.97056 21.6866 7.04015 21.4082 7.08655C20.8979 7.22574 20.2135 7.53892 19.3784 8.03769C18.5316 8.52486 17.7661 8.98882 17.0585 9.40639C16.6873 9.63838 16.293 9.87037 15.8638 10.1024C15.4462 10.3343 15.1098 10.4967 14.8779 10.5895C14.4603 10.7751 13.9499 11.2971 13.37 12.167C12.79 13.037 12.2216 13.9997 11.6881 15.0784C11.1545 16.1571 10.7021 17.1895 10.3542 18.1986C10.0062 19.2077 9.83219 19.9153 9.83219 20.3329V20.6112C9.87859 20.6576 9.90179 20.6924 9.90179 20.7156C9.90179 20.7388 9.92499 20.7736 9.97138 20.82C10.2034 21.1448 10.2614 21.458 10.1454 21.7712C10.0294 22.0727 9.83219 22.2699 9.55381 22.3627V22.7803L9.48422 24.5318L9.55381 25.5873L9.48422 28.2551L9.90179 28.6727C10.1338 28.9511 10.2382 29.2411 10.215 29.5543C10.1918 29.8558 10.0642 30.0994 9.83219 30.285C9.83219 31.1781 9.98298 32.1873 10.2846 33.3356C10.5861 34.4839 10.9921 35.6206 11.5141 36.7342C12.0244 37.8593 12.616 38.88 13.2656 39.8196C13.9151 40.7591 14.6227 41.455 15.365 41.919C15.6434 42.1974 15.8058 42.4294 15.8522 42.615C16.0842 42.383 16.409 42.3366 16.8381 42.4758L17.9632 42.8237C17.7313 42.035 17.4181 41.2927 17.0121 40.6199C16.6177 39.9472 16.177 39.2048 15.713 38.4161C14.9127 37.1053 14.1935 35.7366 13.5439 34.3099C12.8944 32.8832 12.4884 31.2361 12.3492 29.3687C12.3028 29.1367 12.2796 28.8815 12.2796 28.6031C12.2796 28.3247 12.2564 28.0927 12.21 27.9071C12.1172 27.1648 12.0592 26.5153 12.036 25.9817C12.0128 25.4481 12.0012 24.9146 12.0012 24.4042C12.0012 23.8938 12.0244 23.3835 12.0708 22.8963C12.1172 22.4091 12.1984 21.8524 12.3144 21.2492C12.4304 20.646 12.5812 19.9385 12.7668 19.1497C12.9524 18.361 13.1844 17.4215 13.4628 16.3427C13.6019 15.8788 13.8339 15.3452 14.1587 14.7652C14.4835 14.1853 14.8547 13.5937 15.2838 13.0138C15.7014 12.4338 16.1654 11.8422 16.6525 11.2623C17.1397 10.6823 17.6037 10.1719 18.0212 9.75437C19.0536 8.72204 20.1439 8.02609 21.3154 7.65491C22.4869 7.28374 23.8209 6.98215 25.3172 6.73857C26.6743 6.50658 28.0546 6.55299 29.4581 6.87777C30.8848 7.20255 32.1491 7.71291 33.2742 8.42047ZM19.8075 47.5562C18.8216 47.2779 17.8937 46.8951 17.0005 46.3963C16.1074 45.9091 15.597 45.0044 15.4578 43.6937L14.5415 44.6796C14.1703 45.0508 13.7759 45.1436 13.3468 44.958C12.9292 44.7724 12.7204 44.4245 12.7204 43.9025V43.8329C12.4884 43.6937 12.2912 43.5545 12.1288 43.4153C11.9664 43.2761 11.7693 43.1601 11.5373 43.0673C11.6301 43.2993 11.6301 43.5545 11.5373 43.8329C11.4445 44.0649 11.5721 44.3665 11.9201 44.7492C12.268 45.1204 12.7088 45.5032 13.254 45.8744C13.7875 46.2455 14.3443 46.5819 14.9011 46.8951C15.4578 47.1967 15.887 47.3707 16.1654 47.4171C16.3974 47.5098 16.7105 47.6026 17.1165 47.6954C17.5109 47.7882 17.9169 47.9042 18.346 48.0434C19.2392 48.3682 20.1323 48.6698 21.0486 48.9598C21.965 49.2381 22.5565 49.3773 22.8349 49.3773H28.7273C29.0057 49.3773 29.4117 49.3193 29.9568 49.2033C30.4904 49.0873 31.0588 48.9481 31.6387 48.7858C32.2187 48.6234 32.7987 48.461 33.3554 48.2986C33.9122 48.1362 34.3877 47.9854 34.7589 47.8462C35.2693 47.6606 35.8261 47.3823 36.406 46.9995C36.986 46.6283 37.4731 46.2571 37.8443 45.8744L38.6911 45.0276C37.9951 45.6308 37.16 46.1875 36.1972 46.6747C35.2345 47.1619 34.237 47.591 33.1814 47.939C32.1259 48.287 31.1052 48.5538 30.096 48.751C29.0869 48.9365 28.1706 49.0293 27.3238 49.0293H22.8233C22.7305 49.0293 22.5913 48.983 22.4058 48.8902C22.2202 48.7974 22.081 48.7046 21.9882 48.6118C21.7562 48.3334 21.4546 48.1246 21.0718 47.9854C20.7007 47.8346 20.2715 47.6954 19.8075 47.5562ZM37.0672 8.14208C36.9744 8.23487 36.9048 8.28126 36.8584 8.28126L35.1765 9.12802C34.9909 9.22081 34.8517 9.26721 34.7589 9.26721C35.1301 9.45279 35.4665 9.67317 35.7797 9.92835C36.0812 10.1835 36.3712 10.5431 36.6612 11.0187C36.754 11.1115 36.8352 11.2391 36.9048 11.4015C36.9744 11.5638 37.0556 11.7378 37.1484 11.9234L37.0788 10.2415L37.1484 9.186L37.0672 8.14208Z" fill="#6D6E71"/>
<path d="M56.1363 15.0784L59.848 15.496C60.2192 15.496 60.544 15.4728 60.834 15.4264C61.1123 15.38 61.4371 15.3568 61.8199 15.3568H64.5573C64.5573 15.3104 64.6037 15.264 64.6965 15.2176C64.7893 15.1248 64.9517 15.0784 65.1837 15.0784C65.4157 15.0784 65.5781 15.1016 65.6708 15.148L66.7264 15.5656C67.0511 15.7048 67.2599 15.9252 67.3527 16.2267C67.4455 16.5283 67.3991 16.8183 67.2135 17.1083C66.564 18.0942 66.0536 18.8714 65.7056 19.4629C65.3577 20.0429 65.1141 20.5997 64.9749 21.11C64.8357 21.6204 64.7545 22.1772 64.7313 22.7571C64.7081 23.3371 64.6965 24.149 64.6965 25.1813V28.6147C64.6965 29.2179 64.6849 29.8326 64.6617 30.4358C64.6385 31.039 64.6269 31.6769 64.6269 32.3265V36.9546C64.6269 37.7549 64.6385 38.5204 64.6617 39.2744C64.6849 40.0283 64.6965 40.7939 64.6965 41.5942C64.6965 42.0582 64.6849 42.4758 64.6617 42.8238C64.6385 43.1717 64.6269 43.4849 64.6269 43.7749C64.6269 44.4245 64.6269 44.958 64.6269 45.3524C64.6269 45.7468 64.7197 46.1527 64.9053 46.5819C65.0909 46.9995 65.3577 47.5099 65.7056 48.0898C66.0536 48.6698 66.5872 49.4817 67.2831 50.514C67.5151 50.8852 67.5499 51.2448 67.3875 51.6044C67.2251 51.9524 66.912 52.1263 66.4364 52.1263L65.3113 52.1959C65.0793 52.4279 64.8241 52.5439 64.5341 52.5439C64.2557 52.5439 64.0006 52.4279 63.7686 52.1959L63.4902 51.9176C63.1654 51.9176 62.887 51.9408 62.6434 51.9872C62.4115 52.0336 62.1331 52.0567 61.7967 52.0567H55.8347L52.7493 52.1263C52.2853 52.1263 51.949 51.9524 51.7634 51.6044C51.5778 51.2564 51.601 50.8968 51.833 50.514L54.0716 47.0111C54.118 45.7468 54.176 44.4825 54.2456 43.2297C54.3152 41.9654 54.3732 40.7011 54.4196 39.4368C54.4196 38.3117 54.4312 37.1865 54.4544 36.0382C54.4776 34.8899 54.4892 33.7648 54.4892 32.6396V20.5765C54.118 19.9269 53.7468 19.2657 53.3641 18.6162C52.9929 17.9666 52.6101 17.3055 52.2389 16.6559C52.007 16.2847 51.9954 15.9368 52.2041 15.6004C52.4129 15.2756 52.7261 15.1132 53.1553 15.1132H56.1363V15.0784ZM55.0112 19.7761V32.0481L54.9416 38.8452L54.5936 46.7675L52.2041 50.4908L55.2895 50.4212H61.2515L63.4902 50.2821L63.9774 50.8388C63.9774 50.7924 64.047 50.7344 64.1861 50.6648C64.3253 50.5952 64.4181 50.5605 64.4645 50.5605L65.868 50.4908C64.9749 49.1337 64.3369 48.113 63.9426 47.4403C63.5482 46.7675 63.2814 46.1527 63.1306 45.6192C62.9914 45.0856 62.945 44.4941 62.9914 43.8677C63.0378 43.2413 63.061 42.2902 63.061 41.0259C63.061 39.4368 63.0494 37.8941 63.0262 36.3978C63.003 34.9015 62.9914 33.3588 62.9914 31.7697C62.9914 30.4126 63.003 29.1831 63.0262 28.0927C63.0494 26.9908 63.061 25.8425 63.061 24.6246C63.061 23.4995 63.0726 22.6295 63.0958 21.9916C63.119 21.3652 63.2118 20.7736 63.3742 20.2401C63.5366 19.7065 63.7918 19.1265 64.1513 18.5234C64.4993 17.9202 65.0329 17.0735 65.7288 15.9948L64.6733 15.5772C64.3949 15.7628 64.1977 15.8788 64.0817 15.9252C63.9658 15.9716 63.873 15.9832 63.8034 15.96C63.7338 15.9368 63.6642 15.9136 63.5946 15.8904C63.525 15.8672 63.3974 15.8556 63.2118 15.8556H61.2515L59.1521 15.9948L55.4403 15.5772H52.6333L55.0112 19.7761ZM60.6948 18.2334C60.7876 18.2334 60.9964 18.1638 61.3211 18.0246C61.6459 17.8854 62.0055 17.723 62.4115 17.5375C62.8058 17.3519 63.1886 17.1663 63.5714 16.9807C63.9426 16.7951 64.2441 16.6559 64.4877 16.5631C64.3485 17.0735 64.1861 17.4563 64.0006 17.6882C63.815 17.9202 63.6178 18.1638 63.409 18.419C63.2002 18.6742 63.003 19.0222 62.8174 19.4745C62.6318 19.9153 62.5159 20.6113 62.4695 21.5392V22.5251C62.4231 22.8963 62.3767 23.2907 62.3303 23.685C62.2839 24.0794 62.2607 24.4738 62.2607 24.845L62.3303 26.7356V28.8351L62.2607 32.0597H62.4695L61.9823 32.7556L62.2607 38.5089L62.3999 40.8287L62.3303 42.789V44.8188C62.2839 45.8048 62.3999 46.5587 62.6782 47.0923C62.9566 47.6258 63.4554 48.4378 64.1513 49.5165L62.2607 49.5861L61.2747 49.5165H55.0344L58.6069 47.1271L59.1637 46.7791L59.0941 43.3457L59.1637 43.0673V40.8287L59.2333 19.0918L60.08 18.4654L60.6948 18.2334ZM60.9732 19.9965L60.9036 20.0661C60.9036 20.1125 60.8804 20.1357 60.834 20.1357C60.834 23.685 60.8224 27.2344 60.7992 30.7606C60.776 34.2867 60.7644 37.8361 60.7644 41.3855V43.6357L60.6948 43.9141L60.7644 47.3475C60.7644 47.765 60.5788 48.0782 60.2076 48.2638L59.6508 48.6118H59.7204C59.5813 48.751 59.4653 48.8206 59.3725 48.8206C59.4653 48.7742 59.4885 48.7626 59.4421 48.7858C59.3957 48.809 59.2565 48.8902 59.0245 49.0293H61.8315L62.8174 49.0989C62.4463 48.4958 62.1795 47.9158 62.0055 47.3823C61.8431 46.8487 61.7851 46.1759 61.8315 45.3872V43.3573L61.9011 41.3971L61.7619 39.0772C61.7155 38.1377 61.6691 37.1517 61.6227 36.0962C61.5763 35.0407 61.5299 34.0547 61.4835 33.1152L61.7619 32.4889C61.7619 31.9785 61.7735 31.4565 61.7967 30.9462C61.8199 30.4358 61.8315 29.9138 61.8315 29.4035V27.304L61.7619 25.4133C61.7619 25.1349 61.7735 24.8218 61.7967 24.4622C61.8199 24.1142 61.8547 23.8242 61.9011 23.5806C61.9011 23.4879 61.9127 23.4067 61.9359 23.3371C61.9591 23.2675 61.9707 23.1863 61.9707 23.0935V22.1075C62.0171 21.0288 62.1563 20.1705 62.3883 19.5093C61.9243 19.7413 61.5647 19.8573 61.3327 19.8573L60.9732 19.9965Z" fill="#6D6E71"/>
<path d="M77.8153 16.0643C78.3256 15.8323 78.8476 15.6467 79.3579 15.5076C79.8683 15.3684 80.4135 15.3916 80.9702 15.5771C81.0166 15.5308 81.1094 15.5076 81.2486 15.5076H85.7375C85.9695 15.5076 86.1319 15.5539 86.2247 15.6467L86.4335 15.7859C86.7583 15.7859 87.0714 15.7627 87.3846 15.7163C87.6862 15.6699 87.9994 15.6467 88.3357 15.6467H92.4071C93.1494 15.6931 94.031 15.8207 95.0401 16.0295C96.0492 16.2383 97.0468 16.5747 98.0559 17.0503C99.065 17.5142 99.9814 18.1058 100.828 18.8017C101.675 19.4977 102.301 20.3444 102.719 21.3304C103.136 22.4091 103.403 23.3022 103.519 24.033C103.635 24.7521 103.508 25.5873 103.136 26.5268C103.044 26.7124 103.009 26.8632 103.032 26.9792C103.055 27.0952 103.067 27.1996 103.067 27.2924C103.067 27.5243 103.044 27.7563 102.997 27.9883C102.951 28.2203 102.812 28.5219 102.58 28.9046V28.8351C102.162 29.531 101.884 29.9834 101.733 30.169V30.0994C101.547 30.3314 101.385 30.5633 101.246 30.7953C101.106 31.0273 100.991 31.3057 100.898 31.6421L100.55 32.0596C101.06 32.4308 101.536 32.86 101.953 33.3588C102.371 33.8575 102.73 34.3099 103.009 34.7275C103.241 35.0986 103.438 35.4582 103.6 35.8178C103.763 36.1658 103.913 36.479 104.053 36.7689C104.145 37.0009 104.227 37.2329 104.296 37.4649C104.366 37.6969 104.424 37.9057 104.47 38.0912H104.122C104.633 38.2768 104.888 38.6248 104.888 39.1468V42.1626C104.888 42.6265 104.783 43.2529 104.575 44.0185C104.366 44.784 104.087 45.5843 103.728 46.4079C103.38 47.2314 102.962 48.0086 102.464 48.7625C101.976 49.5165 101.466 50.0732 100.956 50.4444C99.7378 51.3376 98.6127 51.8595 97.5919 52.0219C96.5596 52.1843 95.4229 52.2887 94.1586 52.3351C93.7874 52.3351 93.3814 52.3467 92.9638 52.3699C92.5463 52.3931 92.0939 52.4279 91.6299 52.4743L90.644 52.4047H86.5031L84.8908 52.0567C84.6124 52.0567 84.2412 52.1031 83.7656 52.1959C83.3945 52.2887 83.0349 52.3583 82.7101 52.4047C82.3853 52.4511 82.0606 52.4047 81.7242 52.2655C81.3994 52.4511 81.0514 52.4279 80.6687 52.1959C80.3903 52.3815 80.1583 52.4743 79.9727 52.4743L78.7084 52.4047C77.966 52.4975 77.4673 52.4279 77.2353 52.1959C77.0033 51.9639 76.8177 51.5927 76.6785 51.0708C76.5857 50.978 76.5393 50.8852 76.5393 50.7924C76.5393 50.6996 76.5161 50.6068 76.4697 50.514C76.3769 50.1892 76.4001 49.8877 76.5393 49.5977C76.6785 49.3193 76.9337 49.1569 77.3049 49.1105C77.6297 49.0641 77.8616 48.9597 78.0008 48.7973C78.14 48.6349 78.2792 48.4377 78.4184 48.2058V48.2754C78.5576 47.997 78.6852 47.7534 78.8012 47.5446C78.9172 47.3358 79.1144 47.1154 79.3927 46.8834C79.3927 46.0947 79.4043 45.3524 79.4275 44.6796C79.4507 44.0068 79.4623 43.2645 79.4623 42.4758L79.6015 36.7225V36.4441C79.5087 36.073 79.4507 35.6786 79.4275 35.2494C79.4043 34.8319 79.3927 34.3563 79.3927 33.8459C79.3927 33.1964 79.4043 32.4888 79.4275 31.7465C79.4507 31.0041 79.4855 30.2966 79.5319 29.647C79.5783 29.2758 79.6015 28.9395 79.6015 28.6263C79.6015 28.3247 79.6015 28.0579 79.6015 27.8143C79.6015 27.3968 79.5899 26.9676 79.5667 26.55C79.5435 26.1324 79.5319 25.7033 79.5319 25.2857C79.4855 24.9145 79.4623 24.4854 79.4623 23.9866C79.4623 23.4878 79.4623 23.0354 79.4623 22.6179C79.4623 22.0147 79.3695 21.4695 79.184 21.0056C78.9984 20.5416 78.72 20.0429 78.3372 19.5325C77.966 18.9757 77.5833 18.2914 77.2121 17.5026L77.8153 16.0643ZM77.6645 16.4819C77.9892 17.1314 78.2908 17.6882 78.5808 18.129C78.8592 18.5697 79.1028 18.9873 79.3116 19.3585C79.5203 19.7297 79.6827 20.1356 79.7987 20.5532C79.9147 20.9708 79.9727 21.4696 79.9727 22.0263C79.9727 22.9195 79.9959 23.7778 80.0423 24.6245C80.0887 25.4713 80.1119 26.3296 80.1119 27.2228C80.1119 27.6403 80.0771 28.3131 80.0075 29.2178C79.9379 30.1342 79.8915 31.0621 79.8683 32.0248C79.8451 32.9876 79.8683 33.8575 79.9379 34.6579C80.0075 35.4582 80.1583 35.9454 80.3903 36.131H80.1235L79.9843 41.8842L79.9147 46.8603C79.5899 47.0922 79.3347 47.3474 79.1376 47.6258C78.952 47.9042 78.7664 48.1826 78.5808 48.4725C78.3952 48.7509 78.1864 48.9945 77.9544 49.2033C77.7225 49.4121 77.3745 49.5397 76.8989 49.5861C77.0845 49.9572 77.2005 50.2588 77.2469 50.5024C77.2933 50.7344 77.5949 50.8272 78.1632 50.7808L79.4275 50.8504L79.9147 50.2936L80.6107 50.7808L81.0978 50.2936C81.4226 50.7576 81.875 50.8968 82.4665 50.7112C83.0465 50.5256 83.6729 50.4328 84.3224 50.4328L86.0739 50.7808H90.0756L91.0616 50.8504C91.9547 50.7576 92.7782 50.7112 93.5554 50.7112C94.3209 50.7112 95.0517 50.6648 95.7244 50.572C96.3972 50.4792 97.07 50.3284 97.7195 50.1196C98.3691 49.9109 99.0534 49.5513 99.7494 49.0293C100.213 48.7045 100.666 48.1942 101.083 47.5214C101.501 46.8486 101.884 46.1411 102.208 45.4219C102.533 44.7028 102.788 43.9836 102.974 43.2877C103.16 42.5917 103.252 42.0234 103.252 41.6058V38.59C103.02 38.5436 102.893 38.3348 102.87 37.9637C102.846 37.5925 102.719 37.1169 102.487 36.5601C102.348 36.2818 102.208 35.9918 102.069 35.6786C101.93 35.377 101.744 35.0406 101.512 34.6579C101.141 34.0083 100.596 33.3472 99.9002 32.6976C99.2042 32.048 98.4735 31.6653 97.7311 31.5725L99.5522 30.4473C99.7378 29.7978 99.9582 29.3454 100.213 29.1134C100.469 28.8815 100.759 28.4407 101.095 27.7795C101.234 27.5012 101.327 27.2924 101.373 27.1532C101.42 27.014 101.443 26.8864 101.443 26.7704C101.443 26.6544 101.443 26.5152 101.443 26.3528C101.443 26.1904 101.489 25.9469 101.582 25.6221C101.86 24.8217 101.953 24.1258 101.86 23.5226C101.768 22.9194 101.536 22.1191 101.164 21.1332C100.84 20.1936 100.295 19.4281 99.5522 18.8133C98.7982 18.2102 97.9747 17.6998 97.0584 17.3054C96.142 16.911 95.2257 16.6327 94.2861 16.4587C93.3466 16.2963 92.5347 16.1919 91.8271 16.1455H87.7558L85.5867 16.2847L85.1692 16.0063H80.6803V16.2847C80.1699 15.9135 79.6595 15.7975 79.1724 15.9367C78.6852 16.0643 78.1864 16.2499 77.6645 16.4819ZM98.4271 23.0818C98.4271 22.8499 98.3459 22.5599 98.1835 22.2003C98.0211 21.8523 97.8587 21.4811 97.6963 21.0752C97.5339 20.6808 97.3831 20.298 97.2439 19.9152C97.1048 19.5441 97.0352 19.2193 97.0352 18.9293C97.0352 18.5581 97.1976 18.419 97.5223 18.5118C97.8471 18.6045 98.2183 18.8365 98.6475 19.2077V19.4861C98.6475 19.5789 98.7171 19.8225 98.8562 20.2168C98.9954 20.6112 99.1578 21.0056 99.3434 21.3768C99.4826 21.7479 99.6334 22.0843 99.7958 22.3975C99.9582 22.6991 100.039 23.1166 100.039 23.627C100.086 24.4738 100.063 25.1929 99.9698 25.7961C99.877 26.3992 99.761 27.0372 99.6218 27.6867V27.6171C99.6218 27.7099 99.6102 27.7795 99.587 27.8259C99.5638 27.8723 99.5522 27.9187 99.5522 27.9651C99.5058 28.0115 99.4826 28.1043 99.4826 28.2435C99.529 28.1971 99.5986 28.1739 99.6914 28.1739C99.877 27.6635 100.063 27.0256 100.248 26.2832C100.434 25.5409 100.527 25.0421 100.527 24.8101V24.4622C100.527 23.7198 100.445 22.9774 100.283 22.2583C100.121 21.5391 99.9234 20.9128 99.6914 20.4024C100.063 20.9128 100.376 21.4812 100.643 22.0843C100.898 22.6875 101.025 23.3022 101.025 23.9054V24.2534C101.025 24.4853 100.967 24.8449 100.851 25.3437C100.735 25.8309 100.619 26.3296 100.503 26.8168C100.387 27.304 100.213 27.9303 99.9814 28.6727H99.2854C99.3782 28.9046 99.3202 29.1598 99.1114 29.4382C98.9026 29.7166 98.6359 29.995 98.3111 30.285C97.9863 30.5633 97.6151 30.8069 97.2207 31.0157C96.8264 31.2245 96.5016 31.3521 96.2696 31.3985L99.9118 33.8575C100.469 34.3679 101.002 35.2146 101.489 36.3862C101.976 37.5577 102.301 38.6132 102.44 39.5411C102.44 39.7731 102.44 40.1095 102.44 40.5619C102.44 41.0026 102.417 41.4898 102.371 42.0002C102.324 42.5105 102.255 43.0209 102.162 43.5081C102.069 43.9953 101.953 44.3896 101.814 44.668C101.072 46.0715 100.353 47.127 99.6798 47.823C99.007 48.5189 98.2995 49.0177 97.5803 49.2961C96.8496 49.5745 96.0724 49.7253 95.2257 49.7485C94.3789 49.7717 93.4278 49.8065 92.3491 49.8529L89.5421 49.9225H87.6514C86.9554 50.0152 86.2363 50.0384 85.5171 49.992C84.798 49.9456 84.0556 49.9225 83.3133 49.9225C83.1277 49.9225 82.8377 49.9456 82.4317 49.992C82.0374 50.0384 81.6314 50.0616 81.2022 50.0616C80.7731 50.0616 80.3903 50.0268 80.0423 49.9572C79.6943 49.8877 79.4739 49.7601 79.3811 49.5745C79.5203 49.5281 79.7755 49.4237 80.1583 49.2613C80.5295 49.0989 80.9238 48.9365 81.353 48.7741C81.7706 48.6117 82.1418 48.4493 82.4781 48.287C82.8029 48.1246 82.9885 48.0202 83.0349 47.9738C83.2669 47.7882 83.4177 47.5562 83.4873 47.2778C83.5569 46.9994 83.5917 46.7095 83.5917 46.3963C83.5917 46.0947 83.5685 45.7931 83.5221 45.4799C83.4757 45.1784 83.4525 44.9348 83.4525 44.7492C83.4525 43.6705 83.4873 42.6613 83.5569 41.6986C83.6265 40.7359 83.6613 39.6571 83.6613 38.4392V33.3936L85.6215 33.4632L86.2479 33.1848C86.0159 33.324 85.8419 33.5096 85.7259 33.7415C85.6099 33.9735 85.7375 34.2055 86.1087 34.4375C86.0159 34.2055 85.9927 33.9735 86.0391 33.7415C86.0855 33.5096 86.1783 33.324 86.3175 33.1848C86.4103 33.2776 86.4451 33.3356 86.4219 33.3588C86.3987 33.382 86.3755 33.3936 86.3523 33.3936C86.3291 33.3936 86.3523 33.3936 86.4219 33.3936C86.4915 33.3936 86.6423 33.3936 86.8742 33.3936H87.6514L88.8461 33.324L89.5421 33.3936C90.4236 33.3936 91.3167 33.2428 92.2099 32.9412C93.103 32.6396 93.9266 32.222 94.7037 31.6769C95.4693 31.1433 96.142 30.5053 96.6988 29.7862C97.2555 29.067 97.6847 28.2551 97.9631 27.362C98.1023 26.6196 98.2299 25.912 98.3459 25.2625C98.4387 24.6013 98.4735 23.8706 98.4271 23.0818ZM89.3797 19.9965L88.8925 19.6485L87.141 20.2748L86.8626 23.221V25.1813L86.793 30.1574C86.5147 30.5749 86.2711 30.8881 86.0623 31.1085C85.8535 31.3173 85.6331 31.4913 85.4011 31.6305C85.1692 31.7697 84.9256 31.8857 84.6704 31.9785C84.4152 32.0712 84.0788 32.2104 83.6497 32.396V26.9212H84.1368L83.5801 26.2252L83.7193 21.2492L83.928 18.303C84.914 18.5349 85.8999 18.6161 86.909 18.5465C87.9182 18.477 88.9505 18.4422 90.0292 18.4422C91.108 18.4422 92.2215 18.5582 93.393 18.7901C94.5645 19.0221 95.7824 19.5557 97.0352 20.4024L96.4784 21.3884L97.0352 21.4579C96.3856 22.3975 95.6317 22.7455 94.7965 22.5135C93.9498 22.2815 93.2074 21.6667 92.5463 20.6924L89.3797 19.9965ZM99.065 40.3995C99.0186 39.6571 98.949 38.9612 98.8562 38.3348C98.7634 37.7085 98.3227 36.9661 97.5223 36.131C97.0584 35.667 96.664 35.3074 96.3624 35.0406C96.0608 34.7855 95.7708 34.5767 95.4809 34.4143C95.2025 34.2519 94.8893 34.0895 94.5297 33.9271C94.1818 33.7647 93.7642 33.5212 93.3002 33.1964L93.0218 33.8923L94.4949 35.087L94.7037 36.0034L94.2166 36.3514C93.4742 35.9802 92.7898 35.609 92.1867 35.2262C91.5835 34.8551 90.876 34.6695 90.0872 34.6695H88.8229C88.4517 34.6695 88.069 34.7391 87.6978 34.8783C87.3266 35.0174 86.9554 35.203 86.5727 35.435V45.3292L84.2528 47.1502L84.1832 46.8719L83.9048 47.8578C85.4011 48.7509 86.967 49.2149 88.6025 49.2613C90.238 49.3077 91.6879 49.2149 92.9522 48.9829C94.9589 48.5189 96.5016 47.533 97.5803 46.0367C98.6591 44.5404 99.1462 42.9977 99.0534 41.4086V40.3995H99.065ZM85.0996 46.0831C85.2388 45.9903 85.3779 45.8743 85.5171 45.7351C85.6563 45.5959 85.8419 45.4567 86.0739 45.3176V35.9918C86.0739 35.8526 86.1319 35.6902 86.2479 35.5046C86.3639 35.319 86.4915 35.1798 86.6307 35.087L86.7003 35.0174C86.6539 35.0174 86.6075 34.9942 86.5611 34.9478C86.4683 35.0406 86.3755 35.087 86.2827 35.087H85.2272V39.0192C85.2272 39.6687 85.2156 40.2835 85.1924 40.8403C85.1692 41.397 85.1344 41.9422 85.088 42.4525C85.0416 42.9629 85.0184 43.4501 85.0184 43.8909C85.0184 44.3316 85.0184 44.8188 85.0184 45.3292C85.0184 45.4219 85.03 45.5147 85.0532 45.6075C85.0764 45.7003 85.088 45.7931 85.088 45.8859V46.0831H85.0996ZM86.6423 20.762C86.6423 20.6228 86.7119 20.4372 86.851 20.2052C86.6191 20.2052 86.3871 20.2052 86.1551 20.2052C85.9231 20.2052 85.6911 20.182 85.4591 20.1356C85.4127 20.414 85.3895 20.704 85.3895 21.0172C85.3895 21.3188 85.3663 21.6087 85.32 21.8987C85.32 22.6991 85.2967 23.4646 85.2503 24.2186C85.204 24.9725 85.1808 25.7381 85.1808 26.5384C85.3663 26.724 85.4823 26.8632 85.5287 26.956C85.8999 27.6055 85.8071 28.1043 85.2503 28.4291V31.4449C85.3895 31.3521 85.5403 31.2593 85.7027 31.1665C85.8651 31.0737 86.0623 30.8649 86.2943 30.5401C86.2943 29.7514 86.3059 28.951 86.3291 28.1507C86.3523 27.3504 86.3639 26.5616 86.3639 25.7613V23.801L86.6423 20.762ZM88.6141 30.7953C88.1502 30.7953 87.7674 30.6097 87.489 30.2386C87.2106 29.8674 87.3034 29.4962 87.7674 29.1134L87.3498 28.4871L87.6978 28.3479L87.5586 26.9444L87.7674 25.1929L87.6282 23.2326L88.185 20.4256L88.8809 20.7736L89.0897 20.4256L92.5231 21.5507C92.6623 21.9219 92.871 22.3395 93.1494 22.7803C93.4278 23.221 93.6366 23.6386 93.7758 24.0098C93.915 24.381 93.9614 24.7753 93.915 25.1697C93.8686 25.5641 93.8686 25.9585 93.915 26.3296C93.915 27.3156 93.6714 28.0695 93.1842 28.6147C92.6971 29.1482 92.1403 29.8674 91.5371 30.7489C90.644 30.7489 90.064 30.7605 89.7856 30.7837C89.5189 30.7837 89.1245 30.7953 88.6141 30.7953ZM89.3101 46.5703C89.1245 46.5703 88.7881 46.4311 88.2893 46.1527C87.8022 45.8743 87.4774 45.6887 87.3382 45.5959L87.4774 40.1907L87.3382 39.8427C87.3382 39.1468 87.3614 38.59 87.4078 38.1956C87.4542 37.8013 87.6862 37.2677 88.1038 36.6181H87.3382L87.547 35.7714L90.354 35.2842L92.9522 36.479L93.9382 37.5345C93.9382 37.5809 93.9962 37.8013 94.1122 38.1956C94.2281 38.59 94.3557 39.054 94.4949 39.5643C94.6341 40.0747 94.7501 40.5967 94.8429 41.107C94.9357 41.6174 94.9589 42.0466 94.9125 42.3713C94.9125 42.5105 94.8429 42.8005 94.7037 43.2529C94.5645 43.6937 94.3789 44.1692 94.147 44.6564C93.915 45.1436 93.625 45.5959 93.2654 45.9903C92.9174 46.3847 92.5347 46.5819 92.1055 46.5819H89.3101V46.5703ZM92.6739 46.0831C92.9522 46.0831 93.1958 45.9323 93.4046 45.6307C93.6134 45.3292 93.7874 44.9812 93.9266 44.5752C94.0658 44.1808 94.1817 43.8097 94.2745 43.4501C94.3673 43.1021 94.4137 42.8817 94.4137 42.7889C94.5065 42.4177 94.4601 41.8726 94.2745 41.1766C94.089 40.4807 93.9266 39.8659 93.7874 39.3556H93.7178C93.625 39.0772 93.567 38.9148 93.5438 38.8684C93.5206 38.822 93.509 38.7756 93.509 38.7292C93.4162 38.6364 93.3002 38.5088 93.161 38.3464C93.0218 38.184 92.9058 38.0564 92.813 37.9637C92.4419 37.7781 92.0823 37.5925 91.7575 37.4069C91.4327 37.2213 91.0848 37.0589 90.702 36.9197C90.47 36.9661 90.296 37.0125 90.18 37.0589C90.064 37.1053 89.9364 37.1517 89.7972 37.1981C89.7972 37.3837 89.7277 37.5693 89.5885 37.7549C89.2637 38.2652 89.0781 38.6712 89.0317 38.9496C88.9853 39.228 88.9621 39.6223 88.9621 40.1443V40.4227L89.1013 40.7707L88.9621 45.6075C89.1477 45.7003 89.3217 45.8047 89.4841 45.9207C89.6465 46.0367 89.774 46.0947 89.8668 46.0947H92.6739V46.0831ZM90.2264 30.2966C90.4584 30.2966 90.6092 30.285 90.6788 30.2618C90.7484 30.2386 91.0384 30.227 91.5603 30.227C91.6531 30.0878 91.7691 29.937 91.9083 29.7746C92.0475 29.6122 92.1635 29.4846 92.2563 29.3918C92.5347 29.0207 92.8014 28.6263 93.0566 28.1971C93.3118 27.7795 93.4394 27.3272 93.4394 26.8632V26.086C93.4394 25.8541 93.4394 25.6337 93.4394 25.4249C93.4394 25.2161 93.4162 25.0653 93.3698 24.9725C93.277 24.7405 93.1146 24.3926 92.8826 23.917C92.6507 23.5922 92.4419 23.2674 92.2563 22.9311C91.8851 22.8383 91.5255 22.7223 91.166 22.5831C90.818 22.4439 90.4584 22.3047 90.0756 22.1655C89.9828 22.2119 89.7972 22.2815 89.5189 22.3743C89.4725 22.6063 89.4261 22.8383 89.3797 23.0702C89.3333 23.3022 89.2869 23.5342 89.2405 23.7662C89.2405 24.0446 89.2637 24.3926 89.3101 24.8217C89.3565 25.2393 89.3797 25.5989 89.3797 25.8772L89.1709 27.6287C89.1709 27.8607 89.1941 28.0695 89.2405 28.2551C89.2869 28.4407 89.3101 28.6495 89.3101 28.8815C89.3101 28.9743 89.2985 29.0438 89.2753 29.0902C89.2521 29.1366 89.2405 29.183 89.2405 29.2294C89.4261 29.647 89.4029 29.995 89.1709 30.285H90.2264V30.2966ZM96.1884 21.4C95.7244 21.168 95.2721 20.9708 94.8545 20.8084C94.4369 20.646 94.0078 20.5184 93.5902 20.4256L94.0078 20.704C94.5645 21.6435 95.1793 22.1075 95.8288 22.1075C95.968 22.1075 96.084 22.0843 96.1768 22.0379C96.1304 21.8987 96.1072 21.7131 96.1072 21.4811L96.1884 21.4ZM100.677 41.8726C100.77 43.1833 100.527 44.4824 99.9466 45.7699C99.3666 47.0574 98.4619 48.1478 97.2439 49.0293C97.9863 48.7973 98.6939 48.3798 99.3434 47.765C99.993 47.1618 100.701 46.1527 101.443 44.7492C101.582 44.5172 101.686 44.1808 101.756 43.7285C101.826 43.2877 101.884 42.8353 101.93 42.3945C101.976 41.9538 101.988 41.513 101.965 41.0954C101.942 40.6779 101.93 40.3763 101.93 40.1791V40.2487C101.791 39.4484 101.536 38.5552 101.164 37.5461C100.793 36.5369 100.364 35.8062 99.9002 35.3422C99.3434 34.971 98.7287 34.5651 98.0791 34.1127C97.4295 33.6719 96.8148 33.266 96.258 32.8832C96.1652 32.8832 96.1188 32.86 96.1188 32.8136C95.7477 33.092 95.4693 33.2776 95.2721 33.3704C95.6896 33.6023 95.9448 33.7415 96.0492 33.7879C96.4668 34.0199 96.8728 34.2635 97.2787 34.5187C97.6731 34.7739 98.2067 35.2494 98.8562 35.957C99.703 36.8965 100.202 37.6969 100.364 38.3812C100.527 39.054 100.631 39.7963 100.677 40.5851V41.8726Z" fill="#6D6E71"/>
<path d="M123.887 15.7164C124.212 15.8092 124.583 15.7164 125.012 15.438C125.105 15.3452 125.268 15.2988 125.5 15.2988C125.732 15.2988 125.894 15.3452 125.987 15.438L126.903 15.9947C127.367 16.1803 127.553 16.5051 127.46 16.9807L127.251 19.0105C127.437 19.5209 127.506 20.1705 127.46 20.936C127.414 21.7132 127.344 22.5599 127.251 23.4994C127.112 24.9957 127.042 26.4688 127.042 27.9187C127.042 28.5219 127.054 29.0555 127.077 29.4962C127.1 29.937 127.158 30.2154 127.251 30.3082C127.39 30.4938 127.472 30.7142 127.495 30.9694C127.518 31.2245 127.46 31.4449 127.321 31.6305C127.228 31.7697 127.158 32.3033 127.112 33.2428C127.066 34.1823 127.042 35.1799 127.042 36.2586V39.1352C127.274 39.9819 127.39 40.5271 127.39 40.7823C127.39 41.0375 127.39 41.2811 127.39 41.513C127.344 41.745 127.356 42.0466 127.425 42.4294C127.495 42.8005 127.761 43.4617 128.225 44.3896C128.457 44.9 128.84 45.248 129.385 45.4104C129.919 45.5728 130.708 45.6772 131.74 45.7235C131.74 44.6448 131.763 43.5661 131.81 42.4642C131.856 41.3622 131.879 40.2835 131.879 39.2048L131.74 35.0639L131.67 34.7855L131.81 32.5352V21.5972C131.763 20.9012 131.647 20.3909 131.462 20.0893C131.276 19.7877 131.021 19.4513 130.696 19.0685C130.464 18.8829 130.267 18.6974 130.105 18.5118C129.942 18.3262 129.745 18.071 129.513 17.7462C129.374 17.5606 129.304 17.3519 129.304 17.1199C129.304 16.8879 129.351 16.6791 129.443 16.4935L129.931 15.8672C130.07 15.6352 130.279 15.5076 130.557 15.4844C130.835 15.4612 131.09 15.496 131.334 15.5888L131.682 15.7976C132.053 15.7976 132.401 15.7744 132.738 15.728C133.062 15.6816 133.387 15.6584 133.723 15.6584L134.709 15.728H135.695L137.725 15.6584H139.755L140.532 15.728C140.671 15.5888 140.787 15.496 140.88 15.4496C141.112 15.264 141.367 15.206 141.646 15.2756C141.924 15.3452 142.156 15.496 142.342 15.728C142.574 16.0991 142.736 16.4007 142.829 16.6443C142.922 16.8763 142.968 17.2707 142.968 17.839V23.5226L142.829 40.9911C142.829 41.1303 142.84 41.2115 142.864 41.2347C142.887 41.2579 142.898 41.2926 142.898 41.339C142.945 41.6174 142.875 41.919 142.69 42.2554C142.69 42.3018 142.713 42.325 142.759 42.325C142.852 42.6034 142.852 42.9049 142.759 43.2413C142.759 43.2877 142.771 43.3341 142.794 43.3805C142.817 43.4269 142.829 43.4733 142.829 43.5197V46.8139C143.014 47.0923 143.246 47.4286 143.525 47.8346C143.803 48.229 144.082 48.635 144.372 49.0293C144.65 49.4237 145.021 49.9341 145.497 50.5372C145.868 50.9084 145.961 51.3028 145.775 51.732C145.59 52.1495 145.242 52.3583 144.72 52.3583L142.759 52.4279H136.032C135.753 52.5207 135.463 52.5671 135.15 52.5671C134.849 52.5671 134.582 52.5671 134.338 52.5671C134.245 52.5671 134.187 52.5555 134.164 52.5323C134.141 52.5091 134.083 52.4975 133.99 52.4975C133.897 52.4975 133.816 52.5091 133.747 52.5323C133.677 52.5555 133.596 52.5671 133.503 52.5671C133.132 52.5671 132.738 52.5091 132.308 52.3931C131.891 52.2771 131.636 52.0103 131.543 51.5928C130.603 51.8712 129.745 52.0335 128.945 52.0799C128.144 52.1263 127.216 52.1495 126.138 52.1495C124.873 52.1495 123.795 51.9291 122.913 51.4884C122.02 51.0476 121.254 50.6068 120.593 50.1893C120.361 50.0501 120.176 49.9225 120.036 49.8065C119.897 49.6905 119.804 49.6325 119.758 49.6325C119.526 49.6325 119.306 49.5281 119.097 49.3193C118.888 49.1105 118.76 48.8902 118.714 48.6582C118.668 48.4726 118.587 48.2754 118.471 48.0666C118.355 47.8578 118.25 47.6838 118.157 47.5446C118.018 47.359 117.867 47.1503 117.705 46.9183C117.543 46.6863 117.415 46.4543 117.322 46.2223C117.322 46.1295 117.299 45.9323 117.253 45.6308C117.206 45.3292 117.148 45.0044 117.079 44.6448C117.009 44.2969 116.951 43.9489 116.905 43.5893C116.858 43.2413 116.835 42.9745 116.835 42.7774C116.742 42.0814 116.684 41.3623 116.661 40.6431C116.638 39.9239 116.58 38.996 116.487 37.8709V25.9469C116.441 25.4365 116.441 24.9261 116.487 24.439C116.533 23.9518 116.603 23.4878 116.696 23.0703C116.742 22.6063 116.8 22.1423 116.87 21.7016C116.939 21.2608 116.928 20.8548 116.835 20.472C116.371 20.4257 116.081 20.1009 115.988 19.4861C115.988 19.3005 115.919 19.1381 115.779 18.9989C115.64 18.8598 115.478 18.7438 115.292 18.651C115.107 18.5118 114.933 18.3842 114.77 18.2682C114.608 18.1522 114.434 17.9782 114.248 17.7462C114.016 17.3751 113.97 17.0271 114.109 16.6907C114.248 16.3659 114.527 16.1571 114.956 16.0643L117.624 15.6468L119.793 15.7164H121.753L123.783 15.786H123.887V15.7164ZM121.15 16.1339H119.19L117.16 16.0643L114.492 16.4819C114.77 16.8995 115.142 17.2127 115.617 17.3982C116.081 17.5838 116.359 18.0478 116.464 18.8018H116.951C117.229 19.3121 117.38 19.8341 117.403 20.3445C117.427 20.8548 117.392 21.3884 117.299 21.922C117.206 22.4555 117.113 23.0123 117.021 23.569C116.928 24.1258 116.905 24.6942 116.951 25.2509V37.1749C117.044 38.3928 117.102 39.3208 117.125 39.9819C117.148 40.6315 117.206 41.339 117.299 42.0814C117.299 42.1742 117.322 42.3714 117.369 42.673C117.415 42.9745 117.461 43.3109 117.508 43.6937C117.554 44.0649 117.612 44.4012 117.682 44.7144C117.751 45.016 117.786 45.2132 117.786 45.306C117.925 45.7235 118.181 46.1411 118.563 46.5355C118.934 46.9299 119.143 47.417 119.19 47.9738C119.468 47.9738 119.793 48.113 120.176 48.3914C120.547 48.6698 120.988 48.9597 121.51 49.2729C122.02 49.5745 122.611 49.8529 123.261 50.1197C123.911 50.3748 124.688 50.5024 125.581 50.5024C126.799 50.5024 127.866 50.4676 128.771 50.3981C129.687 50.3285 130.719 50.0385 131.891 49.5165C131.891 50.456 132.007 50.9084 132.239 50.8852C132.471 50.862 132.865 50.8504 133.434 50.8504C133.805 50.8504 134.199 50.8736 134.628 50.92C135.046 50.9664 135.394 50.804 135.684 50.4328V50.7808H142.203L144.163 50.7112C143.606 49.9225 143.142 49.2729 142.794 48.7857C142.446 48.2986 142.121 47.8114 141.808 47.3475C141.507 46.8835 141.309 46.5703 141.217 46.4311V42.9281H140.869L141.286 42.2322L140.938 41.6754C141.077 41.4434 141.17 41.2811 141.217 41.1883C141.263 41.0955 141.286 41.0143 141.286 40.9447C141.286 40.8751 141.275 40.8171 141.251 40.7707C141.228 40.7243 141.217 40.6083 141.217 40.4227L141.286 25.6917L141.356 22.9543V17.2707C141.356 16.8995 141.321 16.6211 141.251 16.4239C141.182 16.2383 141.054 16.0063 140.869 15.728L140.242 16.2151L139.187 16.1455H137.157L135.127 16.2151H134.141L133.155 16.1455L130.916 16.2847L130.221 15.8672L129.733 16.4935C130.29 17.0503 130.742 17.4911 131.067 17.7926C131.392 18.0942 131.636 18.361 131.798 18.6046C131.96 18.8366 132.076 19.1265 132.146 19.4861C132.216 19.8341 132.274 20.3445 132.32 20.994V32.0017L132.181 34.2403L132.25 34.5187L132.39 38.6596L132.25 46.2339H131.902C130.36 46.2339 129.211 46.1179 128.469 45.8859C127.727 45.654 127.158 45.1436 126.787 44.3433C126.37 43.4037 126.103 42.7194 125.987 42.2786C125.871 41.8378 125.813 41.4782 125.813 41.2231C125.813 40.9679 125.824 40.7243 125.848 40.4923C125.871 40.2603 125.813 39.9123 125.674 39.4368C125.581 39.2512 125.523 38.7292 125.5 37.8593C125.476 36.9893 125.465 36.0498 125.465 35.0175C125.465 33.9851 125.511 33.034 125.604 32.1409C125.697 31.2593 125.813 30.691 125.952 30.459C125.627 29.995 125.465 29.1367 125.465 27.8955C125.465 26.6544 125.511 25.3669 125.604 24.033C125.697 22.6991 125.778 21.4928 125.848 20.4256C125.917 19.3469 125.859 18.7438 125.674 18.6046L125.882 16.3659L124.966 15.8092C124.734 15.9483 124.444 16.0643 124.085 16.1571C123.737 16.2499 123.447 16.2731 123.203 16.2267L121.15 16.1339ZM120.941 31.9901C121.127 31.7117 121.254 31.2129 121.324 30.4822C121.394 29.763 121.428 28.9859 121.428 28.1623C121.428 27.3504 121.417 26.55 121.394 25.7729C121.37 25.0073 121.359 24.4274 121.359 24.0562V20.0545C121.359 19.3585 121.382 18.8829 121.428 18.651C121.475 18.419 121.579 18.245 121.741 18.129C121.904 18.013 122.159 17.9086 122.507 17.8158C122.855 17.723 123.342 17.4678 123.945 17.0387H124.931L124.792 19.7065L124.722 20.762V21.5276L124.583 31.2709L124.166 31.9669C124.398 32.338 124.56 32.976 124.653 33.8575C124.746 34.7507 124.804 35.6902 124.827 36.6994C124.85 37.7085 124.85 38.6828 124.827 39.6456C124.804 40.6083 124.792 41.3158 124.792 41.7798C124.792 42.1974 124.896 42.6846 125.105 43.2181C125.314 43.7517 125.534 44.2853 125.766 44.7956C126.091 45.306 126.532 45.7236 127.1 46.0251C127.657 46.3267 128.086 46.7211 128.365 47.1851H125.697C126.022 47.8462 126.544 48.2058 127.24 48.2754C127.935 48.345 128.678 48.3102 129.443 48.171C130.209 48.0318 130.905 47.8694 131.508 47.6838C132.111 47.4982 132.494 47.4286 132.633 47.475C132.865 47.9854 132.668 48.403 132.042 48.7046C131.415 49.0061 130.65 49.2381 129.757 49.4005C128.863 49.5629 128.028 49.6673 127.228 49.7137C126.428 49.7601 126.01 49.7833 125.964 49.7833C125.117 49.7833 124.386 49.6673 123.76 49.4353C123.133 49.2033 122.6 48.9017 122.182 48.519C122.414 48.6118 122.669 48.7046 122.948 48.7974C123.226 48.8901 123.574 48.9829 124.003 49.0757C123.632 48.8901 123.284 48.6118 122.948 48.229C122.809 48.1362 122.623 47.9738 122.391 47.7418L122.182 47.533C121.765 47.533 121.556 47.649 121.556 47.881C121.185 47.3706 120.999 46.9067 120.999 46.5123C120.999 46.1179 121.208 45.9207 121.626 45.9207C121.811 45.9207 122.031 46.0135 122.287 46.1991C122.542 46.3847 122.809 46.6051 123.099 46.8603C123.377 47.1155 123.655 47.3474 123.945 47.5562C124.224 47.765 124.479 47.8926 124.711 47.939L124.92 47.0923L123.655 46.6051C123.702 46.5123 123.632 46.3035 123.447 45.9787C123.261 45.654 123.052 45.2944 122.82 44.8884C122.588 44.494 122.368 44.1113 122.159 43.7285C121.95 43.3573 121.823 43.0789 121.776 42.8817C121.452 41.803 121.266 40.9447 121.22 40.2835C121.173 39.634 121.15 38.9264 121.15 38.1841C121.15 37.7665 121.15 37.4997 121.15 37.3837C121.15 37.2677 121.173 37.1749 121.22 37.1053C121.266 37.0357 121.336 36.9545 121.428 36.8617C121.521 36.7689 121.66 36.5602 121.846 36.2354L121.15 36.0266L121.22 35.1799L121.289 33.2892C121.289 33.1036 121.301 32.976 121.324 32.9064C121.347 32.8368 121.359 32.7672 121.359 32.6976C121.359 32.628 121.336 32.5468 121.289 32.4541C121.243 32.3845 121.127 32.2221 120.941 31.9901ZM123.041 28.7539C123.041 29.4498 123.017 30.1342 122.971 30.7838C122.925 31.4333 122.809 32.0017 122.623 32.4656C122.855 32.8368 122.983 33.092 123.006 33.2312C123.029 33.3704 122.994 33.556 122.901 33.788V33.8575L122.832 35.7482V35.8874C123.157 35.9802 123.365 36.1774 123.458 36.479C123.551 36.7806 123.481 37.0705 123.249 37.3605C123.157 37.5461 123.052 37.6969 122.936 37.8129C122.82 37.9289 122.785 37.9405 122.832 37.8477C122.785 37.9405 122.762 37.9985 122.762 38.0217C122.762 38.0449 122.762 38.1725 122.762 38.4044V38.7524C122.762 39.4484 122.785 40.1327 122.832 40.7823C122.878 41.4318 123.041 42.2322 123.319 43.1717H123.389C123.435 43.2645 123.528 43.4617 123.667 43.7633C123.806 44.0649 123.969 44.3317 124.154 44.5752C124.293 44.8072 124.456 45.0972 124.641 45.4568C124.827 45.8047 124.966 46.0947 125.059 46.3383C125.152 46.3847 125.279 46.4427 125.442 46.5123C125.604 46.5819 125.732 46.6399 125.824 46.6863L125.894 46.7559C125.94 46.7559 125.987 46.7327 126.033 46.6863C125.755 46.4079 125.569 46.1991 125.476 46.0599C125.43 46.0135 125.372 45.9207 125.302 45.7815C125.233 45.6424 125.198 45.5496 125.198 45.5032C124.966 44.9928 124.757 44.4708 124.572 43.9605C124.386 43.4501 124.293 42.9049 124.293 42.3482V40.3183C124.293 39.9471 124.305 39.5528 124.328 39.1236C124.351 38.706 124.363 38.2537 124.363 37.7897C124.363 36.8037 124.34 35.8642 124.293 34.9479C124.247 34.0315 124.108 33.44 123.876 33.1616C123.783 33.0224 123.737 32.8252 123.737 32.57C123.737 32.3148 123.783 32.1177 123.876 31.9785L124.085 31.6305C124.085 29.995 124.108 28.4059 124.154 26.8632C124.201 25.3205 124.224 23.7314 124.224 22.0959V21.3304L124.293 20.2749L124.363 18.9409C124.038 19.1729 123.783 19.3121 123.586 19.3585C123.4 19.4049 123.238 19.4513 123.099 19.4977C123.006 19.5441 122.959 19.6137 122.959 19.7065C122.959 19.7993 122.959 20.1009 122.959 20.6228V25.8889C122.959 26.3065 122.971 26.7704 122.994 27.2576C123.029 27.7448 123.041 28.2435 123.041 28.7539ZM136.936 20.0661C136.89 19.6485 137.006 19.3005 137.284 19.0105C137.563 18.7206 137.888 18.5002 138.27 18.3146C138.642 18.129 139.048 17.9782 139.5 17.8622C139.941 17.7462 140.335 17.6418 140.66 17.549L140.312 20.0777H140.938L140.729 20.3561H140.66V20.7736L140.729 21.7596V23.7198C140.683 23.859 140.695 23.9518 140.764 23.9982C140.834 24.0446 140.892 24.0678 140.938 24.0678C140.985 24.0678 140.985 24.091 140.938 24.1374C140.892 24.1838 140.729 24.2998 140.451 24.4854C140.776 24.9957 140.915 25.2277 140.869 25.1813C140.822 25.1349 140.776 25.2045 140.729 25.3901C140.358 25.1581 140.173 24.8102 140.173 24.3346C140.173 24.1954 140.196 24.0794 140.242 23.9866V22.3047L140.173 21.3884C139.941 21.1564 139.825 20.878 139.825 20.5416L139.964 19.4861C139.593 19.5789 139.256 19.7181 138.943 19.9037C138.642 20.0893 138.514 20.2981 138.56 20.53V21.516L138.421 22.5019C138.514 22.8267 138.595 23.1747 138.665 23.5574C138.734 23.9286 138.816 24.2534 138.908 24.5434L138.63 25.1697C138.212 25.3553 137.969 25.4829 137.899 25.5525C137.83 25.6221 138.166 25.6569 138.92 25.6569C139.384 26.2137 139.291 26.7124 138.642 27.13C138.92 27.5476 138.897 27.9767 138.572 28.3943C138.479 28.4407 138.421 28.4755 138.398 28.4987C138.375 28.5219 138.317 28.5567 138.224 28.6031C138.41 28.5567 138.526 28.5103 138.572 28.4639V28.6031C138.572 28.8815 138.642 29.1135 138.781 29.2991C138.874 29.4383 138.92 29.6354 138.92 29.8906C138.92 30.1458 138.874 30.343 138.781 30.4822L138.572 30.8301C138.572 30.9693 138.584 31.0853 138.607 31.1781C138.63 31.2709 138.642 31.3637 138.642 31.4565L138.572 33.556V46.6747C138.85 47.0923 138.804 47.4982 138.433 47.8694L136.89 49.5513C137.54 49.5049 138.236 49.4701 138.955 49.4469C139.674 49.4237 140.37 49.4121 141.019 49.4121V49.3425C140.88 49.1569 140.706 48.9365 140.497 48.6814C140.289 48.4262 140.138 48.229 140.045 48.0898L139.836 45.5612V42.9629L139.975 38.474V34.5419L140.045 33.556L139.975 30.5402L140.045 29.4846L139.906 28.1507C139.906 28.0579 139.929 27.9303 139.975 27.768C140.022 27.6056 140.091 27.478 140.184 27.3852L140.463 27.594H140.393L140.532 28.9279L140.463 29.9834L140.532 32.9992L140.439 34.0199V37.9521L140.3 42.441V44.9696L140.509 47.1387L141.356 48.2638L142.551 50.0849C142.411 50.1313 142.191 50.1197 141.889 50.0501C141.588 49.9805 141.344 49.9457 141.159 49.9457H140.95L133.932 50.0849L137.087 46.6515C137.041 46.6051 137.018 46.5587 137.018 46.5123L136.948 46.4427V45.9555V33.0456L137.018 30.9461L136.948 30.0298L137.366 29.4034C137.087 29.0787 136.948 28.6379 136.948 28.0695C136.948 27.5592 136.948 27.2808 136.948 27.2228C136.948 27.1764 137.087 27.1068 137.366 27.014L136.809 26.3181L137.505 25.7613L136.809 25.3437L137.226 23.9402L136.809 22.0495L136.948 20.994V20.0661H136.936ZM140.161 25.6685H140.648V25.7381L140.718 26.724C140.671 26.7704 140.695 26.8632 140.787 27.0024C140.834 27.0952 140.88 27.1648 140.927 27.2112L140.509 27.5592C140.416 27.4664 140.335 27.3852 140.265 27.3156C140.196 27.246 140.184 27.188 140.231 27.1416C140.231 27.0024 140.219 26.8516 140.196 26.6892C140.173 26.5268 140.161 26.3761 140.161 26.2369L140.231 25.8889V25.7497L140.161 25.6685Z" fill="#6D6E71"/>
<path d="M166.039 15.438C166.225 15.2988 166.457 15.2292 166.735 15.2292L168.208 15.5076C168.904 15.3684 169.449 15.3568 169.82 15.4728C170.191 15.5888 170.539 15.7163 170.876 15.8555C170.969 15.9019 171.073 15.9483 171.189 15.9947C171.305 16.0411 171.491 16.0411 171.746 15.9947C172.001 15.9483 172.349 15.8439 172.801 15.6816C173.242 15.5192 173.845 15.2524 174.588 14.8812C174.866 14.742 175.156 14.7188 175.469 14.8116C175.771 14.9044 175.968 15.09 176.061 15.3684L176.548 16.6327L176.2 22.3859L176.13 22.5251V25.8193C176.13 26.2833 175.968 26.6196 175.643 26.8052C175.318 26.9908 174.97 26.9676 174.588 26.7356C174.077 26.4108 173.648 26.0281 173.323 25.5757C172.998 25.1349 172.697 24.6942 172.407 24.2766C172.036 23.7198 171.607 23.1631 171.143 22.6295C170.679 22.0959 169.994 21.7016 169.113 21.4696V21.5392C168.312 21.3072 167.535 21.5044 166.758 22.1307C165.981 22.7571 165.598 23.4994 165.598 24.3346V25.1001C165.598 25.3321 165.668 25.5525 165.807 25.7613C165.946 25.9701 166.109 26.1904 166.294 26.4224L166.225 26.2832C166.317 26.376 166.375 26.4572 166.399 26.5268C166.422 26.5964 166.48 26.6776 166.573 26.7704C166.944 27.0024 167.199 27.1764 167.338 27.2924C167.477 27.4084 167.593 27.5128 167.686 27.6056C167.779 27.6984 167.895 27.8143 168.034 27.9535C168.173 28.0927 168.359 28.2783 168.591 28.5103V28.4407C168.869 28.6727 169.066 28.8119 169.182 28.8583C169.298 28.9047 169.426 28.9743 169.565 29.0671C169.751 29.1598 169.983 29.2874 170.261 29.4498C170.539 29.6122 170.725 29.7398 170.818 29.8326C171.05 30.0646 171.444 30.2966 172.013 30.5286C172.245 30.6678 172.477 30.7954 172.708 30.9113C172.94 31.0273 173.196 31.2013 173.474 31.4333C173.706 31.6189 173.892 31.7697 174.031 31.8857C174.17 32.0017 174.286 32.1061 174.379 32.1989C174.472 32.338 174.576 32.454 174.692 32.5468C174.808 32.6396 174.82 32.7324 174.727 32.8252C175.052 32.7324 175.342 32.7672 175.608 32.9296C175.863 33.092 176.014 33.3356 176.061 33.6604C176.061 33.7531 176.119 33.9155 176.235 34.1475C176.351 34.3795 176.501 34.6115 176.687 34.8435C176.826 35.0755 176.954 35.2842 177.07 35.4698C177.186 35.6554 177.29 35.841 177.383 36.0266L177.313 35.957C177.453 36.2354 177.569 36.4558 177.661 36.6182C177.754 36.7805 177.824 36.9081 177.87 37.0009C177.963 37.2329 178.033 37.3953 178.079 37.4881C178.125 37.5809 178.149 37.7201 178.149 37.9057C178.149 37.9985 178.16 38.1377 178.183 38.3232C178.207 38.5088 178.241 38.7176 178.288 38.9496V38.88C178.52 40.1443 178.543 41.3274 178.357 42.4178C178.172 43.5197 177.94 44.4592 177.661 45.2596C177.197 46.5703 176.606 47.6374 175.91 48.4494C175.214 49.2729 174.472 49.9341 173.706 50.4444C172.94 50.9548 172.152 51.3492 171.351 51.6044C170.551 51.8595 169.855 52.0567 169.252 52.1959C168.498 52.3815 168.127 52.4511 168.127 52.4047C167.941 52.6831 167.686 52.8571 167.361 52.9267C167.036 52.9963 166.758 52.9151 166.515 52.6831C166.283 52.4975 166.027 52.4047 165.749 52.4047C164.67 52.4047 163.881 52.3467 163.36 52.2307C162.849 52.1147 162.304 51.9871 161.747 51.8479C161.654 51.7552 161.19 51.6392 160.344 51.5C160.019 51.6392 159.683 51.7783 159.358 51.9175C159.033 52.0567 158.708 52.1959 158.372 52.3351C157.908 52.4743 157.479 52.3351 157.108 51.9175C156.876 51.5464 156.725 51.152 156.655 50.7228C156.586 50.3052 156.551 49.8297 156.551 49.3193C156.551 48.9017 156.562 48.4842 156.586 48.0898C156.609 47.6954 156.644 47.3126 156.69 46.9299C156.736 46.6515 156.76 46.3963 156.76 46.1643C156.76 45.9323 156.76 45.7236 156.76 45.538C156.76 45.4452 156.76 45.3292 156.76 45.19C156.76 45.0508 156.736 44.8652 156.69 44.6332C156.644 44.3084 156.609 43.9721 156.586 43.6125C156.562 43.2645 156.551 42.8817 156.551 42.4526C156.551 41.7102 156.644 41.0143 156.829 40.3879C157.015 39.7615 157.363 39.2512 157.885 38.88C158.163 38.648 158.453 38.5784 158.766 38.6712C159.068 38.764 159.288 38.9728 159.427 39.2976C159.613 39.7151 159.741 40.1211 159.81 40.4923C159.88 40.8635 159.961 41.2231 160.054 41.5478L159.984 41.4782C160.077 41.9422 160.205 42.4062 160.367 42.8469C160.529 43.2877 160.75 43.7053 161.028 44.0765C161.538 44.7724 162.269 45.3292 163.197 45.7235C164.137 46.1179 164.972 46.3151 165.726 46.3151C166.097 46.3151 166.341 46.3035 166.457 46.2803C166.572 46.2571 166.677 46.1991 166.77 46.1063C167.094 45.9207 167.512 45.7351 168.034 45.5496L168.243 45.132C168.243 44.9 168.266 44.6796 168.312 44.4708C168.359 44.2621 168.382 44.0417 168.382 43.8097C168.428 43.2993 168.301 42.8121 167.999 42.3714C167.698 41.9306 167.303 41.513 166.804 41.1418C166.317 40.7707 165.772 40.4343 165.192 40.1211C164.612 39.8195 164.079 39.5528 163.615 39.3208C163.336 39.1816 163.058 39.0424 162.768 38.9032C162.49 38.764 162.258 38.648 162.072 38.5552C161.132 37.9057 160.332 37.2909 159.648 36.7341C158.975 36.1774 158.395 35.5858 157.931 34.9827C157.467 34.3795 157.061 33.7531 156.736 33.1268C156.412 32.5004 156.11 31.7813 155.82 30.9925V31.0621C155.588 30.5054 155.426 29.8906 155.333 29.2411C155.24 28.5915 155.194 27.9303 155.194 27.2808C155.194 25.9701 155.379 24.6941 155.75 23.453C156.122 22.2119 156.644 21.1332 157.293 20.1937C158.233 18.8365 159.497 17.665 161.121 16.6907C162.849 15.7859 164.45 15.3452 166.039 15.438ZM166.039 15.7164V15.9947C165.343 15.8555 164.589 15.8671 163.789 16.0295C162.988 16.1919 162.223 16.4819 161.469 16.9111C160.715 17.3402 160.019 17.839 159.369 18.419C158.708 18.9989 158.151 19.6253 157.687 20.2749C157.27 20.878 156.899 21.5972 156.597 22.4091C156.296 23.2327 156.075 24.0678 155.936 24.9377C155.797 25.8077 155.762 26.6892 155.832 27.6056C155.901 28.5219 156.075 29.3686 156.354 30.169C156.864 31.6653 157.514 32.9064 158.279 33.8807C159.056 34.8667 160.274 35.9338 161.956 37.1053C162.42 37.3837 163.07 37.6969 163.881 38.0565C164.693 38.4044 165.494 38.822 166.271 39.3208C167.036 39.8079 167.709 40.3879 168.266 41.0375C168.823 41.687 169.055 42.4874 168.962 43.4269L168.823 44.8304L168.278 46.0831C167.86 46.1295 167.547 46.1991 167.361 46.2919C167.176 46.3847 167.002 46.4775 166.839 46.5703C166.677 46.6631 166.491 46.7443 166.283 46.8139C166.074 46.8835 165.737 46.9183 165.262 46.9183C164.369 46.9183 163.383 46.6863 162.281 46.2223C161.179 45.7583 160.332 45.0972 159.717 44.262C159.207 43.5661 158.871 42.7889 158.731 41.9538C158.592 41.107 158.337 40.2255 157.954 39.286C157.63 39.518 157.409 39.8891 157.293 40.4111C157.177 40.9215 157.119 41.4898 157.119 42.093C157.119 42.6962 157.154 43.2877 157.224 43.8445C157.293 44.4012 157.328 44.8304 157.328 45.1088C157.328 45.48 157.305 45.9439 157.258 46.4775C157.212 47.0111 157.177 47.5794 157.154 48.1594C157.131 48.7393 157.131 49.2845 157.154 49.7717C157.177 50.2588 157.282 50.6532 157.467 50.9316L159.706 49.9457C160.263 50.0848 160.75 50.2124 161.144 50.3284C161.538 50.4444 161.933 50.5488 162.339 50.6416C162.733 50.7344 163.151 50.804 163.603 50.8504C164.044 50.8968 164.601 50.92 165.25 50.92C165.853 50.92 166.352 51.0824 166.723 51.4072C166.909 51.1288 167.408 50.92 168.231 50.7808C169.043 50.6416 169.959 50.3864 170.969 50.0153C171.978 49.6441 172.964 49.0293 173.95 48.1942C174.936 47.3474 175.678 46.1179 176.188 44.4708C176.42 43.7749 176.629 42.9165 176.815 41.9074C177 40.8983 176.977 39.8195 176.745 38.648C176.652 38.1377 176.617 37.8013 176.641 37.6273C176.664 37.4649 176.664 37.3489 176.641 37.2793C176.617 37.2097 176.559 37.1053 176.467 36.9661C176.374 36.8269 176.188 36.5022 175.91 35.9802C175.771 35.609 175.516 35.1683 175.133 34.6811C174.762 34.1939 174.553 33.7299 174.506 33.3124C174.182 33.4052 173.834 33.2428 173.451 32.8252C173.08 32.4076 172.708 32.0597 172.326 31.7697C171.815 31.3521 171.351 31.0737 170.957 30.9229C170.563 30.7837 170.122 30.5054 169.658 30.0762C169.287 29.7978 168.916 29.589 168.533 29.4498C168.162 29.3106 167.756 29.0787 167.338 28.7539C167.06 28.5219 166.839 28.3363 166.677 28.1971C166.514 28.0579 166.375 27.9187 166.259 27.7796C166.143 27.6404 166.016 27.5128 165.877 27.3968C165.737 27.2808 165.529 27.1532 165.25 27.014C165.018 26.6428 164.751 26.2832 164.45 25.9237C164.148 25.5757 163.997 25.1117 163.997 24.555V23.7778C163.997 23.221 164.148 22.6643 164.45 22.1307C164.751 21.5972 165.134 21.1332 165.61 20.762C166.074 20.3908 166.596 20.1241 167.152 19.9501C167.709 19.7877 168.278 19.7761 168.834 19.9153C169.681 20.1472 170.354 20.4952 170.864 20.9708C171.375 21.4348 171.827 21.9451 172.198 22.4787C172.569 23.0123 172.917 23.5458 173.254 24.0562C173.578 24.5666 173.996 24.9725 174.518 25.2509V21.9567L174.588 21.7479L174.936 16.2731L174.518 15.2176C173.114 15.9135 172.117 16.3195 171.537 16.4123C170.957 16.5051 170.505 16.4935 170.203 16.3775C169.901 16.2615 169.611 16.1339 169.322 15.9947C169.043 15.8555 168.521 15.8555 167.779 15.9947L166.039 15.7164ZM173.892 21.6784L173.404 22.8035L173.265 21.9567H172.569C172.662 21.6784 172.627 21.4232 172.465 21.1912C172.303 20.9592 172.071 20.7388 171.769 20.53C171.467 20.3213 171.154 20.1357 170.818 19.9733C170.493 19.8109 170.215 19.6833 169.971 19.5905C169.322 19.2193 168.811 19.0569 168.463 19.1033C168.115 19.1497 167.651 19.1497 167.094 19.1033C166.677 19.1033 166.225 19.2773 165.761 19.6253C165.297 19.9733 164.856 20.3908 164.461 20.8896C164.067 21.3768 163.754 21.9103 163.51 22.4671C163.278 23.0239 163.162 23.5226 163.162 23.9402C163.162 25.0189 163.452 25.9701 164.044 26.8168C164.624 27.6636 165.575 28.5219 166.886 29.415C167.025 29.5542 167.419 29.8326 168.08 30.2618C168.73 30.6794 169.438 31.1317 170.18 31.5957C170.922 32.0597 171.595 32.4888 172.175 32.86C172.755 33.2312 173.103 33.44 173.196 33.4864L174.112 34.4723L174.321 34.4027C174.228 34.6347 174.344 34.9595 174.669 35.3886C174.994 35.8062 175.249 36.2586 175.434 36.7225C175.573 37.0009 175.724 37.5229 175.887 38.2652C176.049 39.0192 176.153 39.576 176.2 39.9471C176.2 40.4111 176.153 40.9447 176.061 41.5246C175.968 42.1046 175.852 42.6961 175.713 43.2761C175.574 43.8561 175.423 44.4012 175.26 44.8884C175.098 45.3756 174.947 45.7467 174.808 45.9787C174.008 47.3358 172.755 48.4262 171.015 49.2381C169.287 50.0617 167.373 50.4676 165.262 50.4676C164.705 50.4676 164.137 50.398 163.58 50.2588C163.023 50.1196 162.49 49.9689 162.002 49.8065C161.515 49.6441 161.086 49.5049 160.738 49.3889C160.39 49.2729 160.147 49.2381 160.007 49.2845L158.604 49.2149L159.23 47.1851C159.973 47.6954 160.692 48.1594 161.364 48.5538C162.037 48.9481 162.722 49.2497 163.394 49.4701C164.067 49.6789 164.798 49.7833 165.563 49.7833C166.341 49.7833 167.21 49.6441 168.196 49.3657C168.939 49.1801 169.635 48.8437 170.261 48.345C170.887 47.8578 171.433 47.2894 171.873 46.6631C172.314 46.0367 172.65 45.3872 172.894 44.7376C173.126 44.0881 173.242 43.4733 173.242 42.9165V41.2346C173.242 40.2951 173.056 39.5064 172.685 38.8452C172.314 38.1957 171.839 37.4649 171.282 36.6762C170.957 36.0266 170.435 35.4698 169.739 35.0291C169.043 34.5883 168.266 34.1823 167.419 33.7995C166.572 33.4284 165.714 33.0224 164.821 32.6048C163.928 32.1872 163.139 31.6537 162.432 31.0273C161.736 30.401 161.144 29.6238 160.68 28.7191C160.216 27.8028 159.984 26.6776 159.984 25.3205C159.984 23.2674 160.564 21.5856 161.736 20.2749C161.921 20.0893 162.211 19.8573 162.617 19.5789C163.012 19.3005 163.452 19.0337 163.916 18.767C164.38 18.5118 164.844 18.2914 165.285 18.1058C165.726 17.9202 166.109 17.8274 166.445 17.8274H169.322C169.414 17.8274 169.6 17.897 169.878 18.0362C170.157 18.1754 170.458 18.3378 170.795 18.5234C171.119 18.7089 171.433 18.8713 171.746 19.0105C172.047 19.1497 172.291 19.2425 172.477 19.2889L173.671 17.7462L174.019 17.8158L173.671 19.3585L173.892 21.6784ZM162.675 24.4854C162.675 23.9286 162.849 23.2674 163.197 22.5251C163.545 21.7827 163.997 21.0752 164.566 20.4256C164.287 20.6112 164.021 20.7968 163.754 20.9824C163.499 21.168 163.278 21.3304 163.093 21.4696C162.107 22.5947 161.62 24.0446 161.62 25.8193C161.62 26.9444 161.805 27.8723 162.176 28.6263C162.548 29.3802 163.023 30.0298 163.615 30.5866C164.195 31.1433 164.856 31.6189 165.575 31.9901C166.294 32.3612 167.036 32.7208 167.779 33.0456C168.765 33.5096 169.704 33.9967 170.621 34.4839C171.537 34.9711 172.221 35.667 172.685 36.5486C173.288 37.3489 173.81 38.1377 174.228 38.938C174.646 39.7383 174.854 40.6663 174.854 41.745V43.4269C174.854 44.5056 174.53 45.6192 173.868 46.7907C173.961 46.6979 174.054 46.5819 174.147 46.4427C174.24 46.3035 174.332 46.1643 174.425 46.0251C174.518 45.7931 174.634 45.4568 174.773 45.0044C174.912 44.5636 175.052 44.0649 175.191 43.5313C175.33 42.9977 175.446 42.4526 175.539 41.919C175.631 41.3854 175.678 40.8983 175.678 40.4807C175.585 40.1559 175.458 39.6456 175.295 38.9728C175.133 38.3 174.982 37.7665 174.843 37.3953C174.843 37.4417 174.796 37.3721 174.704 37.1865C174.611 37.0009 174.518 36.8385 174.425 36.6993C174.24 36.5138 174.054 36.2354 173.868 35.8526V35.783L172.952 34.7971C172.627 34.6115 172.14 34.3215 171.514 33.9155C170.887 33.5212 170.238 33.1152 169.588 32.686C168.939 32.2685 168.336 31.8741 167.802 31.5261C167.268 31.1781 166.92 30.9345 166.781 30.7953H166.851C165.355 29.763 164.276 28.7771 163.626 27.8144C163 26.8516 162.675 25.7381 162.675 24.4854Z" fill="#6D6E71"/>
<path d="M8.48666 64.9087V67.1589H12.6276V68.8872H8.48666V72.367H6.4104V63.192H13.0104L12.9988 64.9087H8.48666Z" fill="#808285"/>
<path d="M18.8912 63.308C18.8912 63.9575 18.4504 64.4331 17.8008 64.4331C17.1513 64.4331 16.7105 63.9575 16.7105 63.308C16.7105 62.6468 17.1513 62.1828 17.8008 62.1828C18.4504 62.1828 18.8912 62.6468 18.8912 63.308ZM16.8033 72.367V65.3146H18.8216V72.367H16.8033Z" fill="#808285"/>
<path d="M30.4208 67.9361V72.367H28.4026V68.5276C28.4026 67.6345 27.8806 67.0893 27.0107 67.0893C26.0015 67.1009 25.3984 67.8665 25.3984 68.8988V72.3786H23.3801V65.3262H25.3984V66.5558C25.8971 65.6742 26.7323 65.2566 27.8342 65.245C29.4117 65.2334 30.4208 66.289 30.4208 67.9361Z" fill="#808285"/>
<path d="M41.7532 72.367H39.7466V71.3346C39.2478 72.0538 38.4939 72.4482 37.5195 72.4482C35.5129 72.4482 34.1906 70.9983 34.1906 68.8176C34.1906 66.6717 35.5013 65.2334 37.4731 65.2334C38.4707 65.2334 39.2478 65.6278 39.7582 66.347V62.6352H41.7648V72.367H41.7532ZM39.7466 68.864C39.7466 67.7157 39.0274 66.9153 37.9951 66.9153C36.9512 66.9153 36.2204 67.7273 36.2088 68.864C36.2204 70.0123 36.928 70.8127 37.9951 70.8127C39.0274 70.8243 39.7466 70.0239 39.7466 68.864Z" fill="#808285"/>
<path d="M56.6466 72.367H54.5704V69.4556L51.1718 63.192H53.2597L55.6027 67.3097L57.8994 63.192H59.9872L56.6466 69.4092V72.367Z" fill="#808285"/>
<path d="M69.719 68.8408C69.719 70.9867 68.1995 72.4482 65.9376 72.4482C63.6642 72.4482 62.1447 70.9983 62.1447 68.8408C62.1447 66.6834 63.6642 65.245 65.9376 65.245C68.1995 65.245 69.719 66.6718 69.719 68.8408ZM64.1861 68.864C64.1861 70.0123 64.8937 70.8011 65.9376 70.8011C66.97 70.8011 67.6891 70.0123 67.6891 68.864C67.6891 67.7157 66.97 66.9269 65.9376 66.9269C64.8937 66.9269 64.1861 67.7157 64.1861 68.864Z" fill="#808285"/>
<path d="M80.3787 72.3669H78.372V71.1258C77.8848 72.019 77.0729 72.4482 76.0174 72.4482C74.4515 72.4482 73.4771 71.4158 73.4771 69.7455V65.3146H75.4954V69.1656C75.4954 70.0587 76.0058 70.5923 76.8177 70.5923C77.7921 70.5807 78.3836 69.8151 78.3836 68.7944V65.303H80.3903V72.3669H80.3787Z" fill="#808285"/>
<path d="M86.9786 66.5906C87.4658 65.7206 88.2661 65.2566 89.3101 65.245V67.1473C87.8718 67.0197 86.9786 67.7853 86.9786 68.98V72.3786H84.9604V65.3262H86.9786V66.5906Z" fill="#808285"/>
<path d="M106.72 64.6419L105.514 66.115C104.888 65.3958 103.983 64.9203 103.125 64.9203C101.547 64.9203 100.329 66.1382 100.329 67.7389C100.329 69.3396 101.547 70.5691 103.125 70.5691C103.948 70.5691 104.853 70.1515 105.514 69.4904L106.732 70.8127C105.758 71.8102 104.354 72.4482 103.02 72.4482C100.283 72.4482 98.2067 70.4183 98.2067 67.7505C98.2067 65.1059 100.318 63.1108 103.102 63.1108C104.424 63.1224 105.816 63.714 106.72 64.6419Z" fill="#808285"/>
<path d="M112.567 66.5906C113.054 65.7206 113.854 65.2566 114.898 65.245V67.1473C113.46 67.0197 112.567 67.7853 112.567 68.98V72.3786H110.548V65.3262H112.567V66.5906Z" fill="#808285"/>
<path d="M122.484 71.5434C122.008 72.135 121.254 72.4598 120.268 72.4598C118.761 72.4598 117.844 71.5434 117.844 70.2559C117.844 68.9336 118.807 68.1449 120.535 68.1333H122.472V68.0057C122.472 67.2633 121.974 66.8225 120.999 66.8225C120.373 66.8225 119.63 67.0313 118.9 67.4373L118.273 66.0454C119.317 65.5234 120.222 65.2335 121.463 65.2335C123.354 65.2335 124.444 66.173 124.456 67.7621L124.467 72.367H122.484V71.5434ZM122.472 69.9543V69.328H120.883C120.106 69.328 119.735 69.56 119.735 70.1283C119.735 70.6619 120.152 71.0215 120.837 71.0215C121.684 71.0215 122.345 70.5575 122.472 69.9543Z" fill="#808285"/>
<path d="M130.36 72.367L127.68 65.3262L129.768 65.3146L131.438 70.4531L133.086 65.3146H135.092L132.436 72.367H130.36Z" fill="#808285"/>
<path d="M140.718 63.308C140.718 63.9575 140.277 64.4331 139.628 64.4331C138.978 64.4331 138.537 63.9575 138.537 63.308C138.537 62.6468 138.978 62.1828 139.628 62.1828C140.277 62.1828 140.718 62.6468 140.718 63.308ZM138.618 72.367V65.3146H140.637V72.367H138.618Z" fill="#808285"/>
<path d="M152.236 67.9361V72.367H150.218V68.5276C150.218 67.6345 149.696 67.0893 148.826 67.0893C147.817 67.1009 147.213 67.8665 147.213 68.8988V72.3786H145.195V65.3262H147.213V66.5558C147.712 65.6742 148.547 65.2566 149.649 65.245C151.227 65.2334 152.236 66.289 152.236 67.9361Z" fill="#808285"/>
<path d="M163.22 71.7174C163.22 73.7241 161.712 75 159.462 75C158.267 75 157.212 74.6172 156.388 74.072L157.131 72.6569C157.769 73.1209 158.523 73.3645 159.323 73.3645C160.471 73.3645 161.214 72.7497 161.214 71.787V70.9867C160.738 71.6478 160.019 72.0074 159.091 72.0074C157.27 72.0074 156.006 70.6387 156.006 68.5972C156.006 66.6021 157.235 65.2566 159.033 65.2566C159.996 65.2451 160.727 65.6278 161.214 66.2774V65.3146H163.22V71.7174ZM161.214 68.6436C161.214 67.5533 160.541 66.8109 159.567 66.8109C158.592 66.8109 157.919 67.5765 157.896 68.6436C157.908 69.7223 158.569 70.4647 159.567 70.4647C160.541 70.4647 161.214 69.7223 161.214 68.6436Z" fill="#808285"/>
<path d="M172.836 66.0106L172.14 67.3909C171.363 66.9617 170.574 66.7065 169.994 66.7065C169.519 66.7065 169.182 66.8689 169.182 67.2285C169.182 68.2956 172.906 67.7505 172.894 70.2443C172.894 71.6826 171.618 72.4482 170.018 72.4482C168.881 72.4482 167.767 72.1118 166.967 71.4622L167.616 70.0935C168.347 70.6619 169.298 70.9751 170.064 70.9751C170.574 70.9751 170.957 70.8011 170.957 70.4299C170.957 69.3048 167.303 69.9079 167.303 67.4257C167.303 65.9758 168.544 65.2218 170.087 65.2218C171.05 65.2218 172.047 65.5118 172.836 66.0106Z" fill="#808285"/>
</svg>
