<svg width="20" height="20" viewBox="0 0 20 20" fill="none" xmlns="http://www.w3.org/2000/svg">
<path d="M18.8274 3.33535C16.9246 3.45105 13.1426 3.87218 10.8078 5.40342C10.6467 5.50907 10.5554 5.69694 10.5554 5.89337V19.4301C10.5554 19.8598 10.9939 20.1314 11.3637 19.932C13.7659 18.6366 17.2399 18.2832 18.9576 18.1865C19.5441 18.1534 20 17.6496 20 17.0458V4.47746C20.0003 3.81861 19.467 3.29666 18.8274 3.33535ZM9.19217 5.40342C6.85776 3.87218 3.07575 3.45142 1.17294 3.33535C0.533343 3.29666 0 3.81861 0 4.47746V17.0462C0 17.6504 0.455911 18.1541 1.04238 18.1868C2.76081 18.2836 6.23657 18.6374 8.63869 19.9335C9.00745 20.1325 9.44461 19.8613 9.44461 19.4327V5.88668C9.44461 5.68988 9.35364 5.50944 9.19217 5.40342Z" fill="#70708C"/>
</svg>
