<svg width="15" height="15" viewBox="0 0 15 15" fill="none" xmlns="http://www.w3.org/2000/svg">
<path d="M8.03571 6.42857H6.96429C6.82221 6.42857 6.68594 6.48501 6.58548 6.58548C6.48501 6.68594 6.42857 6.82221 6.42857 6.96429V8.03571C6.42857 8.17779 6.48501 8.31406 6.58548 8.41452C6.68594 8.51499 6.82221 8.57143 6.96429 8.57143H8.03571C8.17779 8.57143 8.31406 8.51499 8.41452 8.41452C8.51499 8.31406 8.57143 8.17779 8.57143 8.03571V6.96429C8.57143 6.82221 8.51499 6.68594 8.41452 6.58548C8.31406 6.48501 8.17779 6.42857 8.03571 6.42857ZM11.25 6.42857H10.1786C10.0365 6.42857 9.90023 6.48501 9.79976 6.58548C9.6993 6.68594 9.64286 6.82221 9.64286 6.96429V8.03571C9.64286 8.17779 9.6993 8.31406 9.79976 8.41452C9.90023 8.51499 10.0365 8.57143 10.1786 8.57143H11.25C11.3921 8.57143 11.5283 8.51499 11.6288 8.41452C11.7293 8.31406 11.7857 8.17779 11.7857 8.03571V6.96429C11.7857 6.82221 11.7293 6.68594 11.6288 6.58548C11.5283 6.48501 11.3921 6.42857 11.25 6.42857ZM14.4643 6.42857H13.3929C13.2508 6.42857 13.1145 6.48501 13.014 6.58548C12.9136 6.68594 12.8571 6.82221 12.8571 6.96429V8.03571C12.8571 8.17779 12.9136 8.31406 13.014 8.41452C13.1145 8.51499 13.2508 8.57143 13.3929 8.57143H14.4643C14.6064 8.57143 14.7426 8.51499 14.8431 8.41452C14.9436 8.31406 15 8.17779 15 8.03571V6.96429C15 6.82221 14.9436 6.68594 14.8431 6.58548C14.7426 6.48501 14.6064 6.42857 14.4643 6.42857ZM4.82143 6.42857H3.75C3.60792 6.42857 3.47166 6.48501 3.37119 6.58548C3.27073 6.68594 3.21429 6.82221 3.21429 6.96429V8.03571C3.21429 8.17779 3.27073 8.31406 3.37119 8.41452C3.47166 8.51499 3.60792 8.57143 3.75 8.57143H4.82143C4.96351 8.57143 5.09977 8.51499 5.20024 8.41452C5.3007 8.31406 5.35714 8.17779 5.35714 8.03571V6.96429C5.35714 6.82221 5.3007 6.68594 5.20024 6.58548C5.09977 6.48501 4.96351 6.42857 4.82143 6.42857ZM8.03571 12.8571H6.96429C6.82221 12.8571 6.68594 12.9136 6.58548 13.014C6.48501 13.1145 6.42857 13.2508 6.42857 13.3929V14.4643C6.42857 14.6064 6.48501 14.7426 6.58548 14.8431C6.68594 14.9436 6.82221 15 6.96429 15H8.03571C8.17779 15 8.31406 14.9436 8.41452 14.8431C8.51499 14.7426 8.57143 14.6064 8.57143 14.4643V13.3929C8.57143 13.2508 8.51499 13.1145 8.41452 13.014C8.31406 12.9136 8.17779 12.8571 8.03571 12.8571ZM11.25 12.8571H10.1786C10.0365 12.8571 9.90023 12.9136 9.79976 13.014C9.6993 13.1145 9.64286 13.2508 9.64286 13.3929V14.4643C9.64286 14.6064 9.6993 14.7426 9.79976 14.8431C9.90023 14.9436 10.0365 15 10.1786 15H11.25C11.3921 15 11.5283 14.9436 11.6288 14.8431C11.7293 14.7426 11.7857 14.6064 11.7857 14.4643V13.3929C11.7857 13.2508 11.7293 13.1145 11.6288 13.014C11.5283 12.9136 11.3921 12.8571 11.25 12.8571ZM14.4643 12.8571H13.3929C13.2508 12.8571 13.1145 12.9136 13.014 13.014C12.9136 13.1145 12.8571 13.2508 12.8571 13.3929V14.4643C12.8571 14.6064 12.9136 14.7426 13.014 14.8431C13.1145 14.9436 13.2508 15 13.3929 15H14.4643C14.6064 15 14.7426 14.9436 14.8431 14.8431C14.9436 14.7426 15 14.6064 15 14.4643V13.3929C15 13.2508 14.9436 13.1145 14.8431 13.014C14.7426 12.9136 14.6064 12.8571 14.4643 12.8571ZM14.4643 9.64286H13.3929C13.2508 9.64286 13.1145 9.6993 13.014 9.79976C12.9136 9.90023 12.8571 10.0365 12.8571 10.1786V11.25C12.8571 11.3921 12.9136 11.5283 13.014 11.6288C13.1145 11.7293 13.2508 11.7857 13.3929 11.7857H14.4643C14.6064 11.7857 14.7426 11.7293 14.8431 11.6288C14.9436 11.5283 15 11.3921 15 11.25V10.1786C15 10.0365 14.9436 9.90023 14.8431 9.79976C14.7426 9.6993 14.6064 9.64286 14.4643 9.64286ZM14.4643 3.21429H13.3929C13.2508 3.21429 13.1145 3.27073 13.014 3.37119C12.9136 3.47166 12.8571 3.60792 12.8571 3.75V4.82143C12.8571 4.96351 12.9136 5.09977 13.014 5.20024C13.1145 5.3007 13.2508 5.35714 13.3929 5.35714H14.4643C14.6064 5.35714 14.7426 5.3007 14.8431 5.20024C14.9436 5.09977 15 4.96351 15 4.82143V3.75C15 3.60792 14.9436 3.47166 14.8431 3.37119C14.7426 3.27073 14.6064 3.21429 14.4643 3.21429ZM8.03571 9.64286H6.96429C6.82221 9.64286 6.68594 9.6993 6.58548 9.79976C6.48501 9.90023 6.42857 10.0365 6.42857 10.1786V11.25C6.42857 11.3921 6.48501 11.5283 6.58548 11.6288C6.68594 11.7293 6.82221 11.7857 6.96429 11.7857H8.03571C8.17779 11.7857 8.31406 11.7293 8.41452 11.6288C8.51499 11.5283 8.57143 11.3921 8.57143 11.25V10.1786C8.57143 10.0365 8.51499 9.90023 8.41452 9.79976C8.31406 9.6993 8.17779 9.64286 8.03571 9.64286ZM8.03571 3.21429H6.96429C6.82221 3.21429 6.68594 3.27073 6.58548 3.37119C6.48501 3.47166 6.42857 3.60792 6.42857 3.75V4.82143C6.42857 4.96351 6.48501 5.09977 6.58548 5.20024C6.68594 5.3007 6.82221 5.35714 6.96429 5.35714H8.03571C8.17779 5.35714 8.31406 5.3007 8.41452 5.20024C8.51499 5.09977 8.57143 4.96351 8.57143 4.82143V3.75C8.57143 3.60792 8.51499 3.47166 8.41452 3.37119C8.31406 3.27073 8.17779 3.21429 8.03571 3.21429ZM4.82143 12.8571H3.75C3.60792 12.8571 3.47166 12.9136 3.37119 13.014C3.27073 13.1145 3.21429 13.2508 3.21429 13.3929V14.4643C3.21429 14.6064 3.27073 14.7426 3.37119 14.8431C3.47166 14.9436 3.60792 15 3.75 15H4.82143C4.96351 15 5.09977 14.9436 5.20024 14.8431C5.3007 14.7426 5.35714 14.6064 5.35714 14.4643V13.3929C5.35714 13.2508 5.3007 13.1145 5.20024 13.014C5.09977 12.9136 4.96351 12.8571 4.82143 12.8571ZM8.03571 0H6.96429C6.82221 0 6.68594 0.0564411 6.58548 0.156907C6.48501 0.257373 6.42857 0.393634 6.42857 0.535714V1.60714C6.42857 1.74922 6.48501 1.88548 6.58548 1.98595C6.68594 2.08642 6.82221 2.14286 6.96429 2.14286H8.03571C8.17779 2.14286 8.31406 2.08642 8.41452 1.98595C8.51499 1.88548 8.57143 1.74922 8.57143 1.60714V0.535714C8.57143 0.393634 8.51499 0.257373 8.41452 0.156907C8.31406 0.0564411 8.17779 0 8.03571 0ZM11.25 0H10.1786C10.0365 0 9.90023 0.0564411 9.79976 0.156907C9.6993 0.257373 9.64286 0.393634 9.64286 0.535714V1.60714C9.64286 1.74922 9.6993 1.88548 9.79976 1.98595C9.90023 2.08642 10.0365 2.14286 10.1786 2.14286H11.25C11.3921 2.14286 11.5283 2.08642 11.6288 1.98595C11.7293 1.88548 11.7857 1.74922 11.7857 1.60714V0.535714C11.7857 0.393634 11.7293 0.257373 11.6288 0.156907C11.5283 0.0564411 11.3921 0 11.25 0ZM14.4643 0H13.3929C13.2508 0 13.1145 0.0564411 13.014 0.156907C12.9136 0.257373 12.8571 0.393634 12.8571 0.535714V1.60714C12.8571 1.74922 12.9136 1.88548 13.014 1.98595C13.1145 2.08642 13.2508 2.14286 13.3929 2.14286H14.4643C14.6064 2.14286 14.7426 2.08642 14.8431 1.98595C14.9436 1.88548 15 1.74922 15 1.60714V0.535714C15 0.393634 14.9436 0.257373 14.8431 0.156907C14.7426 0.0564411 14.6064 0 14.4643 0ZM1.60714 6.42857H0.535714C0.393634 6.42857 0.257373 6.48501 0.156907 6.58548C0.0564412 6.68594 0 6.82221 0 6.96429L0 8.03571C0 8.17779 0.0564412 8.31406 0.156907 8.41452C0.257373 8.51499 0.393634 8.57143 0.535714 8.57143H1.60714C1.74922 8.57143 1.88548 8.51499 1.98595 8.41452C2.08642 8.31406 2.14286 8.17779 2.14286 8.03571V6.96429C2.14286 6.82221 2.08642 6.68594 1.98595 6.58548C1.88548 6.48501 1.74922 6.42857 1.60714 6.42857ZM1.60714 12.8571H0.535714C0.393634 12.8571 0.257373 12.9136 0.156907 13.014C0.0564412 13.1145 0 13.2508 0 13.3929L0 14.4643C0 14.6064 0.0564412 14.7426 0.156907 14.8431C0.257373 14.9436 0.393634 15 0.535714 15H1.60714C1.74922 15 1.88548 14.9436 1.98595 14.8431C2.08642 14.7426 2.14286 14.6064 2.14286 14.4643V13.3929C2.14286 13.2508 2.08642 13.1145 1.98595 13.014C1.88548 12.9136 1.74922 12.8571 1.60714 12.8571ZM1.60714 9.64286H0.535714C0.393634 9.64286 0.257373 9.6993 0.156907 9.79976C0.0564412 9.90023 0 10.0365 0 10.1786L0 11.25C0 11.3921 0.0564412 11.5283 0.156907 11.6288C0.257373 11.7293 0.393634 11.7857 0.535714 11.7857H1.60714C1.74922 11.7857 1.88548 11.7293 1.98595 11.6288C2.08642 11.5283 2.14286 11.3921 2.14286 11.25V10.1786C2.14286 10.0365 2.08642 9.90023 1.98595 9.79976C1.88548 9.6993 1.74922 9.64286 1.60714 9.64286ZM1.60714 3.21429H0.535714C0.393634 3.21429 0.257373 3.27073 0.156907 3.37119C0.0564412 3.47166 0 3.60792 0 3.75L0 4.82143C0 4.96351 0.0564412 5.09977 0.156907 5.20024C0.257373 5.3007 0.393634 5.35714 0.535714 5.35714H1.60714C1.74922 5.35714 1.88548 5.3007 1.98595 5.20024C2.08642 5.09977 2.14286 4.96351 2.14286 4.82143V3.75C2.14286 3.60792 2.08642 3.47166 1.98595 3.37119C1.88548 3.27073 1.74922 3.21429 1.60714 3.21429ZM1.60714 0H0.535714C0.393634 0 0.257373 0.0564411 0.156907 0.156907C0.0564412 0.257373 0 0.393634 0 0.535714L0 1.60714C0 1.74922 0.0564412 1.88548 0.156907 1.98595C0.257373 2.08642 0.393634 2.14286 0.535714 2.14286H1.60714C1.74922 2.14286 1.88548 2.08642 1.98595 1.98595C2.08642 1.88548 2.14286 1.74922 2.14286 1.60714V0.535714C2.14286 0.393634 2.08642 0.257373 1.98595 0.156907C1.88548 0.0564411 1.74922 0 1.60714 0ZM4.82143 0H3.75C3.60792 0 3.47166 0.0564411 3.37119 0.156907C3.27073 0.257373 3.21429 0.393634 3.21429 0.535714V1.60714C3.21429 1.74922 3.27073 1.88548 3.37119 1.98595C3.47166 2.08642 3.60792 2.14286 3.75 2.14286H4.82143C4.96351 2.14286 5.09977 2.08642 5.20024 1.98595C5.3007 1.88548 5.35714 1.74922 5.35714 1.60714V0.535714C5.35714 0.393634 5.3007 0.257373 5.20024 0.156907C5.09977 0.0564411 4.96351 0 4.82143 0Z" fill="#70708C"/>
</svg>
