<svg width="25" height="25" viewBox="0 0 25 25" fill="none" xmlns="http://www.w3.org/2000/svg">
<path d="M11.4426 25C13.3291 25 14.9073 23.6551 15.2697 21.875H7.61548C7.97807 23.6551 9.55621 25 11.4426 25Z" fill="#70708C"/>
<path d="M18.7467 12.4991C18.7425 12.4991 18.7383 12.5 18.7341 12.5C14.7144 12.5 11.4425 9.2291 11.4425 5.2084C11.4425 4.1031 11.6968 3.05825 12.1395 2.11869C11.9102 2.09695 11.6779 2.0834 11.4425 2.0834C7.41554 2.0834 4.15092 5.34783 4.15092 9.37501V12.2791C4.15092 14.3406 3.24779 16.2865 1.66335 17.626C1.13521 18.0771 0.900795 18.7958 1.09039 19.4969C1.31126 20.3125 2.11749 20.8334 2.9634 20.8334H19.9165C20.804 20.8334 21.6405 20.2583 21.8206 19.3886C21.9602 18.7157 21.7207 18.0437 21.1988 17.6052C19.6842 16.3355 18.8081 14.4697 18.7467 12.4991Z" fill="#70708C"/>
<path d="M23.9426 5.2084C23.9426 8.08487 21.6109 10.4166 18.7342 10.4166C15.8577 10.4166 13.526 8.08487 13.526 5.2084C13.526 2.33192 15.8577 0 18.7342 0C21.6109 0 23.9426 2.33192 23.9426 5.2084Z" fill="#E53C1F"/>
</svg>
