<svg width="20" height="20" viewBox="0 0 20 20" fill="none" xmlns="http://www.w3.org/2000/svg">
<g clip-path="url(#clip0_302_846)">
<path d="M8.07746 12.7638L9.08845 11.7528C9.18439 11.7786 9.27294 11.8118 9.37625 11.8118C10.0293 11.8118 10.557 11.2842 10.557 10.6311C10.557 9.97801 10.0293 9.45038 9.37625 9.45038C8.72317 9.45038 8.19553 9.97801 8.19553 10.6311C8.19553 10.7344 8.22874 10.823 8.25457 10.9189L7.24357 11.9299L2.93393 7.62025C2.66458 7.3509 2.19229 7.39518 2.01149 7.73095C0.469168 10.6016 0.90825 14.2508 3.32873 16.6712C5.74922 19.0917 9.40208 19.5308 12.269 17.9885C12.6085 17.8077 12.6528 17.3354 12.3797 17.066L8.07746 12.7638ZM8.82279 0.000894263C8.48333 -0.0175545 8.19553 0.251798 8.19553 0.591256V1.75722C8.19553 2.07085 8.43905 2.32913 8.74899 2.34389C13.5235 2.60218 17.3609 6.47643 17.6376 11.2547C17.6561 11.5646 17.9144 11.8081 18.2243 11.8081H19.4087C19.7482 11.8081 20.0175 11.5203 19.9991 11.1809C19.6854 5.15918 14.8445 0.318214 8.82279 0.000894263ZM8.83386 3.54307C8.49071 3.51724 8.19553 3.79028 8.19553 4.13712V5.32153C8.19553 5.63147 8.43537 5.88607 8.74162 5.9082C11.5754 6.14066 13.8335 8.42462 14.0881 11.2657C14.1176 11.572 14.3685 11.8081 14.6748 11.8081H15.8629C16.206 11.8081 16.4827 11.513 16.4569 11.1698C16.147 7.10738 12.8963 3.8567 8.83386 3.54307Z" fill="#70708C"/>
</g>
<defs>
<clipPath id="clip0_302_846">
<rect width="20" height="20" fill="white"/>
</clipPath>
</defs>
</svg>
