<svg width="652" height="262" viewBox="0 0 652 262" fill="none" xmlns="http://www.w3.org/2000/svg">
<path d="M6.0293 36.8398C5.74674 37.1042 5.41406 37.4095 5.03125 37.7559C4.64844 38.1022 4.26107 38.4714 3.86914 38.8633C3.47721 39.2552 3.1263 39.6471 2.81641 40.0391C2.50651 40.431 2.2832 40.8047 2.14648 41.1602C2.37435 40.8776 2.66146 40.6224 3.00781 40.3945C3.35417 40.1667 3.74154 40.0527 4.16992 40.0527C4.77148 40.0527 5.28646 40.1895 5.71484 40.4629C6.14323 40.7272 6.47135 41.0781 6.69922 41.5156C6.9362 41.944 7.05469 42.4043 7.05469 42.8965C7.05469 43.2884 6.98177 43.6803 6.83594 44.0723C6.69922 44.4642 6.49414 44.8242 6.2207 45.1523C5.95638 45.4714 5.63281 45.7266 5.25 45.918C4.86719 46.1094 4.43424 46.2051 3.95117 46.2051C3.34049 46.2051 2.78451 46.0638 2.2832 45.7812C1.79102 45.4987 1.39453 45.0931 1.09375 44.5645C0.802083 44.0358 0.65625 43.4069 0.65625 42.6777C0.65625 42.1855 0.747396 41.7025 0.929688 41.2285C1.11198 40.7454 1.3444 40.2852 1.62695 39.8477C1.91862 39.401 2.22852 38.9863 2.55664 38.6035C2.88477 38.2207 3.19466 37.8789 3.48633 37.5781C3.77799 37.2773 4.01953 37.0312 4.21094 36.8398H6.0293ZM3.88281 41.1602C3.54557 41.1602 3.21745 41.2422 2.89844 41.4062C2.57943 41.5612 2.31966 41.7799 2.11914 42.0625C1.91862 42.3359 1.81836 42.6595 1.81836 43.0332C1.81836 43.4434 1.91862 43.8034 2.11914 44.1133C2.31966 44.4232 2.57943 44.6647 2.89844 44.8379C3.21745 45.0111 3.54557 45.0977 3.88281 45.0977C4.22917 45.0977 4.55273 45.0111 4.85352 44.8379C5.16341 44.6647 5.41406 44.4232 5.60547 44.1133C5.79688 43.8034 5.89258 43.4434 5.89258 43.0332C5.89258 42.6595 5.79688 42.3359 5.60547 42.0625C5.41406 41.7799 5.16341 41.5612 4.85352 41.4062C4.55273 41.2422 4.22917 41.1602 3.88281 41.1602ZM11.3203 36.6348C11.9128 36.6348 12.4232 36.7715 12.8516 37.0449C13.2891 37.3184 13.6491 37.6875 13.9316 38.1523C14.2142 38.6081 14.4238 39.1185 14.5605 39.6836C14.7064 40.2487 14.7793 40.8275 14.7793 41.4199C14.7793 42.0033 14.7064 42.582 14.5605 43.1562C14.4238 43.7214 14.2142 44.2363 13.9316 44.7012C13.6491 45.1569 13.2891 45.5215 12.8516 45.7949C12.4232 46.0684 11.9128 46.2051 11.3203 46.2051C10.737 46.2051 10.2266 46.0684 9.78906 45.7949C9.35156 45.5215 8.99154 45.1569 8.70898 44.7012C8.42643 44.2363 8.21224 43.7214 8.06641 43.1562C7.92969 42.582 7.86133 42.0033 7.86133 41.4199C7.86133 40.8275 7.92969 40.2487 8.06641 39.6836C8.21224 39.1185 8.42643 38.6081 8.70898 38.1523C8.99154 37.6875 9.35156 37.3184 9.78906 37.0449C10.2266 36.7715 10.737 36.6348 11.3203 36.6348ZM11.3203 37.8379C10.9466 37.8379 10.6139 37.9427 10.3223 38.1523C10.0397 38.3529 9.80273 38.6263 9.61133 38.9727C9.41992 39.3099 9.27409 39.6927 9.17383 40.1211C9.07357 40.5404 9.02344 40.9733 9.02344 41.4199C9.02344 41.8665 9.07357 42.304 9.17383 42.7324C9.27409 43.1517 9.41992 43.5345 9.61133 43.8809C9.80273 44.2181 10.0397 44.4915 10.3223 44.7012C10.6139 44.9017 10.9466 45.002 11.3203 45.002C11.694 45.002 12.0221 44.9017 12.3047 44.7012C12.5964 44.4915 12.8379 44.2181 13.0293 43.8809C13.2207 43.5345 13.3665 43.1517 13.4668 42.7324C13.5671 42.304 13.6172 41.8665 13.6172 41.4199C13.6172 40.9733 13.5671 40.5404 13.4668 40.1211C13.3665 39.6927 13.2207 39.3099 13.0293 38.9727C12.8379 38.6263 12.5964 38.3529 12.3047 38.1523C12.0221 37.9427 11.694 37.8379 11.3203 37.8379ZM22.2441 39.1641L19.0723 42.1445L22.4219 46H21L18.293 42.8828L17.3223 43.7852V46H16.2012V36.1562H17.3223V42.5L20.7266 39.1641H22.2441Z" fill="#718096"/>
<path d="M6.33008 95.5059V96.6406H2.7207V99.0879C2.85742 99.0332 3.01237 98.9876 3.18555 98.9512C3.36784 98.9147 3.60026 98.8965 3.88281 98.8965C4.39323 98.8965 4.85807 99.0195 5.27734 99.2656C5.70573 99.5117 6.04753 99.8444 6.30273 100.264C6.56706 100.683 6.69922 101.161 6.69922 101.699C6.69922 102.319 6.55339 102.87 6.26172 103.354C5.97005 103.827 5.56901 104.201 5.05859 104.475C4.54818 104.739 3.9694 104.871 3.32227 104.871C2.99414 104.871 2.67057 104.821 2.35156 104.721C2.03255 104.63 1.74544 104.511 1.49023 104.365C1.23503 104.219 1.02539 104.074 0.861328 103.928V102.574C1.03451 102.711 1.24414 102.875 1.49023 103.066C1.73633 103.249 2.01432 103.413 2.32422 103.559C2.63411 103.695 2.9668 103.764 3.32227 103.764C3.73242 103.764 4.10612 103.682 4.44336 103.518C4.7806 103.354 5.04492 103.126 5.23633 102.834C5.43685 102.542 5.53711 102.201 5.53711 101.809C5.53711 101.435 5.43229 101.116 5.22266 100.852C5.01302 100.578 4.73503 100.368 4.38867 100.223C4.04232 100.068 3.66406 99.9902 3.25391 99.9902C2.90755 99.9902 2.58854 100.036 2.29688 100.127C2.01432 100.209 1.74544 100.3 1.49023 100.4V95.5059H6.33008ZM11.3203 95.3008C11.9128 95.3008 12.4232 95.4375 12.8516 95.7109C13.2891 95.9844 13.6491 96.3535 13.9316 96.8184C14.2142 97.2741 14.4238 97.7845 14.5605 98.3496C14.7064 98.9147 14.7793 99.4935 14.7793 100.086C14.7793 100.669 14.7064 101.248 14.5605 101.822C14.4238 102.387 14.2142 102.902 13.9316 103.367C13.6491 103.823 13.2891 104.188 12.8516 104.461C12.4232 104.734 11.9128 104.871 11.3203 104.871C10.737 104.871 10.2266 104.734 9.78906 104.461C9.35156 104.188 8.99154 103.823 8.70898 103.367C8.42643 102.902 8.21224 102.387 8.06641 101.822C7.92969 101.248 7.86133 100.669 7.86133 100.086C7.86133 99.4935 7.92969 98.9147 8.06641 98.3496C8.21224 97.7845 8.42643 97.2741 8.70898 96.8184C8.99154 96.3535 9.35156 95.9844 9.78906 95.7109C10.2266 95.4375 10.737 95.3008 11.3203 95.3008ZM11.3203 96.5039C10.9466 96.5039 10.6139 96.6087 10.3223 96.8184C10.0397 97.0189 9.80273 97.2923 9.61133 97.6387C9.41992 97.9759 9.27409 98.3587 9.17383 98.7871C9.07357 99.2064 9.02344 99.6393 9.02344 100.086C9.02344 100.533 9.07357 100.97 9.17383 101.398C9.27409 101.818 9.41992 102.201 9.61133 102.547C9.80273 102.884 10.0397 103.158 10.3223 103.367C10.6139 103.568 10.9466 103.668 11.3203 103.668C11.694 103.668 12.0221 103.568 12.3047 103.367C12.5964 103.158 12.8379 102.884 13.0293 102.547C13.2207 102.201 13.3665 101.818 13.4668 101.398C13.5671 100.97 13.6172 100.533 13.6172 100.086C13.6172 99.6393 13.5671 99.2064 13.4668 98.7871C13.3665 98.3587 13.2207 97.9759 13.0293 97.6387C12.8379 97.2923 12.5964 97.0189 12.3047 96.8184C12.0221 96.6087 11.694 96.5039 11.3203 96.5039ZM22.2441 97.8301L19.0723 100.811L22.4219 104.666H21L18.293 101.549L17.3223 102.451V104.666H16.2012V94.8223H17.3223V101.166L20.7266 97.8301H22.2441Z" fill="#718096"/>
<path d="M5.7832 154.174V160.271H7.21875V161.311H5.7832V163.334H4.55273V161.311H0.369141V160.859C0.888672 160.303 1.4401 159.684 2.02344 159C2.61589 158.316 3.19466 157.574 3.75977 156.771C4.33398 155.96 4.85807 155.094 5.33203 154.174H5.7832ZM4.55273 157.182C4.18815 157.747 3.81901 158.294 3.44531 158.822C3.07161 159.342 2.68424 159.825 2.2832 160.271H4.55273V157.182ZM11.3203 153.969C11.9128 153.969 12.4232 154.105 12.8516 154.379C13.2891 154.652 13.6491 155.021 13.9316 155.486C14.2142 155.942 14.4238 156.452 14.5605 157.018C14.7064 157.583 14.7793 158.161 14.7793 158.754C14.7793 159.337 14.7064 159.916 14.5605 160.49C14.4238 161.055 14.2142 161.57 13.9316 162.035C13.6491 162.491 13.2891 162.855 12.8516 163.129C12.4232 163.402 11.9128 163.539 11.3203 163.539C10.737 163.539 10.2266 163.402 9.78906 163.129C9.35156 162.855 8.99154 162.491 8.70898 162.035C8.42643 161.57 8.21224 161.055 8.06641 160.49C7.92969 159.916 7.86133 159.337 7.86133 158.754C7.86133 158.161 7.92969 157.583 8.06641 157.018C8.21224 156.452 8.42643 155.942 8.70898 155.486C8.99154 155.021 9.35156 154.652 9.78906 154.379C10.2266 154.105 10.737 153.969 11.3203 153.969ZM11.3203 155.172C10.9466 155.172 10.6139 155.277 10.3223 155.486C10.0397 155.687 9.80273 155.96 9.61133 156.307C9.41992 156.644 9.27409 157.027 9.17383 157.455C9.07357 157.874 9.02344 158.307 9.02344 158.754C9.02344 159.201 9.07357 159.638 9.17383 160.066C9.27409 160.486 9.41992 160.868 9.61133 161.215C9.80273 161.552 10.0397 161.826 10.3223 162.035C10.6139 162.236 10.9466 162.336 11.3203 162.336C11.694 162.336 12.0221 162.236 12.3047 162.035C12.5964 161.826 12.8379 161.552 13.0293 161.215C13.2207 160.868 13.3665 160.486 13.4668 160.066C13.5671 159.638 13.6172 159.201 13.6172 158.754C13.6172 158.307 13.5671 157.874 13.4668 157.455C13.3665 157.027 13.2207 156.644 13.0293 156.307C12.8379 155.96 12.5964 155.687 12.3047 155.486C12.0221 155.277 11.694 155.172 11.3203 155.172ZM22.2441 156.498L19.0723 159.479L22.4219 163.334H21L18.293 160.217L17.3223 161.119V163.334H16.2012V153.49H17.3223V159.834L20.7266 156.498H22.2441Z" fill="#718096"/>
<path d="M3.36328 212.635C3.96484 212.635 4.49805 212.749 4.96289 212.977C5.43685 213.204 5.80599 213.519 6.07031 213.92C6.34375 214.312 6.48047 214.763 6.48047 215.273C6.48047 215.684 6.37565 216.03 6.16602 216.312C5.96549 216.595 5.72396 216.818 5.44141 216.982C5.15885 217.146 4.89909 217.26 4.66211 217.324C4.89909 217.388 5.15885 217.516 5.44141 217.707C5.72396 217.889 5.96549 218.131 6.16602 218.432C6.37565 218.732 6.48047 219.088 6.48047 219.498C6.48047 220.008 6.34831 220.469 6.08398 220.879C5.82878 221.289 5.46875 221.613 5.00391 221.85C4.53906 222.087 4.00586 222.205 3.4043 222.205C2.86654 222.205 2.38346 222.114 1.95508 221.932C1.53581 221.749 1.20768 221.549 0.970703 221.33V219.977C1.18034 220.122 1.39909 220.282 1.62695 220.455C1.85482 220.628 2.11458 220.779 2.40625 220.906C2.69792 221.034 3.03971 221.098 3.43164 221.098C3.97852 221.098 4.42969 220.952 4.78516 220.66C5.14062 220.368 5.31836 219.958 5.31836 219.43C5.31836 219.129 5.22266 218.86 5.03125 218.623C4.84896 218.386 4.60742 218.199 4.30664 218.062C4.01497 217.926 3.70052 217.857 3.36328 217.857H2.54297V216.764H3.36328C3.9375 216.764 4.4069 216.641 4.77148 216.395C5.13607 216.139 5.31836 215.788 5.31836 215.342C5.31836 215.023 5.22721 214.745 5.04492 214.508C4.86263 214.271 4.62109 214.084 4.32031 213.947C4.01953 213.811 3.68685 213.742 3.32227 213.742C2.84831 213.742 2.44727 213.847 2.11914 214.057C1.80013 214.257 1.50846 214.49 1.24414 214.754V213.4C1.48112 213.182 1.78646 212.999 2.16016 212.854C2.54297 212.708 2.94401 212.635 3.36328 212.635ZM11.3203 212.635C11.9128 212.635 12.4232 212.771 12.8516 213.045C13.2891 213.318 13.6491 213.688 13.9316 214.152C14.2142 214.608 14.4238 215.118 14.5605 215.684C14.7064 216.249 14.7793 216.827 14.7793 217.42C14.7793 218.003 14.7064 218.582 14.5605 219.156C14.4238 219.721 14.2142 220.236 13.9316 220.701C13.6491 221.157 13.2891 221.521 12.8516 221.795C12.4232 222.068 11.9128 222.205 11.3203 222.205C10.737 222.205 10.2266 222.068 9.78906 221.795C9.35156 221.521 8.99154 221.157 8.70898 220.701C8.42643 220.236 8.21224 219.721 8.06641 219.156C7.92969 218.582 7.86133 218.003 7.86133 217.42C7.86133 216.827 7.92969 216.249 8.06641 215.684C8.21224 215.118 8.42643 214.608 8.70898 214.152C8.99154 213.688 9.35156 213.318 9.78906 213.045C10.2266 212.771 10.737 212.635 11.3203 212.635ZM11.3203 213.838C10.9466 213.838 10.6139 213.943 10.3223 214.152C10.0397 214.353 9.80273 214.626 9.61133 214.973C9.41992 215.31 9.27409 215.693 9.17383 216.121C9.07357 216.54 9.02344 216.973 9.02344 217.42C9.02344 217.867 9.07357 218.304 9.17383 218.732C9.27409 219.152 9.41992 219.535 9.61133 219.881C9.80273 220.218 10.0397 220.492 10.3223 220.701C10.6139 220.902 10.9466 221.002 11.3203 221.002C11.694 221.002 12.0221 220.902 12.3047 220.701C12.5964 220.492 12.8379 220.218 13.0293 219.881C13.2207 219.535 13.3665 219.152 13.4668 218.732C13.5671 218.304 13.6172 217.867 13.6172 217.42C13.6172 216.973 13.5671 216.54 13.4668 216.121C13.3665 215.693 13.2207 215.31 13.0293 214.973C12.8379 214.626 12.5964 214.353 12.3047 214.152C12.0221 213.943 11.694 213.838 11.3203 213.838ZM22.2441 215.164L19.0723 218.145L22.4219 222H21L18.293 218.883L17.3223 219.785V222H16.2012V212.156H17.3223V218.5L20.7266 215.164H22.2441Z" fill="#718096"/>
<path d="M59.8027 248.312V257.035C59.8027 257.81 59.6751 258.452 59.4199 258.963C59.1647 259.473 58.8138 259.883 58.3672 260.193C57.9297 260.512 57.4238 260.777 56.8496 260.986L56.248 259.797C57.7975 259.241 58.5723 258.402 58.5723 257.281V248.312H59.8027ZM65.2852 250.527C65.6771 250.527 66.0736 250.623 66.4746 250.814C66.8848 250.997 67.2357 251.252 67.5273 251.58V250.664H68.6484V257.5H67.5273V256.338C67.2904 256.702 66.9668 257.021 66.5566 257.295C66.1556 257.568 65.6953 257.705 65.1758 257.705C64.5924 257.705 64.0592 257.559 63.5762 257.268C63.0931 256.967 62.7057 256.552 62.4141 256.023C62.1315 255.495 61.9902 254.884 61.9902 254.191C61.9902 253.435 62.1315 252.783 62.4141 252.236C62.7057 251.689 63.1022 251.27 63.6035 250.979C64.1048 250.678 64.6654 250.527 65.2852 250.527ZM65.4902 251.621C64.998 251.621 64.5788 251.744 64.2324 251.99C63.8861 252.236 63.6172 252.555 63.4258 252.947C63.2435 253.33 63.1523 253.745 63.1523 254.191C63.1523 254.629 63.2435 255.035 63.4258 255.408C63.6081 255.773 63.8633 256.064 64.1914 256.283C64.5286 256.502 64.916 256.611 65.3535 256.611C65.7728 256.611 66.1465 256.502 66.4746 256.283C66.8027 256.064 67.0625 255.764 67.2539 255.381C67.4453 254.989 67.5365 254.551 67.5273 254.068L67.5137 252.756C67.2311 252.4 66.9258 252.122 66.5977 251.922C66.2786 251.721 65.9095 251.621 65.4902 251.621ZM72.0938 250.664V251.744C72.2396 251.562 72.4264 251.38 72.6543 251.197C72.8822 251.006 73.1374 250.846 73.4199 250.719C73.7116 250.591 74.0124 250.527 74.3223 250.527C74.7871 250.527 75.2109 250.632 75.5938 250.842C75.9766 251.042 76.2819 251.352 76.5098 251.771C76.7376 252.182 76.8516 252.701 76.8516 253.33V257.5H75.7305L75.7168 253.439C75.7168 252.847 75.5846 252.396 75.3203 252.086C75.0651 251.776 74.6686 251.621 74.1309 251.621C73.7663 251.621 73.4017 251.758 73.0371 252.031C72.6816 252.296 72.3672 252.605 72.0938 252.961V257.5H70.9727V250.664H72.0938Z" fill="#718096"/>
<path d="M155.005 252.564V253.727H151.068V257.5H149.837V248.34H155.826V249.502H151.068V252.564H155.005ZM160.993 250.527C161.695 250.527 162.279 250.673 162.743 250.965C163.208 251.257 163.555 251.653 163.783 252.154C164.02 252.656 164.138 253.221 164.138 253.85V254.52H158.888C158.943 254.902 159.075 255.253 159.285 255.572C159.494 255.891 159.768 256.146 160.105 256.338C160.442 256.52 160.829 256.611 161.267 256.611C161.759 256.611 162.219 256.488 162.648 256.242C163.076 255.987 163.436 255.709 163.728 255.408L163.714 256.625C163.587 256.78 163.395 256.944 163.14 257.117C162.894 257.281 162.607 257.418 162.279 257.527C161.96 257.646 161.622 257.705 161.267 257.705C160.574 257.705 159.959 257.541 159.421 257.213C158.883 256.885 158.46 256.452 158.15 255.914C157.849 255.367 157.699 254.77 157.699 254.123C157.699 253.476 157.84 252.879 158.122 252.332C158.405 251.785 158.792 251.348 159.285 251.02C159.786 250.691 160.355 250.527 160.993 250.527ZM160.993 251.621C160.428 251.621 159.964 251.812 159.599 252.195C159.234 252.569 159.007 253.025 158.915 253.562H163.031C162.985 253.116 162.857 252.751 162.648 252.469C162.447 252.186 162.201 251.977 161.91 251.84C161.618 251.694 161.313 251.621 160.993 251.621ZM169.347 250.527C169.976 250.527 170.536 250.678 171.029 250.979C171.53 251.27 171.922 251.689 172.204 252.236C172.496 252.783 172.642 253.435 172.642 254.191C172.642 254.884 172.496 255.495 172.204 256.023C171.922 256.552 171.539 256.967 171.056 257.268C170.582 257.559 170.049 257.705 169.456 257.705C168.937 257.705 168.472 257.568 168.062 257.295C167.661 257.021 167.342 256.702 167.105 256.338V257.5H165.984V247.656H167.105V251.58C167.396 251.252 167.743 250.997 168.144 250.814C168.554 250.623 168.955 250.527 169.347 250.527ZM169.142 251.635C168.723 251.635 168.354 251.735 168.035 251.936C167.716 252.127 167.41 252.4 167.118 252.756L167.105 254.068C167.105 254.551 167.196 254.984 167.378 255.367C167.57 255.75 167.829 256.051 168.158 256.27C168.495 256.488 168.868 256.598 169.279 256.598C169.725 256.598 170.113 256.488 170.441 256.27C170.769 256.051 171.024 255.759 171.206 255.395C171.389 255.03 171.48 254.629 171.48 254.191C171.48 253.745 171.384 253.33 171.193 252.947C171.01 252.555 170.746 252.241 170.4 252.004C170.053 251.758 169.634 251.635 169.142 251.635Z" fill="#718096"/>
<path d="M253.688 248.34V257.5H252.458V250.869L249.628 253.891H249.299L246.401 250.869V257.5H245.171V248.34H245.553L249.464 252.537L253.305 248.34H253.688ZM259.171 250.527C259.563 250.527 259.959 250.623 260.36 250.814C260.77 250.997 261.121 251.252 261.413 251.58V250.664H262.534V257.5H261.413V256.338C261.176 256.702 260.852 257.021 260.442 257.295C260.041 257.568 259.581 257.705 259.061 257.705C258.478 257.705 257.945 257.559 257.462 257.268C256.979 256.967 256.591 256.552 256.299 256.023C256.017 255.495 255.876 254.884 255.876 254.191C255.876 253.435 256.017 252.783 256.299 252.236C256.591 251.689 256.988 251.27 257.489 250.979C257.99 250.678 258.551 250.527 259.171 250.527ZM259.376 251.621C258.883 251.621 258.464 251.744 258.118 251.99C257.772 252.236 257.503 252.555 257.311 252.947C257.129 253.33 257.038 253.745 257.038 254.191C257.038 254.629 257.129 255.035 257.311 255.408C257.494 255.773 257.749 256.064 258.077 256.283C258.414 256.502 258.801 256.611 259.239 256.611C259.658 256.611 260.032 256.502 260.36 256.283C260.688 256.064 260.948 255.764 261.139 255.381C261.331 254.989 261.422 254.551 261.413 254.068L261.399 252.756C261.117 252.4 260.811 252.122 260.483 251.922C260.164 251.721 259.795 251.621 259.376 251.621ZM265.979 250.664V252.031C266.244 251.576 266.563 251.211 266.936 250.938C267.31 250.664 267.693 250.527 268.085 250.527C268.349 250.527 268.586 250.573 268.796 250.664V251.963C268.504 251.79 268.212 251.703 267.921 251.703C267.456 251.703 267.077 251.867 266.786 252.195C266.503 252.523 266.234 252.915 265.979 253.371V257.5H264.858V250.664H265.979Z" fill="#718096"/>
<path d="M345.031 248.34L349.311 257.5H347.834L346.877 255.312H342.584L341.613 257.5H340.137L344.416 248.34H345.031ZM344.744 250.418L343.09 254.15H346.371L344.744 250.418ZM354.082 250.527C354.674 250.527 355.208 250.673 355.682 250.965C356.165 251.247 356.548 251.648 356.83 252.168C357.122 252.678 357.268 253.28 357.268 253.973C357.268 254.72 357.122 255.376 356.83 255.941C356.548 256.497 356.156 256.93 355.654 257.24C355.162 257.55 354.602 257.705 353.973 257.705C353.581 257.705 353.18 257.6 352.77 257.391C352.368 257.181 352.022 256.912 351.73 256.584V260.781H350.609V250.664H351.73V251.826C351.967 251.462 352.286 251.156 352.688 250.91C353.098 250.655 353.562 250.527 354.082 250.527ZM353.904 251.621C353.494 251.621 353.12 251.726 352.783 251.936C352.455 252.145 352.195 252.437 352.004 252.811C351.822 253.175 351.73 253.604 351.73 254.096L351.744 255.408C352.036 255.764 352.341 256.055 352.66 256.283C352.979 256.502 353.348 256.611 353.768 256.611C354.26 256.611 354.679 256.484 355.025 256.229C355.372 255.973 355.636 255.645 355.818 255.244C356.01 254.834 356.105 254.41 356.105 253.973C356.105 253.526 356.014 253.13 355.832 252.783C355.65 252.428 355.395 252.145 355.066 251.936C354.738 251.726 354.351 251.621 353.904 251.621ZM360.234 250.664V252.031C360.499 251.576 360.818 251.211 361.191 250.938C361.565 250.664 361.948 250.527 362.34 250.527C362.604 250.527 362.841 250.573 363.051 250.664V251.963C362.759 251.79 362.467 251.703 362.176 251.703C361.711 251.703 361.333 251.867 361.041 252.195C360.758 252.523 360.49 252.915 360.234 253.371V257.5H359.113V250.664H360.234Z" fill="#718096"/>
<path d="M444.355 248.34V257.5H443.124V250.869L440.294 253.891H439.966L437.068 250.869V257.5H435.837V248.34H436.22L440.13 252.537L443.972 248.34H444.355ZM449.837 250.527C450.229 250.527 450.626 250.623 451.027 250.814C451.437 250.997 451.788 251.252 452.079 251.58V250.664H453.201V257.5H452.079V256.338C451.842 256.702 451.519 257.021 451.109 257.295C450.708 257.568 450.247 257.705 449.728 257.705C449.145 257.705 448.611 257.559 448.128 257.268C447.645 256.967 447.258 256.552 446.966 256.023C446.684 255.495 446.542 254.884 446.542 254.191C446.542 253.435 446.684 252.783 446.966 252.236C447.258 251.689 447.654 251.27 448.156 250.979C448.657 250.678 449.217 250.527 449.837 250.527ZM450.042 251.621C449.55 251.621 449.131 251.744 448.785 251.99C448.438 252.236 448.169 252.555 447.978 252.947C447.796 253.33 447.704 253.745 447.704 254.191C447.704 254.629 447.796 255.035 447.978 255.408C448.16 255.773 448.415 256.064 448.744 256.283C449.081 256.502 449.468 256.611 449.906 256.611C450.325 256.611 450.699 256.502 451.027 256.283C451.355 256.064 451.615 255.764 451.806 255.381C451.997 254.989 452.089 254.551 452.079 254.068L452.066 252.756C451.783 252.4 451.478 252.122 451.15 251.922C450.831 251.721 450.462 251.621 450.042 251.621ZM455.908 250.664L458.3 255.695L460.624 250.664H461.964L456.933 260.781H455.634L457.589 257.09L454.568 250.664H455.908Z" fill="#718096"/>
<path d="M535.469 248.312V257.035C535.469 257.81 535.342 258.452 535.087 258.963C534.831 259.473 534.48 259.883 534.034 260.193C533.596 260.512 533.091 260.777 532.516 260.986L531.915 259.797C533.464 259.241 534.239 258.402 534.239 257.281V248.312H535.469ZM543.727 250.664V254.711C543.727 255.312 543.6 255.832 543.344 256.27C543.089 256.707 542.743 257.044 542.305 257.281C541.868 257.518 541.376 257.637 540.829 257.637C540.282 257.637 539.79 257.518 539.352 257.281C538.915 257.044 538.568 256.707 538.313 256.27C538.058 255.832 537.93 255.312 537.93 254.711V250.664H539.092V254.711C539.092 255.303 539.266 255.759 539.612 256.078C539.967 256.388 540.373 256.543 540.829 256.543C541.285 256.543 541.686 256.388 542.032 256.078C542.387 255.759 542.565 255.303 542.565 254.711V250.664H543.727ZM546.967 250.664V251.744C547.113 251.562 547.3 251.38 547.528 251.197C547.756 251.006 548.011 250.846 548.294 250.719C548.585 250.591 548.886 250.527 549.196 250.527C549.661 250.527 550.085 250.632 550.467 250.842C550.85 251.042 551.156 251.352 551.383 251.771C551.611 252.182 551.725 252.701 551.725 253.33V257.5H550.604L550.591 253.439C550.591 252.847 550.458 252.396 550.194 252.086C549.939 251.776 549.542 251.621 549.005 251.621C548.64 251.621 548.275 251.758 547.911 252.031C547.555 252.296 547.241 252.605 546.967 252.961V257.5H545.846V250.664H546.967Z" fill="#718096"/>
<path d="M626.803 248.312V257.035C626.803 257.81 626.675 258.452 626.42 258.963C626.165 259.473 625.814 259.883 625.367 260.193C624.93 260.512 624.424 260.777 623.85 260.986L623.248 259.797C624.798 259.241 625.572 258.402 625.572 257.281V248.312H626.803ZM635.061 250.664V254.711C635.061 255.312 634.933 255.832 634.678 256.27C634.423 256.707 634.076 257.044 633.639 257.281C633.201 257.518 632.709 257.637 632.162 257.637C631.615 257.637 631.123 257.518 630.686 257.281C630.248 257.044 629.902 256.707 629.646 256.27C629.391 255.832 629.264 255.312 629.264 254.711V250.664H630.426V254.711C630.426 255.303 630.599 255.759 630.945 256.078C631.301 256.388 631.706 256.543 632.162 256.543C632.618 256.543 633.019 256.388 633.365 256.078C633.721 255.759 633.898 255.303 633.898 254.711V250.664H635.061ZM638.301 247.656V257.5H637.18V247.656H638.301Z" fill="#718096"/>
<path opacity="0.8" d="M50 16C50 11.5817 53.5817 8 58 8H86C90.4183 8 94 11.5817 94 16V226H50V16Z" fill="#F9FAFB"/>
<line x1="72.5" y1="24.5" x2="72.5" y2="225.5" stroke="#F1F2F4" stroke-linecap="round"/>
<path opacity="0.8" d="M143 16C143 11.5817 146.582 8 151 8H179C183.418 8 187 11.5817 187 16V226H143V16Z" fill="#F9FAFB"/>
<line x1="165.5" y1="24.5" x2="165.5" y2="225.5" stroke="#F1F2F4" stroke-linecap="round"/>
<path opacity="0.8" d="M236 16C236 11.5817 239.582 8 244 8H272C276.418 8 280 11.5817 280 16V226H236V16Z" fill="#F9FAFB"/>
<line x1="258.5" y1="24.5" x2="258.5" y2="225.5" stroke="#F1F2F4" stroke-linecap="round"/>
<path d="M329 16C329 11.5817 332.582 8 337 8H365C369.418 8 373 11.5817 373 16V226H329V16Z" fill="url(#paint0_linear_2602_32747)"/>
<line x1="351.5" y1="24.5" x2="351.5" y2="225.5" stroke="white" stroke-linecap="round" stroke-dasharray="4 4"/>
<path opacity="0.8" d="M422 16C422 11.5817 425.582 8 430 8H458C462.418 8 466 11.5817 466 16V226H422V16Z" fill="#F9FAFB"/>
<line x1="444.5" y1="24.5" x2="444.5" y2="225.5" stroke="#F1F2F4" stroke-linecap="round"/>
<path opacity="0.8" d="M515 16C515 11.5817 518.582 8 523 8H551C555.418 8 559 11.5817 559 16V226H515V16Z" fill="#F9FAFB"/>
<line x1="537.5" y1="24.5" x2="537.5" y2="225.5" stroke="#F1F2F4" stroke-linecap="round"/>
<path opacity="0.8" d="M608 16C608 11.5817 611.582 8 616 8H644C648.418 8 652 11.5817 652 16V226H608V16Z" fill="#F9FAFB"/>
<line x1="630.5" y1="24.5" x2="630.5" y2="225.5" stroke="#F1F2F4" stroke-linecap="round"/>
<path d="M69 150.852C113.54 153.204 148.07 126.744 165.586 126.744C186.104 126.744 235.148 152.818 258.168 150.264C286.693 147.099 328.731 100.774 351.751 98.52C375.772 96.168 421.813 137.768 444.834 139.68C470.857 141.842 499.993 119.775 538.917 117.336C568.444 115.486 607.478 75 632 75" stroke="#0CAF60" stroke-width="2.5" stroke-linecap="round"/>
<path d="M65 115.512C99.5 115.512 129 162.873 166.5 162.873C197 162.873 242 133.957 259 136.778C283.759 140.887 298 157.879 317.5 159.499C355.5 162.656 414.5 95.9993 444 99.9993C472.5 103.864 487 143.799 506 143.799C525 143.799 567 110.949 580 110.949C593 110.949 608.5 128.286 631 128.286" stroke="#FFD023" stroke-width="2.5" stroke-linecap="round"/>
<g filter="url(#filter0_d_2602_32747)">
<circle cx="351" cy="98" r="6" fill="white"/>
<circle cx="351" cy="98" r="5" stroke="#0CAF60" stroke-width="2"/>
</g>
<g filter="url(#filter1_d_2602_32747)">
<rect x="308" y="32.5" width="85" height="49" rx="8" fill="white" shape-rendering="crispEdges"/>
<path d="M319.629 43.793H320.613V44.6406C321.014 44.6771 321.365 44.7637 321.666 44.9004C321.976 45.028 322.236 45.1602 322.445 45.2969V46.4453C322.217 46.2721 321.912 46.1081 321.529 45.9531C321.156 45.7982 320.773 45.7207 320.381 45.7207C320.135 45.7207 319.875 45.7663 319.602 45.8574C319.337 45.9486 319.114 46.0898 318.932 46.2812C318.749 46.4635 318.658 46.7051 318.658 47.0059C318.658 47.3431 318.777 47.6029 319.014 47.7852C319.251 47.9583 319.542 48.1178 319.889 48.2637L321.16 48.7832C321.743 49.0202 322.176 49.3027 322.459 49.6309C322.751 49.9499 322.896 50.3737 322.896 50.9023C322.896 51.2943 322.792 51.6497 322.582 51.9688C322.382 52.2878 322.108 52.5521 321.762 52.7617C321.424 52.9622 321.042 53.099 320.613 53.1719V54.3203H319.629V53.1855C319.237 53.14 318.872 53.0443 318.535 52.8984C318.198 52.7435 317.902 52.5794 317.646 52.4062V51.2441C317.965 51.472 318.335 51.6771 318.754 51.8594C319.182 52.0326 319.661 52.1191 320.189 52.1191C320.609 52.1191 320.973 52.0143 321.283 51.8047C321.593 51.5951 321.748 51.3079 321.748 50.9434C321.748 50.7337 321.684 50.556 321.557 50.4102C321.429 50.2552 321.274 50.123 321.092 50.0137C320.91 49.9043 320.732 49.8177 320.559 49.7539L319.041 49.125C318.439 48.8698 318.029 48.5645 317.811 48.209C317.601 47.8444 317.496 47.4297 317.496 46.9648C317.496 46.5911 317.592 46.2493 317.783 45.9395C317.975 45.6204 318.23 45.3516 318.549 45.1328C318.868 44.9141 319.228 44.7682 319.629 44.6953V43.793ZM330.293 44.3398V45.4746H326.684V47.9219C326.82 47.8672 326.975 47.8216 327.148 47.7852C327.331 47.7487 327.563 47.7305 327.846 47.7305C328.356 47.7305 328.821 47.8535 329.24 48.0996C329.669 48.3457 330.01 48.6784 330.266 49.0977C330.53 49.5169 330.662 49.9954 330.662 50.5332C330.662 51.153 330.516 51.7044 330.225 52.1875C329.933 52.6615 329.532 53.0352 329.021 53.3086C328.511 53.5729 327.932 53.7051 327.285 53.7051C326.957 53.7051 326.633 53.6549 326.314 53.5547C325.995 53.4635 325.708 53.3451 325.453 53.1992C325.198 53.0534 324.988 52.9076 324.824 52.7617V51.4082C324.997 51.5449 325.207 51.709 325.453 51.9004C325.699 52.0827 325.977 52.2467 326.287 52.3926C326.597 52.5293 326.93 52.5977 327.285 52.5977C327.695 52.5977 328.069 52.5156 328.406 52.3516C328.743 52.1875 329.008 51.9596 329.199 51.668C329.4 51.3763 329.5 51.0345 329.5 50.6426C329.5 50.2689 329.395 49.9499 329.186 49.6855C328.976 49.4121 328.698 49.2025 328.352 49.0566C328.005 48.9017 327.627 48.8242 327.217 48.8242C326.87 48.8242 326.551 48.8698 326.26 48.9609C325.977 49.043 325.708 49.1341 325.453 49.2344V44.3398H330.293ZM334.982 44.1348C335.584 44.1348 336.113 44.2441 336.568 44.4629C337.024 44.6816 337.38 44.9961 337.635 45.4062C337.89 45.8073 338.018 46.2858 338.018 46.8418C338.018 47.4342 337.867 47.9993 337.566 48.5371C337.266 49.0658 336.837 49.6309 336.281 50.2324C335.734 50.834 335.083 51.5449 334.326 52.3652H338.086V53.5H332.344V53.0078C333.273 51.9688 334.076 51.0892 334.75 50.3691C335.424 49.64 335.944 49.0156 336.309 48.4961C336.673 47.9766 336.855 47.5163 336.855 47.1152C336.855 46.5228 336.66 46.0807 336.268 45.7891C335.885 45.4883 335.42 45.3379 334.873 45.3379C334.426 45.3379 334.003 45.4518 333.602 45.6797C333.21 45.8984 332.882 46.1263 332.617 46.3633V45.0781C332.854 44.8594 333.178 44.6497 333.588 44.4492C333.998 44.2396 334.463 44.1348 334.982 44.1348ZM340.643 51.8867L341.764 52.2695L340.533 55.9199L339.686 55.7012L340.643 51.8867ZM348.887 44.3398C348.604 44.6042 348.271 44.9095 347.889 45.2559C347.506 45.6022 347.118 45.9714 346.727 46.3633C346.335 46.7552 345.984 47.1471 345.674 47.5391C345.364 47.931 345.141 48.3047 345.004 48.6602C345.232 48.3776 345.519 48.1224 345.865 47.8945C346.212 47.6667 346.599 47.5527 347.027 47.5527C347.629 47.5527 348.144 47.6895 348.572 47.9629C349.001 48.2272 349.329 48.5781 349.557 49.0156C349.794 49.444 349.912 49.9043 349.912 50.3965C349.912 50.7884 349.839 51.1803 349.693 51.5723C349.557 51.9642 349.352 52.3242 349.078 52.6523C348.814 52.9714 348.49 53.2266 348.107 53.418C347.725 53.6094 347.292 53.7051 346.809 53.7051C346.198 53.7051 345.642 53.5638 345.141 53.2812C344.648 52.9987 344.252 52.5931 343.951 52.0645C343.66 51.5358 343.514 50.9069 343.514 50.1777C343.514 49.6855 343.605 49.2025 343.787 48.7285C343.969 48.2454 344.202 47.7852 344.484 47.3477C344.776 46.901 345.086 46.4863 345.414 46.1035C345.742 45.7207 346.052 45.3789 346.344 45.0781C346.635 44.7773 346.877 44.5312 347.068 44.3398H348.887ZM346.74 48.6602C346.403 48.6602 346.075 48.7422 345.756 48.9062C345.437 49.0612 345.177 49.2799 344.977 49.5625C344.776 49.8359 344.676 50.1595 344.676 50.5332C344.676 50.9434 344.776 51.3034 344.977 51.6133C345.177 51.9232 345.437 52.1647 345.756 52.3379C346.075 52.5111 346.403 52.5977 346.74 52.5977C347.087 52.5977 347.41 52.5111 347.711 52.3379C348.021 52.1647 348.271 51.9232 348.463 51.6133C348.654 51.3034 348.75 50.9434 348.75 50.5332C348.75 50.1595 348.654 49.8359 348.463 49.5625C348.271 49.2799 348.021 49.0612 347.711 48.9062C347.41 48.7422 347.087 48.6602 346.74 48.6602ZM356.707 44.3398V45.4746H353.098V47.9219C353.234 47.8672 353.389 47.8216 353.562 47.7852C353.745 47.7487 353.977 47.7305 354.26 47.7305C354.77 47.7305 355.235 47.8535 355.654 48.0996C356.083 48.3457 356.424 48.6784 356.68 49.0977C356.944 49.5169 357.076 49.9954 357.076 50.5332C357.076 51.153 356.93 51.7044 356.639 52.1875C356.347 52.6615 355.946 53.0352 355.436 53.3086C354.925 53.5729 354.346 53.7051 353.699 53.7051C353.371 53.7051 353.048 53.6549 352.729 53.5547C352.41 53.4635 352.122 53.3451 351.867 53.1992C351.612 53.0534 351.402 52.9076 351.238 52.7617V51.4082C351.411 51.5449 351.621 51.709 351.867 51.9004C352.113 52.0827 352.391 52.2467 352.701 52.3926C353.011 52.5293 353.344 52.5977 353.699 52.5977C354.109 52.5977 354.483 52.5156 354.82 52.3516C355.158 52.1875 355.422 51.9596 355.613 51.668C355.814 51.3763 355.914 51.0345 355.914 50.6426C355.914 50.2689 355.809 49.9499 355.6 49.6855C355.39 49.4121 355.112 49.2025 354.766 49.0566C354.419 48.9017 354.041 48.8242 353.631 48.8242C353.285 48.8242 352.965 48.8698 352.674 48.9609C352.391 49.043 352.122 49.1341 351.867 49.2344V44.3398H356.707ZM364.924 44.3398V44.9141C364.35 45.7344 363.839 46.5 363.393 47.2109C362.955 47.9219 362.581 48.6146 362.271 49.2891C361.971 49.9635 361.738 50.6426 361.574 51.3262C361.419 52.0098 361.342 52.7344 361.342 53.5H359.934C359.934 52.707 360.034 51.9642 360.234 51.2715C360.435 50.5697 360.704 49.8997 361.041 49.2617C361.387 48.6146 361.77 47.9811 362.189 47.3613C362.609 46.7415 363.033 46.1126 363.461 45.4746H358.594V44.3398H364.924ZM367.467 51.832C367.731 51.832 367.954 51.9277 368.137 52.1191C368.328 52.3014 368.424 52.5247 368.424 52.7891C368.424 53.0443 368.328 53.2676 368.137 53.459C367.954 53.6504 367.731 53.7461 367.467 53.7461C367.202 53.7461 366.975 53.6504 366.783 53.459C366.601 53.2676 366.51 53.0443 366.51 52.7891C366.51 52.5247 366.601 52.3014 366.783 52.1191C366.975 51.9277 367.202 51.832 367.467 51.832ZM373.318 44.1348C373.911 44.1348 374.421 44.2715 374.85 44.5449C375.287 44.8184 375.647 45.1875 375.93 45.6523C376.212 46.1081 376.422 46.6185 376.559 47.1836C376.704 47.7487 376.777 48.3275 376.777 48.9199C376.777 49.5033 376.704 50.082 376.559 50.6562C376.422 51.2214 376.212 51.7363 375.93 52.2012C375.647 52.6569 375.287 53.0215 374.85 53.2949C374.421 53.5684 373.911 53.7051 373.318 53.7051C372.735 53.7051 372.225 53.5684 371.787 53.2949C371.35 53.0215 370.99 52.6569 370.707 52.2012C370.424 51.7363 370.21 51.2214 370.064 50.6562C369.928 50.082 369.859 49.5033 369.859 48.9199C369.859 48.3275 369.928 47.7487 370.064 47.1836C370.21 46.6185 370.424 46.1081 370.707 45.6523C370.99 45.1875 371.35 44.8184 371.787 44.5449C372.225 44.2715 372.735 44.1348 373.318 44.1348ZM373.318 45.3379C372.945 45.3379 372.612 45.4427 372.32 45.6523C372.038 45.8529 371.801 46.1263 371.609 46.4727C371.418 46.8099 371.272 47.1927 371.172 47.6211C371.072 48.0404 371.021 48.4733 371.021 48.9199C371.021 49.3665 371.072 49.804 371.172 50.2324C371.272 50.6517 371.418 51.0345 371.609 51.3809C371.801 51.7181 372.038 51.9915 372.32 52.2012C372.612 52.4017 372.945 52.502 373.318 52.502C373.692 52.502 374.02 52.4017 374.303 52.2012C374.594 51.9915 374.836 51.7181 375.027 51.3809C375.219 51.0345 375.365 50.6517 375.465 50.2324C375.565 49.804 375.615 49.3665 375.615 48.9199C375.615 48.4733 375.565 48.0404 375.465 47.6211C375.365 47.1927 375.219 46.8099 375.027 46.4727C374.836 46.1263 374.594 45.8529 374.303 45.6523C374.02 45.4427 373.692 45.3379 373.318 45.3379ZM380.838 44.1348C381.43 44.1348 381.941 44.2715 382.369 44.5449C382.807 44.8184 383.167 45.1875 383.449 45.6523C383.732 46.1081 383.941 46.6185 384.078 47.1836C384.224 47.7487 384.297 48.3275 384.297 48.9199C384.297 49.5033 384.224 50.082 384.078 50.6562C383.941 51.2214 383.732 51.7363 383.449 52.2012C383.167 52.6569 382.807 53.0215 382.369 53.2949C381.941 53.5684 381.43 53.7051 380.838 53.7051C380.255 53.7051 379.744 53.5684 379.307 53.2949C378.869 53.0215 378.509 52.6569 378.227 52.2012C377.944 51.7363 377.73 51.2214 377.584 50.6562C377.447 50.082 377.379 49.5033 377.379 48.9199C377.379 48.3275 377.447 47.7487 377.584 47.1836C377.73 46.6185 377.944 46.1081 378.227 45.6523C378.509 45.1875 378.869 44.8184 379.307 44.5449C379.744 44.2715 380.255 44.1348 380.838 44.1348ZM380.838 45.3379C380.464 45.3379 380.132 45.4427 379.84 45.6523C379.557 45.8529 379.32 46.1263 379.129 46.4727C378.938 46.8099 378.792 47.1927 378.691 47.6211C378.591 48.0404 378.541 48.4733 378.541 48.9199C378.541 49.3665 378.591 49.804 378.691 50.2324C378.792 50.6517 378.938 51.0345 379.129 51.3809C379.32 51.7181 379.557 51.9915 379.84 52.2012C380.132 52.4017 380.464 52.502 380.838 52.502C381.212 52.502 381.54 52.4017 381.822 52.2012C382.114 51.9915 382.355 51.7181 382.547 51.3809C382.738 51.0345 382.884 50.6517 382.984 50.2324C383.085 49.804 383.135 49.3665 383.135 48.9199C383.135 48.4733 383.085 48.0404 382.984 47.6211C382.884 47.1927 382.738 46.8099 382.547 46.4727C382.355 46.1263 382.114 45.8529 381.822 45.6523C381.54 45.4427 381.212 45.3379 380.838 45.3379Z" fill="#0CAF60"/>
<path d="M335.627 61.957V68.5H335.295L331.047 63.8223V68.5H330.168V61.957H330.5L334.748 66.6934V61.957H335.627ZM339.543 63.5195C340.044 63.5195 340.461 63.6237 340.793 63.832C341.125 64.0404 341.372 64.3236 341.535 64.6816C341.704 65.0397 341.789 65.4434 341.789 65.8926V66.3711H338.039C338.078 66.6445 338.173 66.8952 338.322 67.123C338.472 67.3509 338.667 67.5332 338.908 67.6699C339.149 67.8001 339.426 67.8652 339.738 67.8652C340.09 67.8652 340.419 67.7773 340.725 67.6016C341.031 67.4193 341.288 67.2207 341.496 67.0059L341.486 67.875C341.395 67.9857 341.258 68.1029 341.076 68.2266C340.9 68.3438 340.695 68.4414 340.461 68.5195C340.233 68.6042 339.992 68.6465 339.738 68.6465C339.243 68.6465 338.804 68.5293 338.42 68.2949C338.036 68.0605 337.733 67.7513 337.512 67.3672C337.297 66.9766 337.189 66.5501 337.189 66.0879C337.189 65.6257 337.29 65.1992 337.492 64.8086C337.694 64.418 337.971 64.1055 338.322 63.8711C338.68 63.6367 339.087 63.5195 339.543 63.5195ZM339.543 64.3008C339.139 64.3008 338.807 64.4375 338.547 64.7109C338.286 64.9779 338.124 65.3034 338.059 65.6875H340.998C340.965 65.3685 340.874 65.1081 340.725 64.9062C340.581 64.7044 340.406 64.5547 340.197 64.457C339.989 64.3529 339.771 64.3008 339.543 64.3008ZM344.455 62.2109V63.6172H345.881V64.3691H344.455V67.2305C344.455 67.4323 344.507 67.5918 344.611 67.709C344.715 67.8262 344.875 67.8848 345.09 67.8848C345.285 67.8848 345.448 67.862 345.578 67.8164C345.708 67.7643 345.822 67.709 345.92 67.6504V68.3047C345.79 68.4089 345.65 68.4902 345.5 68.5488C345.357 68.6139 345.161 68.6465 344.914 68.6465C344.497 68.6465 344.182 68.5228 343.967 68.2754C343.758 68.0215 343.654 67.6862 343.654 67.2695V64.3691H342.717V64.1348C343.036 63.9915 343.303 63.7572 343.518 63.4316C343.732 63.0996 343.921 62.6927 344.084 62.2109H344.455ZM351.721 63.5195C352.007 63.5195 352.274 63.5618 352.521 63.6465C352.769 63.7246 352.948 63.806 353.059 63.8906V64.75C352.922 64.6458 352.736 64.5449 352.502 64.4473C352.268 64.3496 352.027 64.3008 351.779 64.3008C351.473 64.3008 351.242 64.3724 351.086 64.5156C350.936 64.6589 350.861 64.8086 350.861 64.9648C350.861 65.0885 350.904 65.2155 350.988 65.3457C351.079 65.4694 351.236 65.5703 351.457 65.6484L352.277 65.9414C352.596 66.0521 352.834 66.2116 352.99 66.4199C353.146 66.6283 353.225 66.8724 353.225 67.1523C353.225 67.4258 353.146 67.6764 352.99 67.9043C352.84 68.1322 352.629 68.3145 352.355 68.4512C352.089 68.5814 351.779 68.6465 351.428 68.6465C351.239 68.6465 351.04 68.6204 350.832 68.5684C350.63 68.5228 350.448 68.4674 350.285 68.4023C350.122 68.3307 350.002 68.2689 349.924 68.2168V67.3574C350.015 67.4225 350.142 67.4974 350.305 67.582C350.474 67.6602 350.653 67.7285 350.842 67.7871C351.031 67.8392 351.206 67.8652 351.369 67.8652C351.675 67.8652 351.916 67.7969 352.092 67.6602C352.274 67.5234 352.365 67.3542 352.365 67.1523C352.365 66.9961 352.303 66.8724 352.18 66.7812C352.062 66.6901 351.89 66.6022 351.662 66.5176L350.939 66.2539C350.562 66.1107 350.311 65.9316 350.188 65.7168C350.064 65.4954 350.002 65.2448 350.002 64.9648C350.002 64.5482 350.158 64.2031 350.471 63.9297C350.783 63.6562 351.2 63.5195 351.721 63.5195ZM356.457 63.5195C356.737 63.5195 357.02 63.5879 357.307 63.7246C357.6 63.8548 357.85 64.0371 358.059 64.2715V63.6172H358.859V68.5H358.059V67.6699C357.889 67.9303 357.658 68.1582 357.365 68.3535C357.079 68.5488 356.75 68.6465 356.379 68.6465C355.962 68.6465 355.581 68.5423 355.236 68.334C354.891 68.1191 354.615 67.8229 354.406 67.4453C354.204 67.0677 354.104 66.6315 354.104 66.1367C354.104 65.5964 354.204 65.1309 354.406 64.7402C354.615 64.3496 354.898 64.0501 355.256 63.8418C355.614 63.627 356.014 63.5195 356.457 63.5195ZM356.604 64.3008C356.252 64.3008 355.952 64.3887 355.705 64.5645C355.458 64.7402 355.266 64.9681 355.129 65.248C354.999 65.5215 354.934 65.8177 354.934 66.1367C354.934 66.4492 354.999 66.7389 355.129 67.0059C355.259 67.2663 355.441 67.4746 355.676 67.6309C355.917 67.7871 356.193 67.8652 356.506 67.8652C356.805 67.8652 357.072 67.7871 357.307 67.6309C357.541 67.4746 357.727 67.2598 357.863 66.9863C358 66.7064 358.065 66.3939 358.059 66.0488L358.049 65.1113C357.847 64.8574 357.629 64.6589 357.395 64.5156C357.167 64.3724 356.903 64.3008 356.604 64.3008ZM361.32 61.4688V68.5H360.52V61.4688H361.32ZM364.992 63.5195C365.493 63.5195 365.91 63.6237 366.242 63.832C366.574 64.0404 366.822 64.3236 366.984 64.6816C367.154 65.0397 367.238 65.4434 367.238 65.8926V66.3711H363.488C363.527 66.6445 363.622 66.8952 363.771 67.123C363.921 67.3509 364.117 67.5332 364.357 67.6699C364.598 67.8001 364.875 67.8652 365.188 67.8652C365.539 67.8652 365.868 67.7773 366.174 67.6016C366.48 67.4193 366.737 67.2207 366.945 67.0059L366.936 67.875C366.844 67.9857 366.708 68.1029 366.525 68.2266C366.35 68.3438 366.145 68.4414 365.91 68.5195C365.682 68.6042 365.441 68.6465 365.188 68.6465C364.693 68.6465 364.253 68.5293 363.869 68.2949C363.485 68.0605 363.182 67.7513 362.961 67.3672C362.746 66.9766 362.639 66.5501 362.639 66.0879C362.639 65.6257 362.74 65.1992 362.941 64.8086C363.143 64.418 363.42 64.1055 363.771 63.8711C364.13 63.6367 364.536 63.5195 364.992 63.5195ZM364.992 64.3008C364.589 64.3008 364.257 64.4375 363.996 64.7109C363.736 64.9779 363.573 65.3034 363.508 65.6875H366.447C366.415 65.3685 366.324 65.1081 366.174 64.9062C366.031 64.7044 365.855 64.5547 365.646 64.457C365.438 64.3529 365.22 64.3008 364.992 64.3008ZM370.012 63.5195C370.298 63.5195 370.565 63.5618 370.812 63.6465C371.06 63.7246 371.239 63.806 371.35 63.8906V64.75C371.213 64.6458 371.027 64.5449 370.793 64.4473C370.559 64.3496 370.318 64.3008 370.07 64.3008C369.764 64.3008 369.533 64.3724 369.377 64.5156C369.227 64.6589 369.152 64.8086 369.152 64.9648C369.152 65.0885 369.195 65.2155 369.279 65.3457C369.37 65.4694 369.527 65.5703 369.748 65.6484L370.568 65.9414C370.887 66.0521 371.125 66.2116 371.281 66.4199C371.438 66.6283 371.516 66.8724 371.516 67.1523C371.516 67.4258 371.438 67.6764 371.281 67.9043C371.132 68.1322 370.92 68.3145 370.646 68.4512C370.38 68.5814 370.07 68.6465 369.719 68.6465C369.53 68.6465 369.331 68.6204 369.123 68.5684C368.921 68.5228 368.739 68.4674 368.576 68.4023C368.413 68.3307 368.293 68.2689 368.215 68.2168V67.3574C368.306 67.4225 368.433 67.4974 368.596 67.582C368.765 67.6602 368.944 67.7285 369.133 67.7871C369.322 67.8392 369.497 67.8652 369.66 67.8652C369.966 67.8652 370.207 67.7969 370.383 67.6602C370.565 67.5234 370.656 67.3542 370.656 67.1523C370.656 66.9961 370.594 66.8724 370.471 66.7812C370.354 66.6901 370.181 66.6022 369.953 66.5176L369.23 66.2539C368.853 66.1107 368.602 65.9316 368.479 65.7168C368.355 65.4954 368.293 65.2448 368.293 64.9648C368.293 64.5482 368.449 64.2031 368.762 63.9297C369.074 63.6562 369.491 63.5195 370.012 63.5195Z" fill="#A0AEC0"/>
</g>
<defs>
<filter id="filter0_d_2602_32747" x="341" y="90" width="20" height="20" filterUnits="userSpaceOnUse" color-interpolation-filters="sRGB">
<feFlood flood-opacity="0" result="BackgroundImageFix"/>
<feColorMatrix in="SourceAlpha" type="matrix" values="0 0 0 0 0 0 0 0 0 0 0 0 0 0 0 0 0 0 127 0" result="hardAlpha"/>
<feOffset dy="2"/>
<feGaussianBlur stdDeviation="2"/>
<feComposite in2="hardAlpha" operator="out"/>
<feColorMatrix type="matrix" values="0 0 0 0 0.101961 0 0 0 0 0.12549 0 0 0 0 0.172549 0 0 0 0.05 0"/>
<feBlend mode="normal" in2="BackgroundImageFix" result="effect1_dropShadow_2602_32747"/>
<feBlend mode="normal" in="SourceGraphic" in2="effect1_dropShadow_2602_32747" result="shape"/>
</filter>
<filter id="filter1_d_2602_32747" x="268" y="0.5" width="165" height="129" filterUnits="userSpaceOnUse" color-interpolation-filters="sRGB">
<feFlood flood-opacity="0" result="BackgroundImageFix"/>
<feColorMatrix in="SourceAlpha" type="matrix" values="0 0 0 0 0 0 0 0 0 0 0 0 0 0 0 0 0 0 127 0" result="hardAlpha"/>
<feOffset dy="8"/>
<feGaussianBlur stdDeviation="20"/>
<feComposite in2="hardAlpha" operator="out"/>
<feColorMatrix type="matrix" values="0 0 0 0 0.101961 0 0 0 0 0.12549 0 0 0 0 0.172549 0 0 0 0.09 0"/>
<feBlend mode="normal" in2="BackgroundImageFix" result="effect1_dropShadow_2602_32747"/>
<feBlend mode="normal" in="SourceGraphic" in2="effect1_dropShadow_2602_32747" result="shape"/>
</filter>
<linearGradient id="paint0_linear_2602_32747" x1="351" y1="6" x2="351" y2="265" gradientUnits="userSpaceOnUse">
<stop stop-color="#0CAF60"/>
<stop offset="1" stop-color="white"/>
</linearGradient>
</defs>
</svg>
