<svg width="12" height="13" viewBox="0 0 12 13" fill="none" xmlns="http://www.w3.org/2000/svg">
<path d="M10.7143 5.6875H10.0714V3.85938C10.0714 1.73164 8.24464 0 6 0C3.75536 0 1.92857 1.73164 1.92857 3.85938V5.6875H1.28571C0.575893 5.6875 0 6.2334 0 6.90625V11.7812C0 12.4541 0.575893 13 1.28571 13H10.7143C11.4241 13 12 12.4541 12 11.7812V6.90625C12 6.2334 11.4241 5.6875 10.7143 5.6875ZM7.92857 5.6875H4.07143V3.85938C4.07143 2.85137 4.93661 2.03125 6 2.03125C7.06339 2.03125 7.92857 2.85137 7.92857 3.85938V5.6875Z" fill="#E53C1F"/>
</svg>
