<svg width="22" height="22" viewBox="0 0 22 22" fill="none" xmlns="http://www.w3.org/2000/svg">
<circle cx="11" cy="11" r="10.75" stroke="#1A9991" stroke-width="0.5"/>
<path d="M16 10.9906C16.0051 13.7454 13.7585 15.9981 11.0036 16C9.81381 16.0008 8.7209 15.5861 7.86205 14.8929C7.63873 14.7127 7.62203 14.378 7.82498 14.175L8.05214 13.9479C8.2257 13.7743 8.5028 13.7553 8.6951 13.9079C9.32786 14.41 10.1286 14.7097 11 14.7097C13.0505 14.7097 14.7097 13.0502 14.7097 11C14.7097 8.9495 13.0502 7.29033 11 7.29033C10.0158 7.29033 9.12199 7.67277 8.4583 8.29702L9.48157 9.32029C9.6848 9.52351 9.54086 9.87098 9.25349 9.87098H6.32258C6.14442 9.87098 6 9.72656 6 9.54839V6.61748C6 6.3301 6.34746 6.18617 6.55068 6.38938L7.54609 7.38478C8.44373 6.52694 9.66032 6 11 6C13.7583 6 15.9949 8.23347 16 10.9906ZM12.3526 12.5789L12.5506 12.3243C12.7147 12.1134 12.6767 11.8093 12.4657 11.6453L11.6452 11.007V8.90323C11.6452 8.63599 11.4285 8.41936 11.1613 8.41936H10.8387C10.5715 8.41936 10.3548 8.63599 10.3548 8.90323V11.6381L11.6736 12.6638C11.8845 12.8279 12.1885 12.7899 12.3526 12.5789Z" fill="#1A9991"/>
</svg>
