<svg width="17" height="17" viewBox="0 0 17 17" fill="none" xmlns="http://www.w3.org/2000/svg">
<path d="M14.875 6.375V2.56494C14.875 2.28305 14.7631 2.01311 14.5639 1.81355L13.0611 0.311113C12.8619 0.111895 12.5916 0 12.3097 0H3.1875C2.6008 0 2.125 0.475801 2.125 1.0625V6.375C0.95127 6.375 0 7.32627 0 8.5V12.2188C0 12.5123 0.237734 12.75 0.53125 12.75H2.125V15.9375C2.125 16.5242 2.6008 17 3.1875 17H13.8125C14.3992 17 14.875 16.5242 14.875 15.9375V12.75H16.4688C16.7623 12.75 17 12.5123 17 12.2188V8.5C17 7.32627 16.0487 6.375 14.875 6.375ZM12.75 14.875H4.25V11.6875H12.75V14.875ZM12.75 7.4375H4.25V2.125H10.625V3.71875C10.625 4.01227 10.8627 4.25 11.1562 4.25H12.75V7.4375ZM14.3438 9.82812C13.9038 9.82812 13.5469 9.47119 13.5469 9.03125C13.5469 8.59098 13.9038 8.23438 14.3438 8.23438C14.7837 8.23438 15.1406 8.59098 15.1406 9.03125C15.1406 9.47119 14.7837 9.82812 14.3438 9.82812Z" fill="#70708C"/>
</svg>
