<svg width="17" height="17" viewBox="0 0 17 17" fill="none" xmlns="http://www.w3.org/2000/svg">
<path d="M0.0121775 2.84597C-0.00209539 2.32263 -0.0163705 1.87065 0.0359635 1.42819C0.10257 0.881063 0.416577 0.476665 0.897097 0.20548C1.14925 0.0627508 1.42519 0.0151737 1.71065 0.0151737C2.08175 0.0151737 2.4576 0.000901612 2.8287 0.0104169C3.16173 0.0199321 3.49 0.00090241 3.82304 0.00566004C4.09898 0.0104177 4.37017 0.0532348 4.61757 0.176933C5.11712 0.429088 5.43112 0.82873 5.5453 1.38062C5.59764 1.62325 5.58812 1.86589 5.57385 2.10853C5.56433 2.28932 5.55482 2.47487 5.57385 2.65566C5.60715 3.03151 5.55006 3.40737 5.57385 3.78322C5.58812 4.01159 5.56433 4.23044 5.49773 4.44453C5.46918 4.53968 5.40733 4.63008 5.355 4.72047C5.03148 5.2676 4.55096 5.55782 3.90868 5.56733C3.69458 5.57209 3.48049 5.56257 3.26164 5.57685C3.04754 5.59112 2.83345 5.57209 2.6146 5.56733C2.31487 5.56257 2.0199 5.5816 1.72017 5.57685C0.830489 5.56257 0.112087 4.92981 0.0264498 4.05916C0.00266166 3.81176 0.00741987 3.56437 0.0121775 3.31697C0.0121775 3.13618 0.0121775 2.95063 0.0121775 2.84597ZM4.43677 2.76984C4.43202 2.76984 4.43202 2.76984 4.42726 2.76984C4.42726 2.39875 4.43202 2.0229 4.42726 1.6518C4.4225 1.39489 4.20841 1.15225 3.97528 1.15701C3.65176 1.16176 3.32825 1.13798 3.00473 1.13798C2.76209 1.14273 2.51469 1.15225 2.27205 1.15225C2.09602 1.15225 1.91523 1.13798 1.7392 1.13798C1.37762 1.13798 1.13973 1.3711 1.13973 1.73268C1.13973 1.91823 1.15401 2.10378 1.15401 2.28932C1.15401 2.58905 1.13498 2.88403 1.13973 3.18376C1.14449 3.42164 1.15401 3.65476 1.15401 3.89264C1.15401 4.20665 1.3681 4.42074 1.6821 4.4255C2.40051 4.43026 3.11415 4.43026 3.83256 4.43026C4.19414 4.43026 4.43202 4.19238 4.43202 3.83555C4.43678 3.48349 4.43677 3.12667 4.43677 2.76984Z" fill="#E53C1F"/>
<path d="M13.952 0.0138909C14.1804 0.0329215 14.5277 -0.000380364 14.875 0.00437727C15.3936 0.0138925 15.8455 0.185167 16.1976 0.58005C16.4783 0.894054 16.6163 1.26991 16.6258 1.67906C16.6401 2.44504 16.64 3.21102 16.6163 3.977C16.5972 4.54316 16.3308 4.98562 15.855 5.29962C15.5839 5.48041 15.2936 5.57556 14.9654 5.56605C14.5752 5.55653 14.1899 5.58984 13.7997 5.57081C13.4762 5.55177 13.1479 5.58508 12.8197 5.58032C12.4391 5.57556 12.0822 5.48993 11.7682 5.26632C11.2734 4.90949 11.0593 4.40519 11.0546 3.81048C11.0498 3.55357 11.0736 3.29666 11.0641 3.03975C11.0498 2.5735 11.0641 2.10249 11.0641 1.63625C11.0641 1.30797 11.1688 1.013 11.3543 0.74181C11.7016 0.242259 12.1821 0.0138909 12.7816 0.0138909C13.1384 0.0138909 13.4857 0.0138909 13.952 0.0138909ZM13.9139 4.43373C14.2041 4.41946 14.5705 4.44325 14.9321 4.43849C15.0034 4.43849 15.0748 4.43849 15.1366 4.40519C15.384 4.27673 15.4982 4.07691 15.4935 3.80097C15.4887 3.46793 15.4602 3.13014 15.4839 2.79711C15.5077 2.41174 15.4744 2.02637 15.4744 1.641C15.4744 1.37457 15.3032 1.18427 15.0415 1.17C14.6799 1.14621 14.3136 1.12242 13.9472 1.14621C13.7664 1.16048 13.5809 1.16524 13.4001 1.15572C13.1955 1.14621 12.9957 1.14621 12.7911 1.14145C12.4724 1.13669 12.1869 1.39836 12.1964 1.73616C12.2107 2.46883 12.2107 3.20151 12.2059 3.93418C12.2059 4.17682 12.4724 4.43849 12.7007 4.43373C13.0766 4.42897 13.462 4.43373 13.9139 4.43373Z" fill="#E53C1F"/>
<path d="M0.0216981 13.8213C0.0216981 13.3979 -0.00208902 12.9744 0.0264568 12.5558C0.0645178 12.0277 0.335704 11.6233 0.778163 11.3331C1.04459 11.157 1.3348 11.0619 1.65357 11.0714C2.04369 11.0809 2.42906 11.0476 2.81918 11.0666C3.1427 11.0857 3.47098 11.0524 3.79926 11.0571C4.20842 11.0666 4.59378 11.157 4.92206 11.4187C5.37404 11.7803 5.55958 12.2703 5.57385 12.8317C5.57861 13.0981 5.55007 13.3598 5.56434 13.6262C5.58337 14.083 5.55958 14.5349 5.56434 14.9917C5.5691 15.32 5.46443 15.6102 5.28364 15.8766C4.94109 16.3809 4.46057 16.6235 3.85159 16.6188C3.13795 16.6188 2.42906 16.6283 1.71541 16.6283C0.963708 16.6283 0.311913 16.1478 0.0883047 15.4341C0.0026673 15.1725 -0.00684811 14.8965 0.00266715 14.6253C0.01694 14.3589 0.0216981 14.0925 0.0216981 13.8213ZM2.69549 12.2085C2.45761 12.2227 2.10078 12.2132 1.74396 12.1989C1.3919 12.1847 1.13023 12.4844 1.13974 12.7984C1.1445 13.0648 1.16353 13.3265 1.15401 13.5929C1.13498 14.0449 1.1445 14.4969 1.15877 14.9441C1.16829 15.2391 1.31577 15.4532 1.5822 15.4674C1.9533 15.4912 2.32915 15.515 2.70024 15.4912C2.90006 15.477 3.09988 15.4722 3.29495 15.4865C3.48525 15.5007 3.67556 15.5007 3.86587 15.496C4.16084 15.4912 4.4463 15.2391 4.44154 14.9203C4.42727 14.1781 4.43678 13.4359 4.43202 12.6937C4.43202 12.4606 4.18938 12.2085 3.96578 12.2037C3.58517 12.2037 3.1998 12.2085 2.69549 12.2085Z" fill="#E53C1F"/>
<path d="M7.73853 0.00475865C8.03826 0.0285468 8.27614 -0.00475799 8.51878 0.0237878C9.01357 0.0903947 9.39419 0.333034 9.69867 0.727917C10.0983 1.25126 10.0698 2.12666 9.7177 2.62146C9.38467 3.0877 8.93745 3.3351 8.36178 3.34937C8.04302 3.35889 7.79086 3.56822 7.79086 3.8632C7.7861 4.16293 8.00496 4.41984 8.31896 4.4246C8.6853 4.43411 9.05639 4.4246 9.42749 4.4246C9.6511 4.4246 9.88898 4.5816 9.96034 4.7719C10.0507 5.00503 10.0032 5.2334 9.81761 5.40943C9.72722 5.49507 9.61303 5.55216 9.48458 5.56643C9.26097 5.59022 9.03736 5.56643 8.81375 5.56167C8.60918 5.55692 8.39984 5.58546 8.19526 5.56167C7.59104 5.49982 7.14383 5.19058 6.84409 4.65296C6.43018 3.91077 6.71088 2.79749 7.5958 2.37882C7.82892 2.26939 8.08108 2.22657 8.34275 2.20754C8.63296 2.18851 8.80899 2.03151 8.85657 1.7746C8.9089 1.48914 8.7186 1.20844 8.43314 1.16086C8.1905 1.11804 7.94786 1.13707 7.70047 1.14183C7.47686 1.14659 7.25325 1.18941 7.0344 1.10377C6.75845 0.994345 6.61097 0.74219 6.65855 0.466248C6.70137 0.214093 6.95828 0.00475763 7.22946 0C7.41501 0 7.60531 0.00475865 7.73853 0.00475865Z" fill="#E53C1F"/>
<path d="M13.3098 16.6232C13.0624 16.6232 12.815 16.6232 12.5629 16.6232C12.2584 16.6232 11.9587 16.6327 11.6542 16.6279C11.2783 16.6232 10.9976 16.2901 11.069 15.9381C11.1213 15.6907 11.3735 15.4861 11.6494 15.4766C11.8112 15.4718 11.9729 15.4813 12.1347 15.4909C12.3393 15.5004 12.5391 15.4956 12.7437 15.4813C12.972 15.4671 13.2004 15.4861 13.424 15.4909C13.9141 15.4956 14.3993 15.4623 14.8894 15.4956C15.2129 15.5147 15.5221 15.2292 15.4936 14.8866C15.4841 14.7201 15.4793 14.5536 15.4746 14.3919C15.4698 14.1873 15.4888 13.9875 15.4888 13.7829C15.4841 13.25 15.4841 12.7172 15.4888 12.1796C15.4936 12.0035 15.4698 11.8227 15.4746 11.6467C15.4888 11.2851 15.7981 11.0187 16.1501 11.071C16.4023 11.1043 16.6212 11.3612 16.6259 11.6467C16.6307 12.2081 16.6212 12.7647 16.6212 13.3261C16.6212 13.6021 16.6259 13.8828 16.6259 14.1587C16.6259 14.5013 16.6402 14.8486 16.5974 15.1911C16.526 15.7525 16.2215 16.1617 15.7315 16.4376C15.4698 16.5851 15.1891 16.6279 14.8941 16.6279C14.3708 16.6279 13.8427 16.6232 13.3098 16.6232Z" fill="#E53C1F"/>
<path d="M13.3241 6.64656C13.8569 6.64656 14.3945 6.64656 14.9274 6.64656C15.1986 6.64656 15.465 6.68462 15.7076 6.81783C16.2738 7.13184 16.6116 7.6076 16.6259 8.25464C16.6449 9.13956 16.0502 9.83417 15.2081 9.96263C14.818 10.0245 14.4326 9.97214 14.0425 9.98166C13.9378 9.98642 13.8379 9.99593 13.7332 9.97214C13.4335 9.91029 13.2479 9.64862 13.2908 9.33938C13.3288 9.05392 13.6095 8.82555 13.895 8.84458C14.2756 8.86837 14.6562 8.83983 15.0368 8.83031C15.308 8.82555 15.5031 8.54961 15.4936 8.33076C15.4793 8.02151 15.2699 7.78839 14.9845 7.77412C14.818 7.76936 14.6562 7.76936 14.4897 7.78363C14.2661 7.80266 14.0425 7.77412 13.8189 7.77412C13.267 7.77412 12.7199 7.78363 12.168 7.77412C12.011 7.76936 11.854 7.78839 11.697 7.78839C11.4781 7.78363 11.2878 7.71227 11.1641 7.5172C10.9262 7.13659 11.1927 6.64656 11.6399 6.63704C12.2013 6.62753 12.7674 6.63704 13.3288 6.63704C13.3241 6.64656 13.3241 6.64656 13.3241 6.64656Z" fill="#E53C1F"/>
<path d="M6.64432 11.6373C6.64432 10.9046 6.64908 10.1719 6.64432 9.43449C6.63956 8.98251 7.13436 8.73036 7.45312 8.90163C7.67673 9.02057 7.80519 9.21088 7.79567 9.46303C7.77664 9.77704 7.79091 10.091 7.80043 10.405C7.80518 10.5906 7.79091 10.7761 7.78615 10.9617C7.7814 11.0378 7.80994 11.0664 7.88606 11.0616C8.08113 11.0568 8.27619 11.0521 8.47125 11.0473C8.80905 11.0426 9.15159 11.0521 9.48939 11.0616C9.77009 11.0711 9.97942 11.2995 9.99845 11.604C10.0127 11.8752 9.79863 12.1559 9.5322 12.1749C9.13256 12.2034 8.72816 12.1987 8.32852 12.1939C8.18579 12.1892 8.03831 12.1939 7.89558 12.1892C7.80994 12.1844 7.78615 12.2225 7.79091 12.2986C7.80043 12.4651 7.80994 12.6316 7.80518 12.7934C7.80518 13.1597 7.80043 13.5213 7.79091 13.8876C7.78615 14.1588 7.50545 14.4062 7.21524 14.4015C6.91075 14.3967 6.66811 14.1683 6.66335 13.8638C6.65384 13.4594 6.6586 13.0503 6.6586 12.6459C6.64432 12.3176 6.64432 11.9798 6.64432 11.6373Z" fill="#E53C1F"/>
<path d="M14.4231 12.7839C14.4183 13.6403 13.619 14.4443 12.7626 14.4205C11.7826 14.392 11.0451 13.7069 11.0737 12.6126C11.0832 12.1987 11.2783 11.8467 11.5685 11.5564C11.7873 11.3376 12.049 11.1425 12.3582 11.0949C13.7379 10.8809 14.4231 11.9133 14.4231 12.7839ZM12.7579 12.2035C12.4677 12.1987 12.206 12.4556 12.2012 12.7411C12.1965 13.0313 12.4439 13.2835 12.7341 13.2787C13.0195 13.2787 13.2765 13.0265 13.2812 12.7411C13.286 12.4556 13.0433 12.2035 12.7579 12.2035Z" fill="#E53C1F"/>
<path d="M11.0452 9.99146C10.7978 9.9867 10.5504 10.0057 10.303 9.97242C9.66551 9.88679 9.23733 9.53948 8.98517 8.95905C8.89002 8.74496 8.85196 8.52135 8.85196 8.28347C8.85672 7.99801 8.57602 7.76964 8.29532 7.78867C7.90519 7.81722 7.51507 7.78867 7.1297 7.7744C6.87754 7.76488 6.69675 7.55079 6.65393 7.27485C6.61587 7.04648 6.74909 6.80384 6.96318 6.69917C7.04406 6.66111 7.13446 6.6516 7.21533 6.6516C7.66255 6.65635 8.10977 6.61354 8.55699 6.67063C8.91381 6.7182 9.21354 6.86093 9.47997 7.11309C9.82727 7.44136 9.96049 7.84101 9.99379 8.29774C10.0128 8.59271 10.2031 8.88293 10.5885 8.85914C10.9406 8.84011 11.2926 8.84011 11.6447 8.85914C11.8683 8.87341 12.0443 8.96381 12.1442 9.17314C12.2346 9.36345 12.2346 9.55375 12.1205 9.72978C12.0015 9.91057 11.8255 9.9867 11.6114 9.9867C11.4211 9.99145 11.2355 9.99146 11.0452 9.99146Z" fill="#E53C1F"/>
<path d="M3.38067 6.64181C3.6471 6.66084 3.88974 6.62754 4.12762 6.66084C4.67475 6.74172 5.08391 7.02718 5.35509 7.5077C5.50734 7.77889 5.58822 8.06435 5.56919 8.38311C5.55016 8.70663 5.5787 9.03015 5.5787 9.35366C5.5787 9.65815 5.40743 9.90079 5.15051 9.97216C4.78893 10.0721 4.43687 9.8104 4.43211 9.42979C4.42736 9.092 4.43687 8.75896 4.43687 8.42117C4.43687 8.31174 4.43211 8.19756 4.37978 8.09289C4.27035 7.8788 4.08956 7.77889 3.85644 7.77889C3.5234 7.77889 3.19513 7.79316 2.86209 7.79316C2.55761 7.79316 2.32924 7.63616 2.2436 7.38401C2.12466 7.02718 2.40536 6.65609 2.80976 6.64657C3.00958 6.63706 3.2094 6.64181 3.38067 6.64181Z" fill="#E53C1F"/>
<path d="M2.21017 9.99619C1.92947 9.98192 1.66781 10.0009 1.40614 9.9724C1.13971 9.94385 0.91134 9.82491 0.697247 9.66791C0.221484 9.31585 0.00263424 8.84484 0.00739188 8.2549C0.0121495 7.92186 -0.0021244 7.59359 0.00263323 7.26055C0.00263323 6.97985 0.178666 6.73245 0.41179 6.66585C0.787643 6.56118 1.14922 6.83712 1.15398 7.24152C1.15874 7.56504 1.13971 7.88856 1.13971 8.20732C1.13971 8.44996 1.20631 8.65454 1.42992 8.78775C1.51556 8.84008 1.60596 8.85436 1.70111 8.85436C1.98181 8.8496 2.26251 8.84009 2.54321 8.84009C2.70021 8.84009 2.85721 8.84008 3.0047 8.90669C3.2521 9.01136 3.36628 9.20166 3.33773 9.49188C3.3187 9.72024 3.13316 9.92007 2.89527 9.96764C2.66691 10.0152 2.42903 9.98192 2.21017 9.99619Z" fill="#E53C1F"/>
<path d="M9.99374 14.4207C9.98422 14.6824 10.008 14.9393 9.96995 15.201C9.8748 15.8004 9.537 16.2144 9.00891 16.476C8.79481 16.5854 8.54742 16.614 8.30954 16.6235C7.90989 16.6378 7.51501 16.6378 7.11537 16.6045C6.84419 16.5807 6.63961 16.3333 6.64912 16.0526C6.65388 15.7481 6.85846 15.5055 7.14392 15.5007C7.5388 15.496 7.92893 15.4579 8.32381 15.4864C8.595 15.5055 8.83763 15.2914 8.84239 14.9821C8.84715 14.6253 8.88045 14.2685 8.8519 13.9164C8.83763 13.7499 8.88521 13.6072 8.99464 13.4835C9.15639 13.2979 9.40855 13.2313 9.63691 13.3122C9.84149 13.3836 9.98898 13.6072 9.98898 13.8498C9.99374 14.0401 9.99374 14.2304 9.99374 14.4207Z" fill="#E53C1F"/>
<path d="M3.62805 2.77827C3.63756 3.24452 3.27123 3.65367 2.70983 3.62989C2.3197 3.61561 1.92958 3.22549 1.94861 2.81157C1.96764 2.28348 2.29591 1.95996 2.82401 1.94568C3.26171 1.93141 3.63281 2.33105 3.62805 2.77827Z" fill="#E53C1F"/>
<path d="M14.6896 2.77385C14.6848 3.31146 14.29 3.63498 13.8237 3.63974C13.3765 3.6445 12.9721 3.23058 13.0006 2.79764C13.0292 2.29333 13.3717 1.92699 13.9474 1.94602C14.3233 1.96029 14.6991 2.37897 14.6896 2.77385Z" fill="#E53C1F"/>
<path d="M2.76682 14.6867C2.37194 14.6962 1.95802 14.3156 1.94851 13.9397C1.92948 13.3593 2.30533 13.0215 2.80488 12.9977C3.23782 12.9787 3.6565 13.3878 3.64222 13.8255C3.62319 14.3013 3.29967 14.6867 2.76682 14.6867Z" fill="#E53C1F"/>
</svg>
