<svg width="20" height="20" viewBox="0 0 20 20" fill="none" xmlns="http://www.w3.org/2000/svg">
<path d="M2.01218 4.84571C1.9979 4.32237 1.98363 3.87039 2.03596 3.42793C2.10257 2.8808 2.41658 2.47641 2.8971 2.20522C3.14925 2.06249 3.42519 2.01491 3.71065 2.01491C4.08175 2.01491 4.4576 2.00064 4.8287 2.01016C5.16173 2.01967 5.49 2.00064 5.82304 2.0054C6.09898 2.01016 6.37017 2.05298 6.61757 2.17667C7.11712 2.42883 7.43112 2.82847 7.5453 3.38036C7.59764 3.623 7.58812 3.86563 7.57385 4.10827C7.56433 4.28906 7.55482 4.47461 7.57385 4.6554C7.60715 5.03125 7.55006 5.40711 7.57385 5.78296C7.58812 6.01133 7.56433 6.23018 7.49773 6.44427C7.46918 6.53942 7.40733 6.62982 7.355 6.72021C7.03148 7.26734 6.55096 7.55756 5.90868 7.56707C5.69458 7.57183 5.48049 7.56231 5.26164 7.57659C5.04754 7.59086 4.83345 7.57183 4.6146 7.56707C4.31487 7.56231 4.0199 7.58135 3.72017 7.57659C2.83049 7.56231 2.11209 6.92955 2.02645 6.0589C2.00266 5.8115 2.00742 5.56411 2.01218 5.31671C2.01218 5.13592 2.01218 4.95037 2.01218 4.84571ZM6.43677 4.76958C6.43202 4.76958 6.43202 4.76958 6.42726 4.76958C6.42726 4.39849 6.43202 4.02264 6.42726 3.65154C6.4225 3.39463 6.20841 3.15199 5.97528 3.15675C5.65176 3.1615 5.32825 3.13772 5.00473 3.13772C4.76209 3.14247 4.51469 3.15199 4.27205 3.15199C4.09602 3.15199 3.91523 3.13772 3.7392 3.13772C3.37762 3.13772 3.13973 3.37084 3.13973 3.73242C3.13973 3.91797 3.15401 4.10352 3.15401 4.28906C3.15401 4.58879 3.13498 4.88377 3.13973 5.1835C3.14449 5.42138 3.15401 5.6545 3.15401 5.89239C3.15401 6.20639 3.3681 6.42048 3.6821 6.42524C4.40051 6.43 5.11415 6.43 5.83256 6.43C6.19414 6.43 6.43202 6.19212 6.43202 5.83529C6.43678 5.48323 6.43677 5.12641 6.43677 4.76958Z" fill="#70708C"/>
<path d="M15.952 2.01427C16.1804 2.0333 16.5277 2 16.875 2.00476C17.3936 2.01427 17.8455 2.18555 18.1976 2.58043C18.4783 2.89444 18.6163 3.27029 18.6258 3.67944C18.6401 4.44542 18.64 5.2114 18.6163 5.97738C18.5972 6.54354 18.3308 6.986 17.855 7.3C17.5839 7.48079 17.2936 7.57595 16.9654 7.56643C16.5752 7.55691 16.1899 7.59022 15.7997 7.57119C15.4762 7.55216 15.1479 7.58546 14.8197 7.5807C14.4391 7.57594 14.0822 7.49031 13.7682 7.2667C13.2734 6.90988 13.0593 6.40557 13.0546 5.81086C13.0498 5.55395 13.0736 5.29704 13.0641 5.04013C13.0498 4.57388 13.0641 4.10287 13.0641 3.63663C13.0641 3.30835 13.1688 3.01338 13.3543 2.74219C13.7016 2.24264 14.1821 2.01427 14.7816 2.01427C15.1384 2.01427 15.4857 2.01427 15.952 2.01427ZM15.9139 6.43411C16.2041 6.41984 16.5705 6.44363 16.9321 6.43887C17.0034 6.43887 17.0748 6.43887 17.1366 6.40557C17.384 6.27711 17.4982 6.07729 17.4935 5.80135C17.4887 5.46831 17.4602 5.13052 17.4839 4.79749C17.5077 4.41212 17.4744 4.02675 17.4744 3.64138C17.4744 3.37496 17.3032 3.18465 17.0415 3.17038C16.6799 3.14659 16.3136 3.1228 15.9472 3.14659C15.7664 3.16086 15.5809 3.16562 15.4001 3.1561C15.1955 3.14659 14.9957 3.14659 14.7911 3.14183C14.4724 3.13707 14.1869 3.39874 14.1964 3.73654C14.2107 4.46921 14.2107 5.20189 14.2059 5.93456C14.2059 6.1772 14.4724 6.43887 14.7007 6.43411C15.0766 6.42936 15.462 6.43411 15.9139 6.43411Z" fill="#70708C"/>
<path d="M2.0217 15.8209C2.0217 15.3975 1.99791 14.974 2.02646 14.5554C2.06452 14.0273 2.3357 13.6229 2.77816 13.3326C3.04459 13.1566 3.3348 13.0615 3.65357 13.071C4.04369 13.0805 4.42906 13.0472 4.81918 13.0662C5.1427 13.0852 5.47098 13.0519 5.79926 13.0567C6.20842 13.0662 6.59378 13.1566 6.92206 13.4183C7.37404 13.7799 7.55958 14.2699 7.57385 14.8313C7.57861 15.0977 7.55007 15.3594 7.56434 15.6258C7.58337 16.0826 7.55958 16.5345 7.56434 16.9913C7.5691 17.3195 7.46443 17.6098 7.28364 17.8762C6.94109 18.3805 6.46057 18.6231 5.85159 18.6184C5.13795 18.6184 4.42906 18.6279 3.71541 18.6279C2.96371 18.6279 2.31191 18.1474 2.0883 17.4337C2.00267 17.1721 1.99315 16.8961 2.00267 16.6249C2.01694 16.3585 2.0217 16.0921 2.0217 15.8209ZM4.69549 14.208C4.45761 14.2223 4.10078 14.2128 3.74396 14.1985C3.3919 14.1843 3.13023 14.484 3.13974 14.798C3.1445 15.0644 3.16353 15.3261 3.15401 15.5925C3.13498 16.0445 3.1445 16.4965 3.15877 16.9437C3.16829 17.2387 3.31577 17.4528 3.5822 17.467C3.9533 17.4908 4.32915 17.5146 4.70024 17.4908C4.90006 17.4765 5.09988 17.4718 5.29495 17.4861C5.48525 17.5003 5.67556 17.5003 5.86587 17.4956C6.16084 17.4908 6.4463 17.2387 6.44154 16.9199C6.42727 16.1777 6.43678 15.4355 6.43202 14.6933C6.43202 14.4602 6.18938 14.208 5.96578 14.2033C5.58517 14.2033 5.1998 14.208 4.69549 14.208Z" fill="#70708C"/>
<path d="M9.73853 2.00476C10.0383 2.02855 10.2761 1.99524 10.5188 2.02379C11.0136 2.09039 11.3942 2.33303 11.6987 2.72792C12.0983 3.25126 12.0698 4.12666 11.7177 4.62146C11.3847 5.0877 10.9375 5.3351 10.3618 5.34937C10.043 5.35889 9.79086 5.56822 9.79086 5.8632C9.7861 6.16293 10.005 6.41984 10.319 6.4246C10.6853 6.43411 11.0564 6.4246 11.4275 6.4246C11.6511 6.4246 11.889 6.5816 11.9603 6.7719C12.0507 7.00503 12.0032 7.2334 11.8176 7.40943C11.7272 7.49507 11.613 7.55216 11.4846 7.56643C11.261 7.59022 11.0374 7.56643 10.8138 7.56167C10.6092 7.55692 10.3998 7.58546 10.1953 7.56167C9.59104 7.49982 9.14383 7.19058 8.84409 6.65296C8.43018 5.91077 8.71088 4.79749 9.5958 4.37882C9.82892 4.26939 10.0811 4.22657 10.3427 4.20754C10.633 4.18851 10.809 4.03151 10.8566 3.7746C10.9089 3.48914 10.7186 3.20844 10.4331 3.16086C10.1905 3.11804 9.94786 3.13707 9.70047 3.14183C9.47686 3.14659 9.25325 3.18941 9.0344 3.10377C8.75845 2.99435 8.61097 2.74219 8.65855 2.46625C8.70137 2.21409 8.95828 2.00476 9.22946 2C9.41501 2 9.60531 2.00476 9.73853 2.00476Z" fill="#70708C"/>
<path d="M15.3098 18.6231C15.0624 18.6231 14.815 18.6231 14.5629 18.6231C14.2584 18.6231 13.9587 18.6326 13.6542 18.6279C13.2783 18.6231 12.9976 18.2901 13.069 17.938C13.1213 17.6906 13.3735 17.4861 13.6494 17.4765C13.8112 17.4718 13.9729 17.4813 14.1347 17.4908C14.3393 17.5003 14.5391 17.4956 14.7437 17.4813C14.972 17.467 15.2004 17.4861 15.424 17.4908C15.9141 17.4956 16.3993 17.4623 16.8894 17.4956C17.2129 17.5146 17.5221 17.2291 17.4936 16.8866C17.4841 16.7201 17.4793 16.5536 17.4746 16.3918C17.4698 16.1872 17.4888 15.9874 17.4888 15.7828C17.4841 15.25 17.4841 14.7171 17.4888 14.1795C17.4936 14.0035 17.4698 13.8227 17.4746 13.6467C17.4888 13.2851 17.7981 13.0186 18.1501 13.071C18.4023 13.1043 18.6212 13.3612 18.6259 13.6467C18.6307 14.2081 18.6212 14.7647 18.6212 15.3261C18.6212 15.602 18.6259 15.8827 18.6259 16.1587C18.6259 16.5012 18.6402 16.8485 18.5974 17.1911C18.526 17.7525 18.2215 18.1616 17.7315 18.4376C17.4698 18.5851 17.1891 18.6279 16.8941 18.6279C16.3708 18.6279 15.8427 18.6231 15.3098 18.6231Z" fill="#70708C"/>
<path d="M15.3241 8.64642C15.8569 8.64642 16.3945 8.64642 16.9274 8.64642C17.1986 8.64642 17.465 8.68448 17.7076 8.81769C18.2738 9.1317 18.6116 9.60746 18.6259 10.2545C18.6449 11.1394 18.0502 11.834 17.2081 11.9625C16.818 12.0243 16.4326 11.972 16.0425 11.9815C15.9378 11.9863 15.8379 11.9958 15.7332 11.972C15.4335 11.9102 15.2479 11.6485 15.2908 11.3392C15.3288 11.0538 15.6095 10.8254 15.895 10.8444C16.2756 10.8682 16.6562 10.8397 17.0368 10.8302C17.308 10.8254 17.5031 10.5495 17.4936 10.3306C17.4793 10.0214 17.2699 9.78825 16.9845 9.77398C16.818 9.76922 16.6562 9.76922 16.4897 9.78349C16.2661 9.80252 16.0425 9.77398 15.8189 9.77398C15.267 9.77398 14.7199 9.78349 14.168 9.77398C14.011 9.76922 13.854 9.78825 13.697 9.78825C13.4781 9.78349 13.2878 9.71213 13.1641 9.51707C12.9262 9.13645 13.1927 8.64642 13.6399 8.6369C14.2013 8.62739 14.7674 8.6369 15.3288 8.6369C15.3241 8.64642 15.3241 8.64642 15.3241 8.64642Z" fill="#70708C"/>
<path d="M8.64432 13.6371C8.64432 12.9045 8.64908 12.1718 8.64432 11.4344C8.63956 10.9824 9.13436 10.7302 9.45312 10.9015C9.67673 11.0204 9.80519 11.2107 9.79567 11.4629C9.77664 11.7769 9.79091 12.0909 9.80043 12.4049C9.80518 12.5905 9.79091 12.776 9.78615 12.9616C9.7814 13.0377 9.80994 13.0662 9.88606 13.0615C10.0811 13.0567 10.2762 13.0519 10.4713 13.0472C10.809 13.0424 11.1516 13.0519 11.4894 13.0615C11.7701 13.071 11.9794 13.2993 11.9985 13.6038C12.0127 13.875 11.7986 14.1557 11.5322 14.1747C11.1326 14.2033 10.7282 14.1985 10.3285 14.1938C10.1858 14.189 10.0383 14.1938 9.89558 14.189C9.80994 14.1843 9.78615 14.2223 9.79091 14.2984C9.80043 14.465 9.80994 14.6315 9.80518 14.7932C9.80518 15.1596 9.80043 15.5212 9.79091 15.8875C9.78615 16.1587 9.50545 16.4061 9.21524 16.4013C8.91075 16.3966 8.66811 16.1682 8.66335 15.8637C8.65384 15.4593 8.6586 15.0502 8.6586 14.6458C8.64432 14.3175 8.64432 13.9797 8.64432 13.6371Z" fill="#70708C"/>
<path d="M16.4231 14.7837C16.4183 15.6401 15.619 16.4441 14.7626 16.4203C13.7826 16.3918 13.0451 15.7067 13.0737 14.6125C13.0832 14.1985 13.2783 13.8465 13.5685 13.5563C13.7873 13.3374 14.049 13.1423 14.3582 13.0948C15.7379 12.8807 16.4231 13.9131 16.4231 14.7837ZM14.7579 14.2033C14.4677 14.1985 14.206 14.4554 14.2012 14.7409C14.1965 15.0311 14.4439 15.2833 14.7341 15.2785C15.0195 15.2785 15.2765 15.0264 15.2812 14.7409C15.286 14.4554 15.0433 14.2033 14.7579 14.2033Z" fill="#70708C"/>
<path d="M13.0452 11.9911C12.7978 11.9863 12.5504 12.0053 12.303 11.972C11.6655 11.8864 11.2373 11.5391 10.9852 10.9587C10.89 10.7446 10.852 10.5209 10.852 10.2831C10.8567 9.99761 10.576 9.76924 10.2953 9.78827C9.90519 9.81682 9.51507 9.78827 9.1297 9.774C8.87754 9.76449 8.69675 9.55039 8.65393 9.27445C8.61587 9.04608 8.74909 8.80345 8.96318 8.69878C9.04406 8.66072 9.13446 8.6512 9.21533 8.6512C9.66255 8.65596 10.1098 8.61314 10.557 8.67023C10.9138 8.71781 11.2135 8.86054 11.48 9.11269C11.8273 9.44097 11.9605 9.84061 11.9938 10.2973C12.0128 10.5923 12.2031 10.8825 12.5885 10.8587C12.9406 10.8397 13.2926 10.8397 13.6447 10.8587C13.8683 10.873 14.0443 10.9634 14.1442 11.1727C14.2346 11.3631 14.2346 11.5534 14.1205 11.7294C14.0015 11.9102 13.8255 11.9863 13.6114 11.9863C13.4211 11.9911 13.2355 11.9911 13.0452 11.9911Z" fill="#70708C"/>
<path d="M5.38067 8.6416C5.6471 8.66063 5.88974 8.62733 6.12762 8.66063C6.67475 8.74151 7.08391 9.02697 7.35509 9.50749C7.50734 9.77867 7.58822 10.0641 7.56919 10.3829C7.55016 10.7064 7.5787 11.0299 7.5787 11.3535C7.5787 11.6579 7.40743 11.9006 7.15051 11.9719C6.78893 12.0719 6.43687 11.8102 6.43211 11.4296C6.42736 11.0918 6.43687 10.7587 6.43687 10.421C6.43687 10.3115 6.43211 10.1973 6.37978 10.0927C6.27035 9.87859 6.08956 9.77868 5.85644 9.77868C5.5234 9.77868 5.19513 9.79295 4.86209 9.79295C4.55761 9.79295 4.32924 9.63595 4.2436 9.38379C4.12466 9.02697 4.40536 8.65587 4.80976 8.64636C5.00958 8.63684 5.2094 8.6416 5.38067 8.6416Z" fill="#70708C"/>
<path d="M4.21017 11.9958C3.92947 11.9815 3.66781 12.0005 3.40614 11.972C3.13971 11.9434 2.91134 11.8245 2.69725 11.6675C2.22148 11.3154 2.00263 10.8444 2.00739 10.2545C2.01215 9.92145 1.99788 9.59317 2.00263 9.26014C2.00263 8.97944 2.17867 8.73204 2.41179 8.66544C2.78764 8.56077 3.14922 8.83671 3.15398 9.24111C3.15874 9.56463 3.13971 9.88815 3.13971 10.2069C3.13971 10.4495 3.20631 10.6541 3.42992 10.7873C3.51556 10.8397 3.60596 10.8539 3.70111 10.8539C3.98181 10.8492 4.26251 10.8397 4.54321 10.8397C4.70021 10.8397 4.85721 10.8397 5.0047 10.9063C5.2521 11.0109 5.36628 11.2013 5.33773 11.4915C5.3187 11.7198 5.13316 11.9197 4.89527 11.9672C4.66691 12.0148 4.42903 11.9815 4.21017 11.9958Z" fill="#70708C"/>
<path d="M11.9937 16.4204C11.9842 16.682 12.008 16.9389 11.97 17.2006C11.8748 17.8001 11.537 18.214 11.0089 18.4757C10.7948 18.5851 10.5474 18.6136 10.3095 18.6231C9.90989 18.6374 9.51501 18.6374 9.11537 18.6041C8.84419 18.5803 8.63961 18.3329 8.64912 18.0522C8.65388 17.7477 8.85846 17.5051 9.14392 17.5003C9.5388 17.4956 9.92893 17.4575 10.3238 17.4861C10.595 17.5051 10.8376 17.291 10.8424 16.9818C10.8471 16.6249 10.8805 16.2681 10.8519 15.916C10.8376 15.7495 10.8852 15.6068 10.9946 15.4831C11.1564 15.2976 11.4085 15.231 11.6369 15.3118C11.8415 15.3832 11.989 15.6068 11.989 15.8494C11.9937 16.0397 11.9937 16.2301 11.9937 16.4204Z" fill="#70708C"/>
<path d="M5.62805 4.77844C5.63756 5.24468 5.27123 5.65384 4.70983 5.63005C4.3197 5.61578 3.92958 5.22565 3.94861 4.81174C3.96764 4.28364 4.29591 3.96012 4.82401 3.94585C5.26171 3.93158 5.63281 4.33122 5.62805 4.77844Z" fill="#70708C"/>
<path d="M16.6896 4.7737C16.6848 5.31131 16.29 5.63483 15.8237 5.63959C15.3765 5.64434 14.9721 5.23043 15.0006 4.79749C15.0292 4.29318 15.3717 3.92684 15.9474 3.94587C16.3233 3.96014 16.6991 4.37881 16.6896 4.7737Z" fill="#70708C"/>
<path d="M4.76682 16.6868C4.37194 16.6963 3.95802 16.3157 3.94851 15.9399C3.92948 15.3594 4.30533 15.0216 4.80488 14.9979C5.23782 14.9788 5.6565 15.388 5.64222 15.8257C5.62319 16.3015 5.29967 16.6868 4.76682 16.6868Z" fill="#70708C"/>
</svg>
