<svg width="217" height="217" viewBox="0 0 217 217" fill="none" xmlns="http://www.w3.org/2000/svg">
<path d="M0.172365 37.1052C-0.0137968 30.2792 -0.199987 24.3841 0.482607 18.6131C1.35136 11.4769 5.44696 6.2023 11.7144 2.66522C15.0033 0.803602 18.6024 0.183053 22.3256 0.183053C27.1658 0.183053 32.0681 -0.00309883 36.9083 0.121009C41.2521 0.245117 45.5338 -0.00308841 49.8776 0.0589656C53.4767 0.12102 57.0138 0.679485 60.2406 2.29289C66.7563 5.58175 70.8518 10.7943 72.3411 17.9926C73.0237 21.1573 72.8996 24.3221 72.7134 27.4868C72.5893 29.8449 72.4652 32.265 72.7134 34.623C73.1478 39.5253 72.4032 44.4276 72.7134 49.3298C72.8996 52.3084 72.5893 55.1629 71.7206 57.9553C71.3483 59.1964 70.5415 60.3754 69.8589 61.5545C65.6393 68.6907 59.3718 72.4759 50.9945 72.6001C48.2021 72.6621 45.4097 72.538 42.5552 72.7242C39.7628 72.9103 36.9704 72.6621 34.1159 72.6001C30.2065 72.538 26.3591 72.7862 22.4497 72.7242C10.8456 72.538 1.47549 64.2848 0.358519 52.9289C0.0482495 49.7021 0.110311 46.4753 0.172365 43.2485C0.172365 40.8905 0.172365 38.4704 0.172365 37.1052ZM57.8825 36.1123C57.8205 36.1123 57.8205 36.1123 57.7584 36.1123C57.7584 31.2721 57.8205 26.3698 57.7584 21.5296C57.6964 18.1787 54.9039 15.014 51.8633 15.076C47.6436 15.1381 43.424 14.8278 39.2043 14.8278C36.0396 14.8898 32.8128 15.014 29.648 15.014C27.352 15.014 24.9939 14.8278 22.6979 14.8278C17.9818 14.8278 14.8791 17.8684 14.8791 22.5845C14.8791 25.0046 15.0653 27.4248 15.0653 29.8449C15.0653 33.7543 14.8171 37.6016 14.8791 41.511C14.9412 44.6137 15.0653 47.6544 15.0653 50.7571C15.0653 54.8526 17.8577 57.645 21.9533 57.7071C31.3234 57.7691 40.6315 57.7692 50.0017 57.7692C54.7178 57.7692 57.8205 54.6665 57.8205 50.0124C57.8826 45.4204 57.8825 40.7664 57.8825 36.1123Z" fill="black"/>
<path d="M181.991 0.179059C184.969 0.427275 189.499 -0.00708235 194.029 0.0549716C200.793 0.17908 206.688 2.41302 211.28 7.5635C214.941 11.6591 216.741 16.5613 216.865 21.898C217.051 31.8886 217.051 41.8793 216.741 51.87C216.493 59.2545 213.018 65.0255 206.812 69.121C203.275 71.4791 199.49 72.7202 195.208 72.5961C190.12 72.472 185.093 72.9063 180.005 72.6581C175.785 72.4099 171.503 72.8443 167.222 72.7822C162.257 72.7202 157.603 71.6032 153.508 68.6867C147.054 64.0326 144.262 57.4549 144.2 49.6982C144.138 46.3472 144.448 42.9963 144.324 39.6454C144.138 33.5641 144.324 27.4208 144.324 21.3395C144.324 17.0578 145.689 13.2104 148.109 9.67333C152.639 3.15767 158.906 0.179059 166.725 0.179059C171.379 0.179059 175.909 0.179059 181.991 0.179059ZM181.494 57.8272C185.279 57.641 190.058 57.9513 194.774 57.8893C195.705 57.8893 196.635 57.8893 197.442 57.4549C200.669 55.7794 202.158 53.1732 202.096 49.574C202.034 45.2303 201.662 40.8244 201.972 36.4807C202.282 31.4543 201.848 26.4279 201.848 21.4015C201.848 17.9265 199.614 15.4443 196.201 15.2582C191.485 14.9479 186.707 14.6376 181.929 14.9479C179.57 15.1341 177.15 15.1961 174.792 15.072C172.124 14.9479 169.518 14.9479 166.849 14.8859C162.692 14.8238 158.969 18.2368 159.093 22.6426C159.279 32.1989 159.279 41.7552 159.217 51.3116C159.217 54.4763 162.692 57.8893 165.67 57.8272C170.573 57.7652 175.599 57.8272 181.494 57.8272Z" fill="black"/>
<path d="M0.296755 180.267C0.296755 174.744 -0.0135012 169.221 0.358823 163.76C0.855254 156.872 4.39234 151.598 10.1634 147.812C13.6384 145.516 17.4237 144.275 21.5813 144.399C26.6697 144.523 31.696 144.089 36.7845 144.337C41.0041 144.586 45.2859 144.151 49.5676 144.213C54.9043 144.337 59.9306 145.516 64.2124 148.929C70.1075 153.645 72.5276 160.037 72.7137 167.359C72.7758 170.834 72.4035 174.247 72.5896 177.722C72.8379 183.68 72.5276 189.575 72.5896 195.532C72.6517 199.814 71.2865 203.599 68.9284 207.074C64.4605 213.652 58.1931 216.816 50.2502 216.754C40.9421 216.754 31.6961 216.878 22.388 216.878C12.5834 216.878 4.08204 210.611 1.16551 201.303C0.0485357 197.89 -0.0755741 194.291 0.0485338 190.754C0.234696 187.279 0.296755 183.804 0.296755 180.267ZM35.1711 159.23C32.0684 159.416 27.4144 159.292 22.7603 159.106C18.1683 158.92 14.7553 162.829 14.8794 166.925C14.9415 170.4 15.1897 173.813 15.0656 177.288C14.8174 183.183 14.9415 189.078 15.1277 194.911C15.2518 198.759 17.1754 201.551 20.6504 201.737C25.4907 202.048 30.3929 202.358 35.2331 202.047C37.8394 201.861 40.4457 201.799 42.9899 201.985C45.472 202.172 47.9542 202.172 50.4364 202.11C54.2837 202.047 58.007 198.759 57.9449 194.601C57.7587 184.921 57.8829 175.24 57.8208 165.56C57.8208 162.519 54.656 159.23 51.7395 159.168C46.7752 159.168 41.7488 159.23 35.1711 159.23Z" fill="black"/>
<path d="M100.948 0.0620672C104.858 0.372337 107.961 -0.0620587 111.125 0.310265C117.579 1.17902 122.543 4.34377 126.515 9.49425C131.727 16.3202 131.355 27.7381 126.763 34.1918C122.419 40.273 116.586 43.4999 109.077 43.686C104.92 43.8101 101.631 46.5405 101.631 50.3878C101.569 54.2972 104.423 57.6481 108.519 57.7102C113.297 57.8343 118.137 57.7102 122.978 57.7102C125.894 57.7102 128.997 59.758 129.928 62.2401C131.107 65.2808 130.486 68.2594 128.066 70.5554C126.887 71.6723 125.398 72.417 123.722 72.6032C120.806 72.9134 117.889 72.6032 114.973 72.5411C112.304 72.4791 109.574 72.8514 106.906 72.5411C99.0248 71.7344 93.1917 67.7009 89.2823 60.6888C83.8836 51.0084 87.5448 36.4877 99.0868 31.027C102.127 29.5998 105.416 29.0413 108.829 28.793C112.615 28.5448 114.911 26.497 115.531 23.1461C116.214 19.4229 113.732 15.7617 110.008 15.1412C106.844 14.5827 103.679 14.8309 100.452 14.893C97.5355 14.955 94.6189 15.5135 91.7644 14.3965C88.1653 12.9693 86.2417 9.68042 86.8622 6.08129C87.4207 2.79243 90.7716 0.062054 94.3087 0C96.7288 0 99.2109 0.0620672 100.948 0.0620672Z" fill="black"/>
<path d="M173.614 216.809C170.387 216.809 167.16 216.809 163.871 216.809C159.9 216.809 155.991 216.933 152.019 216.871C147.117 216.809 143.456 212.466 144.386 207.874C145.069 204.647 148.358 201.978 151.957 201.854C154.067 201.792 156.177 201.916 158.286 202.04C160.955 202.165 163.561 202.103 166.229 201.916C169.208 201.73 172.187 201.978 175.103 202.04C181.495 202.103 187.824 201.668 194.216 202.103C198.435 202.351 202.469 198.628 202.097 194.16C201.973 191.988 201.91 189.816 201.848 187.706C201.786 185.038 202.035 182.431 202.035 179.763C201.973 172.813 201.973 165.863 202.035 158.851C202.097 156.555 201.786 154.197 201.848 151.901C202.035 147.185 206.068 143.71 210.66 144.392C213.949 144.827 216.803 148.178 216.865 151.901C216.928 159.223 216.803 166.484 216.803 173.806C216.803 177.405 216.865 181.066 216.865 184.665C216.865 189.133 217.052 193.663 216.493 198.131C215.562 205.453 211.591 210.79 205.199 214.389C201.786 216.313 198.125 216.871 194.278 216.871C187.452 216.871 180.564 216.809 173.614 216.809Z" fill="black"/>
<path d="M173.8 86.689C180.75 86.689 187.762 86.689 194.712 86.689C198.249 86.689 201.724 87.1855 204.889 88.923C212.273 93.0185 216.679 99.2239 216.865 107.663C217.113 119.205 209.357 128.265 198.373 129.941C193.285 130.747 188.258 130.065 183.17 130.189C181.805 130.251 180.502 130.375 179.136 130.065C175.227 129.258 172.807 125.845 173.365 121.812C173.862 118.088 177.523 115.11 181.246 115.358C186.211 115.668 191.175 115.296 196.139 115.172C199.676 115.11 202.221 111.511 202.096 108.656C201.91 104.623 199.18 101.582 195.457 101.396C193.285 101.334 191.175 101.334 189.003 101.52C186.086 101.768 183.17 101.396 180.253 101.396C173.055 101.396 165.919 101.52 158.721 101.396C156.673 101.334 154.625 101.582 152.577 101.582C149.723 101.52 147.241 100.589 145.627 98.0449C142.525 93.0806 146 86.689 151.833 86.5649C159.155 86.4408 166.539 86.5649 173.862 86.5649C173.8 86.689 173.8 86.689 173.8 86.689Z" fill="black"/>
<path d="M86.6762 151.782C86.6762 142.225 86.7383 132.669 86.6762 123.051C86.6142 117.155 93.0678 113.867 97.2254 116.1C100.142 117.652 101.817 120.134 101.693 123.423C101.445 127.518 101.631 131.614 101.755 135.71C101.817 138.13 101.631 140.55 101.569 142.97C101.507 143.963 101.879 144.335 102.872 144.273C105.417 144.211 107.961 144.149 110.505 144.087C114.911 144.025 119.379 144.149 123.785 144.273C127.446 144.397 130.176 147.376 130.424 151.347C130.61 154.884 127.818 158.545 124.343 158.794C119.13 159.166 113.856 159.104 108.643 159.042C106.782 158.98 104.858 159.042 102.996 158.98C101.879 158.918 101.569 159.414 101.631 160.407C101.755 162.579 101.879 164.751 101.817 166.861C101.817 171.639 101.755 176.355 101.631 181.133C101.569 184.67 97.908 187.897 94.1227 187.835C90.1513 187.773 86.9865 184.794 86.9244 180.823C86.8003 175.548 86.8624 170.212 86.8624 164.937C86.6763 160.655 86.6762 156.249 86.6762 151.782Z" fill="black"/>
<path d="M188.135 166.731C188.073 177.9 177.648 188.387 166.478 188.077C153.695 187.705 144.077 178.769 144.449 164.497C144.573 159.098 147.117 154.506 150.903 150.721C153.757 147.866 157.17 145.322 161.203 144.701C179.199 141.909 188.135 155.375 188.135 166.731ZM166.416 159.16C162.631 159.098 159.218 162.449 159.156 166.172C159.094 169.957 162.32 173.246 166.106 173.184C169.829 173.184 173.18 169.895 173.242 166.172C173.304 162.449 170.139 159.16 166.416 159.16Z" fill="black"/>
<path d="M144.077 130.314C140.85 130.252 137.623 130.501 134.397 130.066C126.081 128.949 120.497 124.419 117.208 116.849C115.967 114.056 115.47 111.14 115.47 108.037C115.532 104.314 111.871 101.335 108.21 101.583C103.121 101.956 98.033 101.583 93.0066 101.397C89.7178 101.273 87.3597 98.4807 86.8012 94.8816C86.3048 91.903 88.0423 88.7382 90.8347 87.373C91.8897 86.8766 93.0687 86.7525 94.1236 86.7525C99.9567 86.8145 105.79 86.2561 111.623 87.0007C116.277 87.6212 120.186 89.4829 123.661 92.7717C128.191 97.0535 129.929 102.266 130.363 108.223C130.611 112.071 133.093 115.856 138.12 115.546C142.712 115.297 147.304 115.297 151.896 115.546C154.812 115.732 157.108 116.911 158.412 119.641C159.591 122.123 159.591 124.605 158.101 126.901C156.55 129.259 154.254 130.252 151.461 130.252C148.979 130.314 146.559 130.314 144.077 130.314Z" fill="black"/>
<path d="M44.1071 86.6249C47.5821 86.8731 50.7468 86.4387 53.8495 86.8731C60.9857 87.928 66.3224 91.6513 69.8595 97.9187C71.8452 101.456 72.9001 105.179 72.6519 109.337C72.4037 113.556 72.776 117.776 72.776 121.996C72.776 125.967 70.5421 129.132 67.1911 130.063C62.475 131.366 57.8831 127.953 57.821 122.989C57.759 118.583 57.883 114.239 57.883 109.833C57.883 108.406 57.821 106.917 57.1384 105.551C55.7112 102.759 53.3531 101.456 50.3125 101.456C45.9687 101.456 41.687 101.642 37.3432 101.642C33.3717 101.642 30.3931 99.5942 29.2762 96.3053C27.7248 91.6513 31.386 86.8111 36.6606 86.6869C39.2669 86.5628 41.8731 86.6249 44.1071 86.6249Z" fill="black"/>
<path d="M28.842 130.384C25.1808 130.198 21.7679 130.446 18.3549 130.074C14.8799 129.701 11.9013 128.15 9.10886 126.102C2.90346 121.51 0.0489971 115.367 0.111051 107.672C0.173105 103.328 -0.0130701 99.0466 0.0489838 94.7028C0.0489838 91.0416 2.34498 87.8148 5.38563 86.946C10.2879 85.5808 15.004 89.18 15.066 94.4546C15.1281 98.6742 14.8799 102.894 14.8799 107.052C14.8799 110.216 15.7486 112.885 18.6652 114.622C19.7821 115.305 20.9612 115.491 22.2022 115.491C25.8634 115.429 29.5246 115.305 33.1858 115.305C35.2336 115.305 37.2814 115.305 39.2051 116.173C42.4319 117.539 43.9212 120.021 43.5488 123.806C43.3006 126.785 40.8805 129.391 37.7778 130.011C34.7992 130.632 31.6965 130.198 28.842 130.384Z" fill="black"/>
<path d="M130.361 188.093C130.237 191.506 130.548 194.857 130.051 198.27C128.81 206.088 124.404 211.487 117.516 214.9C114.724 216.327 111.497 216.7 108.394 216.824C103.182 217.01 98.0314 217.01 92.8189 216.576C89.2818 216.265 86.6134 213.038 86.7376 209.377C86.7996 205.406 89.4679 202.241 93.1912 202.179C98.3417 202.117 103.43 201.621 108.581 201.993C112.118 202.241 115.282 199.449 115.344 195.415C115.406 190.761 115.841 186.107 115.469 181.515C115.282 179.343 115.903 177.482 117.33 175.868C119.44 173.448 122.729 172.579 125.707 173.634C128.376 174.565 130.299 177.482 130.299 180.646C130.362 183.128 130.361 185.611 130.361 188.093Z" fill="black"/>
<path d="M47.3337 36.2403C47.4578 42.3216 42.6796 47.6582 35.3573 47.3479C30.2688 47.1618 25.1804 42.0733 25.4286 36.6746C25.6769 29.7866 29.9586 25.567 36.8466 25.3808C42.5555 25.1947 47.3958 30.4072 47.3337 36.2403Z" fill="black"/>
<path d="M191.609 36.1826C191.547 43.1947 186.397 47.4144 180.315 47.4764C174.482 47.5385 169.208 42.1398 169.58 36.4929C169.952 29.9152 174.42 25.137 181.929 25.3852C186.831 25.5714 191.733 31.0321 191.609 36.1826Z" fill="black"/>
<path d="M36.1013 191.572C30.9508 191.696 25.5521 186.731 25.428 181.829C25.1798 174.259 30.082 169.853 36.5977 169.543C42.2446 169.294 47.7053 174.631 47.5192 180.34C47.271 186.545 43.0513 191.572 36.1013 191.572Z" fill="black"/>
</svg>
