<svg width="22" height="22" viewBox="0 0 22 22" fill="none" xmlns="http://www.w3.org/2000/svg">
<circle cx="11" cy="11" r="10.75" stroke="#109646" stroke-width="0.5"/>
<path d="M12.1985 7.24967C12.8609 7.24967 13.3983 6.74584 13.3983 6.12484C13.3983 5.50383 12.8609 5 12.1985 5C11.5361 5 10.9987 5.50383 10.9987 6.12484C10.9987 6.74584 11.5361 7.24967 12.1985 7.24967ZM14.5606 10.7437L13.9782 10.4672L13.7357 9.77821C13.3683 8.73305 12.3435 8.0019 11.1812 7.99956C10.2813 7.99722 9.7839 8.23624 8.84906 8.5901C8.30915 8.79398 7.86673 9.18064 7.60677 9.67275L7.4393 9.99146C7.24433 10.3617 7.40181 10.8116 7.79424 10.9968C8.18418 11.1819 8.65909 11.0319 8.85656 10.6617L9.02403 10.343C9.11152 10.1789 9.25649 10.05 9.43646 9.98208L10.1064 9.72899L9.72641 11.1514C9.59644 11.6389 9.73641 12.1568 10.0989 12.5294L11.5961 14.062C11.7761 14.2471 11.9035 14.4697 11.9685 14.7111L12.426 16.4288C12.5334 16.8295 12.9684 17.0756 13.3958 16.9748C13.8232 16.874 14.0857 16.4663 13.9782 16.0656L13.4233 13.9799C13.3583 13.7386 13.2308 13.5136 13.0509 13.3308L11.9135 12.1661L12.3435 10.5562L12.4809 10.9429C12.6134 11.3202 12.8984 11.6318 13.2733 11.8099L13.8557 12.0865C14.2457 12.2716 14.7206 12.1216 14.918 11.7514C15.1105 11.3834 14.953 10.9288 14.5606 10.7437ZM8.83906 14.0409C8.75908 14.2307 8.6391 14.4017 8.48412 14.5447L7.23434 15.7187C6.92189 16.0117 6.92189 16.4874 7.23434 16.7803C7.54678 17.0732 8.0517 17.0732 8.36414 16.7803L9.84889 15.3883C10.0014 15.2454 10.1213 15.0743 10.2038 14.8845L10.5413 14.0924C9.15901 12.6793 9.57394 13.1129 9.35648 12.834L8.83906 14.0409Z" fill="#109646"/>
</svg>
