<svg width="19" height="19" viewBox="0 0 19 19" fill="none" xmlns="http://www.w3.org/2000/svg">
<path d="M9.51743 1.54455e-05C12.056 0.00457391 14.3608 1.00491 16.0624 2.63109L17.4305 1.26298C18.0097 0.683823 19 1.09401 19 1.91308V7.0484C19 7.55615 18.5884 7.96775 18.0806 7.96775H12.9453C12.1263 7.96775 11.7161 6.97749 12.2952 6.3983L13.8945 4.79901C12.7122 3.69199 11.1824 3.07878 9.55708 3.06476C6.01764 3.03419 3.03414 5.89855 3.06475 9.55548C3.09378 13.0245 5.90624 15.9355 9.5 15.9355C11.0754 15.9355 12.5644 15.3732 13.7378 14.3436C13.9195 14.1842 14.1939 14.1939 14.3648 14.3648L15.8841 15.8841C16.0707 16.0707 16.0615 16.375 15.8657 16.5519C14.1811 18.0735 11.9488 19 9.5 19C4.25332 19 3.83067e-05 14.7467 2.57326e-10 9.50008C-3.83062e-05 4.25942 4.27676 -0.00936963 9.51743 1.54455e-05Z" fill="#70708C"/>
</svg>
