<svg width="18" height="18" viewBox="0 0 18 18" fill="none" xmlns="http://www.w3.org/2000/svg">
<path d="M11.05 10.6667H12.325C12.5375 10.6667 12.75 10.45 12.75 10.2333V5.68333C12.75 5.46667 12.5375 5.25 12.325 5.25H11.05C10.8375 5.25 10.625 5.46667 10.625 5.68333V10.2333C10.625 10.45 10.8375 10.6667 11.05 10.6667ZM14.2375 10.6667H15.5125C15.725 10.6667 15.9375 10.45 15.9375 10.2333V2.43333C15.9375 2.21667 15.725 2 15.5125 2H14.2375C14.025 2 13.8125 2.21667 13.8125 2.43333V10.2333C13.8125 10.45 14.025 10.6667 14.2375 10.6667ZM4.675 10.6667H5.95C6.1625 10.6667 6.375 10.45 6.375 10.2333V7.85C6.375 7.63333 6.1625 7.41667 5.95 7.41667H4.675C4.4625 7.41667 4.25 7.63333 4.25 7.85V10.2333C4.25 10.45 4.4625 10.6667 4.675 10.6667ZM7.8625 10.6667H9.1375C9.35 10.6667 9.5625 10.45 9.5625 10.2333V3.51667C9.5625 3.3 9.35 3.08333 9.1375 3.08333H7.8625C7.65 3.08333 7.4375 3.3 7.4375 3.51667V10.2333C7.4375 10.45 7.65 10.6667 7.8625 10.6667ZM16.4688 12.8333H2.125V2.54167C2.125 2.2424 1.88727 2 1.59375 2H0.53125C0.237734 2 0 2.2424 0 2.54167V13.9167C0 14.5149 0.475801 15 1.0625 15H16.4688C16.7623 15 17 14.7576 17 14.4583V13.375C17 13.0757 16.7623 12.8333 16.4688 12.8333Z" fill="#70708C"/>
</svg>
