<svg width="169" height="169" viewBox="0 0 169 169" fill="none" xmlns="http://www.w3.org/2000/svg">
<path d="M169 84.5C169 131.168 131.168 169 84.5 169C37.8319 169 0 131.168 0 84.5C0 37.8319 37.8319 0 84.5 0C131.168 0 169 37.8319 169 84.5ZM35.1892 84.5C35.1892 111.734 57.2664 133.811 84.5 133.811C111.734 133.811 133.811 111.734 133.811 84.5C133.811 57.2664 111.734 35.1892 84.5 35.1892C57.2664 35.1892 35.1892 57.2664 35.1892 84.5Z" fill="#F9FAFB"/>
<circle cx="85" cy="85" r="28" fill="#F0F6FF"/>
<path d="M84.5 0C96.4958 1.43049e-07 108.354 2.55412 119.286 7.4925C130.219 12.4309 139.974 19.6403 147.904 28.6413C155.834 37.6423 161.756 48.2285 165.278 59.6959C168.799 71.1633 169.838 83.249 168.326 95.1492C166.814 107.049 162.786 118.491 156.51 128.714C150.233 138.937 141.851 147.706 131.923 154.438C121.994 161.17 110.746 165.711 98.9263 167.759C87.1065 169.807 74.9862 169.315 63.3714 166.316L72.1702 132.244C78.9481 133.995 86.0211 134.282 92.9186 133.087C99.8161 131.892 106.38 129.242 112.174 125.313C117.968 121.384 122.859 116.267 126.522 110.302C130.185 104.336 132.535 97.6589 133.418 90.7144C134.3 83.77 133.693 76.7172 131.638 70.0253C129.584 63.3334 126.127 57.1557 121.5 51.9031C116.872 46.6505 111.18 42.4434 104.8 39.5615C98.4204 36.6797 91.5003 35.1892 84.5 35.1892V0Z" fill="#109646"/>
<path d="M64.5228 166.605C46.78 162.287 30.9131 152.339 19.2979 138.249C7.68282 124.159 0.944544 106.685 0.0921199 88.4446L35.243 86.8019C35.7404 97.4463 39.6726 107.643 46.4507 115.866C53.2288 124.088 62.4881 129.894 72.8421 132.413L64.5228 166.605Z" fill="#C0A30A"/>
<path d="M79 94C80.1046 94 81 93.1046 81 92C81 90.8954 80.1046 90 79 90C77.8954 90 77 90.8954 77 92C77 93.1046 77.8954 94 79 94Z" stroke="#0B0BFD" stroke-width="1.5" stroke-linecap="round" stroke-linejoin="round"/>
<path d="M90 94C91.1046 94 92 93.1046 92 92C92 90.8954 91.1046 90 90 90C88.8954 90 88 90.8954 88 92C88 93.1046 88.8954 94 90 94Z" stroke="#0B0BFD" stroke-width="1.5" stroke-linecap="round" stroke-linejoin="round"/>
<path d="M90 90H79V76H77" stroke="#0B0BFD" stroke-width="1.5" stroke-linecap="round" stroke-linejoin="round"/>
<path d="M79 78L93 79L92 86H79" stroke="#0B0BFD" stroke-width="1.5" stroke-linecap="round" stroke-linejoin="round"/>
</svg>
