<svg width="19" height="19" viewBox="0 0 19 19" fill="none" xmlns="http://www.w3.org/2000/svg">
<path d="M18.7573 11.7831L17.0527 10.8407C17.2247 9.95201 17.2247 9.04032 17.0527 8.15162L18.7573 7.20928C18.9534 7.10203 19.0414 6.87985 18.9774 6.67299C18.5332 5.30929 17.7769 4.07583 16.7886 3.04922C16.6365 2.89216 16.3884 2.85386 16.1964 2.96111L14.4917 3.90345C13.7754 3.31353 12.9511 2.85769 12.0588 2.5589V0.678057C12.0588 0.463542 11.9027 0.275841 11.6827 0.229874C10.2141 -0.084238 8.70953 -0.0689155 7.313 0.229874C7.09292 0.275841 6.93686 0.463542 6.93686 0.678057V2.56273C6.04853 2.86535 5.22421 3.32119 4.50394 3.90728L2.8033 2.96494C2.60723 2.85769 2.36314 2.89216 2.21108 3.05305C1.22271 4.07583 0.466421 5.30929 0.0222532 6.67683C-0.0457725 6.88368 0.0462622 7.10586 0.242336 7.21311L1.94698 8.15545C1.77491 9.04416 1.77491 9.95585 1.94698 10.8446L0.242336 11.7869C0.0462622 11.8941 -0.041771 12.1163 0.0222532 12.3232C0.466421 13.6869 1.22271 14.9203 2.21108 15.947C2.36314 16.104 2.61123 16.1423 2.8033 16.0351L4.50794 15.0927C5.22422 15.6826 6.04853 16.1385 6.94086 16.4373V18.3219C6.94086 18.5365 7.09692 18.7242 7.317 18.7701C8.78556 19.0842 10.2901 19.0689 11.6867 18.7701C11.9067 18.7242 12.0628 18.5365 12.0628 18.3219V16.4373C12.9511 16.1347 13.7754 15.6788 14.4957 15.0927L16.2004 16.0351C16.3964 16.1423 16.6405 16.1078 16.7926 15.947C17.7809 14.9242 18.5372 13.6907 18.9814 12.3232C19.0414 12.1125 18.9534 11.8903 18.7573 11.7831ZM9.49783 12.5607C7.73316 12.5607 6.29662 11.1855 6.29662 9.49617C6.29662 7.80686 7.73316 6.43166 9.49783 6.43166C11.2625 6.43166 12.699 7.80686 12.699 9.49617C12.699 11.1855 11.2625 12.5607 9.49783 12.5607Z" fill="white"/>
</svg>
