<svg width="44" height="44" viewBox="0 0 44 44" fill="none" xmlns="http://www.w3.org/2000/svg">
<rect x="0.25" y="0.25" width="43.5" height="43.5" rx="4.75" fill="#F7F7F7" stroke="#DEDEDE" stroke-width="0.5"/>
<path d="M8.51871 12.7162H8.08659V9.44202C8.08659 9.2593 7.93844 9.11115 7.75571 9.11115C7.57299 9.11115 7.42484 9.2593 7.42484 9.44202V12.7162H6.59023V9.44202C6.59023 9.2593 6.44208 9.11115 6.25935 9.11115C6.07663 9.11115 5.92848 9.2593 5.92848 9.44202V12.7162H5.09387V9.44202C5.09387 9.2593 4.94572 9.11115 4.763 9.11115C4.58027 9.11115 4.43212 9.2593 4.43212 9.44202V12.7162H4V17.2349H4.36051L4 32.9714C4 33.8134 4.68398 34.4974 5.52599 34.4974H6.99272C7.83473 34.4974 8.51871 33.8134 8.51871 32.9615L8.16314 17.2349H8.51871V12.7162ZM7.63719 16.3534H7.26187L7.63719 32.9714C7.63719 33.327 7.34829 33.6159 6.99272 33.6159H5.52599C5.17042 33.6159 4.88152 33.327 4.88152 32.9813L5.26178 16.3534H4.88152V13.5978H7.63719V16.3534Z" fill="#70708C"/>
<path d="M38.5299 34.4974H37.1372C36.3273 34.4974 35.6655 33.8381 35.6655 33.0257L36.0211 17.472C36.0211 17.4053 36.0236 17.3386 36.0261 17.272C35.231 16.4151 34.7593 15.0546 34.7593 13.5755C34.7643 11.01 36.1125 9 37.8335 9C39.5546 9 40.9053 11.01 40.9053 13.5755C40.9053 15.0521 40.4361 16.4127 39.6435 17.2695C39.6484 17.3386 39.6509 17.4102 39.6509 17.4818L40.0015 33.0158C40.0015 33.8381 39.3422 34.4974 38.5299 34.4974ZM37.8335 9.88152C36.6458 9.88152 35.6433 11.5729 35.6433 13.5755C35.6433 14.8916 36.0829 16.1213 36.7891 16.788L36.9545 16.9435L36.9224 17.1682C36.91 17.2621 36.9026 17.3658 36.9026 17.4818L36.5471 33.0356C36.5471 33.3516 36.8113 33.6159 37.1372 33.6159H38.5299C38.8558 33.6159 39.12 33.3516 39.12 33.0257L38.7694 17.4917C38.7694 17.3683 38.762 17.2621 38.7496 17.1682L38.7175 16.9411L38.883 16.7855C39.5892 16.1188 40.0262 14.8867 40.0262 13.5755C40.0238 11.5754 39.0212 9.88152 37.8335 9.88152Z" fill="#70708C"/>
<path d="M22.1291 34.4974C15.235 34.4974 9.62738 28.8897 9.62738 21.9956C9.62738 15.1015 15.235 9.49139 22.1291 9.49139C29.0233 9.49139 34.6309 15.099 34.6309 21.9932C34.6309 28.8873 29.0233 34.4974 22.1291 34.4974ZM22.1291 10.3754C15.7215 10.3754 10.5089 15.5879 10.5089 21.9956C10.5089 28.4033 15.7215 33.6159 22.1291 33.6159C28.5368 33.6159 33.7494 28.4033 33.7494 21.9956C33.7494 15.5879 28.5368 10.3754 22.1291 10.3754Z" fill="#70708C"/>
<path d="M22.1291 31.9788C16.6252 31.9788 12.146 27.4996 12.146 21.9957C12.146 16.4917 16.6252 12.0125 22.1291 12.0125C23.7341 12.0125 25.2675 12.3829 26.6874 13.1113C26.9046 13.2224 26.9886 13.4891 26.8775 13.7039C26.7664 13.9212 26.4997 14.0052 26.2849 13.8941C24.991 13.2298 23.5934 12.894 22.1291 12.894C17.1092 12.894 13.0275 16.9782 13.0275 21.9957C13.0275 27.0156 17.1116 31.0973 22.1291 31.0973C27.1466 31.0973 31.2308 27.0131 31.2308 21.9957C31.2308 21.0005 31.0703 20.0227 30.7567 19.0894C30.6776 18.8597 30.8036 18.6079 31.0332 18.5313C31.2629 18.4523 31.5147 18.5782 31.5913 18.8079C31.937 19.8326 32.1098 20.9042 32.1098 21.9957C32.1123 27.4996 27.6331 31.9788 22.1291 31.9788Z" fill="#70708C"/>
<path d="M17.8178 19.1539C17.8104 18.8822 17.803 18.6477 17.8302 18.418C17.8647 18.1341 18.0277 17.9242 18.2771 17.7834C18.408 17.7094 18.5512 17.6847 18.6994 17.6847C18.892 17.6847 19.087 17.6773 19.2796 17.6822C19.4525 17.6871 19.6228 17.6773 19.7957 17.6797C19.9389 17.6822 20.0797 17.7044 20.2081 17.7686C20.4673 17.8995 20.6303 18.1069 20.6896 18.3933C20.7167 18.5193 20.7118 18.6452 20.7044 18.7711C20.6994 18.865 20.6945 18.9613 20.7044 19.0551C20.7217 19.2502 20.692 19.4452 20.7044 19.6403C20.7118 19.7588 20.6994 19.8724 20.6649 19.9835C20.6501 20.0329 20.618 20.0798 20.5908 20.1267C20.4229 20.4107 20.1735 20.5613 19.8401 20.5663C19.729 20.5687 19.6179 20.5638 19.5043 20.5712C19.3932 20.5786 19.2821 20.5687 19.1685 20.5663C19.0129 20.5638 18.8599 20.5737 18.7043 20.5712C18.2425 20.5638 17.8697 20.2354 17.8252 19.7835C17.8129 19.6551 17.8154 19.5267 17.8178 19.3983C17.8178 19.3045 17.8178 19.2082 17.8178 19.1539ZM20.1142 19.1144C20.1118 19.1144 20.1118 19.1144 20.1093 19.1144C20.1093 18.9218 20.1118 18.7267 20.1093 18.5341C20.1068 18.4007 19.9957 18.2748 19.8747 18.2773C19.7068 18.2797 19.5389 18.2674 19.371 18.2674C19.2451 18.2699 19.1167 18.2748 18.9907 18.2748C18.8994 18.2748 18.8055 18.2674 18.7142 18.2674C18.5265 18.2674 18.403 18.3884 18.403 18.5761C18.403 18.6724 18.4104 18.7687 18.4104 18.865C18.4104 19.0205 18.4006 19.1736 18.403 19.3292C18.4055 19.4526 18.4104 19.5736 18.4104 19.6971C18.4104 19.8601 18.5216 19.9712 18.6845 19.9736C19.0574 19.9761 19.4278 19.9761 19.8006 19.9761C19.9883 19.9761 20.1118 19.8527 20.1118 19.6675C20.1142 19.4847 20.1142 19.2995 20.1142 19.1144Z" fill="#70708C"/>
<path d="M25.0527 17.6843C25.1712 17.6942 25.3515 17.6769 25.5317 17.6794C25.8009 17.6843 26.0354 17.7732 26.2182 17.9782C26.3638 18.1411 26.4355 18.3362 26.4404 18.5486C26.4478 18.9461 26.4478 19.3437 26.4355 19.7412C26.4256 20.035 26.2873 20.2647 26.0404 20.4276C25.8996 20.5215 25.749 20.5709 25.5786 20.5659C25.3762 20.561 25.1761 20.5783 24.9737 20.5684C24.8058 20.5585 24.6354 20.5758 24.465 20.5733C24.2675 20.5709 24.0823 20.5264 23.9193 20.4104C23.6625 20.2252 23.5514 19.9634 23.5489 19.6548C23.5464 19.5214 23.5588 19.3881 23.5539 19.2548C23.5464 19.0128 23.5539 18.7683 23.5539 18.5263C23.5539 18.356 23.6082 18.2029 23.7045 18.0621C23.8847 17.8028 24.1341 17.6843 24.4452 17.6843C24.6304 17.6843 24.8107 17.6843 25.0527 17.6843ZM25.0329 19.9782C25.1836 19.9708 25.3737 19.9832 25.5613 19.9807C25.5984 19.9807 25.6354 19.9807 25.6675 19.9634C25.7959 19.8968 25.8552 19.7931 25.8527 19.6498C25.8502 19.477 25.8354 19.3017 25.8478 19.1288C25.8601 18.9288 25.8428 18.7288 25.8428 18.5288C25.8428 18.3905 25.7539 18.2918 25.6181 18.2843C25.4305 18.272 25.2403 18.2597 25.0502 18.272C24.9564 18.2794 24.8601 18.2819 24.7662 18.2769C24.6601 18.272 24.5564 18.272 24.4502 18.2695C24.2847 18.2671 24.1366 18.4029 24.1415 18.5782C24.1489 18.9584 24.1489 19.3387 24.1465 19.719C24.1465 19.8449 24.2847 19.9807 24.4033 19.9782C24.5983 19.9758 24.7984 19.9782 25.0329 19.9782Z" fill="#70708C"/>
<path d="M17.8228 24.85C17.8228 24.6303 17.8104 24.4105 17.8252 24.1932C17.845 23.9191 17.9857 23.7092 18.2154 23.5586C18.3536 23.4673 18.5043 23.4179 18.6697 23.4228C18.8722 23.4278 19.0722 23.4105 19.2747 23.4203C19.4426 23.4302 19.613 23.4129 19.7833 23.4154C19.9957 23.4203 20.1957 23.4673 20.3661 23.6031C20.6007 23.7907 20.697 24.0451 20.7044 24.3364C20.7068 24.4747 20.692 24.6105 20.6994 24.7488C20.7093 24.9858 20.697 25.2204 20.6994 25.4575C20.7019 25.6278 20.6476 25.7785 20.5537 25.9167C20.376 26.1785 20.1266 26.3044 19.8105 26.3019C19.4401 26.3019 19.0722 26.3069 18.7018 26.3069C18.3117 26.3069 17.9734 26.0575 17.8573 25.6871C17.8129 25.5513 17.8079 25.4081 17.8129 25.2673C17.8203 25.1291 17.8228 24.9908 17.8228 24.85ZM19.2105 24.013C19.087 24.0204 18.9018 24.0154 18.7166 24.008C18.5339 24.0006 18.3981 24.1562 18.403 24.3191C18.4055 24.4574 18.4154 24.5932 18.4104 24.7315C18.4006 24.9661 18.4055 25.2007 18.4129 25.4328C18.4178 25.5859 18.4944 25.697 18.6327 25.7044C18.8253 25.7167 19.0203 25.7291 19.2129 25.7167C19.3166 25.7093 19.4204 25.7069 19.5216 25.7143C19.6204 25.7217 19.7191 25.7217 19.8179 25.7192C19.971 25.7167 20.1192 25.5859 20.1167 25.4204C20.1093 25.0352 20.1142 24.65 20.1117 24.2648C20.1117 24.1438 19.9858 24.013 19.8698 24.0105C19.6722 24.0105 19.4722 24.013 19.2105 24.013Z" fill="#70708C"/>
<path d="M21.8279 17.6794C21.9834 17.6918 22.1069 17.6745 22.2328 17.6893C22.4896 17.7239 22.6872 17.8498 22.8452 18.0547C23.0526 18.3264 23.0378 18.7807 22.8551 19.0375C22.6822 19.2795 22.4501 19.4079 22.1513 19.4153C21.9859 19.4202 21.855 19.5289 21.855 19.682C21.8525 19.8375 21.9661 19.9709 22.1291 19.9733C22.3192 19.9783 22.5118 19.9733 22.7044 19.9733C22.8205 19.9733 22.944 20.0548 22.981 20.1536C23.0279 20.2746 23.0032 20.3931 22.9069 20.4845C22.86 20.5289 22.8007 20.5585 22.7341 20.566C22.618 20.5783 22.502 20.566 22.3859 20.5635C22.2797 20.561 22.1711 20.5758 22.0649 20.5635C21.7513 20.5314 21.5192 20.3709 21.3636 20.0919C21.1488 19.7067 21.2945 19.1289 21.7538 18.9116C21.8748 18.8548 22.0056 18.8325 22.1414 18.8227C22.2921 18.8128 22.3834 18.7313 22.4081 18.598C22.4353 18.4498 22.3365 18.3041 22.1884 18.2794C22.0624 18.2572 21.9365 18.2671 21.8081 18.2696C21.692 18.272 21.576 18.2943 21.4624 18.2498C21.3192 18.193 21.2426 18.0621 21.2673 17.9189C21.2896 17.7881 21.4229 17.6794 21.5636 17.6769C21.6599 17.6769 21.7587 17.6794 21.8279 17.6794Z" fill="#70708C"/>
<path d="M24.7194 26.3044C24.591 26.3044 24.4626 26.3044 24.3317 26.3044C24.1737 26.3044 24.0181 26.3094 23.8601 26.3069C23.665 26.3044 23.5193 26.1316 23.5564 25.9489C23.5835 25.8205 23.7144 25.7143 23.8576 25.7094C23.9416 25.7069 24.0255 25.7118 24.1095 25.7168C24.2157 25.7217 24.3194 25.7192 24.4255 25.7118C24.5441 25.7044 24.6626 25.7143 24.7786 25.7168C25.033 25.7192 25.2848 25.702 25.5392 25.7192C25.7071 25.7291 25.8676 25.581 25.8528 25.4032C25.8478 25.3168 25.8454 25.2303 25.8429 25.1464C25.8404 25.0402 25.8503 24.9365 25.8503 24.8303C25.8478 24.5538 25.8478 24.2772 25.8503 23.9982C25.8528 23.9068 25.8404 23.813 25.8429 23.7216C25.8503 23.534 26.0108 23.3957 26.1935 23.4228C26.3244 23.4401 26.438 23.5735 26.4404 23.7216C26.4429 24.013 26.438 24.3019 26.438 24.5933C26.438 24.7365 26.4404 24.8822 26.4404 25.0254C26.4404 25.2032 26.4479 25.3834 26.4256 25.5612C26.3886 25.8526 26.2306 26.0649 25.9762 26.2081C25.8404 26.2847 25.6947 26.3069 25.5416 26.3069C25.27 26.3069 24.9959 26.3044 24.7194 26.3044Z" fill="#70708C"/>
<path d="M24.7268 21.1265C25.0033 21.1265 25.2824 21.1265 25.5589 21.1265C25.6997 21.1265 25.8379 21.1462 25.9639 21.2153C26.2577 21.3783 26.433 21.6252 26.4404 21.9611C26.4503 22.4203 26.1417 22.7808 25.7046 22.8475C25.5021 22.8796 25.3021 22.8525 25.0996 22.8574C25.0453 22.8599 24.9935 22.8648 24.9391 22.8525C24.7836 22.8204 24.6873 22.6845 24.7095 22.524C24.7293 22.3759 24.8749 22.2574 25.0231 22.2672C25.2206 22.2796 25.4182 22.2648 25.6157 22.2598C25.7565 22.2574 25.8577 22.1142 25.8528 22.0006C25.8453 21.8401 25.7367 21.7191 25.5885 21.7117C25.5021 21.7092 25.4182 21.7092 25.3317 21.7166C25.2157 21.7265 25.0996 21.7117 24.9836 21.7117C24.6972 21.7117 24.4132 21.7166 24.1268 21.7117C24.0453 21.7092 23.9638 21.7191 23.8823 21.7191C23.7687 21.7166 23.6699 21.6796 23.6057 21.5783C23.4823 21.3808 23.6206 21.1265 23.8527 21.1215C24.144 21.1166 24.4379 21.1215 24.7293 21.1215C24.7268 21.1265 24.7268 21.1265 24.7268 21.1265Z" fill="#70708C"/>
<path d="M21.26 23.7167C21.26 23.3364 21.2624 22.9562 21.26 22.5734C21.2575 22.3389 21.5143 22.208 21.6797 22.2969C21.7958 22.3586 21.8625 22.4574 21.8575 22.5882C21.8476 22.7512 21.8551 22.9142 21.86 23.0772C21.8625 23.1735 21.8551 23.2698 21.8526 23.3661C21.8501 23.4056 21.8649 23.4204 21.9044 23.4179C22.0057 23.4154 22.1069 23.413 22.2082 23.4105C22.3835 23.408 22.5613 23.413 22.7366 23.4179C22.8823 23.4228 22.9909 23.5414 23.0008 23.6994C23.0082 23.8401 22.8971 23.9858 22.7588 23.9957C22.5514 24.0105 22.3415 24.0081 22.1341 24.0056C22.06 24.0031 21.9835 24.0056 21.9094 24.0031C21.8649 24.0007 21.8526 24.0204 21.8551 24.0599C21.86 24.1463 21.8649 24.2328 21.8625 24.3167C21.8625 24.5068 21.86 24.6945 21.8551 24.8846C21.8526 25.0254 21.7069 25.1538 21.5563 25.1513C21.3982 25.1488 21.2723 25.0303 21.2698 24.8723C21.2649 24.6624 21.2674 24.4501 21.2674 24.2402C21.26 24.0698 21.26 23.8945 21.26 23.7167Z" fill="#70708C"/>
<path d="M25.2972 24.3117C25.2947 24.7562 24.8799 25.1735 24.4354 25.1612C23.9267 25.1463 23.544 24.7908 23.5588 24.2229C23.5638 24.008 23.665 23.8253 23.8156 23.6747C23.9292 23.5611 24.065 23.4599 24.2255 23.4352C24.9416 23.324 25.2972 23.8599 25.2972 24.3117ZM24.4329 24.0105C24.2823 24.008 24.1465 24.1414 24.144 24.2895C24.1416 24.4401 24.27 24.571 24.4206 24.5685C24.5687 24.5685 24.7021 24.4377 24.7046 24.2895C24.707 24.1414 24.5811 24.0105 24.4329 24.0105Z" fill="#70708C"/>
<path d="M23.5441 22.8623C23.4157 22.8599 23.2873 22.8697 23.1589 22.8525C22.828 22.808 22.6058 22.6278 22.4749 22.3265C22.4255 22.2154 22.4057 22.0993 22.4057 21.9759C22.4082 21.8277 22.2625 21.7092 22.1168 21.7191C21.9144 21.7339 21.7119 21.7191 21.5119 21.7117C21.381 21.7067 21.2872 21.5956 21.265 21.4524C21.2452 21.3339 21.3143 21.2079 21.4255 21.1536C21.4674 21.1339 21.5143 21.1289 21.5563 21.1289C21.7884 21.1314 22.0205 21.1092 22.2527 21.1388C22.4378 21.1635 22.5934 21.2376 22.7317 21.3684C22.9119 21.5388 22.9811 21.7462 22.9984 21.9833C23.0082 22.1364 23.107 22.287 23.307 22.2747C23.4897 22.2648 23.6725 22.2648 23.8552 22.2747C23.9712 22.2821 24.0626 22.329 24.1145 22.4376C24.1614 22.5364 24.1614 22.6352 24.1021 22.7265C24.0404 22.8204 23.949 22.8599 23.8379 22.8599C23.7391 22.8623 23.6428 22.8623 23.5441 22.8623Z" fill="#70708C"/>
<path d="M19.5661 21.124C19.7044 21.1338 19.8303 21.1166 19.9538 21.1338C20.2377 21.1758 20.4501 21.324 20.5908 21.5734C20.6699 21.7141 20.7118 21.8623 20.702 22.0277C20.6921 22.1956 20.7069 22.3635 20.7069 22.5314C20.7069 22.6895 20.618 22.8154 20.4847 22.8524C20.297 22.9043 20.1143 22.7685 20.1118 22.5709C20.1093 22.3956 20.1143 22.2228 20.1143 22.0475C20.1143 21.9907 20.1118 21.9314 20.0847 21.8771C20.0279 21.766 19.934 21.7141 19.813 21.7141C19.6402 21.7141 19.4698 21.7215 19.297 21.7215C19.1389 21.7215 19.0204 21.64 18.976 21.5092C18.9142 21.324 19.0599 21.1314 19.2698 21.1264C19.3735 21.1215 19.4772 21.124 19.5661 21.124Z" fill="#70708C"/>
<path d="M18.9586 22.8648C18.8129 22.8574 18.6771 22.8673 18.5413 22.8524C18.403 22.8376 18.2845 22.7759 18.1734 22.6944C17.9265 22.5117 17.8129 22.2672 17.8154 21.9611C17.8178 21.7882 17.8104 21.6178 17.8129 21.445C17.8129 21.2993 17.9043 21.1709 18.0252 21.1363C18.2203 21.082 18.408 21.2252 18.4104 21.4351C18.4129 21.603 18.403 21.7709 18.403 21.9364C18.403 22.0623 18.4376 22.1685 18.5537 22.2376C18.5981 22.2648 18.645 22.2722 18.6944 22.2722C18.8401 22.2697 18.9858 22.2648 19.1315 22.2648C19.2129 22.2648 19.2944 22.2648 19.371 22.2993C19.4994 22.3537 19.5586 22.4524 19.5438 22.6031C19.534 22.7216 19.4376 22.8253 19.3142 22.85C19.1957 22.8747 19.0722 22.8574 18.9586 22.8648Z" fill="#70708C"/>
<path d="M22.9983 25.1612C22.9934 25.297 23.0057 25.4303 22.986 25.5661C22.9366 25.8772 22.7613 26.0921 22.4872 26.2279C22.3761 26.2847 22.2477 26.2995 22.1242 26.3044C21.9168 26.3118 21.7118 26.3118 21.5044 26.2945C21.3637 26.2822 21.2575 26.1538 21.2624 26.0081C21.2649 25.8501 21.3711 25.7241 21.5192 25.7217C21.7242 25.7192 21.9267 25.6994 22.1316 25.7143C22.2724 25.7241 22.3983 25.613 22.4008 25.4525C22.4032 25.2673 22.4205 25.0821 22.4057 24.8994C22.3983 24.813 22.423 24.7389 22.4798 24.6747C22.5637 24.5784 22.6946 24.5438 22.8131 24.5858C22.9193 24.6229 22.9958 24.7389 22.9958 24.8648C22.9983 24.9636 22.9983 25.0624 22.9983 25.1612Z" fill="#70708C"/>
<path d="M19.6945 19.119C19.6994 19.3609 19.5093 19.5733 19.2179 19.5609C19.0155 19.5535 18.813 19.3511 18.8229 19.1362C18.8327 18.8622 19.0031 18.6942 19.2772 18.6868C19.5044 18.6794 19.697 18.8868 19.6945 19.119Z" fill="#70708C"/>
<path d="M25.4355 19.1165C25.433 19.3955 25.2281 19.5634 24.9861 19.5659C24.754 19.5683 24.5441 19.3535 24.5589 19.1288C24.5737 18.8671 24.7515 18.677 25.0503 18.6868C25.2454 18.6942 25.4404 18.9115 25.4355 19.1165Z" fill="#70708C"/>
<path d="M19.2475 25.2995C19.0426 25.3044 18.8277 25.1069 18.8228 24.9118C18.8129 24.6105 19.008 24.4352 19.2673 24.4229C19.492 24.413 19.7093 24.6254 19.7019 24.8525C19.692 25.0994 19.5241 25.2995 19.2475 25.2995Z" fill="#70708C"/>
</svg>
