<svg width="13" height="16" viewBox="0 0 13 16" fill="none" xmlns="http://www.w3.org/2000/svg">
<path d="M7.26322 12.4485L12.643 7.15148C12.8716 6.92643 13 6.62121 13 6.30295L13 1.2C13 0.53725 12.4544 -2.3484e-08 11.7813 -5.24537e-08L6.59857 -2.75511e-07C6.27534 1.37477e-06 5.96534 0.126431 5.73679 0.351475L0.356971 5.64853C-0.118976 6.11713 -0.119002 6.87693 0.35697 7.34558L5.53965 12.4485C6.0156 12.9172 6.78727 12.9172 7.26322 12.4485ZM8.9375 2.8C8.9375 2.13725 9.48315 1.6 10.1563 1.6C10.8294 1.6 11.375 2.13725 11.375 2.8C11.375 3.46275 10.8294 4 10.1563 4C9.48315 4 8.9375 3.46275 8.9375 2.8ZM5.53965 15.6485L0.35697 10.5456C-0.118976 10.077 -0.118976 9.31715 0.35697 8.84853L0.366111 8.83953L4.78558 13.191C5.21719 13.616 5.79105 13.85 6.40144 13.85C7.01183 13.85 7.58568 13.616 8.01729 13.191L13 8.28493L13 9.50295C13 9.82121 12.8716 10.1264 12.643 10.3515L7.26322 15.6485C6.78727 16.1172 6.0156 16.1172 5.53965 15.6485Z" fill="#70708C"/>
</svg>
