<svg width="22" height="22" viewBox="0 0 22 22" fill="none" xmlns="http://www.w3.org/2000/svg">
<path d="M19.2752 0H2.60476C1.1685 0 0 1.1685 0 2.60476V19.2752C0 20.7115 1.1685 21.88 2.60476 21.88H19.2752C20.7115 21.88 21.88 20.7115 21.88 19.2752V2.60476C21.88 1.1685 20.7115 0 19.2752 0ZM17.1946 9.54541C17.0763 9.55635 16.9565 9.56364 16.8351 9.56364C15.4686 9.56364 14.2678 8.86088 13.5692 7.79866C13.5692 10.5852 13.5692 13.7557 13.5692 13.8089C13.5692 16.262 11.5802 18.251 9.12709 18.251C6.67392 18.251 4.68492 16.262 4.68492 13.8089C4.68492 11.3557 6.67392 9.36672 9.12709 9.36672C9.21982 9.36672 9.31046 9.37506 9.40163 9.38079V11.5698C9.31046 11.5589 9.22086 11.5422 9.12709 11.5422C7.87472 11.5422 6.8599 12.557 6.8599 13.8094C6.8599 15.0618 7.87472 16.0766 9.12709 16.0766C10.3795 16.0766 11.4854 15.0899 11.4854 13.8375C11.4854 13.788 11.5073 3.63 11.5073 3.63H13.5995C13.7964 5.50074 15.3066 6.97711 17.1946 7.11256V9.54541Z" fill="#70708C"/>
</svg>
