<svg width="22" height="22" viewBox="0 0 22 22" fill="none" xmlns="http://www.w3.org/2000/svg">
<g clip-path="url(#clip0_302_834)">
<path d="M6.1602 10.9305C6.04657 10.5145 5.90697 9.78924 5.90697 9.78924H5.89074C5.89074 9.78924 5.75114 10.5145 5.63751 10.9305L5.27714 12.2195H6.51407L6.1602 10.9305ZM21.2208 6.11111H12.1306V17.1111H21.2208C21.6526 17.1111 22 16.7433 22 16.2861V6.93611C22 6.47892 21.6526 6.11111 21.2208 6.11111ZM20.4417 10.2361C20.4417 10.463 20.2664 10.6486 20.0521 10.6486H19.682C19.458 11.4599 18.9775 12.278 18.2957 13.0514C18.5684 13.2714 18.8509 13.4811 19.1431 13.6702C19.3216 13.787 19.3801 14.0311 19.2762 14.227L19.0197 14.7049C18.9093 14.9077 18.6658 14.973 18.4775 14.8527C18.0685 14.5845 17.6821 14.2992 17.3283 13.9967C16.9744 14.2958 16.5913 14.5845 16.179 14.8527C15.9907 14.973 15.7472 14.9077 15.6368 14.7049L15.3803 14.227C15.2764 14.0345 15.3349 13.787 15.5167 13.6702C15.8186 13.4742 16.1011 13.268 16.364 13.0514C16.1076 12.7627 15.8803 12.467 15.6823 12.168C15.5524 11.972 15.6108 11.7005 15.8024 11.5802L16.0134 11.4461L16.2504 11.2983C16.4257 11.1883 16.653 11.2399 16.7699 11.4152C16.9322 11.6558 17.1205 11.8964 17.3347 12.1336C17.773 11.6455 18.1074 11.1402 18.3087 10.6486H14.5979C14.3837 10.6486 14.2083 10.463 14.2083 10.2361V9.68611C14.2083 9.45924 14.3837 9.27361 14.5979 9.27361H16.6757V8.72361C16.6757 8.49674 16.851 8.31111 17.0653 8.31111H17.5847C17.799 8.31111 17.9743 8.49674 17.9743 8.72361V9.27361H20.0521C20.2664 9.27361 20.4417 9.45924 20.4417 9.68611V10.2361ZM1.22223 6.93611V16.2861C1.22223 16.7433 1.56961 17.1111 2.0014 17.1111H11.0917V6.11111H2.0014C1.56961 6.11111 1.22223 6.47892 1.22223 6.93611ZM3.13443 14.3645L5.00119 8.55174C5.05638 8.3833 5.20247 8.2733 5.37129 8.2733H6.42641C6.59199 8.2733 6.74133 8.38674 6.79652 8.55174L8.66327 14.3645C8.74768 14.6327 8.56263 14.9111 8.29317 14.9111H7.54971C7.46569 14.911 7.38395 14.8822 7.31666 14.829C7.24938 14.7757 7.20017 14.7008 7.17636 14.6155L6.87119 13.5189H4.91678L4.62134 14.612C4.57265 14.7874 4.42006 14.9111 4.24799 14.9111H3.50454C3.23832 14.9111 3.05002 14.6327 3.13443 14.3645Z" fill="#70708C"/>
</g>
<defs>
<clipPath id="clip0_302_834">
<rect width="22" height="22" fill="white"/>
</clipPath>
</defs>
</svg>
