<svg width="45" height="32" viewBox="0 0 45 32" fill="none" xmlns="http://www.w3.org/2000/svg">
<path d="M37.8 13.9C38.0883 13.1357 38.25 12.3 38.25 11.4286C38.25 7.64286 35.2266 4.57143 31.5 4.57143C30.1148 4.57143 28.8211 5 27.7523 5.72857C25.8047 2.3 22.1695 0 18 0C11.7844 0 6.75 5.11429 6.75 11.4286C6.75 11.6214 6.75703 11.8143 6.76406 12.0071C2.82656 13.4143 0 17.2286 0 21.7143C0 27.3929 4.53516 32 10.125 32H36C40.9711 32 45 27.9071 45 22.8571C45 18.4357 41.9062 14.7429 37.8 13.9ZM27.6609 18.2857H23.0625V26.2857C23.0625 26.9143 22.5562 27.4286 21.9375 27.4286H18.5625C17.9438 27.4286 17.4375 26.9143 17.4375 26.2857V18.2857H12.8391C11.8336 18.2857 11.3344 17.0571 12.0445 16.3357L19.4555 8.80714C19.8914 8.36429 20.6086 8.36429 21.0445 8.80714L28.4555 16.3357C29.1656 17.0571 28.6594 18.2857 27.6609 18.2857Z" fill="#E53C1F"/>
</svg>
