<svg width="22" height="20" viewBox="0 0 22 20" fill="none" xmlns="http://www.w3.org/2000/svg">
<path d="M15.3771 3.24673L18.8222 6.77085C18.9674 6.91932 18.9674 7.16155 18.8222 7.31002L10.4806 15.8429L6.93611 16.2454C6.4625 16.3001 6.06146 15.8898 6.11493 15.4054L6.50833 11.7796L14.85 3.24673C14.9951 3.09826 15.2319 3.09826 15.3771 3.24673ZM21.5646 2.35202L19.7007 0.445399C19.1201 -0.148467 18.1767 -0.148467 17.5924 0.445399L16.2403 1.82848C16.0951 1.97695 16.0951 2.21918 16.2403 2.36765L19.6854 5.89178C19.8306 6.04024 20.0674 6.04024 20.2125 5.89178L21.5646 4.50869C22.1451 3.91092 22.1451 2.94589 21.5646 2.35202ZM14.6667 13.5222V17.4995H2.44444V4.99707H11.2215C11.3437 4.99707 11.4583 4.94628 11.5462 4.86032L13.074 3.29752C13.3642 3.00059 13.158 2.49658 12.7493 2.49658H1.83333C0.821181 2.49658 0 3.33659 0 4.37195V18.1246C0 19.16 0.821181 20 1.83333 20H15.2778C16.2899 20 17.1111 19.16 17.1111 18.1246V11.9594C17.1111 11.5413 16.6184 11.3342 16.3281 11.6273L14.8003 13.1901C14.7163 13.2799 14.6667 13.3971 14.6667 13.5222Z" fill="#E53C1F"/>
</svg>
