<svg width="20" height="20" viewBox="0 0 20 20" fill="none" xmlns="http://www.w3.org/2000/svg">
<path d="M18.8274 3.33527C16.9246 3.45097 13.1426 3.8721 10.8078 5.40334C10.6467 5.509 10.5554 5.69687 10.5554 5.8933V19.4301C10.5554 19.8597 10.9939 20.1313 11.3637 19.9319C13.7659 18.6365 17.2399 18.2831 18.9576 18.1864C19.5441 18.1533 20 17.6496 20 17.0458V4.47738C20.0003 3.81853 19.467 3.29658 18.8274 3.33527ZM9.19217 5.40334C6.85776 3.8721 3.07575 3.45134 1.17294 3.33527C0.533343 3.29658 0 3.81853 0 4.47738V17.0461C0 17.6503 0.455911 18.154 1.04238 18.1868C2.76081 18.2835 6.23657 18.6373 8.63869 19.9334C9.00745 20.1324 9.44461 19.8612 9.44461 19.4327V5.8866C9.44461 5.6898 9.35364 5.50937 9.19217 5.40334Z" fill="#E53C1F"/>
</svg>
