<svg width="17" height="13" viewBox="0 0 17 13" fill="none" xmlns="http://www.w3.org/2000/svg">
<path d="M11.05 8.66667H12.325C12.5375 8.66667 12.75 8.45 12.75 8.23333V3.68333C12.75 3.46667 12.5375 3.25 12.325 3.25H11.05C10.8375 3.25 10.625 3.46667 10.625 3.68333V8.23333C10.625 8.45 10.8375 8.66667 11.05 8.66667ZM14.2375 8.66667H15.5125C15.725 8.66667 15.9375 8.45 15.9375 8.23333V0.433333C15.9375 0.216667 15.725 0 15.5125 0H14.2375C14.025 0 13.8125 0.216667 13.8125 0.433333V8.23333C13.8125 8.45 14.025 8.66667 14.2375 8.66667ZM4.675 8.66667H5.95C6.1625 8.66667 6.375 8.45 6.375 8.23333V5.85C6.375 5.63333 6.1625 5.41667 5.95 5.41667H4.675C4.4625 5.41667 4.25 5.63333 4.25 5.85V8.23333C4.25 8.45 4.4625 8.66667 4.675 8.66667ZM7.8625 8.66667H9.1375C9.35 8.66667 9.5625 8.45 9.5625 8.23333V1.51667C9.5625 1.3 9.35 1.08333 9.1375 1.08333H7.8625C7.65 1.08333 7.4375 1.3 7.4375 1.51667V8.23333C7.4375 8.45 7.65 8.66667 7.8625 8.66667ZM16.4688 10.8333H2.125V0.541667C2.125 0.242396 1.88727 0 1.59375 0H0.53125C0.237734 0 0 0.242396 0 0.541667V11.9167C0 12.5149 0.475801 13 1.0625 13H16.4688C16.7623 13 17 12.7576 17 12.4583V11.375C17 11.0757 16.7623 10.8333 16.4688 10.8333Z" fill="#E53C1F"/>
</svg>
