<svg width="20" height="20" viewBox="0 0 20 20" fill="none" xmlns="http://www.w3.org/2000/svg">
<g clip-path="url(#clip0_951_2225)">
<path d="M19.4753 3.33355C19.7652 3.33355 20 3.08494 20 2.77799V1.66688C20 1.35994 19.7652 1.11133 19.4753 1.11133H1.63578C1.34588 1.11133 1.11108 1.35994 1.11108 1.66688V2.77799C1.11108 3.08494 1.34588 3.33355 1.63578 3.33355H2.15981V16.6669H1.63578C1.34588 16.6669 1.11108 16.9155 1.11108 17.2224V18.3336C1.11108 18.6405 1.34588 18.8891 1.63578 18.8891H9.50615V16.1113C9.50615 15.8058 9.74226 15.5558 10.0308 15.5558H11.0802C11.3688 15.5558 11.6049 15.8058 11.6049 16.1113V18.8891H19.4753C19.7652 18.8891 20 18.6405 20 18.3336V17.2224C20 16.9155 19.7652 16.6669 19.4753 16.6669H18.9506V3.33355H19.4753ZM9.50615 4.88911C9.50615 4.66688 9.71602 4.44466 9.9259 4.44466H11.1852C11.395 4.44466 11.6049 4.66688 11.6049 4.88911V6.22244C11.6049 6.44466 11.395 6.66688 11.1852 6.66688H9.9259C9.71602 6.66688 9.50615 6.44466 9.50615 6.22244V4.88911ZM9.50615 8.22244C9.50615 8.00022 9.71602 7.778 9.9259 7.778H11.1852C11.395 7.778 11.6049 8.00022 11.6049 8.22244V9.55577C11.6049 9.778 11.395 10.0002 11.1852 10.0002H9.9259C9.71602 10.0002 9.50615 9.778 9.50615 9.55577V8.22244ZM5.30861 4.88911C5.30861 4.66688 5.51849 4.44466 5.72837 4.44466H6.98763C7.1975 4.44466 7.40738 4.66688 7.40738 4.88911V6.22244C7.40738 6.44466 7.1975 6.66688 6.98763 6.66688H5.72837C5.51849 6.66688 5.30861 6.44466 5.30861 6.22244V4.88911ZM6.98763 10.0002H5.72837C5.51849 10.0002 5.30861 9.778 5.30861 9.55577V8.22244C5.30861 8.00022 5.51849 7.778 5.72837 7.778H6.98763C7.1975 7.778 7.40738 8.00022 7.40738 8.22244V9.55577C7.40738 9.778 7.1975 10.0002 6.98763 10.0002ZM7.40738 14.4447C7.40738 12.6037 8.81683 11.1113 10.5555 11.1113C12.2942 11.1113 13.7037 12.6037 13.7037 14.4447H7.40738ZM15.8024 9.55577C15.8024 9.778 15.5926 10.0002 15.3827 10.0002H14.1234C13.9136 10.0002 13.7037 9.778 13.7037 9.55577V8.22244C13.7037 8.00022 13.9136 7.778 14.1234 7.778H15.3827C15.5926 7.778 15.8024 8.00022 15.8024 8.22244V9.55577ZM15.8024 6.22244C15.8024 6.44466 15.5926 6.66688 15.3827 6.66688H14.1234C13.9136 6.66688 13.7037 6.44466 13.7037 6.22244V4.88911C13.7037 4.66688 13.9136 4.44466 14.1234 4.44466H15.3827C15.5926 4.44466 15.8024 4.66688 15.8024 4.88911V6.22244Z" fill="#E53C1F"/>
</g>
<defs>
<clipPath id="clip0_951_2225">
<rect width="20" height="20" fill="white"/>
</clipPath>
</defs>
</svg>
