<svg width="20" height="20" viewBox="0 0 20 20" fill="none" xmlns="http://www.w3.org/2000/svg">
<g clip-path="url(#clip0_302_830)">
<path d="M19.4753 3.33333C19.7652 3.33333 20 3.08472 20 2.77778V1.66667C20 1.35972 19.7652 1.11111 19.4753 1.11111H1.63578C1.34588 1.11111 1.11108 1.35972 1.11108 1.66667V2.77778C1.11108 3.08472 1.34588 3.33333 1.63578 3.33333H2.15981V16.6667H1.63578C1.34588 16.6667 1.11108 16.9153 1.11108 17.2222V18.3333C1.11108 18.6403 1.34588 18.8889 1.63578 18.8889H9.50615V16.1111C9.50615 15.8056 9.74226 15.5556 10.0308 15.5556H11.0802C11.3688 15.5556 11.6049 15.8056 11.6049 16.1111V18.8889H19.4753C19.7652 18.8889 20 18.6403 20 18.3333V17.2222C20 16.9153 19.7652 16.6667 19.4753 16.6667H18.9506V3.33333H19.4753ZM9.50615 4.88889C9.50615 4.66667 9.71602 4.44444 9.9259 4.44444H11.1852C11.395 4.44444 11.6049 4.66667 11.6049 4.88889V6.22222C11.6049 6.44444 11.395 6.66667 11.1852 6.66667H9.9259C9.71602 6.66667 9.50615 6.44444 9.50615 6.22222V4.88889ZM9.50615 8.22222C9.50615 8 9.71602 7.77778 9.9259 7.77778H11.1852C11.395 7.77778 11.6049 8 11.6049 8.22222V9.55556C11.6049 9.77778 11.395 10 11.1852 10H9.9259C9.71602 10 9.50615 9.77778 9.50615 9.55556V8.22222ZM5.30861 4.88889C5.30861 4.66667 5.51849 4.44444 5.72837 4.44444H6.98763C7.1975 4.44444 7.40738 4.66667 7.40738 4.88889V6.22222C7.40738 6.44444 7.1975 6.66667 6.98763 6.66667H5.72837C5.51849 6.66667 5.30861 6.44444 5.30861 6.22222V4.88889ZM6.98763 10H5.72837C5.51849 10 5.30861 9.77778 5.30861 9.55556V8.22222C5.30861 8 5.51849 7.77778 5.72837 7.77778H6.98763C7.1975 7.77778 7.40738 8 7.40738 8.22222V9.55556C7.40738 9.77778 7.1975 10 6.98763 10ZM7.40738 14.4444C7.40738 12.6035 8.81683 11.1111 10.5555 11.1111C12.2942 11.1111 13.7037 12.6035 13.7037 14.4444H7.40738ZM15.8024 9.55556C15.8024 9.77778 15.5926 10 15.3827 10H14.1234C13.9136 10 13.7037 9.77778 13.7037 9.55556V8.22222C13.7037 8 13.9136 7.77778 14.1234 7.77778H15.3827C15.5926 7.77778 15.8024 8 15.8024 8.22222V9.55556ZM15.8024 6.22222C15.8024 6.44444 15.5926 6.66667 15.3827 6.66667H14.1234C13.9136 6.66667 13.7037 6.44444 13.7037 6.22222V4.88889C13.7037 4.66667 13.9136 4.44444 14.1234 4.44444H15.3827C15.5926 4.44444 15.8024 4.66667 15.8024 4.88889V6.22222Z" fill="#70708C"/>
</g>
<defs>
<clipPath id="clip0_302_830">
<rect width="20" height="20" fill="white"/>
</clipPath>
</defs>
</svg>
