<svg width="22" height="22" viewBox="0 0 22 22" fill="none" xmlns="http://www.w3.org/2000/svg">
<circle cx="11" cy="11" r="10.75" stroke="#C0A30A" stroke-width="0.5"/>
<path d="M15.4375 5H7.5625C7.25184 5 7 5.27282 7 5.60938V6.01562C7 6.35218 7.25184 6.625 7.5625 6.625C7.5625 8.93466 8.75819 10.8839 10.3947 11.5C8.75819 12.1161 7.5625 14.0653 7.5625 16.375C7.25184 16.375 7 16.6478 7 16.9844V17.3906C7 17.7272 7.25184 18 7.5625 18H15.4375C15.7482 18 16 17.7272 16 17.3906V16.9844C16 16.6478 15.7482 16.375 15.4375 16.375C15.4375 14.0653 14.2418 12.1161 12.6053 11.5C14.2418 10.8839 15.4375 8.93466 15.4375 6.625C15.7482 6.625 16 6.35218 16 6.01562V5.60938C16 5.27282 15.7482 5 15.4375 5ZM13.6779 14.75H9.32219C9.72201 13.5618 10.5432 12.7188 11.5 12.7188C12.4567 12.7188 13.278 13.5616 13.6779 14.75ZM13.6783 8.25H9.32214C9.15597 7.7561 9.0625 7.20259 9.0625 6.625H13.9375C13.9375 7.20403 13.8441 7.75709 13.6783 8.25Z" fill="#C0A30A"/>
</svg>
