<svg width="28" height="28" viewBox="0 0 28 28" fill="none" xmlns="http://www.w3.org/2000/svg">
<circle cx="14" cy="14" r="13.5" fill="white" stroke="#E53C1F"/>
<path d="M15.1875 6V16.3125H12.5625V6H15.1875ZM13.875 18.375C14.3906 18.375 14.8281 18.5625 15.1875 18.9375C15.5625 19.2969 15.75 19.7344 15.75 20.25C15.75 20.7656 15.5625 21.2109 15.1875 21.5859C14.8281 21.9453 14.3906 22.125 13.875 22.125C13.3594 22.125 12.9141 21.9453 12.5391 21.5859C12.1797 21.2109 12 20.7656 12 20.25C12 19.7344 12.1797 19.2969 12.5391 18.9375C12.9141 18.5625 13.3594 18.375 13.875 18.375Z" fill="#E53C1F"/>
</svg>
