<svg width="11" height="11" viewBox="0 0 11 11" fill="none" xmlns="http://www.w3.org/2000/svg">
<circle cx="5.5" cy="5.5" r="5" fill="white" stroke="#70708C"/>
<path d="M5.96652 2.35693V6.40827H4.93527V2.35693H5.96652ZM5.45089 7.21854C5.65346 7.21854 5.82534 7.2922 5.96652 7.43952C6.11384 7.58071 6.1875 7.75258 6.1875 7.95515C6.1875 8.15771 6.11384 8.33266 5.96652 8.47998C5.82534 8.62116 5.65346 8.69175 5.45089 8.69175C5.24833 8.69175 5.07338 8.62116 4.92606 8.47998C4.78488 8.33266 4.71429 8.15771 4.71429 7.95515C4.71429 7.75258 4.78488 7.58071 4.92606 7.43952C5.07338 7.2922 5.24833 7.21854 5.45089 7.21854Z" fill="#70708C"/>
</svg>
